; Version : LOCAL
; Job     : C:\Mentor_proj\450\PCB\450.pcb
; User    : WINDOWS-XP:user
; Date    : Fri Dec 16 16:25:41 2022
; Format  : 3.3 / Absolute / MM / Leading
; Contents: Thru / Drill / Plated
M48
METRIC,TZ
FMAT,2
ICI,OFF
T05C0.2000
T03C0.3000
T04C0.4000
T06C0.5000
T01C0.7000
T02C0.8500
T07C2.7000
%
M71
G90
G93X0Y0
T05
X68600Y800
X68100Y450
X67200Y1100
X66700
Y1900
X53400Y1750
X48000Y1500
X46200Y600
X45700Y900
X44600Y1300
X43600Y2320
X42400Y2500
X41800
X38400Y1500
X9600
X7550Y2650
X8000Y4700
X24550Y3000
X28750
X29250
X29750
X42950
X43950Y2750
X44750Y3000
X45250
X45750
X48000Y3600
X54400Y3500
X55400Y5000
X60300Y4100
Y4600
X61000Y4100
Y4600
X61700Y4100
Y4600
X62800Y2700
X63900Y4100
Y4800
X64600Y4000
X65300
X79000Y4400
X80400
X80500Y7100
X65450Y7450
X61700Y5100
Y5600
Y6200
Y6800
Y7300
X61000Y5100
Y5600
Y6200
Y6800
Y7300
X60300Y5100
Y5600
Y6200
Y6800
Y7300
X57000Y7500
X56500
X56000
X46800Y7250
X45250Y6900
X43800Y6100
X43400Y5100
Y5750
X42000Y5450
X39100Y5400
X33500Y6750
X30750Y6550
Y7050
X30250Y6300
X28250Y5500
Y6150
X27750Y5100
X26300Y5400
X19180Y7150
X9600Y5750
X8100Y8400
Y9000
X9700Y9200
Y9700
X19550Y9000
X21600Y7710
Y9250
Y9750
X31350Y8500
Y9250
X33700Y8400
Y9000
Y9600
Y10100
X38100Y7750
Y8250
X46800Y7750
X47000Y8900
Y9400
X49700Y8250
Y9500
X50700Y8500
Y9000
Y9500
Y10000
X57000Y9600
X59400Y8700
X60300Y8000
Y8600
X61000Y8000
Y8600
Y9100
Y9600
Y10100
X61700Y8000
Y8600
X67800Y7750
X79000Y8400
X80700Y11700
X79000Y12400
X68250Y12600
X61000Y10600
Y11100
Y11600
Y12100
Y12600
X51000Y12500
X50100Y10200
X47000Y10750
Y11250
X46700Y12650
X37700Y10550
X31400Y12100
X31000Y12600
X30800Y11600
X30250Y10700
X27900Y11400
X21800Y12500
X21600Y11300
X19450Y11200
X15000Y12600
X7900Y11000
X6000Y11200
X10000Y13100
Y13700
Y14300
X24300Y14900
X26000Y13180
X27500Y13900
X33500Y13750
X37200Y14550
X38000Y13800
X43000Y13900
X43600Y13800
X43700Y14300
X43800Y14800
X48800Y15200
X49300
X50200Y14600
X52500Y14400
X54500
X65100Y13800
X65200Y14370
X62400Y17500
X58600Y16300
X58500Y17000
X55200Y15900
Y17100
X50200Y15900
X48000Y16100
X45000Y17100
X44500
X43900
X43000Y16950
X34100Y17100
X28750
X28250
X27750
X27250
X25500
X25000
X24500Y17200
X21150Y17600
X20700Y17300
X20200Y15300
X16300Y16700
X15800Y15600
Y16700
X15300Y16100
Y16700
Y17400
X14800Y16100
Y16750
Y17400
X14300Y16100
Y16750
Y17400
X13800Y16100
Y16750
Y17400
X13300Y16100
Y16750
Y17400
X12800Y16100
Y16750
Y17400
X12300Y16100
Y16750
Y17400
X11800Y16100
Y16750
Y17400
X11300Y16100
Y16700
Y17400
X10800Y16100
Y16750
Y17400
X15800Y18800
X21450Y18750
X22350Y18000
X22850
X25500Y18200
X55500Y19300
X62400Y18100
X70750Y18000
Y18750
Y19500
X71750Y18000
Y18750
Y19500
X65250Y22250
X60800Y21700
X60000Y21100
X59200Y22700
X55400Y21900
X54300Y20900
X52400Y21950
X52300Y21200
X45750Y21000
X45250
X44750
X40900
X40250
X39700
X38000Y21400
X33400Y22300
X18900Y20600
X16500Y20700
X14800Y20650
Y21150
X7200Y21600
X9700Y25000
X16800Y23200
X17500Y23000
X18200Y22900
X27400Y23100
X27800Y24000
Y24500
Y25000
X35500Y25300
X42250Y23450
X43750Y23200
X44250
X46250Y24350
X46700Y24650
X47400Y25250
X55100Y24000
X61200Y23500
X65200Y25400
X54600Y27600
X52800Y27800
X52600Y26900
X52400Y27400
X51800Y25600
X47400Y25750
X47300Y26650
Y27250
Y27750
X46750Y26150
X46300Y27800
X35500Y26200
Y26800
X33050Y25870
X31300Y27800
X30500
X29700
X28900
X28200
X26700Y26800
X8800Y27800
X22900Y28000
X23500Y28500
X24000
X24600
X25200
X26200
X26700
X26800Y29600
X27100Y28000
Y28800
X27700Y28000
X28200Y28500
Y29200
X28900Y28500
Y29200
X29700Y28500
Y29200
X30500Y28500
Y29200
X31300Y28500
Y29200
X37700Y28750
X41400Y30100
X47300Y28250
Y28750
Y29250
X50300Y28100
X54600
X55100Y29400
X70750Y30250
X71750
X76200Y29500
X71750Y31000
Y31750
X70750Y31000
Y31750
X55100Y31600
X54300Y30600
X54000Y32900
X52400
X50350Y31600
X47400Y31500
X46700Y30650
X44300
X43800Y30900
X43500Y31900
X43300Y30900
X42800Y31250
Y32700
X42750Y32200
X41400Y31300
X39250Y32300
X32000Y30600
X31500Y31900
Y32500
Y33000
X31200Y31400
X31000Y31900
X30700Y31400
X30500Y31900
X9600Y31000
X11000Y34200
Y34700
Y35200
X15600Y34800
X22150Y35050
X31500Y33500
X33400Y34550
X34900Y34200
X45250Y35000
X45750
X48300Y35400
X49350
X53600Y33700
X55100Y34100
X59200Y34950
X75100Y35000
X67500Y37800
X55800Y36400
X55300
X54800
X53850Y36650
X52100Y36850
X42300Y36300
X41750
X41250
X40750
X38450Y37600
X31100Y37800
X28800Y36750
X14950Y35900
X14400Y37800
X11500Y36100
X11000Y35700
Y36200
X10500Y36100
X10100Y35800
X9600
X10700Y38300
Y39000
Y39700
X11400Y38300
Y39000
Y39700
X12200Y38300
Y39000
Y39700
X13000Y38300
Y39000
Y39700
X13800Y38300
Y39000
Y39700
X14900Y40500
X15000Y38400
Y39000
X15600
X16200
X16800
X17300
X17800
X31100Y38600
X37700Y40200
X39350Y38900
X43250Y38400
X43750
X44250
X44750Y38450
X50200Y39100
X50400Y40100
X52200Y39600
X52600Y39100
X52900Y40100
X53400Y39000
X54200
X54400Y40000
X65200Y39400
X75450Y42400
X71750Y42500
X70750
X54500Y42350
X39800Y41500
X16100Y43100
X11500Y41900
X8950Y42200
X6670Y44870
X10800Y43450
X23250Y45000
X23750
X24250
X37800Y44300
X40000Y45600
X49800
X51800Y45100
X52200Y45700
X52400Y44900
X54200Y44800
X55050Y44450
X55200Y45100
X70750Y43250
Y44000
X71750Y43250
Y44000
X60800Y46300
X59300
Y47200
X55200Y46400
X22850Y47100
X22370Y47350
X18400Y48100
X11300Y47700
X7200Y47400
X7100Y48600
Y49800
X7600Y49400
X13200Y49900
X14000Y50600
X16100Y50000
X21750Y48350
X24750Y48400
X25000Y48900
X25200Y49700
X25950Y50000
X33350
X33900Y49500
X34100Y50000
X34900Y48600
X35100Y50400
X35400Y48900
X39750Y49000
X44750
X45250
X45750
X51000Y48400
Y48900
X51600Y48400
X52500Y48900
X52600Y48400
X55000Y48300
X55600
X55200Y52600
X54000Y51600
X53500
X53300Y52600
X53000Y51600
X49500Y52750
X47300Y51450
X47100Y53300
X46750Y52300
X46250
X44250Y51100
X43750
X35100Y51600
Y52200
X34900Y53200
X32800Y51700
X32550Y52200
X28100Y52250
X28000Y51250
Y51750
X25900Y52250
Y52750
Y53250
X25800Y51100
X24250Y51800
X3300Y52450
X2500Y50800
X1600Y55100
X2500
X13300Y55500
X13700Y55850
X13800Y54600
X13900Y54050
X20100Y55200
X20900Y53400
X22800Y55200
X25300Y53900
X25900Y54000
X29100Y55700
X29700
X31300Y55350
X31500Y55850
X34800Y55350
X34900Y53700
X41600Y53750
X43900Y55250
X47100Y53800
X47110Y54700
X49500
X50000Y54600
X50050Y55200
X52900Y54800
X54400Y55100
X55000
X55600
X63300Y54800
X70750Y54750
Y55500
X71750Y54750
Y55500
X71800Y57000
Y57600
Y58200
X71750Y56250
X70750
X70700Y57000
Y57600
Y58200
X53600Y57400
X53000
X52500
X50200
X50150Y58000
X49500Y56200
Y56800
X47400Y57700
X46700
X46250Y56250
X45250Y56500
X44700Y56600
X34100Y56900
X33600Y56100
Y56650
X32700Y58000
X31400
X14100Y56400
X3300Y56450
X1600Y60200
X1800Y59700
X1900Y58600
X3350Y60400
X21250Y59000
X21750
X22250
X22750
X23250
X23750
X27800Y59100
X34700Y60400
X43100Y59600
X43600
X44100Y59100
X46700Y58600
X47400
X49950Y60400
X50000Y59200
X52800Y58700
X55200Y58600
Y59900
X59200Y59450
X60700Y58550
X68900Y59950
X70700
X67500Y62300
X55300Y61600
X54500Y61100
X53500
X51900Y61700
X33600Y63150
X12900Y61500
X10100Y62800
X6000Y63200
X2000Y64750
X6000Y63750
Y64300
X11300Y65500
X25550Y65250
X33600Y64900
X41250Y65000
X44700
X45200
X45700
X75450Y67200
X71750Y67000
Y68500
X70750Y67000
Y67750
Y68500
X60000Y66900
X56800Y67700
X55100Y66500
X54400Y66900
X53000Y67000
X52100Y66800
X51300
X44250Y67200
X43750
X42250Y67450
X40700Y68100
X24750Y67100
X17600Y66700
X17100
X16600
X16100Y68000
X14900Y68500
X14300
X13700
X13100
X12500
X11800
X11200
X10600
X10000Y67700
Y68500
X9950Y66500
X9400Y67300
Y68000
X8900Y67300
Y68000
X8400Y67300
Y68000
X7900Y67300
Y68000
X7400Y67300
Y68000
X6900Y67300
Y68000
X6400Y67300
Y68000
X5900Y67300
Y68000
X950Y70500
X2000Y71100
X5900Y68700
X6400
X6600Y70900
X6900Y68700
X7400
X7900
X8400
X8900
X9400
X10100Y70050
X10670Y69900
X14400Y70150
X16100Y69800
X31800Y68900
X32100Y69400
X34600Y69100
X45750Y68750
X46250
X46800Y70200
X47300Y69700
Y70200
X49470Y70700
X50200Y69600
X51800Y70900
X52500Y69400
X53100
Y70200
X54400Y69700
X55200Y70900
X56500Y69600
X60000Y70600
X60500Y69400
X61500Y70600
X68900Y72200
X59200
X55200Y72300
X49500Y71250
Y72250
X49470Y71750
X47400Y71200
X47300Y72200
Y72750
Y73300
X43800Y71800
X43000Y71700
X37570Y72250
Y73500
X35000Y71800
X33400Y72600
X33000Y72200
Y73000
X30000Y72700
Y73200
X14300Y72000
X13700Y72100
X6300Y72500
X1200Y71400
X700Y71500
X30000Y73800
Y74500
Y75100
Y75800
X37800Y75250
X49600Y74300
X49700Y76000
X50900
X52200Y75400
X52750Y75350
X54600Y75800
X62400Y76300
Y77300
X55100Y78400
X54600Y76500
X53400Y76200
X52800
X49700Y78300
X48950
X48450Y78450
X45600Y76200
X43950Y76900
X38200Y78600
X37250Y76550
X36150Y76300
X35000Y77300
X34500
X34000
X31800Y76900
X31200Y77400
Y78000
Y78600
X30800Y76900
X30500Y77400
Y78000
Y78600
X30000Y76400
Y76900
X29800Y77400
Y78000
Y78600
Y79200
Y79800
Y80400
Y80900
X30500Y79200
Y79800
Y80400
Y80900
X31200Y79200
Y79800
Y80400
Y80900
X39000Y79500
X39500
X40000
X40500
X43000Y79000
X43500
X44000
X44500
X45000Y78950
X49850Y80250
X50050Y81250
X57200Y81200
X70750Y79250
Y80000
Y80750
X71750Y79250
Y80000
Y80750
X60600Y81600
X55200Y83100
X54500Y81800
X53600Y81400
X52800Y81300
X52400Y82300
X50400Y82500
X50300Y81900
X50200Y83100
X37000Y81600
Y82100
X33500Y82700
X33400Y81300
X28800Y83000
X24700Y83250
X22700Y82550
X20700Y83250
X18700Y82550
X16700Y83250
X14700Y82550
X15000Y86100
X17600Y85800
X18100
X20000Y84300
X22000Y85600
X31100Y84250
X35400Y84900
X55100Y84400
X59200Y83900
X67600Y84450
X70700
T03
X76150Y1850
X73650Y1750
X11800Y1900
X8250Y2900
X9700Y2750
X11800
X11850Y3650
X76150Y2750
X78600
X79750Y2600
Y6600
X78600Y6750
X76200
X76150Y5850
X72500Y6750
X46900Y6600
X42550Y7500
X35400Y6750
X32800Y5450
X26300Y7500
X24750Y5400
X23100
X19400Y6000
X17500Y5100
Y7500
X11800Y5800
Y6750
X9700
X8225Y6900
X11800Y9800
X11850Y7650
X17450Y10000
X59000Y8100
X76150Y9850
X79750Y10600
X78600Y10750
X76200
X72500
X17450Y12500
X11850Y11650
X11800Y10750
X9700
X8250Y12500
X21000Y14350
X27800Y14550
X28750Y14100
X44750
X47200Y15000
X73700Y15150
X76200Y17000
X50350
X38000Y16200
X36500
X32150
X21750
X15100Y18800
X19800Y19000
X20700Y19600
X59850Y17800
X62300Y18750
X56700Y20600
X35800Y22300
X12800Y20450
X11200Y21100
X7600Y21000
X8250Y24200
X9700Y24000
X11800Y23100
Y24000
Y24900
X16600Y25000
X31300Y24050
Y24950
X35450Y24600
X35800Y23150
X38250Y23950
X40000Y24200
X47300Y24650
X50400Y23400
X67400Y25550
X43000Y26000
X22700Y25450
X11800Y27050
X8250Y29800
X9700Y28000
X11800
Y28900
X16600Y29000
X51700Y29400
X60000Y29200
X62300Y31000
X55200Y32900
X47200Y32500
X37750Y32550
X35450Y31500
X20750Y32200
X16450Y32000
X11800Y31100
Y32000
Y32900
X9700Y32000
X8250Y32200
X25450Y33250
Y34200
X27800Y34250
X37750Y33450
X46500Y35100
X47250Y33500
X51700Y35400
X60000Y33300
X61500
X67500Y35450
X69200
X39250Y37200
X37800Y37250
X35700
X35650Y36350
X31700Y37250
X35650Y40350
X35700Y38200
X56700Y39100
X67300Y38750
X51780Y41700
X39250Y41100
X37800Y41250
X35700
Y42200
X31700Y41250
X12250Y42500
X8250Y42300
X31700Y45200
X35650Y44350
X35700Y45250
X37800
X39250Y45100
X56700
X62300Y43250
X70800Y47700
X69100
X49600Y47500
X26000Y46550
Y47450
X20750
X19250
X17650Y47750
X13200Y47200
X16300Y48500
X20900Y50500
X28200Y48750
X40750Y48900
X47270Y50550
X67500Y50050
X67400Y51000
X59300Y52900
X57400Y51370
X42250Y51450
X40750Y51200
X40000Y52200
X37900Y52700
X34300Y52750
X6300
X4200
X2750Y52900
X6300Y53650
X11100Y53700
X16270Y55500
X51100Y54700
X62500Y55500
X75500Y54800
X61500Y57800
X56600Y57400
X39200Y57900
X24250Y55900
X22300Y56800
X16600Y58200
X15500
X14770Y56550
X11100Y57700
X6300Y56750
Y57650
X4200Y56750
X2750Y56900
Y60900
X4200Y60750
X6300
X26750Y58800
X37700Y59250
X42200Y60800
X44750Y60000
X45750
X51800Y59900
X67400Y63250
X57600Y61700
X49000Y61450
X46800Y62000
X37250Y61450
X35750
X13000Y62200
X11100Y61700
X6300Y61650
X11000Y63500
X50400Y66400
X47500Y66550
Y67450
X40750
X39250Y67200
X3750Y71050
X7750Y71000
X35400
X47300Y68750
X70800Y72200
X50350Y72150
X41700Y73350
X10700Y73150
X15000Y76000
X19000
X23000
X25500Y76050
X34500Y75400
X43250Y75800
X56600Y75850
X51800Y78400
X49300Y76500
X40300Y76800
X37250Y77450
X23900Y77200
X19900
X15900
X14050Y79700
X18100
X22100
X27200Y79100
X27300Y80300
Y81100
X34950
X75500Y79300
X75600Y81400
X61500Y82300
X60000
X56600Y81850
X27300Y81900
X23000Y81800
X19000
X15000
X28700Y84750
X51700Y84400
T04
X14330Y2250
X15600Y2750
X19500Y5000
X32000Y3700
X35700Y5000
X40750Y2800
X69100Y3000
X70450Y4000
X73700Y3250
Y7250
X70450Y7600
X57800Y5750
X48900Y5400
X38250Y6000
X15600Y6750
X14330Y6250
X73700Y11250
X70400Y11700
X51000
X49900Y11100
Y12550
X15600Y10750
X14330Y10250
X12700Y13550
X26100Y14550
X56600Y14600
X59000Y13500
X62300Y15200
X69200Y13500
X73600
X76350Y13350
X31200Y16000
X75750Y22750
X74650
X71000Y21400
X68750Y21700
X47000
X24950Y21200
X23800
X22850
X14750Y24000
X17600Y24900
X22750Y24550
X71500Y25750
X69250
X57500Y26900
X33750Y25500
X27300Y26300
X14750Y28000
X17600Y28900
X22200Y29000
X58750Y29200
X29500Y33000
X14750Y32000
X13000Y34750
X15100Y34300
X18000Y33250
X65000Y34500
X75000Y36800
X69200Y38000
X33200Y37300
X29300Y36000
X21250Y36800
X22500Y38500
X23500
X29900Y40100
X58500Y40300
X61300
X65000Y42700
X33200Y41500
X15150Y43000
X14700Y41200
X29800Y44300
X33200Y45400
X58700Y43250
X14100Y47000
X7500Y45800
X58000Y49800
X69200Y50250
X71500
X49200Y51500
X35750Y51000
X9000Y52500
X12100Y53600
X16300Y54500
X62600Y54050
X25600Y57900
X13200Y57600
X12200
X9000Y56500
Y60500
X13300Y60800
X14500Y60700
X15700
X22000Y60950
X24000
X35300Y59750
X65100Y59000
X75750Y60400
X71500Y62500
X69200
X9000
X8000Y64800
X28200Y63600
X58488Y64280
X62500Y66300
X38400Y68100
X33200Y67200
X32600Y68400
X20700Y66250
X22000Y70550
X24000
X35300Y68950
X75750Y69600
Y72900
X67400Y71250
X50800Y73000
X49650Y72950
X23900Y73400
X19300Y72800
X15500
X44750Y75900
X50250Y73750
X58600Y76000
X67400Y74500
X79000Y73800
X83500
X60500Y78500
X47400Y77300
X32550Y76800
X34100Y79400
X62650Y78800
X62700Y80000
X76350Y83750
X73900Y82700
X67400Y83500
X66300Y81300
X33400Y83500
X26000Y82000
T06
X3100Y12400
X63700Y16650
X31200Y17950
X65000Y18500
X74000Y20050
X76800Y19200
X28050Y21200
X75000Y24500
X62200Y27500
X75750Y32500
X65000Y30500
X44750Y31950
X73900Y33800
X71300Y38000
X75150Y44850
X73900Y45900
X65000Y46750
X76550Y50100
X73900Y58200
X66200Y56900
X75000Y61500
X20700Y65200
X62500Y67750
X35800Y67000
X66200Y69200
X73900Y70400
X75000Y73500
X69200Y74750
X71400
T01
X6000Y12500
Y13770
Y15040
Y16310
Y17580
Y18850
Y20120
Y21390
Y22660
Y23930
Y25200
Y26470
Y27740
Y29010
Y30280
Y31550
Y32820
Y34090
Y35360
Y36630
Y37900
Y39170
Y40440
Y41710
Y42980
Y44250
Y45520
Y46790
Y48060
Y49330
T02
X79500Y14250
X81500
Y16250
X79500
Y18250
Y20250
X81500Y18250
Y20250
Y22250
X79500
Y24250
X81500
Y26250
X79500
Y28250
Y30250
X81500Y28250
Y30250
Y32250
X79500
Y34250
X81500
Y36250
X79500
Y38250
Y40250
X81500Y38250
Y40250
Y42250
X79500
Y44250
X81500
Y46250
Y48250
X79500Y46250
Y48250
Y50250
X81500
Y52250
X79500
Y54250
X81500
Y56250
Y58250
X79500Y56250
Y58250
Y60250
X81500
Y62250
X79500
Y64250
X81500
Y66250
Y68250
X79500Y66250
Y68250
Y70250
X81500
Y72250
X79500
T07
X2750Y2750
X83750
X43250Y43250
X83750Y83750
X2750
T00
M30
