*
G04 Job   : C:\Mentor_proj\450\PCB\450.pcb*
G04 User  : WINDOWS-XP:user*
G04 Layer : Layer2.gdo*
G04 Date  : Fri Dec 16 16:25:48 2022*
G04 Mentor Graphics Example Gerber Output Definition*
%ICAS*%
%MOIN*%
%FSLAX24Y24*%
%OFA0.0000B0.0000*%
G90*
G74*
%ADD14C,0.00787*%
%ADD18C,0.00984*%
%ADD12C,0.01220*%
%ADD13C,0.01575*%
%ADD15C,0.01969*%
%ADD17C,0.02362*%
%ADD11C,0.02559*%
%ADD16C,0.03937*%
%ADD19C,0.04331*%
%ADD10C,0.12205*%
G01*
G36*
X118Y157D02*
Y5098D01*
X2913Y5079*
X2953Y1220*
X2795*
Y157*
X118*
Y4803D02*
X472D01*
Y25984*
X118*
Y4803*
Y25827D02*
X3740D01*
Y26417*
X118*
Y25827*
Y26339D02*
X6142D01*
Y27323*
X118*
Y26339*
Y27244D02*
X709D01*
Y27559*
X118*
Y27244*
Y28307D02*
X1102D01*
Y32992*
X118*
Y28307*
Y29134D02*
X1102D01*
Y33228*
X118*
Y29134*
X433Y19685D02*
X787D01*
Y20315*
X433*
Y19685*
Y20236D02*
X1102D01*
Y21496*
X433*
Y20236*
Y23898D02*
X1102D01*
Y25866*
X433*
Y23898*
X472Y4449D02*
X2008D01*
Y19843*
X472*
Y4449*
Y21850D02*
X1142D01*
Y22913*
X472*
Y21850*
X591Y27165D02*
X1457D01*
Y27835*
X591*
Y27165*
X945Y22441D02*
X1732D01*
Y23583*
X945*
Y22441*
Y23543D02*
X1102D01*
Y23898*
X945*
Y23543*
Y23898D02*
X1181D01*
Y24173*
X945*
Y23898*
Y24094D02*
X2874D01*
Y25984*
X945*
Y24094*
X984Y20827D02*
X1772D01*
Y21496*
X984*
Y20827*
Y32913D02*
X5669D01*
Y33976*
X984*
Y32913*
X1024Y27362D02*
X2441D01*
Y28661*
X1024*
Y27362*
X1063Y20236D02*
X1614D01*
Y20472*
X1063*
Y20236*
Y29409D02*
X1850Y28622D01*
Y28150*
X669*
Y29409*
X1063*
X1142Y21417D02*
X1654D01*
Y22008*
X1142*
Y21417*
X1181Y157D02*
X16181D01*
Y433*
X1181*
Y157*
Y197D02*
X4331D01*
Y433*
X1181*
Y197*
Y19803D02*
X2598D01*
Y20276*
X1181*
Y19803*
X1260Y27283D02*
X3583D01*
Y27717*
X1260*
Y27283*
X1496Y20197D02*
X2874D01*
Y24291*
X1496*
Y20197*
X1890Y14803D02*
X2953D01*
Y15039*
X1890*
Y14803*
X1929Y9803D02*
X3268D01*
Y10039*
X1929*
Y9803*
Y17283D02*
X2913D01*
Y17480*
X1929*
Y17283*
X1969Y7323D02*
X2835D01*
Y7520*
X1969*
Y7323*
X2323Y28110D02*
X2795D01*
Y28268*
X2323*
Y28110*
X2362Y28189D02*
X5236D01*
Y28661*
X2362*
Y28189*
X2402Y19803D02*
X3248D01*
Y25157*
X2402*
Y19803*
X2677Y394D02*
X3386D01*
Y866*
X2677*
Y394*
Y4488D02*
X4055D01*
Y8346*
X2677*
Y4488*
X2717Y8661D02*
X3307D01*
Y12520*
X2717*
Y8661*
Y12480D02*
X4921D01*
Y16339*
X2717*
Y12480*
Y16299D02*
X3346D01*
Y17480*
X2717*
Y16299*
X2756Y10000D02*
X2992D01*
Y10591*
X2756*
Y10000*
Y11181D02*
X5000D01*
Y12047*
X2756*
Y11181*
X2795Y1181D02*
X3465D01*
Y1693*
X2795*
Y1181*
X2874Y3701D02*
X3622D01*
Y4154*
X2874*
Y3701*
Y24921D02*
X4803D01*
Y25236*
X2874*
Y24921*
X2913Y16850D02*
X4567D01*
Y17756*
X2913*
Y16850*
X2953Y2087D02*
X3583D01*
Y3071*
X2953*
Y2087*
X3071Y8150D02*
X4252D01*
Y9646*
X3071*
Y8150*
X3150Y787D02*
X3386D01*
Y1260*
X3150*
Y787*
Y18346D02*
X3425D01*
Y20354*
X3150*
Y18346*
Y20984D02*
X4094D01*
Y21949*
X3150*
Y20984*
X3189Y9606D02*
X3583D01*
Y10118*
X3189*
Y9606*
X3228Y10039D02*
X4449D01*
Y10748*
X3228*
Y10039*
Y20315D02*
X3898D01*
Y20354*
X3228*
Y20315*
Y22539D02*
X4134D01*
Y23524*
X3228*
Y22539*
Y24114D02*
X3937D01*
Y24311*
X3228*
Y24114*
X3268Y4134D02*
X4685D01*
Y8504*
X3268*
Y4134*
X3307Y18268D02*
X4213D01*
Y20354*
X3307*
Y18268*
Y27323D02*
X4055D01*
Y28268*
X3307*
Y27323*
X3327Y17008D02*
X5709D01*
Y18307*
X3327*
Y17008*
X3346Y394D02*
X3622D01*
Y3740*
X3346*
Y394*
X3386Y24921D02*
X4291D01*
Y26024*
X3386*
Y24921*
X3583Y4094D02*
X4646D01*
Y4213*
X3583*
Y4094*
X3622Y906D02*
X4055D01*
Y2008*
X3622*
Y906*
Y2480D02*
X4094D01*
Y3465*
X3622*
Y2480*
X3661Y10394D02*
X4449D01*
Y11260*
X3661*
Y10394*
X3740Y16260D02*
X4331D01*
Y16929*
X3740*
Y16260*
X3839Y19370D02*
X4528D01*
Y24528*
X3839*
Y19370*
X3937Y27677D02*
X5472D01*
Y28189*
X3937*
Y27677*
X4016Y394D02*
X4409D01*
Y4213*
X4016*
Y394*
Y2520D02*
X5276D01*
Y3661*
X4016*
Y2520*
Y9252D02*
X4921D01*
Y10118*
X4016*
Y9252*
X4055Y18189D02*
X5000D01*
Y18543*
X4055*
Y18189*
X4094Y19016D02*
X5709D01*
Y19409*
X4094*
Y19016*
Y25984D02*
X6102D01*
Y26378*
X4094*
Y25984*
X4134Y8819D02*
X4449D01*
Y9291*
X4134*
Y8819*
Y10827D02*
X5000D01*
Y11220*
X4134*
Y10827*
Y24409D02*
X10787D01*
Y25512*
X4134*
Y24409*
Y28543D02*
X5906D01*
Y28898*
X4134*
Y28543*
X4252Y28858D02*
X5472Y30079D01*
X5906*
Y28701*
X4252*
Y28858*
X4331Y984D02*
X5157D01*
Y2047*
X4331*
Y984*
X4370Y10039D02*
X5079D01*
Y10433*
X4370*
Y10039*
Y21378D02*
X5039D01*
Y22441*
X4370*
Y21378*
Y27283D02*
X5512D01*
Y27756*
X4370*
Y27283*
X4409Y8346D02*
X5118D01*
Y8898*
X4409*
Y8346*
X4449Y19803D02*
X5354D01*
Y20197*
X4449*
Y19803*
Y20118D02*
X5945D01*
Y20866*
X4449*
Y20118*
Y23543D02*
X4843D01*
Y24528*
X4449*
Y23543*
X4488Y5591D02*
X5984D01*
Y7756*
X4488*
Y5591*
X4528Y19331D02*
X5039D01*
Y19843*
X4528*
Y19331*
Y22913D02*
X5630D01*
Y23622*
X4528*
Y22913*
X4606Y4094D02*
X5354D01*
Y5000*
X4606*
Y4094*
Y25433D02*
X9803D01*
Y25787*
X4606*
Y25433*
Y25591D02*
X7835D01*
Y26102*
X4606*
Y25591*
X4646Y18504D02*
X5000D01*
Y18898*
X4646*
Y18504*
Y18799D02*
X5512D01*
Y19390*
X4646*
Y18799*
X4843Y8346D02*
X5512D01*
Y13346*
X4843*
Y8346*
X4882Y13937D02*
X5472D01*
Y16339*
X4882*
Y13937*
X4921Y433D02*
X5354D01*
Y4173*
X4921*
Y433*
X5000Y20787D02*
X5276D01*
Y21693*
X5000*
Y20787*
Y22126D02*
X5276D01*
Y22441*
X5000*
Y22126*
X5118Y16142D02*
X6654D01*
Y16732*
X5118*
Y16142*
Y16575D02*
X5709D01*
Y17126*
X5118*
Y16575*
Y31654D02*
X9921D01*
Y32362*
X5118*
Y31654*
Y32283D02*
X5630D01*
Y32992*
X5118*
Y32283*
X5236Y20787D02*
X5866D01*
Y21102*
X5236*
Y20787*
X5276Y24173D02*
X6535D01*
Y24488*
X5276*
Y24173*
X5315Y276D02*
X6220D01*
Y591*
X5315*
Y276*
Y1929D02*
X6024D01*
Y2165*
X5315*
Y1929*
Y2795D02*
X6181D01*
Y3740*
X5315*
Y2795*
Y7638D02*
X6260D01*
Y9134*
X5315*
Y7638*
X5354Y4331D02*
X5709D01*
Y5591*
X5354*
Y4331*
X5394Y5157D02*
X7717D01*
Y5945*
X5394*
Y5157*
Y13150D02*
X5709D01*
Y13976*
X5394*
Y13150*
Y15079D02*
X11457D01*
Y15787*
X5394*
Y15079*
Y15709D02*
X5709D01*
Y16220*
X5394*
Y15709*
Y19370D02*
X5866D01*
Y19764*
X5394*
Y19370*
Y22441D02*
X8189D01*
Y23622*
X5394*
Y22441*
X5413Y17283D02*
X6693D01*
Y19193*
X5413*
Y17283*
X5433Y11319D02*
X6614D01*
Y12283*
X5433*
Y11319*
Y12894D02*
X6969D01*
Y13189*
X5433*
Y12894*
Y13858D02*
X8071D01*
Y14724*
X5433*
Y13858*
Y27795D02*
X6732D01*
Y28110*
X5433*
Y27795*
Y29213D02*
X10472D01*
Y31102*
X5433*
Y29213*
X5472Y9764D02*
X6614D01*
Y10728*
X5472*
Y9764*
X5591Y32638D02*
X7677D01*
Y33622*
X5591*
Y32638*
X5630Y4331D02*
X7520D01*
Y4764*
X5630*
Y4331*
Y21417D02*
X6102D01*
Y22008*
X5630*
Y21417*
X5709Y19094D02*
X8071D01*
Y21142*
X5709*
Y19094*
Y20827D02*
X6102D01*
Y22008*
X5709*
Y20827*
Y28898D02*
X7953D01*
Y29291*
X5709*
Y28898*
X5748Y30906D02*
X6850D01*
Y31772*
X5748*
Y30906*
X5827Y28031D02*
X6457D01*
Y28425*
X5827*
Y28031*
Y28386D02*
X5906D01*
Y28622*
X5827*
Y28386*
X5866Y14646D02*
X8071D01*
Y15197*
X5866*
Y14646*
X5906Y27283D02*
X6142D01*
Y27913*
X5906*
Y27283*
X5945Y354D02*
X6614D01*
Y4764*
X5945*
Y354*
Y6378D02*
X6693D01*
Y7205*
X5945*
Y6378*
Y32244D02*
X7165D01*
Y32677*
X5945*
Y32244*
X6024Y21693D02*
X6181D01*
Y22480*
X6024*
Y21693*
X6063Y15728D02*
X8110D01*
Y16713*
X6063*
Y15728*
Y25984D02*
X6378D01*
Y26575*
X6063*
Y25984*
Y27008D02*
X6693D01*
Y27323*
X6063*
Y27008*
X6102Y4685D02*
X6693D01*
Y5276*
X6102*
Y4685*
Y8898D02*
X6417D01*
Y9370*
X6102*
Y8898*
Y9331D02*
X6614D01*
Y11378*
X6102*
Y9331*
Y22047D02*
X7008D01*
Y22323*
X6102*
Y22047*
Y27717D02*
X6575D01*
Y27913*
X6102*
Y27717*
Y33504D02*
X6732D01*
Y33976*
X6102*
Y33504*
X6142Y11654D02*
X7087D01*
Y12362*
X6142*
Y11654*
Y22283D02*
X6654D01*
Y22480*
X6142*
Y22283*
X6181Y7638D02*
X6850D01*
Y7953*
X6181*
Y7638*
Y8307D02*
X6732D01*
Y8937*
X6181*
Y8307*
X6220Y12992D02*
X6693D01*
Y13465*
X6220*
Y12992*
X6339Y4134D02*
X7520D01*
Y4409*
X6339*
Y4134*
Y26417D02*
X6614D01*
Y26575*
X6339*
Y26417*
Y27717D02*
X7323D01*
Y28937*
X6339*
Y27717*
X6417Y5748D02*
X7559D01*
Y7953*
X6417*
Y5748*
Y9291D02*
X7362D01*
Y9488*
X6417*
Y9291*
Y23425D02*
X13465D01*
Y24724*
X6417*
Y23425*
X6496Y2205D02*
X7283D01*
Y2756*
X6496*
Y2205*
Y12913D02*
X9764D01*
Y14173*
X6496*
Y12913*
X6535Y276D02*
X8307D01*
Y1811*
X6535*
Y276*
Y16339D02*
X8858D01*
Y18504*
X6535*
Y16339*
Y26417D02*
X10551D01*
Y27283*
X6535*
Y26417*
X6575Y3150D02*
X8031D01*
Y3740*
X6575*
Y3150*
Y10039D02*
X7520D01*
Y11063*
X6575*
Y10039*
X6614Y18189D02*
X7677D01*
Y18543*
X6614*
Y18189*
Y21772D02*
X6890D01*
Y22480*
X6614*
Y21772*
Y27165D02*
X10591D01*
Y28386*
X6614*
Y27165*
X6693Y5748D02*
X7205D01*
Y8780*
X6693*
Y5748*
X6732Y21102D02*
X8071D01*
Y21811*
X6732*
Y21102*
X6772Y11654D02*
X9764D01*
Y13071*
X6772*
Y11654*
X6791Y21181D02*
X9350D01*
Y23031*
X6791*
Y21181*
X7028Y3661D02*
X8268D01*
Y4173*
X7028*
Y3661*
X7047Y4567D02*
X8189D01*
Y5197*
X7047*
Y4567*
X7087Y8268D02*
X8701D01*
Y8780*
X7087*
Y8268*
Y25945D02*
X7835D01*
Y26535*
X7087*
Y25945*
X7126Y1732D02*
X7972D01*
Y2618*
X7126*
Y1732*
Y2520D02*
X7362D01*
Y3031*
X7126*
Y2520*
Y2992D02*
X8031D01*
Y3268*
X7126*
Y2992*
Y7677D02*
X7913D01*
Y8307*
X7126*
Y7677*
X7205Y9252D02*
X8740D01*
Y11299*
X7205*
Y9252*
Y11220D02*
X9606D01*
Y11772*
X7205*
Y11220*
X7283Y33386D02*
X8504D01*
Y33976*
X7283*
Y33386*
X7323Y5787D02*
X7717D01*
Y6299*
X7323*
Y5787*
X7382Y17913D02*
X8366D01*
Y20827*
X7382*
Y17913*
X7402Y30984D02*
X8386D01*
Y31772*
X7402*
Y30984*
X7441Y8661D02*
X10197D01*
Y9803*
X7441*
Y8661*
X7480Y6220D02*
X7953D01*
Y7244*
X7480*
Y6220*
X7559Y32244D02*
X8740D01*
Y32677*
X7559*
Y32244*
X7638Y5157D02*
X8031D01*
Y5827*
X7638*
Y5157*
X7677Y7953D02*
X8701D01*
Y8307*
X7677*
Y7953*
Y32638D02*
X10079D01*
Y32992*
X7677*
Y32638*
X7756Y2520D02*
X7992D01*
Y3031*
X7756*
Y2520*
X7835Y4016D02*
X7992D01*
Y4606*
X7835*
Y4016*
X7874Y6220D02*
X9646D01*
Y6614*
X7874*
Y6220*
Y27165D02*
X9094D01*
Y29252*
X7874*
Y27165*
X7913Y295D02*
X8268D01*
Y5472*
X7913*
Y295*
Y7008D02*
X8189D01*
Y7244*
X7913*
Y7008*
X7972Y295D02*
X9449D01*
Y1772*
X7972*
Y295*
X7992Y7047D02*
X8228D01*
Y7480*
X7992*
Y7047*
Y14803D02*
X12047D01*
Y15551*
X7992*
Y14803*
X8071Y15709D02*
X11457D01*
Y17520*
X8071*
Y15709*
Y32835D02*
X11102D01*
Y33543*
X8071*
Y32835*
X8110Y5866D02*
X8661D01*
Y6614*
X8110*
Y5866*
X8189Y1378D02*
X8858D01*
Y2874*
X8189*
Y1378*
X8228Y3189D02*
X8858D01*
Y3465*
X8228*
Y3189*
Y3976D02*
X8937D01*
Y4291*
X8228*
Y3976*
Y4646D02*
X8819D01*
Y5472*
X8228*
Y4646*
D02*
X8425D01*
Y5157*
X8228*
Y4646*
X8307Y18425D02*
X8661D01*
Y18858*
X8307*
Y18425*
X8366Y19193D02*
X8780D01*
Y21457*
X8366*
Y19193*
X8386Y7559D02*
X9252D01*
Y8110*
X8386*
Y7559*
X8465Y25472D02*
X9882D01*
Y26535*
X8465*
Y25472*
X8504Y6063D02*
X10531D01*
Y6575*
X8504*
Y6063*
X8543Y5315D02*
X9370D01*
Y6220*
X8543*
Y5315*
Y6496D02*
X9449D01*
Y6929*
X8543*
Y6496*
X8563Y20866D02*
X9744D01*
Y21850*
X8563*
Y20866*
X8661Y4252D02*
X8937D01*
Y4685*
X8661*
Y4252*
Y10236D02*
X10315D01*
Y10787*
X8661*
Y10236*
Y13386D02*
X10354D01*
Y14862*
X8661*
Y13386*
Y19213D02*
X9685D01*
Y20197*
X8661*
Y19213*
Y20079D02*
X9370D01*
Y20906*
X8661*
Y20079*
X8701Y7283D02*
X9213D01*
Y7598*
X8701*
Y7283*
X8740Y18898D02*
X10531D01*
Y19094*
X8740*
Y18898*
Y19016D02*
X9685D01*
Y19213*
X8740*
Y19016*
X8760Y2283D02*
X10472D01*
Y5669*
X8760*
Y2283*
X8780Y17874D02*
X9213D01*
Y18386*
X8780*
Y17874*
X8819Y33504D02*
X11102D01*
Y33622*
X8819*
Y33504*
Y33583D02*
X33031D01*
Y33976*
X8819*
Y33583*
X8858Y1378D02*
X9547D01*
Y1969*
X8858*
Y1378*
X8976Y18701D02*
X9173D01*
Y18937*
X8976*
Y18701*
X9016Y28268D02*
X9921D01*
Y28583*
X9016*
Y28268*
Y30906D02*
X10472D01*
Y31929*
X9016*
Y30906*
X9055Y295D02*
X10079D01*
Y984*
X9055*
Y295*
X9134Y6929D02*
X9882D01*
Y8110*
X9134*
Y6929*
Y32283D02*
X9921D01*
Y32717*
X9134*
Y32283*
X9154Y17874D02*
X9961D01*
Y18898*
X9154*
Y17874*
Y22244D02*
X9843D01*
Y23031*
X9154*
Y22244*
X9213Y9291D02*
X11811D01*
Y10354*
X9213*
Y9291*
Y10748D02*
X10866D01*
Y11457*
X9213*
Y10748*
X9291Y1378D02*
X10728D01*
Y5039*
X9291*
Y1378*
X9350Y20571D02*
X9941D01*
Y21063*
X9350*
Y20571*
X9528Y23031D02*
X10709D01*
Y23465*
X9528*
Y23031*
X9567Y11378D02*
X10276D01*
Y12835*
X9567*
Y11378*
Y19488D02*
X9764D01*
Y20197*
X9567*
Y19488*
X9646Y2165D02*
X10925D01*
Y2756*
X9646*
Y2165*
Y21457D02*
X10039D01*
Y21850*
X9646*
Y21457*
Y25906D02*
X10906D01*
Y26614*
X9646*
Y25906*
X9724Y17480D02*
X10512D01*
Y18465*
X9724*
Y17480*
Y19882D02*
X10000D01*
Y21063*
X9724*
Y19882*
X9764Y28150D02*
X10630D01*
Y29331*
X9764*
Y28150*
X9803Y5551D02*
X10472D01*
Y6063*
X9803*
Y5551*
Y6004D02*
Y6299D01*
X9528*
Y6594*
X12008*
Y6004*
X9803*
X9843Y7362D02*
X11575D01*
Y8110*
X9843*
Y7362*
Y21457D02*
X10827D01*
Y22539*
X9843*
Y21457*
Y32598D02*
X10551D01*
Y33976*
X9843*
Y32598*
X9941Y295D02*
X11102D01*
Y1870*
X9941*
Y295*
X9961Y20276D02*
X10472D01*
Y20394*
X9961*
Y20276*
X10039Y18996D02*
X10433D01*
Y19409*
X10039*
Y18996*
X10079Y7874D02*
X10551D01*
Y10354*
X10079*
Y7874*
X10217Y2638D02*
X11378D01*
Y4291*
X10217*
Y2638*
X10236Y6063D02*
X10551D01*
Y8307*
X10236*
Y6063*
X10276Y11850D02*
X11220D01*
Y14882*
X10276*
Y11850*
Y25472D02*
X10630D01*
Y25984*
X10276*
Y25472*
X10354Y19961D02*
X10472D01*
Y20787*
X10354*
Y19961*
Y20787D02*
X11319D01*
Y23031*
X10354*
Y20787*
X10394Y17323D02*
X10827D01*
Y20866*
X10394*
Y17323*
Y31457D02*
X10709D01*
Y31929*
X10394*
Y31457*
X10433Y4724D02*
X11220D01*
Y5315*
X10433*
Y4724*
Y5315D02*
X10669D01*
Y6201*
X10433*
Y5315*
Y6890D02*
X11614D01*
Y7402*
X10433*
Y6890*
Y28504D02*
X11181D01*
Y30906*
X10433*
Y28504*
X10472Y8071D02*
X10787D01*
Y8780*
X10472*
Y8071*
X10512Y8661D02*
X11142D01*
Y8858*
X10512*
Y8661*
Y25354D02*
X11181D01*
Y28622*
X10512*
Y25354*
X10531Y31457D02*
X11181D01*
Y33110*
X10531*
Y31457*
X10728Y295D02*
X12126D01*
Y1024*
X10728*
Y295*
X10748Y10157D02*
X12835D01*
Y10787*
X10748*
Y10157*
Y10748D02*
X14469D01*
Y11850*
X10748*
Y10748*
Y17165D02*
X11457D01*
Y17795*
X10748*
Y17165*
Y25315D02*
X12106D01*
Y26378*
X10748*
Y25315*
X10787Y11260D02*
X11220D01*
Y11929*
X10787*
Y11260*
Y17717D02*
X12283D01*
Y20039*
X10787*
Y17717*
X10827Y1378D02*
X12303D01*
Y1870*
X10827*
Y1378*
X10945Y28622D02*
X11299D01*
Y31535*
X10945*
Y28622*
X11024Y5315D02*
X11614D01*
Y5512*
X11024*
Y5315*
X11063Y8661D02*
X11693D01*
Y9331*
X11063*
Y8661*
X11102Y14409D02*
X12047D01*
Y14882*
X11102*
Y14409*
X11122Y22087D02*
X11909D01*
Y23110*
X11122*
Y22087*
Y23031D02*
X13583D01*
Y23524*
X11122*
Y23031*
X11142Y13189D02*
X12244D01*
Y13937*
X11142*
Y13189*
Y26142D02*
X12323D01*
Y32520*
X11142*
Y26142*
X11181Y2657D02*
X11909D01*
Y6102*
X11181*
Y2657*
Y11693D02*
X12441D01*
Y12756*
X11181*
Y11693*
X11220Y19980D02*
X12638D01*
Y20866*
X11220*
Y19980*
Y21457D02*
X12008D01*
Y21752*
X11220*
Y21457*
X11299Y8031D02*
X11654D01*
Y8701*
X11299*
Y8031*
X11319Y1378D02*
X11969D01*
Y4429*
X11319*
Y1378*
Y20709D02*
X13583D01*
Y21614*
X11319*
Y20709*
X11398Y24724D02*
X13071D01*
Y25335*
X11398*
Y24724*
X11417Y16024D02*
X12362D01*
Y17205*
X11417*
Y16024*
X11516Y295D02*
X12106D01*
Y492*
X11516*
Y295*
Y6496D02*
X12008D01*
Y12756*
X11516*
Y6496*
X11535Y30472D02*
X12598D01*
Y33937*
X11535*
Y30472*
X11811Y6594D02*
X12795D01*
Y6791*
X11811*
Y6594*
X11850Y20768D02*
X12165D01*
Y23031*
X11850*
Y20768*
X11890Y295D02*
X12362D01*
Y1772*
X11890*
Y295*
Y1693D02*
X13583D01*
Y2402*
X11890*
Y1693*
Y12244D02*
X12953D01*
Y14370*
X11890*
Y12244*
Y14291D02*
X12480D01*
Y14646*
X11890*
Y14291*
X11909Y3819D02*
X12598D01*
Y4429*
X11909*
Y3819*
Y5118D02*
X12697D01*
Y6102*
X11909*
Y5118*
X11929Y3031D02*
X12165D01*
Y3858*
X11929*
Y3031*
Y7323D02*
X12717D01*
Y9567*
X11929*
Y7323*
X11969Y9488D02*
X12126D01*
Y10236*
X11969*
Y9488*
X12008Y25295D02*
X13071D01*
Y26142*
X12008*
Y25295*
X12047Y15354D02*
X12756D01*
Y20197*
X12047*
Y15354*
X12087Y10079D02*
X12638D01*
Y10236*
X12087*
Y10079*
Y22165D02*
X13031D01*
Y22598*
X12087*
Y22165*
X12244Y315D02*
X13622D01*
Y1102*
X12244*
Y315*
Y28937D02*
X13386D01*
Y30079*
X12244*
Y28937*
X12283Y2402D02*
X12559D01*
Y3110*
X12283*
Y2402*
Y26024D02*
X12520D01*
Y26929*
X12283*
Y26024*
Y27480D02*
X12795D01*
Y28937*
X12283*
Y27480*
X12303Y984D02*
X16043D01*
Y1181*
X12303*
Y984*
X12402Y14331D02*
X12756D01*
Y15433*
X12402*
Y14331*
X12441Y30472D02*
X12992D01*
Y32244*
X12441*
Y30472*
Y32165D02*
X13031D01*
Y32795*
X12441*
Y32165*
X12500Y2362D02*
X12992D01*
Y5413*
X12500*
Y2362*
X12520Y25984D02*
X12756D01*
Y26614*
X12520*
Y25984*
Y32717D02*
X13780D01*
Y33622*
X12520*
Y32717*
X12598Y5315D02*
X12992D01*
Y10039*
X12598*
Y5315*
Y10000D02*
X12835D01*
Y10236*
X12598*
Y10000*
Y18189D02*
X13937D01*
Y18957*
X12598*
Y18189*
Y20118D02*
X12717D01*
Y20354*
X12598*
Y20118*
Y21575D02*
X13031D01*
Y22205*
X12598*
Y21575*
X12717Y15000D02*
X13858D01*
Y16024*
X12717*
Y15000*
Y16654D02*
X13819D01*
Y17559*
X12717*
Y16654*
Y18898D02*
X12953D01*
Y19882*
X12717*
Y18898*
Y29449D02*
X14055D01*
Y30630*
X12717*
Y29449*
X12756Y13819D02*
X14134D01*
Y14370*
X12756*
Y13819*
Y27480D02*
X13346D01*
Y28268*
X12756*
Y27480*
X12795Y10394D02*
X13740D01*
Y13268*
X12795*
Y10394*
Y11811D02*
X14665D01*
Y12205*
X12795*
Y11811*
Y19843D02*
X13189D01*
Y20197*
X12795*
Y19843*
X12835Y27244D02*
X13465D01*
Y27520*
X12835*
Y27244*
X12874Y6004D02*
X18406D01*
Y6496*
X12874*
Y6004*
X12894Y1181D02*
X13681D01*
Y1969*
X12894*
Y1181*
Y4173D02*
X15472D01*
Y4823*
X12894*
Y4173*
Y4685D02*
X15472D01*
Y5276*
X12894*
Y4685*
Y6890D02*
X14094D01*
Y8543*
X12894*
Y6890*
X12913Y2362D02*
X13701D01*
Y3110*
X12913*
Y2362*
Y6457D02*
X13268D01*
Y6929*
X12913*
Y6457*
Y13189D02*
X13504D01*
Y13425*
X12913*
Y13189*
Y18898D02*
X13150D01*
Y19528*
X12913*
Y18898*
Y30551D02*
X13110D01*
Y31575*
X12913*
Y30551*
X12953Y9016D02*
X13780D01*
Y10039*
X12953*
Y9016*
Y31575D02*
X13740D01*
Y31850*
X12953*
Y31575*
X12992Y5591D02*
X14469D01*
Y6102*
X12992*
Y5591*
Y21575D02*
X13386D01*
Y21890*
X12992*
Y21575*
Y32165D02*
X13425D01*
Y32402*
X12992*
Y32165*
X13031Y22559D02*
X14370D01*
Y23228*
X13031*
Y22559*
Y25039D02*
X13622D01*
Y25394*
X13031*
Y25039*
Y25709D02*
X13780D01*
Y26142*
X13031*
Y25709*
X13110Y19843D02*
X13661D01*
Y20787*
X13110*
Y19843*
Y30276D02*
X14843D01*
Y30945*
X13110*
Y30276*
X13150Y18937D02*
X13583D01*
Y19331*
X13150*
Y18937*
Y26772D02*
X13465D01*
Y27362*
X13150*
Y26772*
X13189Y5610D02*
X13780D01*
Y5807*
X13189*
Y5610*
Y9016D02*
X13780D01*
Y10866*
X13189*
Y9016*
Y27402D02*
X13622D01*
Y28425*
X13189*
Y27402*
Y28740D02*
X14016D01*
Y29528*
X13189*
Y28740*
X13268Y6457D02*
X13661D01*
Y6575*
X13268*
Y6457*
X13307Y8504D02*
X13898D01*
Y9134*
X13307*
Y8504*
X13346Y28425D02*
X13976D01*
Y28780*
X13346*
Y28425*
Y29685D02*
X13819D01*
Y30512*
X13346*
Y29685*
Y31575D02*
X14370D01*
Y33268*
X13346*
Y31575*
X13386Y2283D02*
X13780D01*
Y2913*
X13386*
Y2283*
Y14252D02*
X13858D01*
Y15433*
X13386*
Y14252*
Y21535D02*
X13543D01*
Y22205*
X13386*
Y21535*
Y24331D02*
X14724D01*
Y27008*
X13386*
Y24331*
X13425Y13622D02*
X13937D01*
Y13898*
X13425*
Y13622*
Y15433D02*
X13858D01*
Y18228*
X13425*
Y15433*
Y16850D02*
X14685D01*
Y18228*
X13425*
Y16850*
Y24016D02*
X14291D01*
Y24764*
X13425*
Y24016*
X13465Y295D02*
X14803D01*
Y4016*
X13465*
Y295*
Y3937D02*
X14488D01*
Y6378*
X13465*
Y3937*
X13504Y22008D02*
X13701D01*
Y22205*
X13504*
Y22008*
X13543Y20709D02*
X14173D01*
Y20787*
X13543*
Y20709*
X13583Y22008D02*
X14055D01*
Y22598*
X13583*
Y22008*
Y27402D02*
X14173D01*
Y28110*
X13583*
Y27402*
X13622Y6378D02*
X15236D01*
Y7087*
X13622*
Y6378*
Y19409D02*
X14134D01*
Y19685*
X13622*
Y19409*
Y20000D02*
X14134D01*
Y20157*
X13622*
Y20000*
X13701Y12717D02*
X14646D01*
Y13268*
X13701*
Y12717*
X13740Y30866D02*
X14843D01*
Y31535*
X13740*
Y30866*
Y31142D02*
X15157D01*
Y31929*
X13740*
Y31142*
X13780Y8976D02*
X14843D01*
Y9803*
X13780*
Y8976*
Y14409D02*
X14331D01*
Y14803*
X13780*
Y14409*
X13819Y15315D02*
X14646D01*
Y16378*
X13819*
Y15315*
Y26929D02*
X14252D01*
Y28071*
X13819*
Y26929*
X13858Y23819D02*
X14331D01*
Y24055*
X13858*
Y23819*
X13898Y13031D02*
X14961D01*
Y14803*
X13898*
Y13031*
Y18189D02*
X18543D01*
Y19094*
X13898*
Y18189*
X13937Y26969D02*
X14724D01*
Y29882*
X13937*
Y26969*
X13976Y19390D02*
X14665D01*
Y23228*
X13976*
Y19390*
X14055Y6969D02*
X14724D01*
Y8543*
X14055*
Y6969*
X14094Y18307D02*
X15453D01*
Y20472*
X14094*
Y18307*
Y32874D02*
X21535D01*
Y33937*
X14094*
Y32874*
Y33386D02*
X33031D01*
Y33937*
X14094*
Y33386*
X14134Y9646D02*
X15610D01*
Y12559*
X14134*
Y9646*
Y12520D02*
X14646D01*
Y12756*
X14134*
Y12520*
X14213Y23031D02*
X14665D01*
Y24114*
X14213*
Y23031*
Y23622D02*
X17815D01*
Y24803*
X14213*
Y23622*
Y24724D02*
X14803D01*
Y27441*
X14213*
Y24724*
X14252Y32520D02*
X14843D01*
Y32756*
X14252*
Y32520*
X14291Y14724D02*
X14961D01*
Y15394*
X14291*
Y14724*
Y16063D02*
X15512D01*
Y17244*
X14291*
Y16063*
X14331Y3425D02*
X15472D01*
Y4331*
X14331*
Y3425*
Y32677D02*
X14803D01*
Y32913*
X14331*
Y32677*
X14370Y8504D02*
X14724D01*
Y8661*
X14370*
Y8504*
Y8622D02*
X15354D01*
Y9252*
X14370*
Y8622*
X14449Y17638D02*
X15551D01*
Y18228*
X14449*
Y17638*
Y29764D02*
X17638D01*
Y30000*
X14449*
Y29764*
X14469Y748D02*
X15276D01*
Y2067*
X14469*
Y748*
X14488Y5157D02*
X14764D01*
Y5551*
X14488*
Y5157*
Y5906D02*
X14882D01*
Y6102*
X14488*
Y5906*
X14567Y27126D02*
X17047D01*
Y29488*
X14567*
Y27126*
X14606Y2559D02*
X15551D01*
Y2874*
X14606*
Y2559*
Y2835D02*
X14803D01*
Y3504*
X14606*
Y2835*
Y14961D02*
X15315D01*
Y15630*
X14606*
Y14961*
Y20945D02*
X15236D01*
Y23110*
X14606*
Y20945*
X14685Y7047D02*
X15276D01*
Y8268*
X14685*
Y7047*
X14764Y24764D02*
X15276D01*
Y26496*
X14764*
Y24764*
Y31496D02*
X19370D01*
Y33031*
X14764*
Y31496*
X14843Y29843D02*
X17126D01*
Y30748*
X14843*
Y29843*
X14862Y5610D02*
X15354D01*
Y6102*
X14862*
Y5610*
X14921Y13031D02*
X15906D01*
Y14646*
X14921*
Y13031*
X15039Y15512D02*
X16220D01*
Y16181*
X15039*
Y15512*
Y28465D02*
X17520D01*
Y30118*
X15039*
Y28465*
X15079Y12480D02*
X15276D01*
Y13071*
X15079*
Y12480*
X15157Y984D02*
X16240D01*
Y1772*
X15157*
Y984*
Y1673D02*
X15748D01*
Y1969*
X15157*
Y1673*
Y6004D02*
X15453D01*
Y9252*
X15157*
Y6004*
Y16929D02*
X19409D01*
Y17795*
X15157*
Y16929*
Y20354D02*
X16831D01*
Y23720*
X15157*
Y20354*
X15197Y13071D02*
X17087D01*
Y14134*
X15197*
Y13071*
Y24606D02*
X16102D01*
Y26220*
X15197*
Y24606*
X15236Y30669D02*
X16772D01*
Y31142*
X15236*
Y30669*
X15256Y2264D02*
X16929D01*
Y6102*
X15256*
Y2264*
Y19488D02*
X15846D01*
Y20571*
X15256*
Y19488*
X15276Y197D02*
X16260D01*
Y1457*
X15276*
Y197*
Y8465D02*
X16417D01*
Y9941*
X15276*
Y8465*
X15354Y6398D02*
X16339D01*
Y8110*
X15354*
Y6398*
Y14488D02*
X18406D01*
Y14961*
X15354*
Y14488*
Y16535D02*
X16299D01*
Y17047*
X15354*
Y16535*
X15394Y9843D02*
X16535D01*
Y11654*
X15394*
Y9843*
X15433Y26654D02*
X15866D01*
Y27165*
X15433*
Y26654*
X15591Y11575D02*
X16142D01*
Y12559*
X15591*
Y11575*
X15650Y1378D02*
X16929D01*
Y2362*
X15650*
Y1378*
X15669Y12480D02*
X16654D01*
Y14134*
X15669*
Y12480*
Y25748D02*
X17047D01*
Y26654*
X15669*
Y25748*
X15748Y14882D02*
X16850D01*
Y15551*
X15748*
Y14882*
X15827Y19685D02*
X16378D01*
Y19961*
X15827*
Y19685*
Y26969D02*
X16220D01*
Y27165*
X15827*
Y26969*
X15846Y18307D02*
X16535D01*
Y19685*
X15846*
Y18307*
X15866Y15079D02*
X16063D01*
Y16614*
X15866*
Y15079*
X16024Y15276D02*
X19449D01*
Y18740*
X16024*
Y15276*
Y24646D02*
X22205D01*
Y25433*
X16024*
Y24646*
X16142Y12008D02*
X16575D01*
Y12165*
X16142*
Y12008*
Y31063D02*
X16772D01*
Y31535*
X16142*
Y31063*
X16181Y157D02*
X17402D01*
Y748*
X16181*
Y157*
Y1181D02*
X16732D01*
Y1417*
X16181*
Y1181*
Y26614D02*
X17835D01*
Y27165*
X16181*
Y26614*
X16240Y6890D02*
X17028D01*
Y9449*
X16240*
Y6890*
Y9449D02*
X17756D01*
Y10906*
X16240*
Y9449*
Y18406D02*
X16929D01*
Y20571*
X16240*
Y18406*
X16260Y31299D02*
X17992D01*
Y31575*
X16260*
Y31299*
X16299Y6299D02*
X16732D01*
Y8071*
X16299*
Y6299*
X16417Y24646D02*
X17441D01*
Y26299*
X16417*
Y24646*
X16496Y10906D02*
X17677D01*
Y11969*
X16496*
Y10906*
Y11850D02*
X16693D01*
Y12480*
X16496*
Y11850*
X16693Y11811D02*
X16890D01*
Y12126*
X16693*
Y11811*
X16732Y6890D02*
X17028D01*
Y9843*
X16732*
Y6890*
Y22638D02*
X18209D01*
Y23327*
X16732*
Y22638*
Y30433D02*
X18346D01*
Y30945*
X16732*
Y30433*
X16772Y21850D02*
X17421D01*
Y22717*
X16772*
Y21850*
X16831Y1378D02*
X20571D01*
Y1870*
X16831*
Y1378*
Y2874D02*
X17815D01*
Y5276*
X16831*
Y2874*
Y9350D02*
X17815D01*
Y9744*
X16831*
Y9350*
Y20276D02*
X18209D01*
Y21063*
X16831*
Y20276*
Y20768D02*
X18386D01*
Y21949*
X16831*
Y20768*
X16850Y5276D02*
X17008D01*
Y6024*
X16850*
Y5276*
Y13937D02*
X18110D01*
Y14567*
X16850*
Y13937*
Y19882D02*
X17047D01*
Y20354*
X16850*
Y19882*
X16890Y2559D02*
X17618D01*
Y2953*
X16890*
Y2559*
X16929Y6969D02*
X17441D01*
Y8583*
X16929*
Y6969*
Y8465D02*
X17717D01*
Y8957*
X16929*
Y8465*
Y9646D02*
X17224D01*
Y11122*
X16929*
Y9646*
Y13287D02*
X17618D01*
Y14075*
X16929*
Y13287*
Y18799D02*
X17421D01*
Y19980*
X16929*
Y18799*
X17028Y12362D02*
X18406D01*
Y13543*
X17028*
Y12362*
X17047Y26614D02*
X17874D01*
Y28071*
X17047*
Y26614*
X17087Y1260D02*
X17441D01*
Y1417*
X17087*
Y1260*
X17224Y22441D02*
X18209D01*
Y22736*
X17224*
Y22441*
X17323Y689D02*
X17520D01*
Y866*
X17323*
Y689*
Y19488D02*
X17815D01*
Y19980*
X17323*
Y19488*
Y23228D02*
X17815D01*
Y23720*
X17323*
Y23228*
X17402Y6969D02*
X18189D01*
Y8071*
X17402*
Y6969*
Y10906D02*
X18071D01*
Y12500*
X17402*
Y10906*
Y21890D02*
X17992D01*
Y22087*
X17402*
Y21890*
Y25748D02*
X20039D01*
Y26299*
X17402*
Y25748*
X17421Y689D02*
X18209D01*
Y984*
X17421*
Y689*
Y1772D02*
X18307D01*
Y2559*
X17421*
Y1772*
Y2874D02*
X18209D01*
Y5413*
X17421*
Y2874*
Y5315D02*
X17717D01*
Y6102*
X17421*
Y5315*
X17441Y28071D02*
X17795D01*
Y30551*
X17441*
Y28071*
X17598Y25748D02*
X18504D01*
Y26929*
X17598*
Y25748*
X17618Y8465D02*
X18071D01*
Y10925*
X17618*
Y8465*
Y19488D02*
X18465D01*
Y20433*
X17618*
Y19488*
Y22638D02*
X18209D01*
Y23130*
X17618*
Y22638*
X17638Y14016D02*
X18602D01*
Y14528*
X17638*
Y14016*
X17717Y5394D02*
X18307D01*
Y6102*
X17717*
Y5394*
Y23898D02*
X18189D01*
Y24724*
X17717*
Y23898*
X17756Y512D02*
X18268D01*
Y709*
X17756*
Y512*
Y27244D02*
X18268D01*
Y29843*
X17756*
Y27244*
Y30157D02*
X18346D01*
Y30512*
X17756*
Y30157*
X17815Y14764D02*
X19331D01*
Y15354*
X17815*
Y14764*
X17913Y14173D02*
X20079D01*
Y15256*
X17913*
Y14173*
Y30748D02*
X18858D01*
Y31102*
X17913*
Y30748*
Y31102D02*
X19370D01*
Y31575*
X17913*
Y31102*
X17953Y5157D02*
X18425D01*
Y8071*
X17953*
Y5157*
Y31063D02*
X23346D01*
Y31457*
X17953*
Y31063*
X17992Y22343D02*
X19291D01*
Y22539*
X17992*
Y22343*
X18012Y2559D02*
X18209D01*
Y2953*
X18012*
Y2559*
Y8465D02*
X18209D01*
Y10748*
X18012*
Y8465*
Y11713D02*
X19094D01*
Y11909*
X18012*
Y11713*
Y12205D02*
X18406D01*
Y12697*
X18012*
Y12205*
X18031Y11102D02*
X18228D01*
Y12244*
X18031*
Y11102*
X18110Y3346D02*
X18346D01*
Y4646*
X18110*
Y3346*
Y8819D02*
X19390D01*
Y9547*
X18110*
Y8819*
Y12992D02*
X18701D01*
Y13583*
X18110*
Y12992*
Y20157D02*
X18268D01*
Y20748*
X18110*
Y20157*
Y20728D02*
X18898D01*
Y20827*
X18110*
Y20728*
Y29016D02*
X19331D01*
Y30118*
X18110*
Y29016*
Y30079D02*
X18346D01*
Y30197*
X18110*
Y30079*
X18150Y2638D02*
X18268D01*
Y3268*
X18150*
Y2638*
Y3228D02*
X18858D01*
Y3346*
X18150*
Y3228*
Y9370D02*
Y9685D01*
X18189*
X18346Y9528*
Y9370*
X18150*
Y10472D02*
X18425D01*
Y10748*
X18150*
Y10472*
Y23898D02*
X18425D01*
Y24173*
X18150*
Y23898*
Y25984D02*
X18425D01*
Y27244*
X18150*
Y25984*
X18189Y394D02*
X18701D01*
Y1476*
X18189*
Y394*
Y1732D02*
X18976D01*
Y2677*
X18189*
Y1732*
Y6161D02*
X19528D01*
Y8268*
X18189*
Y6161*
Y9882D02*
X18425D01*
Y10118*
X18189*
Y9882*
Y11102D02*
X18465D01*
Y11732*
X18189*
Y11102*
Y18701D02*
X18996D01*
Y19724*
X18189*
Y18701*
Y25276D02*
X22205D01*
Y26024*
X18189*
Y25276*
X18209Y4626D02*
X18799D01*
Y4823*
X18209*
Y4626*
Y23228D02*
X19488D01*
Y24173*
X18209*
Y23228*
X18228Y27835D02*
X18465D01*
Y29094*
X18228*
Y27835*
X18268Y27205D02*
X18425D01*
Y27480*
X18268*
Y27205*
X18307Y5157D02*
X18996D01*
Y5709*
X18307*
Y5157*
Y19685D02*
X18996D01*
Y20079*
X18307*
Y19685*
Y21752D02*
X18780D01*
Y21949*
X18307*
Y21752*
X18346Y157D02*
X20571D01*
Y394*
X18346*
Y157*
X18406Y14094D02*
X19685D01*
Y14665*
X18406*
Y14094*
Y21752D02*
X19291D01*
Y22343*
X18406*
Y21752*
X18504Y13268D02*
X18819D01*
Y14331*
X18504*
Y13268*
X18543Y8819D02*
X21535D01*
Y9803*
X18543*
Y8819*
Y20472D02*
X18996D01*
Y20827*
X18543*
Y20472*
X18602Y4626D02*
X19291D01*
Y5413*
X18602*
Y4626*
Y11811D02*
X18898D01*
Y12205*
X18602*
Y11811*
Y12992D02*
X19390D01*
Y13287*
X18602*
Y12992*
X18642Y2520D02*
X18937D01*
Y3386*
X18642*
Y2520*
X18661Y748D02*
X19941D01*
Y1457*
X18661*
Y748*
Y3228D02*
X18898D01*
Y4626*
X18661*
Y3228*
Y24016D02*
X20276D01*
Y24764*
X18661*
Y24016*
X18740Y20591D02*
X19291D01*
Y21850*
X18740*
Y20591*
X18780Y3307D02*
X19252D01*
Y4646*
X18780*
Y3307*
Y27205D02*
X18976D01*
Y27795*
X18780*
Y27205*
X18799Y5413D02*
X19016D01*
Y9055*
X18799*
Y5413*
Y9567D02*
X19646D01*
Y13091*
X18799*
Y9567*
Y18701D02*
X19921D01*
Y19961*
X18799*
Y18701*
X18819Y2441D02*
X19291D01*
Y4724*
X18819*
Y2441*
Y12638D02*
X20472D01*
Y13780*
X18819*
Y12638*
Y19803D02*
X19094D01*
Y20630*
X18819*
Y19803*
Y22520D02*
X19528D01*
Y23622*
X18819*
Y22520*
Y28228D02*
X18937D01*
Y29055*
X18819*
Y28228*
X18898Y6457D02*
X20394D01*
Y8858*
X18898*
Y6457*
Y26181D02*
X19331D01*
Y29055*
X18898*
Y26181*
X18937Y5394D02*
X19606D01*
Y5827*
X18937*
Y5394*
X18976Y5157D02*
X22913D01*
Y5512*
X18976*
Y5157*
Y30079D02*
X19882D01*
Y30689*
X18976*
Y30079*
X19055Y394D02*
X19980D01*
Y1181*
X19055*
Y394*
X19094Y20591D02*
X20827D01*
Y20945*
X19094*
Y20591*
X19213Y3937D02*
X19409D01*
Y5197*
X19213*
Y3937*
X19252Y2441D02*
X20000D01*
Y3071*
X19252*
Y2441*
Y20866D02*
X22205D01*
Y21339*
X19252*
Y20866*
Y29449D02*
X20354D01*
Y29764*
X19252*
Y29449*
X19291Y18110D02*
X20433D01*
Y18898*
X19291*
Y18110*
Y26535D02*
X22126D01*
Y27126*
X19291*
Y26535*
Y27008D02*
X19606D01*
Y27520*
X19291*
Y27008*
Y32126D02*
X19606D01*
Y32913*
X19291*
Y32126*
X19331Y15118D02*
X19606D01*
Y16142*
X19331*
Y15118*
Y17520D02*
X20236D01*
Y17795*
X19331*
Y17520*
Y26063D02*
X20039D01*
Y26654*
X19331*
Y26063*
X19370Y15984D02*
X20472D01*
Y17598*
X19370*
Y15984*
X19488Y22992D02*
X20079D01*
Y23150*
X19488*
Y22992*
Y23465D02*
X19882D01*
Y23622*
X19488*
Y23465*
X19528Y1732D02*
X22441D01*
Y3071*
X19528*
Y1732*
X19567Y9646D02*
X20079D01*
Y10394*
X19567*
Y9646*
X19606Y10276D02*
X20433D01*
Y10906*
X19606*
Y10276*
Y11260D02*
X21220D01*
Y12283*
X19606*
Y11260*
Y13110D02*
X20945D01*
Y14331*
X19606*
Y13110*
X19646Y157D02*
X23386D01*
Y1969*
X19646*
Y157*
X19685Y18858D02*
X19921D01*
Y21358*
X19685*
Y18858*
Y21929D02*
X20315D01*
Y22402*
X19685*
Y21929*
X19724Y27598D02*
X20157D01*
Y28150*
X19724*
Y27598*
Y28110D02*
X21496D01*
Y28504*
X19724*
Y28110*
Y29252D02*
X20315D01*
Y29646*
X19724*
Y29252*
Y30276D02*
X21535D01*
Y31102*
X19724*
Y30276*
X19803Y17717D02*
X20236D01*
Y18150*
X19803*
Y17717*
Y30157D02*
X21339D01*
Y30354*
X19803*
Y30157*
X19843Y23346D02*
X20906D01*
Y24134*
X19843*
Y23346*
X19882Y787D02*
X20472D01*
Y1181*
X19882*
Y787*
X19921Y19449D02*
X20709D01*
Y22402*
X19921*
Y19449*
Y21142D02*
X20315D01*
Y23425*
X19921*
Y21142*
Y31457D02*
X20079D01*
Y32008*
X19921*
Y31457*
X19961Y11102D02*
X21339D01*
Y11299*
X19961*
Y11102*
Y27047D02*
X20472D01*
Y27756*
X19961*
Y27047*
X20000Y6496D02*
X20236D01*
Y14665*
X20000*
Y6496*
Y31299D02*
X20472D01*
Y32992*
X20000*
Y31299*
X20039Y5433D02*
X20433D01*
Y6496*
X20039*
Y5433*
Y14252D02*
X20354D01*
Y16063*
X20039*
Y14252*
Y14685D02*
X21654D01*
Y15157*
X20039*
Y14685*
X20079Y4134D02*
X23661D01*
Y4331*
X20079*
Y4134*
X20118Y32559D02*
X21575D01*
Y32913*
X20118*
Y32559*
X20157Y2559D02*
X23228D01*
Y3622*
X20157*
Y2559*
X20197Y12205D02*
X21496D01*
Y12756*
X20197*
Y12205*
Y22323D02*
X20512D01*
Y22835*
X20197*
Y22323*
Y24449D02*
X22126D01*
Y24764*
X20197*
Y24449*
Y28937D02*
X20354D01*
Y30197*
X20197*
Y28937*
X20236Y3504D02*
X22283D01*
Y4331*
X20236*
Y3504*
Y4843D02*
X22165D01*
Y5236*
X20236*
Y4843*
Y6929D02*
X21575D01*
Y8031*
X20236*
Y6929*
Y22795D02*
X20630D01*
Y23346*
X20236*
Y22795*
X20276Y5866D02*
X21535D01*
Y6969*
X20276*
Y5866*
X20315Y4252D02*
X23583D01*
Y5000*
X20315*
Y4252*
Y28425D02*
X21496D01*
Y29488*
X20315*
Y28425*
X20394Y10276D02*
X20630D01*
Y10394*
X20394*
Y10276*
Y18150D02*
X21575D01*
Y18898*
X20394*
Y18150*
X20433Y15984D02*
X21299D01*
Y17480*
X20433*
Y15984*
X20472Y27480D02*
X20748D01*
Y27795*
X20472*
Y27480*
Y31260D02*
X22795D01*
Y31772*
X20472*
Y31260*
X20551Y22795D02*
X21102D01*
Y22953*
X20551*
Y22795*
X20591Y9724D02*
X20984D01*
Y10394*
X20591*
Y9724*
Y23307D02*
X21457D01*
Y23898*
X20591*
Y23307*
Y27756D02*
X20709D01*
Y27835*
X20591*
Y27756*
Y27795D02*
X21535D01*
Y28189*
X20591*
Y27795*
X20630Y24094D02*
X20906D01*
Y24488*
X20630*
Y24094*
X20669Y21299D02*
X21260D01*
Y22402*
X20669*
Y21299*
X20709Y13465D02*
X21024D01*
Y14803*
X20709*
Y13465*
Y19449D02*
X21496D01*
Y20118*
X20709*
Y19449*
X20787Y17362D02*
X21181D01*
Y18228*
X20787*
Y17362*
Y25945D02*
X21299D01*
Y26220*
X20787*
Y25945*
Y32244D02*
X21260D01*
Y32402*
X20787*
Y32244*
Y32402D02*
X21969D01*
Y32559*
X20787*
Y32402*
X20827Y12638D02*
X21102D01*
Y13031*
X20827*
Y12638*
Y24252D02*
X21575D01*
Y24488*
X20827*
Y24252*
X20866Y5157D02*
X21220D01*
Y8898*
X20866*
Y5157*
Y9606D02*
X22362D01*
Y10709*
X20866*
Y9606*
Y18780D02*
X21496D01*
Y19528*
X20866*
Y18780*
X20945Y10630D02*
X21339D01*
Y11142*
X20945*
Y10630*
Y13465D02*
X21417D01*
Y14252*
X20945*
Y13465*
Y22795D02*
X21535D01*
Y23898*
X20945*
Y22795*
Y29370D02*
X21299D01*
Y29843*
X20945*
Y29370*
X21024Y15591D02*
X21220D01*
Y16024*
X21024*
Y15591*
X21063Y27087D02*
X21260D01*
Y27638*
X21063*
Y27087*
Y27598D02*
Y27795D01*
X21535*
X21614Y27717*
Y27598*
X21063*
X21102Y17795D02*
X21575D01*
Y18228*
X21102*
Y17795*
X21142Y20472D02*
X21575D01*
Y20906*
X21142*
Y20472*
Y21024D02*
X22244D01*
Y21496*
X21142*
Y21024*
X21181Y8386D02*
X21575D01*
Y8858*
X21181*
Y8386*
Y11220D02*
X21535D01*
Y11850*
X21181*
Y11220*
X21220Y15945D02*
X22717D01*
Y16535*
X21220*
Y15945*
Y28661D02*
X21772D01*
Y29685*
X21220*
Y28661*
X21260Y13110D02*
X21496D01*
Y13661*
X21260*
Y13110*
Y21890D02*
X22244D01*
Y22874*
X21260*
Y21890*
Y27047D02*
X21693D01*
Y27283*
X21260*
Y27047*
X21299Y16850D02*
X21535D01*
Y17402*
X21299*
Y16850*
X21378Y13583D02*
X22283D01*
Y14134*
X21378*
Y13583*
X21417Y19173D02*
X22205D01*
Y20512*
X21417*
Y19173*
Y28071D02*
X22205D01*
Y28307*
X21417*
Y28071*
X21457Y32874D02*
X22126D01*
Y33071*
X21457*
Y32874*
X21496Y5866D02*
X21732D01*
Y6102*
X21496*
Y5866*
Y6929D02*
X23386D01*
Y7402*
X21496*
Y6929*
Y8819D02*
X22126D01*
Y9291*
X21496*
Y8819*
Y11220D02*
X21732D01*
Y11339*
X21496*
Y11220*
Y11772D02*
X22205D01*
Y11929*
X21496*
Y11772*
Y12598D02*
X22165D01*
Y13268*
X21496*
Y12598*
Y16850D02*
X22795D01*
Y17283*
X21496*
Y16850*
Y23780D02*
X21693D01*
Y23898*
X21496*
Y23780*
X21535Y7756D02*
X22323D01*
Y8425*
X21535*
Y7756*
Y17638D02*
X22205D01*
Y18071*
X21535*
Y17638*
Y18425D02*
X22126D01*
Y18858*
X21535*
Y18425*
Y30276D02*
X21890D01*
Y30709*
X21535*
Y30276*
X21575Y11811D02*
X22205D01*
Y12244*
X21575*
Y11811*
X21614Y4921D02*
X22913D01*
Y6102*
X21614*
Y4921*
Y14488D02*
X23465D01*
Y15551*
X21614*
Y14488*
Y15394D02*
X22717D01*
Y16024*
X21614*
Y15394*
Y27008D02*
X22087D01*
Y27717*
X21614*
Y27008*
Y31339D02*
X22323D01*
Y32441*
X21614*
Y31339*
X21654Y10472D02*
X22362D01*
Y11339*
X21654*
Y10472*
Y16181D02*
X23524D01*
Y16732*
X21654*
Y16181*
Y16654D02*
X21850D01*
Y16929*
X21654*
Y16654*
Y23780D02*
X22126D01*
Y24094*
X21654*
Y23780*
Y28661D02*
X22756D01*
Y30315*
X21654*
Y28661*
X21811Y16496D02*
X22795D01*
Y17677*
X21811*
Y16496*
X21850Y9213D02*
X22087D01*
Y9646*
X21850*
Y9213*
Y30236D02*
X23504D01*
Y31142*
X21850*
Y30236*
Y32323D02*
X25098D01*
Y33465*
X21850*
Y32323*
X21890Y6024D02*
X22835D01*
Y6969*
X21890*
Y6024*
Y19921D02*
X23130D01*
Y21260*
X21890*
Y19921*
Y22480D02*
X22205D01*
Y23819*
X21890*
Y22480*
Y25906D02*
X22165D01*
Y27717*
X21890*
Y25906*
X21929Y5630D02*
X23583D01*
Y6260*
X21929*
Y5630*
Y32165D02*
X23661D01*
Y33366*
X21929*
Y32165*
X21949Y26831D02*
X23622D01*
Y28701*
X21949*
Y26831*
X22008Y7165D02*
X23898D01*
Y10827*
X22008*
Y7165*
X22047Y21102D02*
X23524D01*
Y24508*
X22047*
Y21102*
Y21949D02*
X22736D01*
Y26476*
X22047*
Y21949*
X22087Y14488D02*
X22480D01*
Y19961*
X22087*
Y14488*
X22126Y7953D02*
X22795D01*
Y14528*
X22126*
Y7953*
X22146Y7972D02*
X22835D01*
Y8366*
X22146*
Y7972*
X22283Y3937D02*
X23701D01*
Y4213*
X22283*
Y3937*
X22480Y17323D02*
X23327D01*
Y19291*
X22480*
Y17323*
X22539Y11811D02*
X23819D01*
Y14528*
X22539*
Y11811*
Y25591D02*
X24311D01*
Y26102*
X22539*
Y25591*
Y26575D02*
X24311D01*
Y27146*
X22539*
Y26575*
X22559Y25984D02*
X23425D01*
Y26614*
X22559*
Y25984*
X22638Y3583D02*
X23819D01*
Y4094*
X22638*
Y3583*
Y11122D02*
X22835D01*
Y11811*
X22638*
Y11122*
Y24311D02*
X30709D01*
Y25000*
X22638*
Y24311*
X22717Y27520D02*
X25197D01*
Y29606*
X22717*
Y27520*
Y31181D02*
X23661D01*
Y32205*
X22717*
Y31181*
X22736Y10827D02*
X23858D01*
Y11181*
X22736*
Y10827*
X22913Y5630D02*
X23661D01*
Y5709*
X22913*
Y5630*
X23071Y157D02*
X24567D01*
Y3268*
X23071*
Y157*
X23130Y17323D02*
X23917D01*
Y20472*
X23130*
Y17323*
X23228Y5630D02*
X24213D01*
Y6811*
X23228*
Y5630*
Y6772D02*
X23386D01*
Y7008*
X23228*
Y6772*
X23327Y11811D02*
X23819D01*
Y16220*
X23327*
Y11811*
Y21102D02*
X24331D01*
Y26063*
X23327*
Y21102*
X23346Y32323D02*
X25000D01*
Y32579*
X23346*
Y32323*
X23386Y26575D02*
X23524D01*
Y32382*
X23386*
Y26575*
X23406Y16220D02*
X24488D01*
Y18996*
X23406*
Y16220*
X23465Y29331D02*
X24370D01*
Y30610*
X23465*
Y29331*
X23543Y1220D02*
X25433D01*
Y5669*
X23543*
Y1220*
X23622Y20374D02*
X24409D01*
Y21220*
X23622*
Y20374*
X23661Y31220D02*
X24449D01*
Y31929*
X23661*
Y31220*
X23720Y13780D02*
X24508D01*
Y15453*
X23720*
Y13780*
X23780Y6811D02*
X24173D01*
Y7323*
X23780*
Y6811*
Y10512D02*
X24213D01*
Y11299*
X23780*
Y10512*
X23819Y7283D02*
X24902D01*
Y9055*
X23819*
Y7283*
Y9449D02*
X25197D01*
Y10630*
X23819*
Y9449*
Y11811D02*
X24803D01*
Y14173*
X23819*
Y11811*
Y18780D02*
X24508D01*
Y21024*
X23819*
Y18780*
X23858Y11142D02*
X25197D01*
Y11811*
X23858*
Y11142*
Y25945D02*
X24331D01*
Y26614*
X23858*
Y25945*
X23937Y22008D02*
X30709D01*
Y23917*
X23937*
Y22008*
X24016Y26378D02*
X24902D01*
Y27520*
X24016*
Y26378*
Y28740D02*
X24311D01*
Y29429*
X24016*
Y28740*
X24055Y31299D02*
X25000D01*
Y32362*
X24055*
Y31299*
X24114Y6299D02*
X24843D01*
Y6732*
X24114*
Y6299*
D02*
X24409D01*
Y7382*
X24114*
Y6299*
Y29331D02*
X25197D01*
Y29882*
X24114*
Y29331*
X24134Y30591D02*
X24370D01*
Y31260*
X24134*
Y30591*
X24252Y23898D02*
X25000D01*
Y25866*
X24252*
Y23898*
X24311Y8976D02*
X25000D01*
Y9843*
X24311*
Y8976*
X24449Y11122D02*
X25492D01*
Y21024*
X24449*
Y11122*
X24528Y157D02*
X26102D01*
Y906*
X24528*
Y157*
X24724Y6772D02*
X25492D01*
Y11220*
X24724*
Y6772*
X24843Y5669D02*
X25591D01*
Y6319*
X24843*
Y5669*
Y22539D02*
X30709D01*
Y27008*
X24843*
Y22539*
X24882Y906D02*
X26890D01*
Y2087*
X24882*
Y906*
Y26654D02*
X29528D01*
Y27165*
X24882*
Y26654*
X24902Y27067D02*
X29528D01*
Y33465*
X24902*
Y27067*
X25157Y17953D02*
X30748D01*
Y24291*
X25157*
Y17953*
X25236Y15748D02*
X29291D01*
Y21732*
X25236*
Y15748*
X25394Y1496D02*
X27402D01*
Y5276*
X25394*
Y1496*
Y5610D02*
X26850D01*
Y9744*
X25394*
Y5610*
X25492Y10217D02*
X25984D01*
Y15335*
X25492*
Y10217*
X25787Y4921D02*
X28819D01*
Y8110*
X25787*
Y4921*
X25866Y8819D02*
X29528D01*
Y15945*
X25866*
Y8819*
X26457Y591D02*
X28150D01*
Y866*
X26457*
Y591*
Y827D02*
X26890D01*
Y945*
X26457*
Y827*
X26693Y472D02*
X28110D01*
Y630*
X26693*
Y472*
X27205Y157D02*
X27992D01*
Y512*
X27205*
Y157*
X27323Y8071D02*
X27638D01*
Y8898*
X27323*
Y8071*
X27362Y3287D02*
X28150D01*
Y4311*
X27362*
Y3287*
X27402Y1772D02*
X28150D01*
Y2697*
X27402*
Y1772*
X27520Y827D02*
X28071D01*
Y1339*
X27520*
Y827*
X28031Y157D02*
X28681D01*
Y4724*
X28031*
Y157*
Y4724D02*
X30315D01*
Y5748*
X28031*
Y4724*
X28268Y6220D02*
X29882D01*
Y12480*
X28268*
Y6220*
X28622Y157D02*
X33425D01*
Y945*
X28622*
Y157*
X28701Y1575D02*
X29449D01*
Y2559*
X28701*
Y1575*
Y3150D02*
X29409D01*
Y4134*
X28701*
Y3150*
X29173Y13189D02*
X30472D01*
Y17323*
X29173*
Y13189*
X29232D02*
X29921D01*
Y17224*
X29232*
Y13189*
X29291Y32283D02*
X32677D01*
Y33583*
X29291*
Y32283*
X29350Y197D02*
X30906D01*
Y6969*
X29350*
Y197*
X29429Y24213D02*
X32480D01*
Y24803*
X29429*
Y24213*
Y27756D02*
X30217D01*
Y28937*
X29429*
Y27756*
Y28780D02*
X33268D01*
Y31398*
X29429*
Y28780*
X29724Y7953D02*
X31024D01*
Y11430*
X29724*
Y7953*
Y16339D02*
X32579D01*
Y16929*
X29724*
Y16339*
X29843Y6732D02*
X32756D01*
Y7205*
X29843*
Y6732*
Y11378D02*
X30433D01*
Y12480*
X29843*
Y11378*
X30000Y28780D02*
X33937D01*
Y33031*
X30000*
Y28780*
X30197Y26575D02*
X32579D01*
Y27165*
X30197*
Y26575*
Y26890D02*
X30906D01*
Y28937*
X30197*
Y26890*
X30236Y11339D02*
X31024D01*
Y28976*
X30236*
Y11339*
X30591Y7008D02*
X31024D01*
Y8150*
X30591*
Y7008*
X30669Y3504D02*
X33150D01*
Y4409*
X30669*
Y3504*
X30748Y4291D02*
X31614D01*
Y4724*
X30748*
Y4291*
Y5079D02*
X33543D01*
Y5984*
X30748*
Y5079*
X30787Y787D02*
X32165D01*
Y1535*
X30787*
Y787*
Y1890D02*
X31535D01*
Y3110*
X30787*
Y1890*
X30906Y6732D02*
X32992D01*
Y7480*
X30906*
Y6732*
X31181Y1890D02*
X32126D01*
Y2598*
X31181*
Y1890*
X31299Y1496D02*
X31496D01*
Y1890*
X31299*
Y1496*
X31339Y4646D02*
X31614D01*
Y4921*
X31339*
Y4646*
Y4803D02*
X32047D01*
Y5157*
X31339*
Y4803*
X31378Y2992D02*
X32047D01*
Y3622*
X31378*
Y2992*
X31969Y157D02*
X33937D01*
Y5236*
X31969*
Y157*
X33110Y984D02*
X33937D01*
Y5984*
X33110*
Y984*
G37*
G54D10*
X1083Y1083D03*
Y32972D03*
X17028Y17028D03*
X32972Y1083D03*
Y32972D03*
G54D11*
X31299Y5610D03*
Y6398D03*
Y7185D03*
Y7972D03*
Y8760D03*
Y9547D03*
Y10335D03*
Y11122D03*
Y11909D03*
Y12697D03*
Y13484D03*
Y14272D03*
Y15059D03*
Y15846D03*
Y16634D03*
Y17421D03*
Y18209D03*
Y18996D03*
Y19783D03*
Y20571D03*
Y21358D03*
Y22146D03*
Y22933D03*
Y23720D03*
Y24508D03*
Y25295D03*
Y26083D03*
Y26870D03*
Y27657D03*
Y28445D03*
X32087Y5610D03*
Y6398D03*
Y7185D03*
Y7972D03*
Y8760D03*
Y9547D03*
Y10335D03*
Y11122D03*
Y11909D03*
Y12697D03*
Y13484D03*
Y14272D03*
Y15059D03*
Y15846D03*
Y16634D03*
Y17421D03*
Y18209D03*
Y18996D03*
Y19783D03*
Y20571D03*
Y21358D03*
Y22146D03*
Y22933D03*
Y23720D03*
Y24508D03*
Y25295D03*
Y26083D03*
Y26870D03*
Y27657D03*
Y28445D03*
G54D12*
X1083Y20827D03*
Y22402D03*
Y23976D03*
X1476Y27972D03*
X1654Y20768D03*
Y22343D03*
Y23917D03*
X2480Y20768D03*
Y21122D03*
Y22343D03*
Y22697D03*
Y23917D03*
Y24272D03*
X2992Y8268D03*
X3238Y2717D03*
X3248Y1142D03*
Y4921D03*
Y9528D03*
Y11732D03*
Y12677D03*
Y16654D03*
X3819Y1083D03*
Y2657D03*
Y4232D03*
Y9449D03*
Y11024D03*
Y12598D03*
X4213Y28799D03*
X4331Y25000D03*
X4370Y21142D03*
Y22717D03*
Y24291D03*
X4409Y8307D03*
X4646Y748D03*
Y1083D03*
Y2283D03*
Y2657D03*
Y3858D03*
Y4232D03*
Y9094D03*
Y9449D03*
Y9803D03*
Y10650D03*
Y11024D03*
Y11378D03*
Y12244D03*
Y12598D03*
Y12953D03*
X4665Y1437D03*
Y3012D03*
Y4587D03*
X4823Y16732D03*
X5039Y8051D03*
X5118Y24488D03*
X5197Y18583D03*
X5815Y22264D03*
X5906Y29921D03*
Y32205D03*
X5945Y7402D03*
X6102Y22913D03*
X6260Y30394D03*
X6406Y21850D03*
X6417Y19094D03*
X6476Y12598D03*
X6535Y9843D03*
Y11417D03*
Y22913D03*
X6870Y3937D03*
Y4921D03*
X6890Y2008D03*
Y2953D03*
X6949Y18799D03*
X7480Y29921D03*
Y32205D03*
X7579Y18681D03*
X7638Y2362D03*
X7795Y7480D03*
X7835Y30394D03*
X8169Y12677D03*
Y18681D03*
X8228Y19882D03*
X8268Y5650D03*
X8563Y6378D03*
X8780Y22362D03*
X8937Y10020D03*
X9055Y29921D03*
Y32205D03*
X9094Y2126D03*
X9409Y30394D03*
X9547Y22008D03*
X9744Y2126D03*
X10020Y13091D03*
Y13465D03*
X10039Y29941D03*
X10236Y18327D03*
Y18681D03*
X10354Y2953D03*
X10531Y23150D03*
X10709Y31142D03*
X10748Y31614D03*
Y31929D03*
Y32244D03*
X10945Y5728D03*
X11102Y19193D03*
X11299Y33366D03*
X11319Y5551D03*
X12323Y9469D03*
Y9823D03*
X12480Y14665D03*
Y16240D03*
Y17795D03*
X12657Y6378D03*
X12913Y2146D03*
X13504Y20768D03*
X13583Y29685D03*
X13760Y31929D03*
X13937Y2657D03*
Y27953D03*
X13957Y9685D03*
Y12402D03*
X14035Y14311D03*
Y15886D03*
Y17461D03*
X14055Y14665D03*
Y15039D03*
Y16240D03*
Y16614D03*
Y17815D03*
X14075Y24193D03*
X14094Y8780D03*
Y9114D03*
X14370Y6378D03*
X14665Y24193D03*
Y30492D03*
X14843Y23327D03*
X14862Y12815D03*
Y13169D03*
X14882Y14665D03*
Y16240D03*
Y17815D03*
X14921Y20748D03*
X14961Y6378D03*
X15059Y9429D03*
X15433Y22795D03*
X15453Y14646D03*
Y16181D03*
Y17756D03*
Y26457D03*
X15748Y9528D03*
Y20551D03*
X15866Y30236D03*
X16043Y19252D03*
Y20157D03*
Y26555D03*
X16417Y28878D03*
X16614Y23937D03*
X16634Y20256D03*
X16752Y2953D03*
X16929Y10236D03*
X17028Y29843D03*
X17618Y5551D03*
Y23622D03*
X18012D03*
X18307Y13819D03*
X18425Y24409D03*
X18465Y2598D03*
X18583Y5906D03*
Y12795D03*
X18602Y13189D03*
X18610Y19902D03*
X18622Y9705D03*
Y27067D03*
X18701Y26201D03*
Y26555D03*
X19291Y24193D03*
X19409Y30118D03*
X19528Y18701D03*
X19823Y6693D03*
Y28406D03*
X19843Y9213D03*
Y26142D03*
X20118Y21535D03*
X20354Y11575D03*
Y13937D03*
Y33228D03*
X20386Y16417D03*
X20394Y23583D03*
Y30866D03*
X21732Y12953D03*
X22283Y22598D03*
Y29862D03*
Y32224D03*
X22323Y8110D03*
Y15394D03*
Y17756D03*
X22598Y20224D03*
X22677Y24291D03*
X23228Y3189D03*
X23346Y20827D03*
X23563Y7008D03*
X23622Y13110D03*
Y32402D03*
X24213Y13110D03*
Y22756D03*
Y32402D03*
X24528Y7382D03*
Y12205D03*
Y17028D03*
X24606Y21850D03*
X26496Y15256D03*
X26535Y10059D03*
Y20079D03*
Y24902D03*
X26575Y13957D03*
Y19705D03*
X27205Y18780D03*
X27244Y13957D03*
X27874Y18780D03*
Y28425D03*
X28543Y2657D03*
Y4232D03*
X28996Y689D03*
X29016Y5965D03*
X29724Y21575D03*
Y31220D03*
X29764Y32047D03*
X29980Y728D03*
Y1083D03*
Y2303D03*
Y3878D03*
X30000Y2657D03*
Y4232D03*
Y6693D03*
X30945Y1083D03*
Y2657D03*
Y4232D03*
X31398Y1024D03*
Y2598D03*
Y4173D03*
G54D13*
X2953Y18031D03*
X3150Y25512D03*
X4764Y21102D03*
X4803Y22677D03*
X5000Y5335D03*
X5118Y13681D03*
X5197Y22677D03*
X5236Y23937D03*
X5630Y28346D03*
X5709Y23898D03*
X5787Y16220D03*
X5945Y13504D03*
X5965Y16929D03*
X6102Y28661D03*
X6142Y1083D03*
Y2657D03*
Y4232D03*
X6181Y23898D03*
X6614Y9134D03*
X6890Y9055D03*
X6929Y9803D03*
Y11378D03*
X7087Y13091D03*
X7165Y9016D03*
X7598Y28661D03*
X7677Y1969D03*
X7874Y33189D03*
X8740Y11417D03*
X8858Y15157D03*
X8957Y9665D03*
X8996Y8346D03*
X9016Y11024D03*
X9252Y15157D03*
X9370Y8346D03*
X9823D03*
X10079Y22795D03*
X10276Y5728D03*
X10512Y10551D03*
X10551Y11654D03*
X10748Y10354D03*
X10787Y9094D03*
X11535Y14173D03*
X11614Y12992D03*
X11732Y17441D03*
X11772Y15787D03*
X12283Y6299D03*
X12520Y30276D03*
X12598Y1457D03*
X12815Y30236D03*
X12992Y28740D03*
X13150Y32874D03*
X13287Y10039D03*
X13898Y27146D03*
X14055Y1969D03*
X14075Y20079D03*
X15039Y30945D03*
X15059Y2362D03*
X16043Y1102D03*
X17244Y28268D03*
X17618Y29882D03*
X18504Y8543D03*
X18622Y10492D03*
X18661Y28031D03*
X19252Y2126D03*
X19528Y29252D03*
X19547Y28720D03*
X19646Y4370D03*
Y4941D03*
X19783Y29035D03*
X20000Y28740D03*
X20079Y4606D03*
X21654Y21693D03*
X22283Y5748D03*
X22362Y26654D03*
X22520Y31969D03*
X22638Y10591D03*
X23027Y25307D03*
X23819Y27323D03*
X23858Y32126D03*
X24606Y26102D03*
X24646Y21280D03*
X24665Y31024D03*
X24685Y31496D03*
X24921Y21575D03*
X25157Y1614D03*
Y1890D03*
X25433Y1575D03*
X25591Y13583D03*
Y16811D03*
X25630Y23228D03*
X25669Y15512D03*
X25709Y1575D03*
X26102Y32008D03*
X26535Y28051D03*
Y29331D03*
Y32874D03*
X27067Y8543D03*
X27244Y5315D03*
Y14961D03*
Y19783D03*
Y24606D03*
X27736Y1575D03*
X28150Y10138D03*
Y19783D03*
Y24606D03*
X28976Y5315D03*
X29094Y32559D03*
X29390Y8957D03*
X29528Y14488D03*
X29823Y8957D03*
Y23780D03*
Y27402D03*
Y28701D03*
X30059Y5256D03*
Y32972D03*
X31102Y29055D03*
X32874D03*
G54D14*
X276Y28150D03*
X374Y27756D03*
X472Y28110D03*
X630Y21693D03*
Y23701D03*
X709Y23504D03*
X748Y23071D03*
X787Y25492D03*
Y27992D03*
X984Y20000D03*
Y21693D03*
X1299Y20650D03*
Y22224D03*
X1319Y23780D03*
X2323Y26496D03*
Y26772D03*
Y27047D03*
X2362Y4409D03*
Y24882D03*
Y25098D03*
Y25315D03*
X2480Y28543D03*
X2520Y26496D03*
Y26772D03*
Y27047D03*
X2598Y27913D03*
X2626Y17665D03*
X2717Y26496D03*
Y26772D03*
Y27047D03*
X2795Y19134D03*
Y19606D03*
X2835Y8504D03*
Y18661D03*
X2913Y26496D03*
Y26772D03*
Y27047D03*
X2972Y1043D03*
X2992Y19449D03*
X3110Y4331D03*
Y26496D03*
Y26772D03*
Y27047D03*
X3150Y1850D03*
X3189Y3307D03*
Y3543D03*
X3307Y26496D03*
Y26772D03*
Y27047D03*
X3465Y10945D03*
X3504Y26496D03*
Y26772D03*
Y27047D03*
X3524Y16614D03*
X3701Y26496D03*
Y26772D03*
Y27047D03*
X3780Y591D03*
Y2264D03*
Y12205D03*
Y14094D03*
X3819Y3622D03*
Y3819D03*
Y9843D03*
X3917Y26181D03*
X3937Y5157D03*
Y5394D03*
Y5630D03*
Y26654D03*
Y26969D03*
X3976Y14094D03*
Y24724D03*
Y27579D03*
X4134Y14213D03*
X4173Y26969D03*
X4201Y27520D03*
X4213Y15079D03*
Y15354D03*
Y15630D03*
X4252Y6339D03*
Y6594D03*
Y6850D03*
Y17106D03*
X4331Y13465D03*
Y13661D03*
Y13858D03*
Y14055D03*
Y14252D03*
X4409Y26969D03*
X4449Y6339D03*
Y6575D03*
Y6850D03*
Y18780D03*
Y25787D03*
X4488Y15079D03*
Y15354D03*
Y15630D03*
X4528Y14213D03*
Y16496D03*
X4646Y6339D03*
Y6594D03*
Y6850D03*
Y26969D03*
X4803Y15079D03*
Y15354D03*
Y15630D03*
X4843Y6339D03*
Y6594D03*
Y6850D03*
X4921Y26969D03*
X5039Y6339D03*
Y6594D03*
Y6850D03*
X5079Y24213D03*
X5118Y15079D03*
Y15354D03*
Y15630D03*
X5157Y26969D03*
X5197Y19646D03*
X5236Y6339D03*
Y6594D03*
Y6850D03*
Y21850D03*
X5394Y21988D03*
Y26969D03*
Y28386D03*
X5433Y6339D03*
Y6594D03*
Y6850D03*
Y15079D03*
Y15354D03*
Y15630D03*
Y21496D03*
X5472Y21280D03*
X5512Y19921D03*
X5551Y22205D03*
X5630Y6339D03*
Y6594D03*
Y6850D03*
Y26969D03*
X5669Y14882D03*
Y27618D03*
X5787Y32500D03*
X5827Y6339D03*
Y6594D03*
Y6850D03*
Y8130D03*
Y8327D03*
X5866Y15945D03*
Y26969D03*
X5886Y14134D03*
X5906Y4961D03*
Y15118D03*
Y15354D03*
Y33898D03*
X6024Y6339D03*
Y6575D03*
Y6850D03*
X6142Y13701D03*
Y15354D03*
X6220Y6142D03*
Y6575D03*
Y7402D03*
X6339Y16969D03*
Y19685D03*
Y26772D03*
Y27480D03*
X6378Y15354D03*
X6417Y6575D03*
X6496Y8150D03*
X6535Y26260D03*
X6575Y32776D03*
X6614Y15354D03*
X6732Y26260D03*
X6811Y15354D03*
X6929Y26260D03*
Y33780D03*
X7008Y15354D03*
X7126Y33780D03*
X7244Y18937D03*
X7362Y32500D03*
X7441Y8110D03*
X7551Y2815D03*
X7657Y4409D03*
X7697Y3543D03*
X7913Y21732D03*
X7953Y6024D03*
X8150Y6811D03*
Y32776D03*
X8228Y21024D03*
X8327Y6929D03*
X8366Y23228D03*
X8445Y7382D03*
X8504Y3035D03*
Y3642D03*
Y3839D03*
Y4449D03*
X8563Y19035D03*
Y23228D03*
X8583Y4921D03*
X8661Y33701D03*
X8720Y13799D03*
X8760Y23228D03*
X8799Y7087D03*
X8807Y18642D03*
X8937Y32500D03*
X8957Y23228D03*
X8976Y21732D03*
X8996Y7087D03*
Y18543D03*
X9154Y17717D03*
Y23228D03*
X9252Y11220D03*
X9350Y17717D03*
Y23228D03*
X9449Y11220D03*
X9547Y17717D03*
Y20394D03*
X9567Y5866D03*
X9646Y6772D03*
X9665Y1181D03*
X9685Y11220D03*
X9724Y32776D03*
X9744Y19055D03*
Y26417D03*
X9843Y6732D03*
Y19252D03*
X9921Y11220D03*
Y19567D03*
X9961Y21220D03*
X10039Y6732D03*
Y7165D03*
X10059Y25689D03*
X10157Y20118D03*
X10197Y20571D03*
Y20768D03*
Y20965D03*
Y21260D03*
X10217Y19685D03*
X10236Y5189D03*
X10315Y11220D03*
X10354Y2126D03*
X10512Y11220D03*
X10669Y11024D03*
Y11339D03*
X10728Y6732D03*
X10827Y5472D03*
X10906Y11024D03*
X10925Y2008D03*
Y6732D03*
X10945Y9449D03*
Y9646D03*
Y9843D03*
Y23268D03*
X10984Y4488D03*
X11024Y20177D03*
Y20374D03*
X11063Y20571D03*
X11102Y10945D03*
Y11220D03*
Y11496D03*
X11122Y2165D03*
Y2421D03*
Y6732D03*
X11319Y1181D03*
Y6732D03*
X11339Y14469D03*
Y32677D03*
X11378Y10945D03*
Y11220D03*
Y11496D03*
X11457Y21929D03*
X11516Y1181D03*
X11693Y10945D03*
Y11220D03*
Y11496D03*
Y21929D03*
X11713Y1181D03*
X11732Y30472D03*
Y30709D03*
Y30945D03*
Y31181D03*
Y31417D03*
Y31654D03*
Y31850D03*
X11811Y28622D03*
Y28819D03*
Y29055D03*
Y29331D03*
Y29567D03*
Y29843D03*
Y30079D03*
Y30276D03*
X11909Y2480D03*
Y4213D03*
X12008Y10945D03*
Y11220D03*
Y11496D03*
Y12559D03*
Y30472D03*
Y30709D03*
Y30945D03*
Y31181D03*
Y31417D03*
Y31654D03*
Y31850D03*
X12087Y12362D03*
X12106Y2579D03*
Y2776D03*
X12126Y4567D03*
Y30276D03*
X12205Y4961D03*
Y12559D03*
X12244Y14882D03*
Y15197D03*
Y33169D03*
X12283Y12362D03*
Y30472D03*
Y30709D03*
Y30945D03*
Y31181D03*
Y31417D03*
Y31654D03*
Y31850D03*
X12323Y10945D03*
Y11220D03*
Y11496D03*
Y21791D03*
X12343Y3346D03*
Y3642D03*
X12362Y4764D03*
Y22835D03*
X12402Y12559D03*
Y12795D03*
Y12992D03*
Y13189D03*
Y21988D03*
X12520Y27126D03*
X12598Y12047D03*
X12638Y27323D03*
X12815Y20551D03*
X12874Y22835D03*
X12913Y20354D03*
X12992Y28425D03*
X13012Y10185D03*
X13130Y19685D03*
X13150Y8780D03*
Y13602D03*
Y28583D03*
Y32008D03*
X13189Y2657D03*
Y5413D03*
Y32559D03*
X13228Y22087D03*
Y22303D03*
Y24862D03*
Y25551D03*
X13268Y3307D03*
Y3543D03*
Y3780D03*
Y3976D03*
X13346Y19488D03*
X13386Y30433D03*
X13425Y6732D03*
Y19685D03*
Y22402D03*
X13583Y30433D03*
X13622Y27205D03*
X13661Y23780D03*
X13701Y21791D03*
X13740Y13465D03*
Y19134D03*
Y20945D03*
Y21142D03*
X13780Y28268D03*
Y30433D03*
X13819Y19843D03*
Y20315D03*
Y20551D03*
X13937Y19252D03*
Y33425D03*
X13976Y9961D03*
Y10315D03*
Y10551D03*
X14232Y30039D03*
X14567Y32126D03*
Y32323D03*
X14646Y5728D03*
X14665Y30138D03*
X14791Y28445D03*
Y28937D03*
X14843Y4154D03*
Y11319D03*
Y15827D03*
X14882Y17441D03*
Y29626D03*
X14961Y5433D03*
Y8425D03*
X15000Y3051D03*
Y3248D03*
X15118Y591D03*
X15138Y14803D03*
X15354Y31299D03*
X15394Y2126D03*
X15453Y12717D03*
X15492Y15315D03*
X15551Y31299D03*
X15630Y8268D03*
X15650Y19291D03*
X15669Y16339D03*
X15748Y17953D03*
Y31299D03*
X15846Y8268D03*
X15945Y31299D03*
X16024Y26811D03*
X16043Y14291D03*
X16102Y8268D03*
X16240Y14291D03*
Y25591D03*
X16299Y11850D03*
Y12323D03*
X16378Y21161D03*
X16437Y14291D03*
X16457Y984D03*
X16535Y2146D03*
X16634Y9232D03*
Y26555D03*
X16654Y14291D03*
X16693Y984D03*
X16831Y12677D03*
X16850Y12303D03*
Y12874D03*
X16909Y1181D03*
X16929Y5472D03*
Y6673D03*
Y28228D03*
Y31102D03*
X16969Y23465D03*
X17028Y15118D03*
X17047Y12165D03*
X17087Y2008D03*
Y2264D03*
X17126Y12559D03*
Y31102D03*
X17165Y913D03*
Y5433D03*
Y23465D03*
X17205Y5630D03*
X17224Y9134D03*
Y15118D03*
Y20118D03*
Y26457D03*
X17244Y2402D03*
Y5827D03*
Y12165D03*
X17283Y6732D03*
Y21752D03*
X17303Y1083D03*
Y30276D03*
X17323Y31102D03*
X17362Y23268D03*
X17421Y9134D03*
Y15118D03*
Y20118D03*
Y26457D03*
X17441Y12067D03*
X17520Y6732D03*
Y31102D03*
X17559Y512D03*
X17598Y22283D03*
Y25591D03*
X17618Y1181D03*
Y8268D03*
Y15138D03*
Y19291D03*
X17717Y6732D03*
Y31083D03*
X17795Y25591D03*
X17815Y1181D03*
Y2717D03*
Y8268D03*
Y13780D03*
Y19291D03*
Y22244D03*
X17953Y30000D03*
X17992Y354D03*
Y25591D03*
X18012Y1181D03*
Y8268D03*
Y13780D03*
Y19291D03*
Y27067D03*
X18189Y236D03*
X18209Y9587D03*
Y20591D03*
Y22146D03*
Y27067D03*
X18228Y10945D03*
X18386Y4980D03*
Y9705D03*
Y12067D03*
Y22717D03*
Y23071D03*
X18406Y10295D03*
Y20591D03*
X18425Y2854D03*
Y3051D03*
Y27638D03*
X18504Y3504D03*
Y3701D03*
Y4232D03*
Y4429D03*
X18543Y20984D03*
Y21181D03*
X18547Y21535D03*
X18622Y10728D03*
Y10925D03*
Y11122D03*
Y11319D03*
Y11516D03*
Y20256D03*
Y27441D03*
Y27638D03*
Y28425D03*
Y28642D03*
Y28858D03*
X18661Y9941D03*
Y10138D03*
Y12402D03*
Y22717D03*
Y23071D03*
X18898Y591D03*
Y1417D03*
Y6339D03*
X19016Y13937D03*
X19075Y30886D03*
X19213Y5984D03*
X19272Y30827D03*
X19409Y5984D03*
X19429Y13937D03*
X19476Y27835D03*
Y28248D03*
X19488Y20768D03*
Y21535D03*
Y22126D03*
Y22362D03*
Y28051D03*
Y28445D03*
X19567Y3248D03*
Y3740D03*
Y29921D03*
Y30827D03*
X19606Y17953D03*
X19626Y31594D03*
X19665Y23780D03*
X19685Y21496D03*
Y23307D03*
X19705Y21732D03*
Y31988D03*
X19724Y4016D03*
X19744Y22835D03*
X19764Y5748D03*
Y6260D03*
Y15394D03*
Y22598D03*
Y27402D03*
Y32717D03*
X19803Y11063D03*
Y32244D03*
X19823Y12441D03*
X19843Y15787D03*
Y32480D03*
X19961Y3346D03*
Y3543D03*
Y3740D03*
Y3937D03*
X20039Y29921D03*
X20079Y4921D03*
Y19055D03*
Y19252D03*
X20197Y26299D03*
X20315Y19055D03*
X20394Y10079D03*
Y17756D03*
Y27913D03*
X20433Y24291D03*
X20512Y14508D03*
Y26299D03*
X20551Y15591D03*
Y17992D03*
Y29685D03*
X20591Y8346D03*
X20630Y8642D03*
Y10787D03*
Y12953D03*
Y17677D03*
Y32402D03*
X20669Y5669D03*
Y19252D03*
Y22598D03*
Y27323D03*
X20709Y10591D03*
Y15394D03*
Y19055D03*
X20768Y29665D03*
X20787Y10945D03*
Y23110D03*
Y30000D03*
Y32008D03*
X20827Y15787D03*
Y21575D03*
X20866Y20315D03*
Y22598D03*
Y26378D03*
X20906Y27323D03*
Y27638D03*
X20984Y20709D03*
X21024Y689D03*
Y15354D03*
Y30000D03*
X21063Y20315D03*
Y24055D03*
X21102Y13268D03*
Y22598D03*
Y32047D03*
X21201Y14429D03*
X21260Y12953D03*
Y20315D03*
X21339Y15354D03*
Y17638D03*
X21378Y8228D03*
Y12047D03*
X21417Y1378D03*
Y15748D03*
Y21693D03*
Y26339D03*
Y27441D03*
X21457Y5669D03*
Y16673D03*
Y24055D03*
Y32205D03*
X21496Y10866D03*
Y11063D03*
Y29843D03*
Y30118D03*
X21575Y14331D03*
X21654Y19016D03*
X21673Y17500D03*
X21693Y9449D03*
Y11575D03*
Y12441D03*
Y13425D03*
Y26181D03*
Y30866D03*
Y33228D03*
X21732Y6260D03*
Y6732D03*
Y17756D03*
Y18268D03*
Y20709D03*
Y23071D03*
Y23583D03*
Y27913D03*
Y28465D03*
Y32717D03*
X21772Y14331D03*
Y24252D03*
X21811Y1969D03*
Y8622D03*
X21850Y7598D03*
X21890Y19016D03*
Y21693D03*
X21969Y14331D03*
X22047Y2953D03*
X22244D03*
Y27402D03*
X22441Y2953D03*
Y3780D03*
X23031Y6693D03*
X23071Y6417D03*
X23307Y8937D03*
Y13760D03*
Y23406D03*
Y28425D03*
Y33031D03*
X23346Y18228D03*
Y18583D03*
X23386Y3425D03*
X23622Y8307D03*
Y26339D03*
Y27795D03*
X23740Y1614D03*
Y1811D03*
Y2008D03*
Y2205D03*
Y2441D03*
Y2677D03*
Y2874D03*
Y3150D03*
Y3386D03*
X23898Y23051D03*
X23937Y8543D03*
Y18228D03*
X24016Y1614D03*
Y1811D03*
Y2008D03*
Y2205D03*
Y2441D03*
Y2677D03*
Y2874D03*
Y3150D03*
Y3386D03*
Y3583D03*
Y3780D03*
Y3976D03*
Y4173D03*
Y4370D03*
Y4567D03*
Y4764D03*
Y4961D03*
X24094Y9252D03*
X24213Y27795D03*
X24291Y1614D03*
Y1811D03*
Y2008D03*
Y2205D03*
Y2441D03*
Y2677D03*
Y2874D03*
Y3150D03*
Y3386D03*
X24567Y6890D03*
Y7126D03*
Y30039D03*
Y30433D03*
X24724Y1063D03*
X25630Y5433D03*
X25669Y5657D03*
Y10000D03*
X25689Y8760D03*
X25768Y2933D03*
X26260Y433D03*
Y748D03*
X26457Y433D03*
X26575Y14882D03*
Y24528D03*
X26614Y33248D03*
X26693Y3051D03*
X26811Y177D03*
X26870Y4961D03*
X27008Y315D03*
X27126Y23602D03*
Y28425D03*
X27835Y22441D03*
Y22677D03*
Y22913D03*
Y23602D03*
Y33248D03*
X27854Y7087D03*
Y7382D03*
Y7677D03*
Y11909D03*
Y12205D03*
Y12500D03*
Y16732D03*
Y17028D03*
Y17323D03*
Y21555D03*
Y21850D03*
Y22146D03*
Y26378D03*
Y26673D03*
Y26969D03*
Y31201D03*
Y31496D03*
Y31791D03*
X28248Y7087D03*
Y7382D03*
Y7677D03*
Y11909D03*
Y12205D03*
Y12500D03*
Y16732D03*
Y17028D03*
Y17323D03*
Y21555D03*
Y21850D03*
Y31201D03*
X28268Y22441D03*
Y22677D03*
Y22913D03*
X29567Y13780D03*
X29705Y16693D03*
Y26457D03*
X30000Y11614D03*
X31102Y1732D03*
Y3307D03*
Y4882D03*
X31654Y1732D03*
X31693Y2795D03*
X31772Y4606D03*
G54D15*
X1220Y4882D03*
X8150Y25669D03*
X11043Y8346D03*
X12283Y7067D03*
X14094Y26378D03*
X17618Y12579D03*
X24488Y10827D03*
X24606Y26673D03*
X25079Y6555D03*
X25591Y7283D03*
Y12008D03*
Y18406D03*
X26063Y22402D03*
Y27244D03*
X27244Y29429D03*
X28071Y14961D03*
X28110Y29429D03*
X29094Y13307D03*
Y18071D03*
Y22913D03*
Y27717D03*
X29134Y7894D03*
X29528Y9646D03*
Y24213D03*
Y28937D03*
X29587Y17657D03*
X29823Y12795D03*
X30138Y19724D03*
X30236Y7559D03*
G54D16*
X3543Y20669D03*
Y22244D03*
Y23819D03*
Y24606D03*
X5551Y18504D03*
X5642Y886D03*
Y2461D03*
Y4035D03*
X5807Y9449D03*
Y11024D03*
Y12598D03*
X6417Y21457D03*
X8150Y26083D03*
X8366Y14488D03*
X8661Y23996D03*
Y27776D03*
X9409Y28898D03*
X9449Y23996D03*
Y27776D03*
X10236Y32283D03*
X11102Y25039D03*
X12835Y26929D03*
X13071Y14685D03*
Y16339D03*
Y17874D03*
Y26457D03*
X13425Y31260D03*
X13898Y23524D03*
X15118Y26811D03*
X18661Y30433D03*
X19370Y20276D03*
X22756Y2264D03*
X22835Y19606D03*
X23031Y15866D03*
X23071Y29921D03*
X23110Y17028D03*
X23130Y11496D03*
X23228Y5315D03*
X23819Y30906D03*
X24134Y15866D03*
X24528Y5984D03*
X27205Y1181D03*
X27264Y10138D03*
X27717Y4606D03*
X27736Y2992D03*
X27953Y8425D03*
X29016Y1280D03*
Y2854D03*
Y4429D03*
G54D17*
X3051Y27953D03*
X5531Y31378D03*
X7126D03*
X8150Y7717D03*
X8701Y31378D03*
X10945Y13484D03*
X23622Y11496D03*
G54D18*
X28248Y22146D03*
Y26378D03*
Y26969D03*
Y31496D03*
Y31791D03*
G54D19*
X2362Y4921D03*
Y5421D03*
Y5921D03*
Y6421D03*
Y6921D03*
Y7421D03*
Y7921D03*
Y8421D03*
Y8921D03*
Y9421D03*
Y9921D03*
Y10421D03*
Y10921D03*
Y11421D03*
Y11921D03*
Y12421D03*
Y12921D03*
Y13421D03*
Y13921D03*
Y14421D03*
Y14921D03*
Y15421D03*
Y15921D03*
Y16421D03*
Y16921D03*
Y17421D03*
Y17921D03*
Y18421D03*
Y18921D03*
Y19421D03*
M02*
