*
G04 Job   : C:\Mentor_proj\450\PCB\450.pcb*
G04 User  : WINDOWS-XP:user*
G04 Layer : Layer4Bottom.gdo*
G04 Date  : Fri Dec 16 16:25:48 2022*
G04 Mentor Graphics Example Gerber Output Definition*
%ICAS*%
%MOIN*%
%FSLAX24Y24*%
%OFA0.0000B0.0000*%
G90*
G74*
%AMVB_RECTANGLE*
21,1,$1,$2,0,0,$3*
%
%AMVB_FINGER0*
$3=$1/2*
$4=$2/2*
$5=0-$4*
1,1,$2,$3-$4,0*
21,1,$1-$4,$2,$5/2,0,0*
%
%AMVB_FINGER90*
$3=$1/2*
$4=$2/2*
$5=0-$4*
1,1,$2,0,$3-$4*
21,1,$2,$1-$4,0,$5/2,0*
%
%AMVB_FINGER180*
$3=$1/2*
$4=$2/2*
1,1,$2,$4-$3,0*
21,1,$1-$4,$2,$4/2,0,0*
%
%AMVB_FINGER270*
$3=$1/2*
$4=$2/2*
1,1,$2,0,$4-$3*
21,1,$2,$1-$4,0,$4/2,0*
%
%ADD17C,0.00394*%
%ADD13C,0.00591*%
%ADD19C,0.00787*%
%ADD70C,0.01181*%
%ADD14C,0.01378*%
%ADD22C,0.01575*%
%ADD24C,0.01772*%
%ADD15C,0.01969*%
%ADD21C,0.02362*%
%ADD16C,0.02756*%
%ADD20C,0.03150*%
%ADD23C,0.03543*%
%ADD18C,0.03937*%
%ADD71C,0.04724*%
%ADD12C,0.12205*%
%ADD10C,0.19685*%
%ADD11C,0.19783*%
%ADD27O,0.04724X0.02362*%
%ADD26O,0.02362X0.04724*%
%ADD31O,0.05118X0.02362*%
%ADD40O,0.02362X0.05118*%
%ADD34O,0.05512X0.00984*%
%ADD33O,0.00984X0.05512*%
%ADD30O,0.01772X0.05906*%
%ADD72O,0.05906X0.02362*%
%ADD39O,0.02362X0.05906*%
%ADD25VB_RECTANGLE,0.02362X0.02362X0.00000*%
%ADD41VB_RECTANGLE,0.05512X0.04134X90.00000*%
%ADD28VB_RECTANGLE,0.05709X0.03740X180.00000*%
%ADD73VB_RECTANGLE,0.05709X0.03740X90.00000*%
%ADD29VB_RECTANGLE,0.07677X0.03543X0.00000*%
%ADD38VB_RECTANGLE,0.07677X0.03543X270.00000*%
%ADD35VB_FINGER0,0.06299X0.00984*%
%ADD32VB_FINGER90,0.06299X0.00984*%
%ADD37VB_FINGER180,0.06299X0.00984*%
%ADD36VB_FINGER270,0.06299X0.00984*%
G01*
G36*
X118Y906D02*
X1772D01*
Y19764*
X118*
Y906*
Y28583D02*
X1063D01*
Y33228*
X118*
Y28583*
X945Y24646D02*
X2441D01*
Y25512*
X945*
Y24646*
Y25472D02*
X2756D01*
Y27598*
X945*
Y25472*
X984Y33071D02*
X5709D01*
Y33937*
X984*
Y33071*
X1063Y26339D02*
X6142D01*
Y27205*
X1063*
Y26339*
X1220Y118D02*
X2835D01*
Y5118*
X1220*
Y118*
X1693Y7283D02*
X3071D01*
Y7559*
X1693*
Y7283*
Y9724D02*
X2520D01*
Y10118*
X1693*
Y9724*
X1732Y12205D02*
X2559D01*
Y12638*
X1732*
Y12205*
Y14724D02*
X2559D01*
Y15118*
X1732*
Y14724*
X2638Y25748D02*
X3740D01*
Y26496*
X2638*
Y25748*
X2677Y5079D02*
X4016D01*
Y8346*
X2677*
Y5079*
X3031Y7756D02*
X4764D01*
Y8819*
X3031*
Y7756*
X3150Y16260D02*
X3386D01*
Y16732*
X3150*
Y16260*
X3701Y16220D02*
X4370D01*
Y17165*
X3701*
Y16220*
X3740Y5866D02*
X6024D01*
Y7835*
X3740*
Y5866*
X4685Y8268D02*
X5472D01*
Y8819*
X4685*
Y8268*
X5039Y14213D02*
X5512D01*
Y15157*
X5039*
Y14213*
Y16102D02*
X6181D01*
Y17047*
X5039*
Y16102*
X5089Y15039D02*
Y14094D01*
X4429*
Y13386*
X3150*
Y16339*
X5630*
Y15039*
X5089*
X5236Y7638D02*
X6299D01*
Y8819*
X5236*
Y7638*
X5354Y14213D02*
X6535D01*
Y14724*
X5354*
Y14213*
X5709Y22047D02*
X6201D01*
Y22638*
X5709*
Y22047*
Y22244D02*
X6673D01*
Y22736*
X5709*
Y22244*
Y25433D02*
X6378D01*
Y26575*
X5709*
Y25433*
X5866Y14094D02*
X6929D01*
Y15433*
X5866*
Y14094*
X6181Y12913D02*
X7441D01*
Y13307*
X6181*
Y12913*
X6299D02*
X7047D01*
Y15748*
X6299*
Y12913*
Y19882D02*
X6890D01*
Y21142*
X6299*
Y19882*
X6339Y25512D02*
X7244D01*
Y26102*
X6339*
Y25512*
X6496Y19291D02*
X7972D01*
Y20669*
X6496*
Y19291*
Y20571D02*
X8366D01*
Y21161*
X6496*
Y20571*
X6614Y18661D02*
X7087D01*
Y19331*
X6614*
Y18661*
Y21693D02*
X6732D01*
Y22441*
X6614*
Y21693*
X6654Y21063D02*
X7756D01*
Y22441*
X6654*
Y21063*
X6929Y23661D02*
X8819D01*
Y24291*
X6929*
Y23661*
X6969Y19173D02*
X8937D01*
Y19606*
X6969*
Y19173*
X7087Y6929D02*
X7559D01*
Y8543*
X7087*
Y6929*
X7244Y25512D02*
X8465D01*
Y25866*
X7244*
Y25512*
X7283Y20866D02*
X10039D01*
Y21555*
X7283*
Y20866*
X7559Y14882D02*
X10551D01*
Y16575*
X7559*
Y14882*
X7756Y9921D02*
X8701D01*
Y11634*
X7756*
Y9921*
X7776Y20079D02*
X9291D01*
Y21260*
X7776*
Y20079*
X7992Y23386D02*
X9055D01*
Y25787*
X7992*
Y23386*
X8031Y5512D02*
X8504D01*
Y5906*
X8031*
Y5512*
X8071Y11220D02*
X9764D01*
Y13130*
X8071*
Y11220*
Y26339D02*
X8858D01*
Y27953*
X8071*
Y26339*
X8248Y14961D02*
X10551D01*
Y15551*
X8248*
Y14961*
X8386Y23386D02*
X9882D01*
Y26181*
X8386*
Y23386*
Y25945D02*
Y27953D01*
X9843*
X10039Y27756*
Y25945*
X8386*
X8465Y1969D02*
X9547D01*
Y2894*
X8465*
Y1969*
Y5079D02*
X9213D01*
Y5906*
X8465*
Y5079*
Y10276D02*
X10315D01*
Y10827*
X8465*
Y10276*
X8504Y19528D02*
X8937D01*
Y20157*
X8504*
Y19528*
X8661Y787D02*
X9941D01*
Y1024*
X8661*
Y787*
Y11614D02*
X9764D01*
Y15157*
X8661*
Y11614*
X8701Y18799D02*
X9232D01*
Y20177*
X8701*
Y18799*
X8740Y2362D02*
X10039D01*
Y5472*
X8740*
Y2362*
X8760Y3051D02*
X10039D01*
Y4331*
X8760*
Y3051*
Y3839D02*
X9252D01*
Y5079*
X8760*
Y3839*
X8858Y4626D02*
X10039D01*
Y5709*
X8858*
Y4626*
X8957Y18701D02*
X9350D01*
Y18898*
X8957*
Y18701*
X9094Y18858D02*
X9606D01*
Y19449*
X9094*
Y18858*
X9134Y3189D02*
X11713D01*
Y4646*
X9134*
Y3189*
Y18504D02*
X10354D01*
Y18898*
X9134*
Y18504*
X9154Y19409D02*
X9764D01*
Y21161*
X9154*
Y19409*
X9213Y10748D02*
X10984D01*
Y11496*
X9213*
Y10748*
X9350Y4370D02*
X11969D01*
Y5039*
X9350*
Y4370*
Y21358D02*
X10039D01*
Y21791*
X9350*
Y21358*
X9449Y13346D02*
X10000D01*
Y15079*
X9449*
Y13346*
X9528Y23189D02*
X10236D01*
Y24094*
X9528*
Y23189*
X9567Y9567D02*
X10315D01*
Y10354*
X9567*
Y9567*
X9744Y21457D02*
X10138D01*
Y22480*
X9744*
Y21457*
X9764Y11496D02*
X10079D01*
Y12717*
X9764*
Y11496*
X9843Y21457D02*
X10039D01*
Y22913*
X9843*
Y21457*
Y22126D02*
X10236D01*
Y22953*
X9843*
Y22126*
X9882Y2283D02*
X10866D01*
Y2756*
X9882*
Y2283*
Y2677D02*
X10118D01*
Y3268*
X9882*
Y2677*
X9921Y23071D02*
X10669D01*
Y24094*
X9921*
Y23071*
Y29685D02*
X11181D01*
Y30827*
X9921*
Y29685*
X9941Y18602D02*
X10236D01*
Y19094*
X9941*
Y18602*
X10197Y9567D02*
X12106D01*
Y10354*
X10197*
Y9567*
X10354Y22835D02*
X10669D01*
Y23307*
X10354*
Y22835*
X10394Y4724D02*
X12008D01*
Y5315*
X10394*
Y4724*
X10551Y2638D02*
X11969D01*
Y4055*
X10551*
Y2638*
X10591Y29173D02*
X12323D01*
Y30787*
X10591*
Y29173*
X10630Y31339D02*
X11575D01*
Y32480*
X10630*
Y31339*
X10669Y10157D02*
X10945D01*
Y10433*
X10669*
Y10157*
X10787Y8898D02*
X11339D01*
Y9606*
X12441*
X12992Y9055*
Y8701*
X13071Y8622*
X13189*
X13543Y8268*
Y8110*
X11614*
X10433Y6929*
X10315*
Y7244*
X10157Y7402*
X9685*
Y7559*
X10709Y8583*
Y8819*
X10787Y8898*
Y10039D02*
Y11772D01*
X12165*
X12480Y11457*
Y10039*
X10787*
X10827Y9449D02*
X11260D01*
Y10157*
X10827*
Y9449*
X10906Y9213D02*
X11102D01*
Y9528*
X10906*
Y9213*
Y30433D02*
X12953D01*
Y32480*
X10906*
Y30433*
X10945Y8327D02*
X12126D01*
Y10886*
X10945*
Y8327*
X11260Y1969D02*
X11772D01*
Y2756*
X11260*
Y1969*
X11319D02*
X12126D01*
Y2323*
X11319*
Y1969*
X11516Y5118D02*
X12402D01*
Y5709*
X11516*
Y5118*
X11929Y12283D02*
X13346D01*
Y13150*
X11929*
Y12283*
X12008Y1260D02*
X12717D01*
Y2323*
X12008*
Y1260*
Y5610D02*
X12480D01*
Y7283*
X12008*
Y5610*
X12047Y2205D02*
X12402D01*
Y2441*
X12047*
Y2205*
X12087Y2244D02*
X12717D01*
Y2362*
X12087*
Y2244*
X12205Y32441D02*
X12953D01*
Y33583*
X12205*
Y32441*
X12598Y5630D02*
Y7835D01*
X19449*
Y7205*
X17008*
X16850Y7047*
X13268*
Y5630*
X12598*
X12677Y29173D02*
X13701D01*
Y30984*
X12677*
Y29173*
X12717Y32717D02*
X15197D01*
Y33268*
X12717*
Y32717*
X12795Y1673D02*
X13091D01*
Y2264*
X12795*
Y1673*
X12835Y30866D02*
X13150D01*
Y31535*
X12835*
Y30866*
X12854Y28898D02*
Y27756D01*
X11850*
X9921Y29685*
Y30118*
X13386*
Y28898*
X12854*
X12913Y31535D02*
X14567D01*
Y31811*
X12913*
Y31535*
X13071Y10039D02*
X13228Y10197D01*
X13780*
Y9882*
X13858Y9803*
X14016*
Y9528*
X14134Y9409*
X14213*
Y9016*
X13543*
X12874Y9685*
Y10039*
X13071*
X13386Y32480D02*
X15000D01*
Y32835*
X13386*
Y32480*
X13425Y31732D02*
X14409D01*
Y32047*
X13425*
Y31732*
X13543Y30315D02*
X13858D01*
Y30984*
X13543*
Y30315*
X13661Y30787D02*
X14331D01*
Y31654*
X13661*
Y30787*
X13819Y23622D02*
X14803D01*
Y23898*
X13819*
Y23622*
X13976Y8563D02*
X14370D01*
Y8937*
X13976*
Y8563*
X14075Y5512D02*
X14764D01*
Y5709*
X14075*
Y5512*
Y5591D02*
X15354D01*
Y5906*
X14075*
Y5591*
X14173Y12598D02*
X14862D01*
Y12894*
X14173*
Y12598*
X14272Y8563D02*
X15039D01*
Y9409*
X14272*
Y8563*
X14567Y29823D02*
X15256D01*
Y30315*
X14567*
Y29823*
X14724Y23524D02*
X16437D01*
Y23898*
X14724*
Y23524*
Y26457D02*
X15827D01*
Y28307*
X14724*
Y26457*
Y31772D02*
X19488D01*
Y33858*
X14724*
Y31772*
X14764Y1969D02*
X16378D01*
Y2925*
X14764*
Y1969*
Y9154D02*
X15551D01*
Y11181*
X14764*
Y9154*
Y11457D02*
X16142D01*
Y12894*
X14764*
Y11457*
Y12500D02*
X15157D01*
Y12894*
X14764*
Y12500*
Y20571D02*
X15551D01*
Y21339*
X14764*
Y20571*
Y21299D02*
X17126D01*
Y21988*
X14764*
Y21299*
Y21949D02*
X17441D01*
Y22598*
X14764*
Y21949*
X14803Y3425D02*
X15315D01*
Y3976*
X14803*
Y3425*
X15000Y9744D02*
X15748D01*
Y11496*
X15000*
Y9744*
X15039Y27953D02*
X15650D01*
Y30315*
X15039*
Y27953*
X15079Y23031D02*
X15827D01*
Y23583*
X15079*
Y23031*
X15157Y2283D02*
X16575D01*
Y5906*
X15157*
Y2283*
Y3425D02*
Y4331D01*
X14803*
Y5000*
X15512*
Y3425*
X15157*
X15472Y20748D02*
X16220D01*
Y21339*
X15472*
Y20748*
X15512Y31929D02*
X13661Y30079D01*
Y31929*
X15512*
X15610Y9744D02*
X16732D01*
Y11713*
X15610*
Y9744*
X15630Y27953D02*
X16732D01*
Y28346*
X15630*
Y27953*
X15650Y22441D02*
X16831D01*
Y23622*
X15650*
Y22441*
X15748Y20079D02*
X16102D01*
Y20354*
X15748*
Y20079*
Y28504D02*
X17047D01*
Y30315*
X15748*
Y28504*
X15945Y9409D02*
X17402D01*
Y10039*
X15945*
Y9409*
Y15315D02*
X19409D01*
Y18819*
X15945*
Y15315*
Y20079D02*
X16437D01*
Y20965*
X15945*
Y20079*
X16220Y20433D02*
X16890D01*
Y21024*
X16220*
Y20433*
X16339Y22736D02*
X17165D01*
Y23307*
X16339*
Y22736*
X16437Y22441D02*
X17913D01*
Y23130*
X16437*
Y22441*
X16496Y2402D02*
X17087D01*
Y2756*
X16496*
Y2402*
Y3150D02*
X18268D01*
Y5276*
X16496*
Y3150*
Y10433D02*
X17717D01*
Y11929*
X16496*
Y10433*
X16535Y20433D02*
X17047D01*
Y21339*
X16535*
Y20433*
X16811Y28150D02*
X17047D01*
Y28583*
X16811*
Y28150*
X16831Y20276D02*
X18051D01*
Y21614*
X16831*
Y20276*
X16890Y26614D02*
X16535Y26969D01*
X15039*
Y28051*
X17717*
Y26614*
X16890*
X16929Y29429D02*
X17815D01*
Y30118*
X16929*
Y29429*
Y29921D02*
X17126D01*
Y30315*
X16929*
Y29921*
X16969Y2559D02*
X18268D01*
Y3445*
X16969*
Y2559*
Y26614D02*
X17874D01*
Y27362*
X16969*
Y26614*
X17126Y9291D02*
X17717D01*
Y11122*
X17126*
Y9291*
X17441Y27362D02*
X18268D01*
Y29331*
X17441*
Y27362*
X17520Y1969D02*
X19390D01*
Y2323*
X17520*
Y1969*
Y2264D02*
X18268D01*
Y2756*
X17520*
Y2264*
Y20768D02*
X18307D01*
Y21949*
X17520*
Y20768*
X17579Y9055D02*
X18406D01*
Y9449*
X17579*
Y9055*
Y9350D02*
X18071D01*
Y12303*
X17579*
Y9350*
X17618Y20079D02*
X19528D01*
Y20453*
X17618*
Y20079*
Y22638D02*
X18504D01*
Y23327*
X17618*
Y22638*
Y26378D02*
X18012D01*
Y26870*
X17618*
Y26378*
X17815Y4724D02*
X18583D01*
Y5827*
X17815*
Y4724*
X17835Y14094D02*
X19488D01*
Y17598*
X17835*
Y14094*
X17913Y9744D02*
X18248D01*
Y12697*
X17913*
Y9744*
Y12598D02*
X18701D01*
Y12992*
X17913*
Y12598*
Y26378D02*
X18740D01*
Y26870*
X17913*
Y26378*
Y27953D02*
X18465D01*
Y29823*
X17913*
Y27953*
X18169Y12894D02*
X18406D01*
Y13976*
X18169*
Y12894*
X18209Y10433D02*
X18406D01*
Y12697*
X18209*
Y10433*
Y22638D02*
X18504D01*
Y24055*
X18209*
Y22638*
Y29035D02*
X18701D01*
Y30217*
X18209*
Y29035*
X18307Y1575D02*
X19390D01*
Y2067*
X18307*
Y1575*
Y5276D02*
X18701D01*
Y6535*
X18307*
Y5276*
Y8366D02*
X19291D01*
Y9449*
X18307*
Y8366*
Y11811D02*
X18504D01*
Y12697*
X18307*
Y11811*
Y23661D02*
X18937D01*
Y24646*
X18307*
Y23661*
Y29921D02*
X18799D01*
Y30807*
X18307*
Y29921*
X18386Y19252D02*
Y19882D01*
X19843*
Y18150*
X17894*
Y18760*
X18386Y19252*
Y19803D02*
X19016D01*
Y20000*
X18386*
Y19803*
X18406Y25079D02*
X19980D01*
Y26280*
X18406*
Y25079*
X18425Y23268D02*
X18701D01*
Y23701*
X18425*
Y23268*
X18504Y13071D02*
X18858D01*
Y14134*
X18504*
Y13071*
X18543Y32874D02*
X20472D01*
Y33504*
X18543*
Y32874*
X18622Y5551D02*
X19055D01*
Y6181*
X18622*
Y5551*
X18701Y26378D02*
X19213D01*
Y26772*
X18701*
Y26378*
X18799Y8760D02*
X19291D01*
Y9449*
X18799*
Y8760*
X18819Y33386D02*
X23622D01*
Y33858*
X18819*
Y33386*
X19331Y591D02*
Y1024D01*
X21929Y3622*
X22441*
Y591*
X19331*
X19646Y10039D02*
X19764Y10157D01*
X20079*
X20551Y9685*
X21024*
Y9528*
X20630*
X20472Y9370*
Y8543*
X20394Y8465*
Y7480*
X19724*
X19449Y7205*
X19173*
Y7835*
X19646Y8307*
Y10039*
X20591Y591D02*
X24409D01*
Y2008*
X20591*
Y591*
X20866Y28622D02*
X21732D01*
Y28858*
X20866*
Y28622*
Y30984D02*
X21535D01*
Y31142*
X20866*
Y30984*
X21260Y31024D02*
X21732D01*
Y31220*
X21260*
Y31024*
X21614Y17677D02*
X21969D01*
Y18031*
X21614*
Y17677*
X21654Y21890D02*
X24803D01*
Y22756*
X21654*
Y21890*
Y26811D02*
X23661D01*
Y27638*
X21654*
Y26811*
Y31024D02*
X22283D01*
Y32382*
X21654*
Y31024*
X21693Y12835D02*
X22283D01*
Y13150*
X21693*
Y12835*
Y28622D02*
X22795D01*
Y30709*
X21693*
Y28622*
X21811Y14488D02*
X22736D01*
Y18150*
X21811*
Y14488*
X21850Y10433D02*
X22913D01*
Y12283*
X21850*
Y10433*
Y12992D02*
X23720D01*
Y13780*
X21850*
Y12992*
Y30236D02*
X23524D01*
Y31791*
X21850*
Y30236*
X21890Y32283D02*
X27657D01*
Y33858*
X21890*
Y32283*
X21929Y2520D02*
X23228D01*
Y3622*
X21929*
Y2520*
X21949Y16181D02*
X24705D01*
Y16811*
X21949*
Y16181*
Y16535D02*
X22736D01*
Y17421*
X21949*
Y16535*
Y19882D02*
X23130D01*
Y21358*
X21949*
Y19882*
X21969Y27480D02*
X29429D01*
Y29685*
X21969*
Y27480*
X22047Y11772D02*
X24606D01*
Y14173*
X22047*
Y11772*
Y17264D02*
X24803D01*
Y18898*
X22047*
Y17264*
Y18799D02*
X22539D01*
Y20079*
X22047*
Y18799*
Y21260D02*
X22795D01*
Y26476*
X22047*
Y21260*
X22126Y3937D02*
X22913D01*
Y5866*
X22126*
Y3937*
Y11732D02*
X25512D01*
Y15630*
X22126*
Y11732*
X22244Y32165D02*
X22677D01*
Y32323*
X22244*
Y32165*
X22441Y18898D02*
X23228D01*
Y19291*
X22441*
Y18898*
X22539Y21024D02*
X24370D01*
Y25079*
X22539*
Y21024*
Y25551D02*
X23425D01*
Y27165*
X22539*
Y25551*
X22598Y5591D02*
X24291D01*
Y6260*
X22598*
Y5591*
X22677Y16732D02*
X22835D01*
Y17362*
X22677*
Y16732*
X22697Y31181D02*
X24409D01*
Y31988*
X22697*
Y31181*
Y31890D02*
X23701D01*
Y32480*
X22697*
Y31890*
X22795Y3937D02*
X24055D01*
Y5079*
X22795*
Y3937*
X22953Y7244D02*
X22165D01*
Y11181*
X23937*
Y8228*
X22953Y7244*
X23031Y1299D02*
Y3268D01*
X25709*
X26772Y2205*
Y1299*
X23031*
X23130Y18701D02*
X24528D01*
Y20591*
X23130*
Y18701*
X23268Y14094D02*
X23898D01*
Y16260*
X23268*
Y14094*
Y25000D02*
X23917D01*
Y25787*
X23268*
Y25000*
Y32480D02*
X23425D01*
Y33858*
X23268*
Y32480*
X23327Y25689D02*
X24114D01*
Y26181*
X23327*
Y25689*
X23386Y29685D02*
X24409D01*
Y30630*
X23386*
Y29685*
X23425Y16535D02*
X24803D01*
Y17323*
X23425*
Y16535*
Y26575D02*
X24311D01*
Y27165*
X23425*
Y26575*
X23504Y3898D02*
X24803D01*
Y5748*
X23504*
Y3898*
X23543Y3031D02*
X25709D01*
Y5157*
X23543*
Y3031*
X23583Y20591D02*
X24606D01*
Y21024*
X23583*
Y20591*
X23740Y21732D02*
X25276D01*
Y25591*
X23740*
Y21732*
X23819Y25492D02*
X24114D01*
Y25787*
X23819*
Y25492*
Y25689D02*
X24311D01*
Y26673*
X23819*
Y25689*
X23858Y10433D02*
X24173D01*
Y11850*
X23858*
Y10433*
X23937Y11102D02*
X25000D01*
Y11850*
X23937*
Y11102*
X24016Y25492D02*
X24902D01*
Y25866*
X24016*
Y25492*
Y26378D02*
X25098D01*
Y27520*
X24016*
Y26378*
Y31299D02*
X29429D01*
Y32480*
X24016*
Y31299*
X24055Y30630D02*
X24409D01*
Y31220*
X24055*
Y30630*
X24213Y29331D02*
X25197D01*
Y29882*
X24213*
Y29331*
X24311Y9331D02*
Y9449D01*
X23819*
Y10531*
X24803*
X24882Y9331*
X24311*
X24370Y30591D02*
X25039D01*
Y30787*
X24370*
Y30591*
X24409Y12008D02*
X25000D01*
Y16240*
X24409*
Y12008*
Y32382D02*
X32677D01*
Y33858*
X24409*
Y32382*
X24547Y15669D02*
X29252D01*
Y21024*
X24547*
Y15669*
X24724Y28740D02*
X25197D01*
Y30748*
X24724*
Y28740*
X24764Y5000D02*
X25472D01*
Y6299*
X24764*
Y5000*
X24803Y6791D02*
X25689D01*
Y7874*
X24803*
Y6791*
Y10472D02*
X25689D01*
Y11811*
X24803*
Y10472*
X24882Y21890D02*
X30827D01*
Y27126*
X24882*
Y21890*
X24921Y15551D02*
X25512D01*
Y15866*
X24921*
Y15551*
Y27756D02*
X30906D01*
Y31594*
X24921*
Y27756*
X25000Y25492D02*
X29528D01*
Y27835*
X25000*
Y25492*
X25079Y17953D02*
X30906D01*
Y21969*
X25079*
Y17953*
X25197Y8858D02*
X23917Y7579D01*
Y7283*
X25689*
Y8858*
X25197*
X25315Y5591D02*
X25689D01*
Y6890*
X25315*
Y5591*
X25394Y10138D02*
X29429D01*
Y15354*
X25394*
Y10138*
X25492Y9941D02*
X24882Y9331D01*
X24606*
Y10531*
X25492*
Y9941*
X25866Y13071D02*
X30906D01*
Y17362*
X25866*
Y13071*
X25984Y9941D02*
X30906D01*
Y12520*
X25984*
Y9941*
X26811Y8661D02*
X26929Y8780D01*
X27126*
X29134Y6772*
Y6201*
X28799*
Y5886*
X29134Y5551*
Y5276*
X28780Y4921*
X26811*
Y8661*
X27756Y7638D02*
X28307D01*
Y8150*
X27756*
Y7638*
X28189Y6181D02*
X29961D01*
Y8543*
X28189*
Y6181*
X28819Y5157D02*
X33858D01*
Y5669*
X28819*
Y5157*
X29035Y7835D02*
X30906D01*
Y10039*
X29035*
Y7835*
X29252Y5512D02*
X30906D01*
Y7283*
X29252*
Y5512*
X29331Y20197D02*
X32559D01*
Y20906*
X29331*
Y20197*
X29882Y17244D02*
X30906D01*
Y18150*
X29882*
Y17244*
X30039Y28839D02*
X33858D01*
Y32677*
X30039*
Y28839*
X30118Y12362D02*
X30906D01*
Y13228*
X30118*
Y12362*
X30157Y20787D02*
X30906D01*
Y27913*
X30157*
Y20787*
X30512Y7205D02*
X30906D01*
Y7953*
X30512*
Y7205*
X30669Y6732D02*
X32677D01*
Y7638*
X30669*
Y6732*
Y24173D02*
X32598D01*
Y24843*
X30669*
Y24173*
X30787Y5591D02*
X32717D01*
Y6024*
X30787*
Y5591*
Y26457D02*
X32638D01*
Y27244*
X30787*
Y26457*
X31969Y118D02*
X33386D01*
Y5354*
X31969*
Y118*
X32520Y984D02*
X33976D01*
Y29331*
X32520*
Y984*
G37*
G54D10*
X1083Y1083D03*
Y32972D03*
X32972Y1083D03*
Y32972D03*
G54D11*
X17028Y17028D03*
G54D12*
X1083Y1083D03*
Y32972D03*
X17028Y17028D03*
X32972Y1083D03*
Y32972D03*
G54D13*
X984Y21693D02*
X1004Y21713D01*
Y21949*
X1319Y23780D02*
X1358D01*
Y23524*
Y24311D02*
Y24489D01*
X1403Y24534*
X2997*
X3051Y24480*
Y24291*
X2067Y20394D02*
X1742D01*
X1459Y20677*
Y20858*
X1742Y21142*
X2067*
Y21969D02*
X1742D01*
X1459Y22252*
Y22433*
X1742Y22717*
X2067*
X2972Y1043D02*
Y1024D01*
X2992*
X3169Y846*
Y689*
X3051Y21142D02*
Y21323D01*
X3014Y21360*
X1392*
X1358Y21326*
Y21161*
X3524Y1476D02*
Y1630D01*
X3632Y1739*
X5064*
X5217Y1586*
Y1457*
X3524Y3051D02*
X3711Y3238D01*
X5159*
X5217Y3181*
Y3031*
X3524Y9843D02*
Y10090D01*
X3578Y10144*
X5108*
X5217Y10035*
Y9823*
X3524Y10630D02*
Y10886D01*
X3465Y10945*
X3524Y12992D02*
Y13162D01*
X3595Y13234*
X5122*
X5217Y13139*
Y12972*
X3543Y25098D02*
Y25513D01*
X4671*
X4744Y25586*
Y25886*
X3665Y12730D02*
X3907Y12972D01*
X4232*
X3780Y591D02*
Y640D01*
X3730Y689*
X3524*
X3780Y12205D02*
X3524D01*
X3819Y9843D02*
Y9724D01*
X3524Y9429*
Y9055*
X3917Y20394D02*
X3051D01*
X3917Y21969D02*
X3051D01*
X3917Y23543D02*
X3051D01*
X3976Y24724D02*
X4744D01*
Y24902*
X4232Y709D02*
X3917D01*
X3623Y1003*
Y1172*
X3907Y1457*
X4232*
Y2283D02*
X3989D01*
X3843Y2430*
X3771*
X3624Y2577*
Y2748*
X3897Y3021*
X4232*
Y3031*
Y4606D02*
X3907D01*
X3624Y4323*
Y4152*
X3771Y4004*
X3968*
X4114Y3858*
X4232*
Y10650D02*
X4646D01*
X4291Y5413D02*
Y5335D01*
X4744Y22343D02*
X4791D01*
X4744Y24902D02*
Y25341D01*
X5251Y25847*
X5492*
Y25886*
X4791Y22677D02*
X4803D01*
X5217Y709D02*
X5333Y593D01*
X5967*
X6083Y709*
X5217Y2283D02*
X5199D01*
X5305Y2178*
X6089*
Y2283*
X6083*
X5217Y4606D02*
Y4796D01*
X5072Y4941*
X3838*
X3524Y4626*
X5217Y9075D02*
X6083D01*
X5217Y10650D02*
X6083D01*
X5217Y11398D02*
Y11658D01*
X5177Y11697*
X3591*
X3524Y11630*
Y11417*
X5217Y12224D02*
X6083D01*
X5217Y23917D02*
X5236Y23937D01*
X5531Y29941D02*
Y30138D01*
X5906Y4961D02*
X5803D01*
X5768Y4996*
Y5177*
X5909Y29918D02*
X5906Y29921D01*
X5945Y13504D02*
Y13465D01*
X6083Y3858D02*
X6005D01*
X5798Y3652*
X5510*
X5303Y3858*
X5217*
X6102Y28661D02*
X6050D01*
X6142Y2657D02*
X6152D01*
X6142Y28622D02*
X6053D01*
X6033Y28642*
Y28661*
X6050*
X6143Y1457D02*
X6083D01*
X6152Y3031D02*
X6083D01*
X6220Y7402D02*
X6496Y7677D01*
Y8150*
X6280Y29941D02*
Y29918D01*
X6406Y21850D02*
Y21902D01*
X6535Y9843D02*
X6516Y9823D01*
X6866Y3937D02*
X6870D01*
X6890Y11378D02*
X6836D01*
X6901Y2008D02*
X6890D01*
X6909Y4232D02*
X6866D01*
X6909Y9449D02*
X6878D01*
X7106Y29941D02*
Y30807D01*
X7244Y18937D02*
X7598D01*
X7776Y18760*
Y18228*
X7626Y26476D02*
X7143D01*
X6969Y26301*
Y26260*
X6929*
X7854Y29918D02*
Y29941D01*
Y30807D02*
X8082D01*
Y32462*
X8044Y32500*
X7874*
Y33189D02*
Y32854D01*
X8189Y3642D02*
X8504D01*
X8268Y5650D02*
X8189Y5571D01*
X8366Y22717D02*
Y23228D01*
X8563D02*
Y22717D01*
X8661Y32500D02*
X8937D01*
X8681Y29941D02*
Y30807D01*
X8760Y22717D02*
Y23228D01*
X9055Y29924D02*
Y29921D01*
X9154Y17717D02*
Y18228D01*
X9252Y11220D02*
Y11398D01*
X9480*
X9429Y29941D02*
Y29924D01*
X9449Y32500D02*
X9544D01*
X9678Y32367*
Y30906*
X9579Y30807*
X9429*
X9480Y11398D02*
Y11220D01*
X9449*
X9480Y11398D02*
X9685D01*
Y11220*
X9921D02*
Y11398D01*
X9685*
X10079Y22795D02*
X10000Y22717D01*
X10236Y32283D02*
Y32656D01*
X10375Y32795*
X10827*
X10709Y31142D02*
X10669Y31102D01*
X11024Y20177D02*
X10512D01*
X11043Y8346D02*
Y8150D01*
X11299Y33366D02*
X11437Y33228D01*
Y33218*
X11486Y33169*
X11811*
X11319Y1693D02*
Y1181D01*
X11339Y32677D02*
Y32795D01*
X11811*
X11339D02*
X10822Y33311D01*
Y33543*
X10827*
X11516Y1181D02*
Y1693D01*
X11719Y17815D02*
X11791D01*
X11732Y17441D02*
X11719Y17454D01*
X11791Y16240D02*
X11792D01*
X12165Y6181D02*
X12283Y6299D01*
X12244Y14882D02*
Y15197D01*
X12480Y14665D02*
X12520D01*
X12480Y16240D02*
X12519D01*
X12480Y17795D02*
X12520D01*
X12516Y17792D02*
X12520Y17795D01*
Y14665D02*
X12618Y15039*
X13484D01*
X12618Y16614D02*
X13484D01*
X12618Y18189D02*
X13484D01*
X12639Y17441D02*
X12618D01*
X12677Y2461D02*
X12627D01*
X13484Y17441D02*
Y17385D01*
X13829Y17040*
X15138*
Y17421*
X13966Y12362D02*
X13957Y12372D01*
Y12402*
X14055Y15039D02*
X13841Y14825D01*
Y14195*
X13951Y14085*
X14469*
Y14291*
Y15866D02*
Y15659D01*
X13986*
X13841Y15805*
Y16400*
X14055Y16614*
X14488Y3248D02*
X15000D01*
X14488Y12538D02*
Y12500D01*
Y12671D02*
Y12596D01*
Y21161D02*
X14469Y21142D01*
X13740*
X14488Y5628D02*
X15138Y15846*
Y15678D01*
X14976Y15517*
X13607*
X13484Y15639*
Y15866*
X15256Y26102D02*
X13146D01*
X11552Y24508*
X10484*
X15453Y26102D02*
Y25640D01*
X15199*
X15118Y25720*
Y25725*
X14975Y25868*
X13073*
X11507Y24301*
X10221*
X10100Y24422*
Y24902*
X10484*
X16102Y8268D02*
X16191D01*
X16240Y8317*
Y8780*
Y14291D02*
Y13268D01*
Y26102D02*
Y25591D01*
X16929Y31102D02*
X16880D01*
X16831Y31053*
Y30591*
X17126Y31102D02*
Y31052D01*
X17009Y30934*
X17028Y30915*
Y30591*
X17224Y19803D02*
Y20118D01*
X17283Y6732D02*
Y6693D01*
X17175*
X17028Y6545*
Y6181*
X17323Y31102D02*
Y31074D01*
X17224Y30976*
Y30591*
X17421Y8780D02*
Y9134D01*
Y19803D02*
Y20118D01*
X17598Y22283D02*
Y22126D01*
X17672Y22052*
X17868*
X18158Y22343*
X18976*
X17618Y8780D02*
Y8268D01*
X17815Y8780D02*
Y8268D01*
X18012Y1181D02*
Y1693D01*
Y8268D02*
Y8780D01*
X18209Y1693D02*
X18250D01*
X18209Y30591D02*
X18242D01*
X18346Y24291D02*
Y24409D01*
X18425*
X18661Y22739D02*
X18664Y22736D01*
X18976Y2281D02*
Y2325D01*
Y2407D02*
Y2461D01*
Y3445D02*
X18563D01*
X18504Y3504*
X18976Y5020D02*
X19567D01*
X19646Y4941*
X18976Y22146D02*
X18209D01*
X18976Y22539D02*
X18148D01*
X17853Y22244*
X17815*
X18976Y27264D02*
X18093D01*
X18012Y27182*
Y27067*
X18976Y28051D02*
X19488D01*
X18976Y9375D02*
Y20299*
X19213Y5984*
Y5413D01*
X18976*
X19476Y28248D02*
X18976D01*
X19547Y28720D02*
Y28789D01*
X19301Y29035*
X18976*
X19646Y4370D02*
Y4431D01*
X19451Y4625*
X18976*
Y4626*
X20551Y29685D02*
X20687Y29821D01*
X20832*
X20933Y29720*
Y29232*
X20669Y5669D02*
X20681Y5657D01*
Y5217*
Y17224D02*
Y17626D01*
X20630Y17677*
X20681Y22146D02*
Y22587D01*
X20669Y22598*
X20681Y26870D02*
Y27323D01*
X20669*
X20709Y10591D02*
X20864D01*
X20933Y10522*
Y10138*
X20787Y23110D02*
X20711D01*
X20681Y23140*
Y23524*
X20933Y19783D02*
Y19270D01*
X20727Y19064*
X20709*
Y19055*
X21024Y30000D02*
X21134Y29890D01*
X21171*
X21445Y29616*
Y29232*
X21339Y15354D02*
X21378D01*
Y15341*
X21445Y15274*
Y14862*
Y7776D02*
Y8161D01*
X21378Y8228*
X21445Y13878D02*
Y13963D01*
X21624*
X21969Y14308*
Y14331*
X21445Y18602D02*
X21622D01*
X21875Y18855*
Y19001*
X21890Y19016*
X21445Y28248D02*
Y28462D01*
X21448Y28465*
X21732*
X21445Y30610D02*
Y30852D01*
X21459Y30866*
X21693*
X21445Y32972D02*
X21440D01*
Y33228*
X21693*
X21457Y16673D02*
X21445Y16661D01*
Y16240*
X21693Y9449D02*
Y9224D01*
X21622Y9154*
X21445*
X21693Y11575D02*
Y11587D01*
X21622Y11516*
X21445*
X21732Y6732D02*
X21445D01*
Y6594*
X22441Y3780D02*
X23332D01*
X23386Y3725*
Y3425*
X29429Y4606D02*
X29632D01*
X29221Y4195*
X28919*
X28563Y4551*
Y4606*
X30413Y1457D02*
X30688D01*
X30738Y1407*
Y752*
X30695Y709*
X30413*
Y3031D02*
X30710D01*
X30738Y3003*
Y2329*
X30692Y2283*
X30413*
Y3858D02*
X30738D01*
X30746Y3866*
Y4599*
X30738Y4606*
X30413*
X31102Y4882D02*
X31122Y4862D01*
Y4626*
Y689D02*
Y463D01*
X31065Y406*
X29533*
X29429Y510*
Y709*
X31122Y1476D02*
Y1713D01*
X31102Y1732*
X31122Y2264D02*
Y2083D01*
X31035Y1996*
X29494*
X29429Y2061*
Y2283*
X31122Y3051D02*
Y3287D01*
X31102Y3307*
X31122Y3839D02*
Y3742D01*
X31022Y3642*
X29941*
X29724Y3858*
X29429*
X31299Y19783D02*
X31388D01*
X31938Y18209D02*
X32087D01*
X32017Y19783D02*
X32087D01*
Y22146D02*
X31299D01*
G54D14*
X3844Y4232D02*
X3819D01*
X3855Y2657D02*
X3819D01*
X3857Y1083D02*
X3819D01*
X5477Y19305D02*
Y19390D01*
X6024*
Y19193D02*
X6302D01*
X6378Y19117*
Y19094*
X6417*
X6024Y21752D02*
X6256D01*
X6406Y21902*
X6024Y22157D02*
Y21949D01*
X7126Y31378D02*
X7106Y31398D01*
X7382Y18228D02*
Y18499D01*
X7081Y18799*
X6949*
X7579Y18681D02*
Y18228D01*
X7638Y2362D02*
X7632D01*
Y2524*
X7765Y2657*
X8189*
X7953Y6024D02*
X7682Y5753D01*
Y5261*
X7726Y5217*
X8189*
X8130Y25689D02*
X8150Y25669D01*
X8189Y2840D02*
X9094D01*
X8189Y5571D02*
Y5413D01*
X8661Y23996D02*
Y23976D01*
X8650*
X8630Y23996*
X8661D02*
X9449D01*
X8661Y27776D02*
Y27756D01*
X8650*
X8630Y27776*
X8701Y31378D02*
X8681Y31398D01*
X9399Y2107D02*
X9547Y1959D01*
Y1693*
X9449Y23996D02*
Y24016D01*
X9461*
X9480Y23996*
X9449Y27776D02*
X9480D01*
X9449D02*
X8661D01*
X9547Y22717D02*
Y22008D01*
X9744Y1693D02*
Y2126D01*
Y18228D02*
Y18590D01*
X10000Y22717D02*
X9744D01*
X10073Y18996D02*
X10512D01*
Y19193D02*
X11102D01*
X11713Y6181D02*
Y5915D01*
X11641Y5843*
X11058*
X10945Y5730*
Y5728*
X11909Y6181D02*
X12165D01*
X12099Y1693D02*
X11909D01*
X12627Y2461D02*
Y2271D01*
X12677Y2657D02*
X13189D01*
X13504Y20768D02*
X13510D01*
X13530Y20748*
X13951*
X13971Y20768*
X14488*
X13898Y27146D02*
Y27067D01*
X14488*
Y2657D02*
X13937D01*
X14488Y5628D02*
Y5413D01*
Y9744D02*
X13986D01*
Y9715*
X13957Y9685*
X14488Y12303D02*
X14026D01*
X13966Y12362*
X14488Y12596D02*
Y12538D01*
Y23327D02*
X14843D01*
X14488Y23524D02*
X13898D01*
X14488Y23661D02*
Y23524D01*
Y27264D02*
X14754D01*
X14488Y29823D02*
X14652D01*
Y30138*
X14665*
X14872Y2854D02*
X14488D01*
X14882Y29626D02*
X14488D01*
X14887Y9941D02*
X14488D01*
X14931Y20965D02*
X14488D01*
X14961Y5433D02*
Y5423D01*
X14754Y5217*
X14488*
X15461Y26457D02*
X15453D01*
X15748Y9528D02*
Y9266D01*
X16043Y8971*
Y8780*
X15846Y1996D02*
Y1693D01*
Y8780D02*
Y8268D01*
Y20122D02*
Y19803D01*
Y26102D02*
Y26378D01*
X15698Y26526*
X16043Y1693D02*
Y1102D01*
Y19252D02*
Y19803D01*
Y26555D02*
Y26102D01*
X16929Y6673D02*
Y6712D01*
X17157Y6940*
X17785*
X18012Y6714*
Y6181*
X17165Y5231D02*
Y5433D01*
X18012Y13268D02*
Y13780D01*
Y23622D02*
Y24291D01*
X18209Y12909D02*
Y13268D01*
Y19803D02*
Y20084D01*
Y24291D02*
X18346D01*
X18209Y26461D02*
Y26102D01*
X18335Y8780D02*
X18209D01*
X18412Y6181D02*
X18209D01*
X18622Y9705D02*
X18661Y9744D01*
X18976*
X18622Y27067D02*
X18209D01*
X18976Y2657D02*
X18524D01*
X18465Y2598*
X18976Y9375D02*
Y9547D01*
Y20299D02*
Y20571D01*
Y20768D02*
X19488D01*
X18976Y27067D02*
X18622D01*
X18976Y26623D02*
Y26870D01*
X19823Y6693D02*
Y6732D01*
X20354Y11575D02*
Y11736D01*
X20571Y11953*
X20863*
X20933Y11882*
Y11516*
X20386Y16417D02*
X20434D01*
Y16612*
X20507Y16685*
X20872*
X20933Y16624*
Y16240*
Y6594D02*
Y6968D01*
X20883Y7018*
X20082*
X19823Y6759*
Y6732*
X20933Y13878D02*
Y14240D01*
X20852Y14320*
X20609*
X20367Y14079*
Y13950*
X20354Y13937*
X20933Y21161D02*
Y21545D01*
X20904Y21575*
X20827*
X20933Y23524D02*
Y23792D01*
X20752Y23973*
X20589*
X20394Y23778*
Y23583*
X20933Y25886D02*
Y26311D01*
X20866Y26378*
X20933Y28757D02*
Y28248D01*
Y30610D02*
Y31039D01*
X21193Y11516D02*
Y11132D01*
X21262Y11063*
X21496*
X21193Y13878D02*
X21221D01*
Y13528*
X21324Y13425*
X21693*
X21193Y18602D02*
Y18219D01*
X21233Y18178*
X21632*
X21721Y18268*
X21732*
X21193Y21161D02*
Y20738D01*
X21222Y20709*
X21693*
X21193Y25886D02*
Y26270D01*
X21262Y26339*
X21417*
X21193Y32972D02*
Y32538D01*
X21235Y32497*
X21512*
X21732Y32717*
X21417Y15748D02*
X21262D01*
X21193Y15817*
Y16240*
X21496Y30118D02*
X21424D01*
X21193Y30349*
Y30610*
X21732Y17960D02*
X21139D01*
X20933Y18166*
Y18602*
X21732Y6260D02*
X21614Y6142D01*
X21260*
X21193Y6209*
Y6594*
X21732Y20709D02*
X21693D01*
X21732Y23071D02*
X21314D01*
X21193Y23192*
Y23524*
X21732Y27913D02*
X21727D01*
X21609Y27795*
X21259*
X21193Y27861*
Y28248*
X21811Y8622D02*
X21301D01*
X21193Y8730*
Y9154*
X28543Y4232D02*
X28573D01*
X29134Y7894D02*
Y8132D01*
X29154Y8152*
G54D15*
X2067Y21969D02*
X2531D01*
X2807Y22244*
X3543*
X2067Y23543D02*
X2508D01*
X2784Y23819*
X3543*
Y20669D02*
X2811D01*
X2535Y20394*
X2067*
X5477Y19305D02*
Y18861D01*
X5197Y18581*
Y18583*
X5531Y31378D02*
X6191D01*
X6279Y31467*
Y31791*
X6280*
X5642Y4716D02*
Y4827D01*
Y4716D02*
Y4332D01*
X7626Y11910D02*
Y11909D01*
X7854Y31791D02*
Y31467D01*
X7766Y31378*
X7126*
X8701D02*
X9341D01*
X9429Y31467*
Y31791*
X9350Y9154D02*
Y9870D01*
X9201Y10020*
X8937*
X13690Y17874D02*
X14005Y18189D01*
X18242Y30591D02*
X18386D01*
X18250Y1693D02*
X18318D01*
X18976Y2325D02*
Y2407D01*
X20933Y9577D02*
Y9154D01*
Y33508D02*
Y32972D01*
G54D16*
X2067Y20768D02*
X2480D01*
X2067Y22343D02*
X2480D01*
X2067Y23917D02*
X2480D01*
X3150Y25512D02*
Y25158D01*
X3090Y25098*
X2756*
X3917Y24291D02*
X4370D01*
X4232Y1083D02*
X3857D01*
X4232Y2283D02*
X4646D01*
X4232Y2657D02*
X3855D01*
X4232Y4232D02*
X3844D01*
X4232Y9449D02*
X4646D01*
X4255Y9075D02*
X4232D01*
X4370Y21142D02*
X3917D01*
X4370Y22717D02*
X3917D01*
X4646Y748D02*
X4606Y709D01*
X4232*
X4646Y3858D02*
X4232D01*
X4646Y11024D02*
X4232D01*
X4646Y12244D02*
Y12224D01*
X4232*
X4646Y12598D02*
X4232D01*
X4744Y20768D02*
X4782D01*
X4764Y20786*
Y21102*
X4744Y23917D02*
X5217D01*
X4764Y21102D02*
Y21779D01*
X5197Y22212*
Y22677*
X4791Y22343D02*
Y22677D01*
X5056Y13681D02*
X5118D01*
Y24902D02*
Y24488D01*
X5236Y23937D02*
Y23959D01*
X6573Y25295*
X7626*
X5709Y23898D02*
Y23956D01*
X6654Y24902*
X7626*
X5906Y32205D02*
Y31791D01*
X6083Y4606D02*
Y4232D01*
X6142*
X6083Y12972D02*
X6535D01*
X6142Y1083D02*
X6143D01*
Y1457*
X6152Y2657D02*
Y3031D01*
X6181Y23898D02*
X6162D01*
X6772Y24508*
X7626*
X6280Y29918D02*
X5909D01*
X6516Y9823D02*
X6083D01*
X6535Y11417D02*
X6516Y11398D01*
X6083*
X6866Y4232D02*
Y3937D01*
X6870Y4921D02*
Y8595D01*
X7016Y8741*
X7264*
X7445Y8922*
Y9445*
X7645Y9646*
X8496*
X8563Y9578*
Y9154*
X6878Y9449D02*
Y9803D01*
X6909Y1083D02*
X6901D01*
Y2008*
X6909Y2657D02*
Y2930D01*
X6890Y2950*
Y2953*
X6909Y11304D02*
Y11024D01*
Y12598D02*
X6476D01*
X6909D02*
X7008Y12697D01*
X7626*
X6929Y9803D02*
X6878D01*
X6929Y11378D02*
X6890D01*
X7087Y13091D02*
X7626D01*
X7480Y29921D02*
X7520D01*
Y29918*
X7854*
X7480Y32205D02*
Y31791D01*
X7626Y11909D02*
X7456D01*
Y10724*
X6878Y10146*
Y9803*
X7626Y12303D02*
X7279D01*
X6890Y11913*
Y11378*
X7626Y25689D02*
X8130D01*
X7626Y26083D02*
X8150D01*
X7776Y9154D02*
X7795D01*
Y7480*
X8169Y9154D02*
X8150D01*
Y7717*
X8957Y9154D02*
Y9665D01*
X9055Y32205D02*
Y31791D01*
X9429Y29924D02*
X9055D01*
X9823Y8346D02*
X9843D01*
Y8386*
X9350Y8878*
Y9154*
X10020Y13465D02*
X10039Y13484D01*
X10484*
X10059Y25689D02*
X10484D01*
Y13091D02*
X10020D01*
X10484Y13484D02*
X10945D01*
X10484Y13878D02*
X11285D01*
X11580Y14173*
X10484Y14272D02*
X10959D01*
X11048Y14361*
Y15068*
X11768Y15787*
X11772*
X10484Y14665D02*
X10733D01*
Y16442*
X11732Y17441*
X10484Y26083D02*
X9921D01*
X11580Y14173D02*
X11688Y14281D01*
Y14665*
X11791*
X11580Y14173D02*
X11535D01*
X11719Y17454D02*
Y17815D01*
X11792Y16240D02*
Y15787D01*
X11772*
X11811Y33169D02*
X12244D01*
X12519Y16240D02*
Y15866D01*
X12618*
Y14291D02*
X12520D01*
Y14665*
X12618Y17441D02*
X12516D01*
Y17792*
X13071Y14582D02*
Y14499D01*
Y17874D02*
X13690D01*
X14005Y18189D02*
X14469D01*
X14055Y15039D02*
X14469D01*
X14055Y16614D02*
X14469D01*
Y16240D02*
X14882D01*
X14469Y17815D02*
X14882D01*
Y14665D02*
X14469D01*
X27067Y9156D02*
Y8543D01*
X27461Y9156D02*
Y8917D01*
X27953Y8425*
X27717Y4601D02*
X27704Y4614D01*
X26714*
X26606Y4722*
Y8834*
X26673Y8901*
Y9156*
X27717Y4601D02*
Y4232D01*
X27736*
X27717Y4606D02*
Y4601D01*
X27736Y1575D02*
X25964Y3347D01*
Y8899*
X25886Y8976*
Y9156*
X27736Y1575D02*
Y1083D01*
Y2657D02*
Y2992D01*
Y3030*
X26280Y4487*
Y9156*
X28543Y2657D02*
X28580D01*
X28563Y709D02*
X28996D01*
X28563Y2283D02*
X28580Y2301D01*
Y2657*
X28563Y3858D02*
X28573Y3868D01*
Y4232*
X28996Y689D02*
Y709D01*
X30413Y1083D02*
X29980D01*
X30413Y2657D02*
X30000D01*
X30413Y4232D02*
X30000D01*
G54D17*
X374Y27756D02*
X394D01*
Y27787*
X1949*
X2221Y28059*
X2683*
X3375Y27368*
X6235*
X6339Y27471*
Y27480*
X630Y21693D02*
X601D01*
Y23130*
X719Y23248*
X4326*
X4536Y23458*
X7487*
X7776Y23169*
Y22717*
X630Y23701D02*
Y23937D01*
X1004Y24311*
X709Y23504D02*
X728Y23524D01*
X1004*
X984Y20000D02*
X961Y20024D01*
X3192*
X4436Y18780*
X4449*
X1004Y20374D02*
X730D01*
X471Y20632*
Y23114*
X684Y23327*
X4293*
X4512Y23545*
X7597*
X7972Y23169*
Y22717*
X1004Y21161D02*
X807Y21358D01*
Y22892*
X995Y23080*
X4599*
X4783Y23264*
X7287*
X7382Y23169*
Y22717*
X1358Y20374D02*
Y20591D01*
X1299Y20650*
X1358Y21949D02*
Y22165D01*
X1299Y22224*
X1358Y22736D02*
X1535Y22913D01*
X2558*
X2755Y22717*
X3051*
X2067Y24291D02*
X1752D01*
X1469Y24008*
Y23827*
X1752Y23543*
X2067*
X2362Y15421D02*
X1934Y15850D01*
Y19569*
X2169Y19804*
X2585*
X2783Y19606*
X2795*
X2362Y15921D02*
X2012Y16271D01*
Y19536*
X2202Y19726*
X2442*
X2941Y19227*
Y18768*
X2835Y18661*
X2795Y19134D02*
X2626Y18965D01*
Y17665*
X2835Y8504D02*
X2417Y8921D01*
X2362*
X2992Y19449D02*
Y19615D01*
X2724Y19883*
X2137*
X2108Y19854*
X924*
X228Y20550*
Y27816*
X345Y27933*
X787*
Y27992*
X3169Y3839D02*
X3366Y3642D01*
X3799*
X3819Y3661*
X3169Y4626D02*
Y4390D01*
X3110Y4331*
X3169Y9055D02*
X2877D01*
X2657Y9274*
Y17154*
X3254Y17751*
X6630*
X6810Y17571*
X9742*
X11839Y19667*
Y22647*
X14093Y24902*
X16280*
X16437Y24744*
Y24291*
X3169Y9843D02*
X2736Y10276D01*
Y17122*
X3282Y17667*
X6601*
X6776Y17492*
X9775*
X11941Y19658*
Y22638*
X14125Y24823*
X15768*
X15846Y24744*
Y24291*
X3169Y11417D02*
X2972D01*
X2894Y11496*
Y17057*
X3344Y17507*
X6525*
X6698Y17335*
X9840*
X12098Y19593*
Y22365*
X12545Y22812*
Y23131*
X14158Y24744*
X15650*
Y24291*
X3169Y12205D02*
Y12384D01*
X2972Y12581*
Y16829*
X3563Y17419*
X6494*
X6657Y17256*
X9872*
X12177Y19561*
Y22313*
X12676Y22812*
Y23151*
X13903Y24378*
X14860*
X15203Y24035*
X16043*
Y24291*
X3169Y12992D02*
X3172Y12994D01*
Y13222*
X3055Y13339*
Y16800*
X3593Y17338*
X6451*
X6617Y17172*
X9905*
X12323Y19590*
Y21772*
X3189Y3307D02*
X3169Y3287D01*
Y3051*
X3189Y3543D02*
X2965Y3319D01*
Y2469*
X3169Y2264*
X3524D02*
X3780D01*
X3524Y3839D02*
X3819D01*
Y3819*
X3524Y16614D02*
Y17128D01*
X3649Y17254*
X6423*
X6583Y17094*
X9941*
X12505Y19657*
Y21866*
X12402Y21969*
X3819Y3661D02*
Y3622D01*
X4232Y9823D02*
Y10020D01*
X4691*
X4843Y9868*
Y9272*
X4646Y9075*
X4232Y11398D02*
X3917D01*
X3634Y11114*
Y10933*
X3917Y10650*
X4232*
Y12224D02*
X3984D01*
X3844Y12364*
X3792*
X3634Y12522*
Y12699*
X3665Y12730*
X4255Y9075D02*
X4646D01*
X4449Y25787D02*
X4055Y26181D01*
X3917*
X4528Y16496D02*
Y17016D01*
X4665Y17154*
X6410*
X6549Y17015*
X9990*
X12584Y19610*
Y21669*
X13218Y22303*
X13228*
X4646Y9094D02*
Y9075D01*
X5079Y24213D02*
X5181D01*
X5492Y24524*
Y24902*
X5197Y19646D02*
Y19606D01*
X6004*
X6024Y19587*
X5236Y21850D02*
X5079Y21693D01*
Y20124*
X4836Y19881*
Y18303*
X5119Y18019*
X6791*
Y18228*
X5394Y28386D02*
Y28378D01*
X497*
X276Y28157*
Y28150*
X5433Y21496D02*
X5327Y21390D01*
Y20106*
X5512Y19921*
Y32500D02*
X5787D01*
X5512Y32854D02*
X5709D01*
X5906Y33051*
Y33898*
X5551Y22205D02*
Y22165D01*
X5630Y28346D02*
Y28300D01*
X5519Y28189*
X534*
X472Y28128*
Y28110*
X5669Y27618D02*
Y27638D01*
X4319*
X4201Y27520*
X6024Y19783D02*
X5556D01*
X5513Y19826*
Y19921*
X5512*
X6024Y20177D02*
X5560D01*
X5472Y20264*
Y21280*
X6142Y13701D02*
X6078D01*
X5681Y14098*
X5300*
X5118Y13915*
Y13681*
X6220Y6142D02*
Y5292D01*
X6789Y4724*
X6952*
X7067Y4840*
Y6249*
X8200Y7382*
X8445*
X6280Y30807D02*
Y31129D01*
X6476Y31326*
Y32086*
X6299Y32263*
Y32500*
Y32854D02*
Y33150D01*
X6929Y33780*
X6339Y16969D02*
Y16167D01*
X6117Y15945*
X5866*
X6339Y26772D02*
Y27204D01*
X6254Y27288*
X3233*
X2608Y27913*
X2598*
X6836Y11378D02*
X6909Y11304D01*
X6988Y18228D02*
Y18484D01*
X6738*
X6455Y18201*
X5206*
X4933Y18473*
Y19852*
X5157Y20076*
Y21561*
X5394Y21797*
Y21988*
X7087Y32500D02*
X7362D01*
X7126Y33780D02*
X7087D01*
Y32854*
X7185Y18228D02*
Y18484D01*
X7106Y18563*
X6706*
X6422Y18280*
X5238*
X5012Y18506*
Y19819*
X5236Y20044*
Y21523*
X5551Y21838*
Y22165*
X7185Y22717D02*
Y23169D01*
X7173Y23182*
X4821*
X4631Y22992*
X1074*
X1004Y22922*
Y22736*
X7551Y2815D02*
X7550D01*
Y3701*
X7657Y3808*
Y4409*
X7579Y22717D02*
Y23169D01*
X7396Y23352*
X4541*
X4349Y23159*
X827*
X739Y23071*
X748*
X7626Y13878D02*
X7252D01*
X7173Y13957*
Y16660*
X7349Y16836*
X10038*
X12761Y19558*
Y20497*
X12815Y20551*
X7626Y26870D02*
X7252D01*
X6732Y26350*
Y26260*
X7626Y27264D02*
X7308D01*
X6534Y26490*
Y26260*
X6535*
X8150Y6811D02*
X7303Y5965D01*
Y4742*
X7245Y4683*
Y3916*
X6575Y3247*
Y2137*
X6269Y1831*
X3150*
Y1850*
X8189Y2854D02*
Y2840D01*
X8327Y6929D02*
X8299Y6957D01*
X7997*
X7225Y6184*
Y4775*
X6978Y4528*
X6735*
X6496Y4289*
Y2169*
X6323Y1996*
X3089*
X2932Y1839*
Y1523*
X2979Y1476*
X3169*
X8504Y3035D02*
Y3051D01*
X8189*
X8504Y3839D02*
X8548D01*
X8650Y3737*
Y3453*
X8445Y3248*
X8189*
X8504Y4449D02*
Y3839D01*
X8563Y19035D02*
Y18228D01*
X8661Y32854D02*
Y33701D01*
X8760Y18228D02*
Y18594D01*
X8807Y18642*
X8957Y18228D02*
Y18504D01*
X8996Y18543*
X8957Y22717D02*
Y23228D01*
X8996Y7087D02*
X9232Y7323D01*
X10088*
X10185Y7226*
Y6228*
X10138Y6181*
X9154Y22717D02*
Y23228D01*
X9350Y1693D02*
Y1240D01*
X9272Y1161*
X7944*
X7248Y1858*
Y3765*
X7329Y3845*
Y4656*
X7382Y4709*
Y5882*
X8163Y6662*
X8266*
X8494Y6890*
Y7210*
X9060Y7776*
X9570*
X10047Y8254*
Y8459*
X9744Y8763*
Y9154*
X9350Y17717D02*
X9331D01*
X9350Y17736*
Y18228*
Y22717D02*
Y23228D01*
X9547Y6181D02*
X9546D01*
Y6606*
X9518Y6634*
X9240*
X8799Y7075*
Y7087*
X9547Y17717D02*
X9567D01*
X9547Y17736*
Y18228*
X9567Y5866D02*
X9445D01*
X9350Y5960*
Y6181*
X9744D02*
Y6625D01*
X9646Y6723*
Y6772*
X9941Y1693D02*
X9961D01*
Y1240*
X9902Y1181*
X9665*
X9941Y6181D02*
Y6616D01*
X9843Y6714*
Y6732*
X10039D02*
Y7165D01*
X10138Y9154D02*
Y8233D01*
X9470Y7565*
X8960*
X8573Y7177*
Y6858*
X8298Y6583*
X8195*
X7461Y5849*
Y4675*
X7410Y4625*
Y3806*
X7327Y3723*
Y1890*
X7977Y1240*
X9154*
Y1693*
X10258Y21752D02*
X10254Y21748D01*
Y21260*
X10197*
X10258Y21752D02*
X10256D01*
Y22032*
X10945Y22721*
Y23268*
X10484Y11909D02*
X12236D01*
X12572Y11573*
Y9621*
X14006Y8187*
X15138*
X15256Y8306*
Y8780*
X10484Y12303D02*
X10898D01*
X11198Y12003*
X12260*
X12690Y11573*
Y9625*
X14041Y8273*
X15062*
X15111Y8321*
Y8943*
X15213Y9046*
X15432*
X15453Y9024*
Y8780*
X10484Y12697D02*
X10847D01*
X11457Y12087*
X12311*
X12781Y11617*
Y9659*
X14086Y8353*
X14870*
X14942Y8425*
X14961*
X10484Y25295D02*
X10110D01*
X10012Y25197*
Y24386*
X10185Y24213*
X11554*
X13117Y25776*
X14894*
X15118Y25551*
X15551*
X15650Y25650*
Y26102*
X10512Y19390D02*
X9980D01*
X9843Y19252*
X10512Y19587D02*
X10384D01*
X10293Y19496*
X10140*
X10070Y19567*
X9921*
X10512Y19783D02*
X10315D01*
X10217Y19685*
X10512Y19980D02*
X10256D01*
X10157Y20079*
Y20118*
X10512Y20571D02*
X10197D01*
X10512D02*
X11063D01*
X10512Y20768D02*
X10197D01*
X10512Y20965D02*
X10197D01*
X10512Y21157D02*
Y21161D01*
Y21752D02*
X10258D01*
X10531Y9154D02*
Y8515D01*
X9485Y7469*
X8975*
X8651Y7145*
Y6825*
X8331Y6505*
X8228*
X7540Y5816*
Y4640*
X7495Y4595*
Y3757*
X7406Y3668*
Y1923*
X7635Y1693*
X8957*
X10728Y6732D02*
Y6790D01*
X10826Y6888*
X11383*
X11516Y6755*
Y6181*
X10827Y5472D02*
X10724Y5575D01*
Y5769*
X10925Y5970*
Y6181*
Y2008D02*
Y1693D01*
Y6732D02*
Y6181D01*
X11024Y20374D02*
X10512D01*
X11122Y2165D02*
Y1693D01*
Y2421D02*
Y2415D01*
X11109*
X10728Y2035*
Y1693*
X11122Y6181D02*
Y6732D01*
X11319D02*
Y6181D01*
X11457Y21929D02*
Y21949D01*
X10512*
X11693Y21929D02*
Y20640D01*
X11033Y19980*
X10512*
X11713Y1693D02*
Y1181D01*
X12020Y22492D02*
Y19626D01*
X9807Y17413*
X6730*
X6558Y17586*
X3312*
X2815Y17089*
Y10733*
X2918Y10630*
X3169*
X12205Y4961D02*
Y4708D01*
X12273Y4640*
Y4370*
X12411Y4232*
X12677*
X12283Y7067D02*
Y7022D01*
X12323Y21791D02*
Y21772D01*
X12343Y3642D02*
Y3563D01*
X12461Y3445*
X12677*
X12362Y4764D02*
X12357D01*
Y4494*
X12422Y4429*
X12677*
X12362Y22835D02*
X12020Y22492D01*
X12402Y21988D02*
Y21969D01*
X12598Y12047D02*
X13455D01*
X13543Y12134*
Y13248*
X13740Y13445*
Y13465*
X12638Y27323D02*
Y27325D01*
X12773Y27461*
X14488*
X12677Y2854D02*
X12421D01*
X12146Y2579*
X12106*
X12677Y3051D02*
X12549D01*
X12538Y3040*
X12371*
X12106Y2776*
X12677Y3248D02*
X12441D01*
X12343Y3346*
X12677Y3445D02*
X13130D01*
X13268Y3307*
X12677Y4035D02*
X12421D01*
X12126Y4331*
Y4567*
X12874Y22835D02*
Y23198D01*
X13633Y23957*
X16161*
X16240Y24035*
Y24291*
X12913Y20354D02*
X12909D01*
X12846Y20291*
Y19526*
X10071Y16751*
X7427*
X7252Y16576*
Y14272*
X7626*
X12992Y28425D02*
X13207D01*
X13875Y29093*
Y30091*
X15228Y31445*
X17560*
X17863Y31143*
Y31022*
X17815Y30975*
Y30591*
X13012Y10185D02*
X13142Y10315D01*
X13976*
X13071Y14685D02*
Y14684D01*
X13130Y19685D02*
X13110D01*
Y19669*
X10108Y16667*
X7557*
X7397Y16507*
Y14665*
X7626*
X13150Y8780D02*
X13826Y8103D01*
X16804*
X17028Y8327*
Y8780*
X13150Y13602D02*
Y13616D01*
X13829*
X13889Y13557*
Y13404*
X13693Y13208*
Y10840*
X13976Y10557*
Y10551*
X13150Y28583D02*
X13253D01*
X13792Y29122*
Y30123*
X15207Y31538*
X18152*
X18888Y30802*
Y29823*
X18976*
X13189Y5413D02*
X12677D01*
X13189Y32559D02*
X13187Y32557D01*
Y32385*
X13247Y32326*
X14567*
Y32323*
X13228Y22087D02*
X13224D01*
X12669Y21531*
Y19577*
X10021Y16929*
X7214*
X5731Y15447*
Y14882*
X5669*
X13228Y25551D02*
Y24862D01*
X13268Y3543D02*
Y3583D01*
X13321*
X13425Y3687*
Y5215*
X13268Y3780D02*
X13248D01*
X13110Y3642*
X12677*
X13268Y3976D02*
X13253D01*
X13116Y3839*
X12677*
X13346Y19488D02*
X13310D01*
X13280Y19519*
Y19748*
X13143Y19884*
Y21739*
X13425Y22021*
Y22402*
X13346Y19488D02*
Y19268D01*
X13690Y18925*
X16692*
X17028Y19260*
Y19803*
X13425Y5215D02*
X12679D01*
X12677Y5217*
X13425Y6732D02*
Y5215D01*
Y19685D02*
X13436D01*
Y19706*
X13231Y19910*
Y21709*
X13661Y22140*
Y23780*
X13549Y20962D02*
Y21236D01*
X13672Y21358*
X14488*
X13549Y20962D02*
X13540Y20953D01*
X13427*
X13319Y20844*
Y20087*
X13740Y19665*
Y19134*
X13622Y27205D02*
Y27207D01*
X12746*
X12665Y27126*
X12520*
X13701Y21791D02*
Y21752D01*
X14488*
X13740Y20945D02*
X13739D01*
X13722Y20962*
X13549*
X13752Y27657D02*
X11827D01*
X9837Y29648*
Y32360*
X9933Y32456*
Y33100*
X10574Y33740*
X11779*
X11811Y33708*
Y33543*
X13780Y28268D02*
X13752D01*
Y27657*
X13937Y33425D02*
X13931D01*
X13534Y33823*
X10220*
X9449Y33051*
Y32854*
X13976Y9961D02*
Y10055D01*
X14059Y10138*
X14488*
X13976Y10551D02*
X13937D01*
Y10512*
X13986*
X14163Y10335*
X14488*
X14232Y30039D02*
X14180D01*
X13957Y29816*
Y28198*
X14104Y28051*
X14488*
Y3051D02*
X15000D01*
X14488Y3642D02*
X14035D01*
X13972Y3578*
Y3161*
X13752Y2941*
Y1954*
X14847Y859*
X15189*
X15446Y602*
X17283*
X17418Y737*
X19065*
X19295Y507*
X24473*
X24538Y571*
Y1096*
X24661Y1219*
X26646*
X27086Y779*
X27848*
X28150Y1080*
Y3034*
X28663Y3547*
X31401*
X31476Y3623*
Y3839*
X14488Y10728D02*
X14000D01*
X13772Y10956*
Y13156*
X14371Y13755*
X15262*
X15492Y13985*
Y14272*
X14488Y20749D02*
Y20768D01*
Y27657D02*
X13752D01*
X14567Y32126D02*
Y32143D01*
X13270*
X13150Y32022*
Y32008*
X14882Y17441D02*
Y17587D01*
X14913Y17618*
X14963*
X15138Y17792*
Y18209*
X15039Y30945D02*
Y30960D01*
X15122Y31043*
X15575*
X15650Y30969*
Y30591*
X15118Y591D02*
Y584D01*
X15260Y442*
X17489*
X17559Y512*
X15138Y14272D02*
Y14065D01*
X15062Y13989*
X13615*
X13484Y14120*
Y14291*
X15138Y14803D02*
Y15059D01*
Y16634D02*
Y16218D01*
X14963Y16043*
X14913*
X14843Y15972*
Y15827*
X15256Y19803D02*
X15128D01*
X15089Y19843*
X13819*
X15453Y19803D02*
Y20059D01*
X15189Y20323*
X13827*
X13819Y20315*
X15492Y15059D02*
Y15315D01*
Y16634D02*
X15669Y16457D01*
Y16339*
X15492Y18209D02*
X15666D01*
X15748Y18127*
Y17953*
X15630Y8268D02*
Y8307D01*
X15650Y8327*
Y8780*
Y6181D02*
Y6591D01*
X15607Y6634*
X14364*
X13893Y6163*
Y3193*
X13673Y2973*
Y1922*
X14859Y736*
X15201*
X15413Y524*
X17317*
X17451Y657*
X18196*
X18535Y319*
X25788*
X26048Y579*
X27040*
X27384Y235*
X31594*
X31866Y507*
Y2092*
X31695Y2264*
X31476*
X15650Y13268D02*
Y13939D01*
X15764Y14053*
Y15748*
X15666Y15846*
X15492*
X15650Y19275D02*
X15858Y19067D01*
X16120*
X16240Y19187*
Y19803*
X15650Y19275D02*
Y19252D01*
X13937*
X15650Y19291D02*
Y19275D01*
Y19803D02*
Y20059D01*
X15266Y20443*
X13937*
X13858Y20522*
Y20551*
X13819*
X15748Y31299D02*
Y31290D01*
X15893Y31145*
X16139*
X16240Y31043*
Y30591*
X15846Y6181D02*
Y6634D01*
X15768Y6713*
X14332*
X13815Y6196*
Y3226*
X13594Y3006*
Y1889*
X15120Y363*
X17631*
X17846Y579*
X18164*
X18508Y235*
X26065*
X26260Y429*
Y433*
X15846Y13268D02*
Y17291D01*
X15716Y17421*
X15492*
X15846Y30591D02*
Y30915D01*
X15687Y31075*
X15655*
X15608Y31122*
X15386*
X15354Y31154*
Y31299*
X15945D02*
X16181D01*
X16437Y31043*
Y30591*
X16024Y26811D02*
X16584D01*
X17028Y26367*
Y26102*
X16043Y13268D02*
Y14291D01*
Y30591D02*
Y31043D01*
X16020Y31066*
X15854*
X15767Y31154*
X15688*
X15551Y31290*
Y31299*
X16299Y12323D02*
Y11850D01*
X16437Y13268D02*
Y14291D01*
X16693Y984D02*
X16720Y957D01*
X17003*
X17129Y1083*
X17303*
X16831Y6181D02*
Y6564D01*
X16783Y6612*
Y6762*
X17092Y7071*
X19464*
X19811Y7418*
X20681*
Y7776*
X16831Y13268D02*
Y14137D01*
X16676Y14291*
X16654*
X16850Y12303D02*
X16976Y12429D01*
Y12748*
X16850Y12874*
X16909Y1181D02*
X16969D01*
X17028Y1240*
Y1693*
X16969Y23465D02*
Y23475D01*
X17224Y23731*
Y24291*
X17028Y13268D02*
Y15118D01*
Y24291D02*
Y24744D01*
X17185Y24902*
X19287*
X19831Y24358*
Y23147*
X19597Y22913*
Y22529*
X19851Y22275*
Y21302*
X20079Y21074*
Y19252*
X17047Y12165D02*
X17038Y12156D01*
X16792*
X16705Y12243*
Y12551*
X16831Y12677*
X17087Y2008D02*
X17028Y1949D01*
Y1693*
X17087Y2264D02*
X17238Y2113D01*
Y1693*
X17224*
X17165Y913D02*
X17091Y839D01*
X16602*
X16457Y984*
X17165Y23465D02*
Y23437D01*
X17695*
X17815Y23557*
Y24291*
X17205Y5630D02*
Y5638D01*
X17279*
X17542Y5901*
X17772*
X17815Y5944*
Y6181*
X17224Y9134D02*
Y8780D01*
Y13268D02*
Y12997D01*
X17273Y12948*
Y12197*
X17244Y12168*
Y12165*
X17224Y15118D02*
Y13268D01*
Y26102D02*
Y26457D01*
X17244Y2402D02*
X17421Y2224D01*
Y1693*
X17244Y5827D02*
Y5866D01*
X17224Y5886*
Y6181*
X17303Y30276D02*
Y30277D01*
X17224Y30356*
Y30591*
X17421Y15118D02*
Y13268D01*
Y24291D02*
Y24744D01*
X17500Y24823*
X19251*
X19665Y24408*
Y23780*
X17421Y26102D02*
Y26457D01*
Y30591D02*
Y30986D01*
X17520Y31085*
Y31102*
Y6732D02*
Y6604D01*
X17421Y6506*
Y6181*
X17618Y1181D02*
Y1693D01*
Y13268D02*
Y15138D01*
Y19291D02*
Y19803D01*
Y24291D02*
Y24744D01*
X19214*
X19518Y24440*
Y23509*
X19685Y23343*
Y23307*
X17618Y26102D02*
Y25591D01*
X17598*
X17717Y6732D02*
Y6604D01*
X17618Y6506*
Y6181*
X17717Y31083D02*
Y31048D01*
X17618Y30950*
Y30591*
X17795Y25591D02*
X17815D01*
Y26102*
Y1693D02*
Y1181D01*
Y13268D02*
Y13780D01*
Y19291D02*
Y19803D01*
X17992Y354D02*
X17844Y206D01*
X15055*
X13437Y1824*
Y3071*
X13657Y3291*
Y6261*
X14266Y6870*
X16004*
X16240Y6634*
Y6181*
X17992Y25591D02*
X18012D01*
Y26102*
Y19291D02*
Y19803D01*
X18189Y236D02*
X18080Y127D01*
X15022*
X13358Y1791*
Y3104*
X13578Y3324*
Y6293*
X14234Y6949*
X16122*
X16437Y6634*
Y6181*
X18386Y9705D02*
Y10068D01*
X18652Y10335*
X18976*
X18406Y20591D02*
X18385D01*
Y21269*
X18474Y21358*
X18976*
X18425Y27638D02*
Y27700D01*
X18579Y27854*
X18976*
X18504Y3701D02*
X18328Y3877D01*
Y4592*
X18356Y4620*
X18590*
X18685Y4715*
Y5152*
X18749Y5217*
X18976*
X18543Y20984D02*
X18583D01*
X18602Y20965*
X18976*
X18543Y21181D02*
X18583D01*
X18602Y21161*
X18976*
X18547Y21535D02*
X18583D01*
X18622Y10728D02*
X18976D01*
X18622Y10925D02*
X18976D01*
X18622Y11122D02*
X18976D01*
X18622Y11319D02*
X18976D01*
X18622Y11516D02*
X18976D01*
X18622Y27441D02*
X18642Y27461D01*
X18976*
X18622Y28642D02*
X18976D01*
X18661Y22717D02*
Y22739D01*
Y23071*
X18976Y2854D02*
X18425D01*
X18976Y3051D02*
X18425D01*
X18976Y3445D02*
X19611D01*
X19709Y3346*
X19961*
X18976Y3642D02*
X19392D01*
X19490Y3543*
X19961*
X18976Y4035D02*
X18701D01*
X18504Y4232*
X18976Y4429D02*
X18504D01*
X18976Y9941D02*
X18661D01*
X18976Y10138D02*
X18661D01*
X18976Y10531D02*
X18661D01*
X18622Y10492*
X18976Y12303D02*
X18864D01*
X18642Y12081*
Y11803*
X18476Y11638*
Y10366*
X18406Y10295*
X18976Y12500D02*
X18720D01*
X18661Y12441*
Y12402*
X18976Y21555D02*
X18602D01*
X18583Y21535*
X18976Y22146D02*
X19469D01*
X19488Y22126*
X18976Y23327D02*
X18864D01*
X18661Y23124*
Y23071*
X18976Y23524D02*
X19393D01*
X19508Y23409*
Y22362*
X19488*
X18976Y27657D02*
X18971Y27663D01*
X18661*
Y27638*
X18622*
X18976Y27854D02*
X19457D01*
X19476Y27835*
X18976Y28445D02*
X19488D01*
X18976D02*
X18642D01*
X18622Y28425*
X18976Y28839D02*
X18642D01*
X18622Y28858*
X18976Y29429D02*
X19429D01*
X19528Y29331*
Y29252*
X18976Y29626D02*
X19285D01*
X19464Y29805*
Y29818*
X19567Y29921*
X19075Y30886D02*
X19071Y30890D01*
X19626Y31446*
Y31594*
X19429Y13937D02*
X19016D01*
X19567Y3248D02*
X18976D01*
X19567Y3740D02*
X19961D01*
X19567Y29921D02*
X19594Y29949D01*
Y30260*
X19213Y30642*
Y30768*
X19272Y30827*
X19606Y17953D02*
X19578Y17924D01*
Y12354*
X19527Y12303*
X18976*
X19618Y6260D02*
X19764D01*
X19685Y21496D02*
Y21545D01*
X19478Y21752*
X19301*
X18976*
X19705Y21732D02*
X19724D01*
Y21841*
X19616Y21949*
X18976*
X19705Y31988D02*
X19756D01*
X19894Y31851*
Y30827*
X19724Y4016D02*
X19692Y4048D01*
X19601*
X19417Y4232*
X18976*
X19744Y22835D02*
X19724D01*
X19970Y23080*
Y24422*
X19412Y24980*
X17067*
X16831Y24744*
Y24291*
X19764Y5748D02*
X19919D01*
X19764Y15394D02*
X19702D01*
X19662Y15434*
Y17596*
X20320Y18254*
Y19055*
X19764Y32717D02*
X19814D01*
X20207Y32324*
Y31220*
X19783Y29035D02*
X19498D01*
X19301Y29232*
X18976*
X19803Y11063D02*
X19660Y11206D01*
Y12689*
X19921Y12950*
Y15787*
X19803Y22598D02*
X19764D01*
X19803D02*
X19931D01*
X19803Y32244D02*
X19793Y32234D01*
X19743*
X19557Y32047*
Y31873*
X19808Y31622*
Y31279*
X19421Y30891*
Y30548*
X19815Y30154*
Y29770*
X20272Y29313*
Y28327*
X19764Y27819*
Y27402*
X19823Y12441D02*
X19843D01*
Y12576*
X20365Y13098*
X21320*
X21445Y12974*
Y12500*
X19843Y15787D02*
X19921D01*
X19843Y32480D02*
X19807D01*
X20039Y32248*
Y29921*
X19894Y30827D02*
X19567D01*
X19919Y5748D02*
Y5531D01*
X20651Y4800*
X20895*
X20933Y4838*
Y5217*
X19919Y5748D02*
Y6311D01*
X19625Y6606*
Y6873*
X19898Y7146*
X21946*
X22086Y7287*
Y10051*
X21502Y10635*
X21267*
X20997Y10906*
X20827*
Y10945*
X20787*
X19921Y15787D02*
Y17636D01*
X20468Y18183*
Y20461*
X19931Y22598D02*
Y22599D01*
X20049Y22717*
Y27117*
X20026Y27141*
X20025*
X19764Y27402*
X19931Y22598D02*
Y21401D01*
X20241Y21091*
Y19208*
X20088Y19055*
X20079*
X19961Y3937D02*
X19902D01*
X19835Y3870*
X19654*
X19638Y3886*
X19507*
X19459Y3839*
X18976*
X20039Y29921D02*
Y29882D01*
X20058*
Y29749*
X20430Y29378*
Y28159*
X20126Y27855*
Y27670*
X20343Y27453*
Y25015*
X20079Y4606D02*
X19663D01*
X19446Y4823*
X18976*
X20197Y26299D02*
Y27284D01*
X20047Y27434*
Y27888*
X20351Y28191*
Y29345*
X19894Y29802*
Y30827*
X20207Y31220D02*
Y29712D01*
X20508Y29410*
Y28028*
X20394Y27913*
X20315Y19055D02*
X20320D01*
X20343Y25015D02*
Y25011D01*
X20894*
X20933Y24973*
Y24508*
X20343Y25015D02*
X20128Y24801D01*
Y21875*
X20353Y21650*
Y19055*
X20320*
X20394Y10079D02*
Y9982D01*
X20612Y9764*
X21445*
Y10138*
X20394Y17756D02*
X20465Y17827D01*
X20688*
X20933Y17581*
Y17224*
X20394Y27913D02*
X20839Y27469D01*
X20969*
X21193Y27244*
Y26870*
X20433Y24291D02*
Y24301D01*
X20681*
Y24508*
X20468Y20461D02*
X20951D01*
X21063Y20349*
Y20315*
X20630Y32402D02*
X20933Y32098D01*
Y31594*
X20681Y6594D02*
Y6220D01*
X21232Y5669*
X21457*
X20681Y9154D02*
Y8807D01*
X20809*
X21202Y8413*
X21584*
X21850Y8147*
Y7598*
X20681Y10138D02*
Y10276D01*
X19712*
X19568Y10132*
Y8448*
X19055Y7935*
X11725*
X10583Y6793*
Y6652*
X10728Y6506*
Y6181*
X20681Y11516D02*
Y11142D01*
X20693Y11130*
X20923*
X21186Y10866*
X21496*
X20681Y12500D02*
X20364D01*
X20054Y12189*
Y10792*
X19489Y10228*
Y8481*
X19028Y8019*
X11698*
X10504Y6825*
Y6181*
X10531*
X20681Y13878D02*
Y13481D01*
X20897Y13265*
X21109*
X21116Y13272*
X20681Y14862D02*
Y15215D01*
X20551Y15345*
Y15591*
X20681Y18602D02*
Y18165D01*
X21046Y17800*
X21389*
X21673Y17517*
Y17500*
X20681Y19783D02*
Y19605D01*
X20669Y19593*
Y19252*
X20681Y30610D02*
Y30236D01*
X20772Y30146*
X21193*
X21496Y29843*
X20768Y29665D02*
X20748D01*
Y29673*
X20681Y29606*
Y29232*
X20787Y30000D02*
X20890Y29897D01*
X20902*
X21193Y29606*
Y29232*
X20787Y32008D02*
X20720D01*
X20681Y31969*
Y31594*
X20827Y15787D02*
X21114Y15500D01*
X21123*
X21193Y15430*
Y14862*
X20866Y20315D02*
Y20306D01*
X20933Y20239*
Y19783*
X20866Y22598D02*
X20906D01*
X20933Y22571*
Y22146*
X20906Y27323D02*
X20933Y27295D01*
Y26870*
Y7776D02*
Y8150D01*
X20736Y8346*
X20591*
X20933Y12500D02*
Y12888D01*
X20874Y12947*
X20669*
Y12953*
X20630*
X20933Y14862D02*
Y14491D01*
X21140Y14283*
X21575*
Y14331*
X20933Y14862D02*
Y15236D01*
X20815Y15354*
X20720*
Y15394*
X20709*
X20933Y17224D02*
Y16850D01*
X20896Y16813*
X20454*
X20201Y16560*
Y14826*
X20512Y14515*
Y14508*
X20933Y24508D02*
Y24134D01*
X21012Y24055*
X21063*
X20984Y20709D02*
X20748D01*
X20681Y20776*
Y21161*
X21024Y15354D02*
X20681Y15697D01*
Y16240*
X21063Y20315D02*
Y20306D01*
X21193Y20176*
Y19783*
X21102Y22598D02*
X21374Y22870D01*
X21738*
X21917Y23050*
Y26163*
X21596Y26484*
X21223*
X21193Y26515*
Y26870*
X21116Y13272D02*
X21102Y13285D01*
Y13268*
X21193Y5217D02*
Y4843D01*
X21072Y4721*
X20582*
X19618Y5685*
Y6260*
X21193Y8150D02*
Y7776D01*
Y8150D02*
X21170Y8173D01*
X21099*
X20630Y8642*
X21193Y10512D02*
X21514D01*
X22007Y10019*
Y7329*
X21910Y7232*
X19872*
X19546Y6906*
Y6329*
X19615Y6260*
X19618*
X21193Y10512D02*
Y10138D01*
Y10512D02*
X20957Y10748D01*
X20669*
X20630Y10787*
X21193Y12500D02*
Y12886D01*
X21260Y12953*
X21193Y17224D02*
Y17598D01*
X21070Y17722*
X21013*
X20743Y17992*
X20551*
X21193Y17224D02*
Y16850D01*
X21224Y16819*
X21517*
X21612Y16724*
Y14476*
X21193Y22146D02*
Y22520D01*
X21114Y22598*
X21102*
X21193Y24508D02*
X21209D01*
Y23995*
X21123Y23909*
X21003*
X20811Y24101*
X20536*
X20209Y23773*
Y21906*
X20435Y21680*
Y20497*
X20468Y20464*
Y20461*
X21193Y24508D02*
Y24875D01*
X20512Y25556*
Y26299*
X21193Y31594D02*
Y31248D01*
X21165Y31220*
X20207*
X21201Y14429D02*
X21467D01*
X21514Y14476*
X21612*
X21260Y20315D02*
Y20305D01*
X21445Y20120*
Y19783*
X21339Y17638D02*
X21445Y17531D01*
Y17224*
X21378Y12047D02*
X21012D01*
X20933Y12126*
Y12500*
X21417Y27441D02*
X21075Y27783D01*
X20772*
X20681Y27874*
Y28248*
X21445Y5217D02*
Y4831D01*
X21189Y4576*
X20592*
X20247Y4921*
X20079*
X21445Y7776D02*
Y7312D01*
X19829*
X19404Y6887*
Y6511*
X19409Y6506*
Y5984*
X21445Y21161D02*
X21612D01*
X21890Y21439*
Y21693*
X21445Y22146D02*
Y21720D01*
X21417Y21693*
X21445Y25886D02*
Y26139D01*
X21487Y26181*
X21693*
X21445Y26870D02*
Y27207D01*
X21014Y27638*
X20906*
X21445Y31594D02*
Y31969D01*
X21366Y32047*
X21102*
X21457Y24055D02*
X21445Y24067D01*
Y24508*
X21457Y32205D02*
X21075D01*
X20681Y32598*
Y32972*
X21654Y19016D02*
Y20127D01*
X21222Y20559*
X20692*
X20514Y20737*
Y21468*
X20766Y21720*
X21142*
X21193Y21772*
Y22146*
X21693Y12441D02*
X21627D01*
Y12788*
X21539Y12876*
Y13000*
X21267Y13272*
X21116*
X21732Y23583D02*
Y23595D01*
X21708Y23619*
X21674Y23585*
X21445*
Y23524*
X21772Y14331D02*
Y14340D01*
X21635Y14476*
X21612*
X21772Y24252D02*
Y24778D01*
X21382Y25167*
X21062*
X20681Y25548*
Y25886*
X23031Y6693D02*
X24134D01*
X24567Y7126*
X24094Y9252D02*
X24921D01*
X25669Y10000*
X24567Y6890D02*
X24094Y6417D01*
X23071*
X24567Y30433D02*
Y30039D01*
X24724Y1063D02*
X24703D01*
Y603*
X24509Y409*
X19096*
X18915Y591*
X18898*
X26260Y748D02*
Y743D01*
X26992*
X27417Y317*
X31390*
X31476Y404*
Y689*
X26457Y433D02*
X26890D01*
X27008Y315*
X26811Y177D02*
Y150D01*
X18481*
X18131Y500*
X17879*
X17664Y285*
X15088*
X13516Y1856*
Y3038*
X13736Y3258*
Y6228*
X14299Y6791*
X15886*
X16043Y6634*
Y6181*
X27854Y9156D02*
Y8917D01*
X28069Y8703*
X28756*
X28917Y8864*
Y9477*
X28617Y9777*
X25661*
X21612Y5728*
Y3671*
X18965Y1024*
X17570*
X17365Y1228*
X17163*
X16970Y1035*
X16848*
X16738Y1146*
X16404*
X16136Y878*
X15699*
X15650Y928*
Y1693*
X28248Y9156D02*
Y8808D01*
X28274Y8781*
X28723*
X28839Y8897*
Y9444*
X28585Y9698*
X25706*
X21691Y5682*
Y3623*
X19006Y938*
X17396*
X17218Y760*
X15536*
X15453Y843*
Y1693*
X28563Y1457D02*
X28528D01*
Y1239*
X28712Y1055*
X29297*
X29436Y1194*
Y1457*
X29429*
X28642Y9156D02*
Y9530D01*
X28639Y9532*
X25652*
X21816Y5696*
Y3622*
X19053Y859*
X17428*
X17250Y681*
X15479*
X15256Y904*
Y1693*
X29429Y3031D02*
X29443D01*
Y2877*
X29196Y2630*
X28920*
X28563Y2986*
Y3031*
X31476Y2272D02*
Y2264D01*
Y4626D02*
X31752D01*
X31772Y4606*
X31654Y1732D02*
Y1731D01*
X31528*
X31476Y1679*
Y1476*
X31693Y2795D02*
Y2985D01*
X31627Y3051*
X31476*
G54D18*
X2362Y4921D03*
Y5421D03*
Y5921D03*
Y6421D03*
Y6921D03*
Y7421D03*
Y7921D03*
Y8421D03*
Y8921D03*
Y9421D03*
Y9921D03*
Y10921D03*
Y11421D03*
Y11921D03*
Y12421D03*
Y12921D03*
Y13421D03*
Y13921D03*
Y14421D03*
Y14921D03*
Y15421D03*
Y15921D03*
Y16421D03*
Y16921D03*
Y17421D03*
Y17921D03*
Y18421D03*
Y18921D03*
Y19421D03*
X3543Y24606D02*
Y25098D01*
X4291Y5335D02*
X5000D01*
X4724Y13681D02*
X5056D01*
X5642Y4827D02*
Y5051D01*
X5768Y5177*
X5906Y5413D02*
Y5315D01*
X5768Y5177*
X7626Y13484D02*
X8106D01*
X8360Y13738*
Y14488*
X8366*
X12008Y13583D02*
X11626D01*
Y12992*
X11614*
X12835Y26929D02*
X11594Y25689D01*
X10484*
X13071Y14684D02*
Y14582D01*
Y26457D02*
X11653Y25039D01*
X11102*
G54D19*
X14469Y17441D02*
Y17234D01*
X13891*
X13825Y17301*
Y17739*
X13690Y17874*
X18976Y21555D02*
X19469D01*
X19488Y21535*
G54D20*
X2953Y18031D03*
X3150Y25512D03*
X3543Y20669D03*
Y22244D03*
Y23819D03*
Y24606D03*
X4764Y21102D03*
X4803Y22677D03*
X5000Y5335D03*
X5118Y5413D02*
Y5335D01*
X5000*
X5118Y13681D03*
X5197Y22677D03*
X5236Y23937D03*
X5512Y13681D02*
X5720D01*
X5936Y13465*
X5945*
X5531Y30138D02*
Y30807D01*
Y31791D02*
Y31378D01*
X5551Y18504D03*
X5642Y886D03*
Y2461D03*
Y4035D03*
Y4332D02*
Y4035D01*
X5709Y23898D03*
X5787Y16220D03*
X5807Y9449D03*
Y11024D03*
Y12598D03*
X5906Y29114D02*
Y28857D01*
X6050Y28713*
X5945Y13504D03*
X5965Y16929D03*
X6102Y28661D03*
X6142Y1083D03*
Y2657D03*
Y4232D03*
Y28622D02*
Y28612D01*
X6584Y28170*
X9957*
X10484Y27643*
Y27264*
X6181Y23898D03*
X6417Y21457D03*
X6929Y9803D03*
Y11378D03*
X7087Y13091D03*
X7106Y31398D02*
Y31791D01*
X7480Y29114D02*
Y28770D01*
X7628Y28622*
X7638*
X7598Y28661D03*
X7638Y28622D02*
Y28618D01*
X7729Y28527*
X10109*
X11022Y27613*
Y27024*
X10868Y26870*
X10484*
X7677Y1969D03*
X8150Y26083D03*
X8366Y14488D03*
X8661Y23996D03*
Y27776D03*
X8681Y31398D02*
Y31791D01*
X8740Y11417D03*
X8858Y15157D03*
X8957Y9665D03*
X8996Y8346D03*
X9055Y29114D02*
Y28950D01*
X9107Y28898*
X9409*
X9252Y15157D03*
X9370Y8346D03*
X9409Y28898D02*
X10242D01*
X11377Y27763*
Y26859*
X10994Y26476*
X10484*
X9409Y28898D03*
X9449Y23996D03*
Y27776D03*
X9823Y8346D03*
X10079Y22795D03*
X10236Y32283D03*
Y31890D01*
X10276Y5728D03*
X10669Y31102D02*
X10236D01*
X10748Y10354D03*
X11102Y25039D03*
X11535Y14173D03*
X11614Y12992D03*
X11732Y17441D03*
X11772Y15787D03*
X12283Y6299D03*
X12598Y1457D03*
X12815Y30236D03*
X12835Y26929D03*
X13071Y14685D03*
Y16339D03*
Y17874D03*
Y26457D03*
X13150Y32874D03*
X13287Y10039D03*
X13425Y31260D03*
X13898Y23524D03*
Y27146D03*
X14055Y1969D03*
X14075Y20079D03*
X15059Y2362D03*
X15118Y26811D03*
X16043Y1102D03*
X17618Y29882D03*
X18504Y8543D03*
X18661Y30433D03*
X19252Y2126D03*
X19370Y20276D03*
X19547Y28720D03*
X19646Y4370D03*
Y4941D03*
X19783Y29035D03*
X20000Y28740D03*
X20079Y4606D03*
X22283Y5748D03*
X22638Y10591D03*
X22756Y2264D03*
X22835Y19606D03*
X23027Y25307D03*
X23031Y15866D03*
X23071Y29921D03*
X23110Y17028D03*
X23130Y11496D03*
X23228Y5315D03*
X23819Y30906D03*
X24134Y15866D03*
X24528Y5984D03*
X24606Y26102D03*
X24646Y21280D03*
X24665Y31024D03*
X24685Y31496D03*
X25591Y13583D03*
Y16811D03*
X25630Y23228D03*
X26102Y32008D03*
X26535Y28051D03*
Y29331D03*
Y32874D03*
X27067Y8543D03*
X27205Y1181D03*
X27244Y5315D03*
Y14961D03*
Y19783D03*
Y24606D03*
X27264Y10138D03*
X27717Y4606D03*
X27736Y1575D03*
Y2992D03*
X27953Y8425D03*
X28150Y10138D03*
Y19783D03*
Y24606D03*
X28976Y5315D03*
X29016Y1280D03*
Y2854D03*
Y4429D03*
X29094Y32559D03*
X29390Y8957D03*
X29528Y14488D03*
X29823Y8957D03*
Y23780D03*
Y27402D03*
Y28701D03*
X30059Y5256D03*
Y32972D03*
X31102Y29055D03*
X32874D03*
G54D21*
X1083Y20827D03*
Y22402D03*
Y23976D03*
X1476Y27972D03*
X1654Y20768D03*
Y22343D03*
Y23917D03*
X2480Y20768D03*
Y21122D03*
Y22343D03*
Y22697D03*
Y23917D03*
Y24272D03*
X2992Y8268D03*
X3051Y27953D03*
X3238Y2717D03*
X3248Y1142D03*
Y4921D03*
Y9528D03*
Y11732D03*
Y12677D03*
Y16654D03*
X3819Y1083D03*
Y2657D03*
Y4232D03*
Y9449D03*
Y11024D03*
Y12598D03*
X4213Y28799D03*
X4331Y25000D03*
X4370Y21142D03*
Y22717D03*
Y24291D03*
X4409Y8307D03*
X4646Y748D03*
Y1083D03*
Y2283D03*
Y2657D03*
Y3858D03*
Y4232D03*
Y9094D03*
Y9449D03*
Y9803D03*
Y10650D03*
Y11024D03*
Y11378D03*
Y12244D03*
Y12598D03*
Y12953D03*
X4665Y1437D03*
Y3012D03*
Y4587D03*
X4823Y16732D03*
X5039Y8051D03*
X5118Y24488D03*
X5197Y18583D03*
X5531Y31378D03*
X5815Y22264D03*
X5906Y29921D03*
Y32205D03*
X5945Y7402D03*
X6102Y22913D03*
X6260Y30394D03*
X6406Y21850D03*
X6417Y19094D03*
X6476Y12598D03*
X6535Y9843D03*
Y11417D03*
Y22913D03*
X6870Y3937D03*
Y4921D03*
X6890Y2008D03*
Y2953D03*
X6949Y18799D03*
X7126Y31378D03*
X7480Y29921D03*
Y32205D03*
X7579Y18681D03*
X7638Y2362D03*
X7795Y7480D03*
X7835Y30394D03*
X8150Y7717D03*
X8169Y12677D03*
Y18681D03*
X8228Y19882D03*
X8268Y5650D03*
X8563Y6378D03*
X8701Y31378D03*
X8780Y22362D03*
X8937Y10020D03*
X9055Y29921D03*
Y32205D03*
X9094Y2126D03*
X9409Y30394D03*
X9547Y22008D03*
X9744Y2126D03*
X10020Y13091D03*
Y13465D03*
X10039Y29941D03*
X10236Y18327D03*
Y18681D03*
X10354Y2953D03*
X10531Y23150D03*
X10709Y31142D03*
X10748Y31614D03*
Y31929D03*
Y32244D03*
X10945Y5728D03*
Y13484D03*
X11102Y19193D03*
X11299Y33366D03*
X11319Y5551D03*
X12323Y9469D03*
Y9823D03*
X12480Y14665D03*
Y16240D03*
Y17795D03*
X12657Y6378D03*
X12795Y13583D02*
Y13811D01*
X13071Y14087*
Y14499*
X12913Y2146D03*
X13504Y20768D03*
X13583Y29685D03*
X13760Y31929D03*
X13937Y2657D03*
Y27953D03*
X13957Y9685D03*
Y12402D03*
X14035Y14311D03*
Y15886D03*
Y17461D03*
X14055Y14665D03*
Y15039D03*
Y16240D03*
Y16614D03*
Y17815D03*
X14075Y24193D03*
X14094Y8780D03*
Y9114D03*
X14370Y6378D03*
X14665Y24193D03*
Y30492D03*
X14843Y23327D03*
X14862Y12815D03*
Y13169D03*
X14882Y14665D03*
Y16240D03*
Y17815D03*
X14921Y20748D03*
X14961Y6378D03*
X15059Y9429D03*
X15433Y22795D03*
X15453Y14646D03*
Y16181D03*
Y17756D03*
Y26457D03*
X15748Y9528D03*
Y20551D03*
X15866Y30236D03*
X16043Y19252D03*
Y20157D03*
Y26555D03*
X16417Y28878D03*
X16614Y23937D03*
X16634Y20256D03*
X16752Y2953D03*
X16929Y10236D03*
X17028Y29843D03*
X17618Y5551D03*
Y23622D03*
X18012D03*
X18307Y13819D03*
X18425Y24409D03*
X18465Y2598D03*
X18583Y5906D03*
Y12795D03*
X18602Y13189D03*
X18610Y19902D03*
X18622Y9705D03*
Y27067D03*
X18701Y26201D03*
Y26555D03*
X19291Y24193D03*
X19409Y30118D03*
X19528Y18701D03*
X19823Y6693D03*
Y28406D03*
X19843Y9213D03*
Y26142D03*
X20118Y21535D03*
X20354Y11575D03*
Y13937D03*
Y33228D03*
X20386Y16417D03*
X20394Y23583D03*
Y30866D03*
X21732Y12953D03*
X22283Y22598D03*
Y29862D03*
Y32224D03*
X22323Y8110D03*
Y15394D03*
Y17756D03*
X22598Y20224D03*
X22677Y24291D03*
X23228Y3189D03*
X23346Y20827D03*
X23563Y7008D03*
X23622Y11496D03*
Y13110D03*
Y32402D03*
X24213Y13110D03*
Y22756D03*
Y32402D03*
X24528Y7382D03*
Y12205D03*
Y17028D03*
X24606Y21850D03*
X26496Y15256D03*
X26535Y10059D03*
Y20079D03*
Y24902D03*
X26575Y13957D03*
Y19705D03*
X27205Y18780D03*
X27244Y13957D03*
X27874Y18780D03*
Y28425D03*
X28543Y2657D03*
Y4232D03*
X28996Y689D03*
X29016Y4429D02*
Y4823D01*
X29110Y4918*
X29784*
X30095Y4606*
X30413*
X29016Y5965D03*
X29724Y21575D03*
Y31220D03*
X29764Y32047D03*
X29980Y728D03*
Y1083D03*
Y2303D03*
Y3878D03*
X30000Y2657D03*
Y4232D03*
Y6693D03*
X30413Y1457D02*
Y1724D01*
X30364Y1773*
X29104*
X29016Y1685*
Y1280*
X30413Y3031D02*
Y3225D01*
X30289Y3349*
X29104*
X29016Y3261*
Y2854*
X30945Y1083D03*
Y2657D03*
Y4232D03*
X31398Y1024D03*
Y2598D03*
Y4173D03*
G54D22*
X276Y28150D03*
X374Y27756D03*
X472Y28110D03*
X630Y21693D03*
Y23701D03*
X709Y23504D03*
X748Y23071D03*
X787Y25492D03*
Y27992D03*
X984Y20000D03*
Y21693D03*
X1299Y20650D03*
Y22224D03*
X1319Y23780D03*
X2323Y26496D03*
Y26772D03*
Y27047D03*
X2362Y4409D03*
Y24882D03*
Y25098D03*
Y25315D03*
X2480Y28543D03*
X2520Y26496D03*
Y26772D03*
Y27047D03*
X2598Y27913D03*
X2626Y17665D03*
X2717Y26496D03*
Y26772D03*
Y27047D03*
X2795Y19134D03*
Y19606D03*
X2835Y8504D03*
Y18661D03*
X2913Y26496D03*
Y26772D03*
Y27047D03*
X2972Y1043D03*
X2992Y19449D03*
X3110Y4331D03*
Y26496D03*
Y26772D03*
Y27047D03*
X3150Y1850D03*
X3189Y3307D03*
Y3543D03*
X3307Y26496D03*
Y26772D03*
Y27047D03*
X3465Y10945D03*
X3504Y26496D03*
Y26772D03*
Y27047D03*
X3524Y16614D03*
X3701Y26496D03*
Y26772D03*
Y27047D03*
X3780Y591D03*
Y2264D03*
Y12205D03*
Y14094D03*
X3819Y3622D03*
Y3819D03*
Y9843D03*
X3917Y26181D03*
X3937Y5157D03*
Y5394D03*
Y5630D03*
Y26654D03*
Y26969D03*
X3976Y14094D03*
Y24724D03*
Y27579D03*
X4134Y14213D03*
X4173Y26969D03*
X4201Y27520D03*
X4213Y15079D03*
Y15354D03*
Y15630D03*
X4252Y6339D03*
Y6594D03*
Y6850D03*
Y17106D03*
X4331Y13465D03*
Y13661D03*
Y13858D03*
Y14055D03*
Y14252D03*
X4409Y26969D03*
X4449Y6339D03*
Y6575D03*
Y6850D03*
Y18780D03*
Y25787D03*
X4488Y15079D03*
Y15354D03*
Y15630D03*
X4528Y14213D03*
Y16496D03*
X4646Y6339D03*
Y6594D03*
Y6850D03*
Y26969D03*
X4803Y15079D03*
Y15354D03*
Y15630D03*
X4843Y6339D03*
Y6594D03*
Y6850D03*
X4921Y26969D03*
X5039Y6339D03*
Y6594D03*
Y6850D03*
X5079Y24213D03*
X5118Y15079D03*
Y15354D03*
Y15630D03*
X5157Y26969D03*
X5197Y19646D03*
X5236Y6339D03*
Y6594D03*
Y6850D03*
Y21850D03*
X5394Y21988D03*
Y26969D03*
Y28386D03*
X5433Y6339D03*
Y6594D03*
Y6850D03*
Y15079D03*
Y15354D03*
Y15630D03*
Y21496D03*
X5472Y21280D03*
X5512Y19921D03*
X5551Y22205D03*
X5630Y6339D03*
Y6594D03*
Y6850D03*
Y26969D03*
Y28346D03*
X5669Y14882D03*
Y27618D03*
X5787Y32500D03*
X5827Y6339D03*
Y6594D03*
Y6850D03*
Y8130D03*
Y8327D03*
X5866Y15945D03*
Y26969D03*
X5886Y14134D03*
X5906Y4961D03*
Y15118D03*
Y15354D03*
Y33898D03*
X6024Y6339D03*
Y6575D03*
Y6850D03*
X6142Y13701D03*
Y15354D03*
X6220Y6142D03*
Y6575D03*
Y7402D03*
X6339Y16969D03*
Y19685D03*
Y26772D03*
Y27480D03*
X6378Y15354D03*
X6417Y6575D03*
X6496Y8150D03*
X6535Y26260D03*
X6575Y32776D03*
X6614Y9134D03*
Y15354D03*
X6732Y26260D03*
X6811Y15354D03*
X6890Y9055D03*
X6929Y26260D03*
Y33780D03*
X7008Y15354D03*
X7126Y33780D03*
X7165Y9016D03*
X7244Y18937D03*
X7362Y32500D03*
X7441Y8110D03*
X7551Y2815D03*
X7657Y4409D03*
X7697Y3543D03*
X7874Y33189D03*
X7913Y21732D03*
X7953Y6024D03*
X8150Y6811D03*
Y32776D03*
X8228Y21024D03*
X8327Y6929D03*
X8366Y23228D03*
X8445Y7382D03*
X8504Y3035D03*
Y3642D03*
Y3839D03*
Y4449D03*
X8563Y19035D03*
Y23228D03*
X8583Y4921D03*
X8661Y33701D03*
X8720Y13799D03*
X8760Y23228D03*
X8799Y7087D03*
X8807Y18642D03*
X8937Y32500D03*
X8957Y23228D03*
X8976Y21732D03*
X8996Y7087D03*
Y18543D03*
X9016Y11024D03*
X9154Y17717D03*
Y23228D03*
X9252Y11220D03*
X9350Y17717D03*
Y23228D03*
X9449Y11220D03*
X9547Y17717D03*
Y20394D03*
X9567Y5866D03*
X9646Y6772D03*
X9665Y1181D03*
X9685Y11220D03*
X9724Y32776D03*
X9744Y19055D03*
Y26417D03*
X9843Y6732D03*
Y19252D03*
X9921Y11220D03*
Y19567D03*
X9961Y21220D03*
X10039Y6732D03*
Y7165D03*
X10059Y25689D03*
X10157Y20118D03*
X10197Y20571D03*
Y20768D03*
Y20965D03*
Y21260D03*
X10217Y19685D03*
X10236Y5189D03*
X10315Y11220D03*
X10354Y2126D03*
X10512Y10551D03*
Y11220D03*
X10551Y11654D03*
X10669Y11024D03*
Y11339D03*
X10728Y6732D03*
X10787Y9094D03*
X10827Y5472D03*
X10906Y11024D03*
X10925Y2008D03*
Y6732D03*
X10945Y9449D03*
Y9646D03*
Y9843D03*
Y23268D03*
X10984Y4488D03*
X11024Y20177D03*
Y20374D03*
X11063Y20571D03*
X11102Y10945D03*
Y11220D03*
Y11496D03*
X11122Y2165D03*
Y2421D03*
Y6732D03*
X11319Y1181D03*
Y6732D03*
X11339Y14469D03*
Y32677D03*
X11378Y10945D03*
Y11220D03*
Y11496D03*
X11457Y21929D03*
X11516Y1181D03*
X11693Y10945D03*
Y11220D03*
Y11496D03*
Y21929D03*
X11713Y1181D03*
X11732Y30472D03*
Y30709D03*
Y30945D03*
Y31181D03*
Y31417D03*
Y31654D03*
Y31850D03*
X11811Y28622D03*
Y28819D03*
Y29055D03*
Y29331D03*
Y29567D03*
Y29843D03*
Y30079D03*
Y30276D03*
X11909Y2480D03*
Y4213D03*
X12008Y10945D03*
Y11220D03*
Y11496D03*
Y12559D03*
Y30472D03*
Y30709D03*
Y30945D03*
Y31181D03*
Y31417D03*
Y31654D03*
Y31850D03*
X12087Y12362D03*
X12106Y2579D03*
Y2776D03*
X12126Y4567D03*
Y30276D03*
X12205Y4961D03*
Y12559D03*
X12244Y14882D03*
Y15197D03*
Y33169D03*
X12283Y12362D03*
Y30472D03*
Y30709D03*
Y30945D03*
Y31181D03*
Y31417D03*
Y31654D03*
Y31850D03*
X12323Y10945D03*
Y11220D03*
Y11496D03*
Y21791D03*
X12343Y3346D03*
Y3642D03*
X12362Y4764D03*
Y22835D03*
X12402Y12559D03*
Y12795D03*
Y12992D03*
Y13189D03*
Y21988D03*
X12520Y27126D03*
Y30276D03*
X12598Y12047D03*
X12638Y27323D03*
X12815Y20551D03*
X12874Y22835D03*
X12913Y20354D03*
X12992Y28425D03*
Y28740D03*
X13012Y10185D03*
X13130Y19685D03*
X13150Y8780D03*
Y13602D03*
Y28583D03*
Y32008D03*
X13189Y2657D03*
Y5413D03*
Y32559D03*
X13228Y22087D03*
Y22303D03*
Y24862D03*
Y25551D03*
X13268Y3307D03*
Y3543D03*
Y3780D03*
Y3976D03*
X13346Y19488D03*
X13386Y30433D03*
X13425Y6732D03*
Y19685D03*
Y22402D03*
X13583Y30433D03*
X13622Y27205D03*
X13661Y23780D03*
X13701Y21791D03*
X13740Y13465D03*
Y19134D03*
Y20945D03*
Y21142D03*
X13780Y28268D03*
Y30433D03*
X13819Y19843D03*
Y20315D03*
Y20551D03*
X13937Y19252D03*
Y33425D03*
X13976Y9961D03*
Y10315D03*
Y10551D03*
X14232Y30039D03*
X14567Y32126D03*
Y32323D03*
X14646Y5728D03*
X14665Y30138D03*
X14791Y28445D03*
Y28937D03*
X14843Y4154D03*
Y11319D03*
Y15827D03*
X14882Y17441D03*
Y29626D03*
X14961Y5433D03*
Y8425D03*
X15000Y3051D03*
Y3248D03*
X15039Y30945D03*
X15118Y591D03*
X15138Y14803D03*
X15354Y31299D03*
X15394Y2126D03*
X15453Y12717D03*
X15492Y15315D03*
X15551Y31299D03*
X15630Y8268D03*
X15650Y19291D03*
X15669Y16339D03*
X15748Y17953D03*
Y31299D03*
X15846Y8268D03*
X15945Y31299D03*
X16024Y26811D03*
X16043Y14291D03*
X16102Y8268D03*
X16240Y14291D03*
Y25591D03*
X16299Y11850D03*
Y12323D03*
X16378Y21161D03*
X16437Y14291D03*
X16457Y984D03*
X16535Y2146D03*
X16634Y9232D03*
Y26555D03*
X16654Y14291D03*
X16693Y984D03*
X16831Y12677D03*
X16850Y12303D03*
Y12874D03*
X16909Y1181D03*
X16929Y5472D03*
Y6673D03*
Y28228D03*
Y31102D03*
X16969Y23465D03*
X17028Y15118D03*
X17047Y12165D03*
X17087Y2008D03*
Y2264D03*
X17126Y12559D03*
Y31102D03*
X17165Y913D03*
Y5433D03*
Y23465D03*
X17205Y5630D03*
X17224Y9134D03*
Y15118D03*
Y20118D03*
Y26457D03*
X17244Y2402D03*
Y5827D03*
Y12165D03*
Y28268D03*
X17283Y6732D03*
Y21752D03*
X17303Y1083D03*
Y30276D03*
X17323Y31102D03*
X17362Y23268D03*
X17421Y9134D03*
Y15118D03*
Y20118D03*
Y26457D03*
X17441Y12067D03*
X17520Y6732D03*
Y31102D03*
X17559Y512D03*
X17598Y22283D03*
Y25591D03*
X17618Y1181D03*
Y8268D03*
Y15138D03*
Y19291D03*
X17717Y6732D03*
Y31083D03*
X17795Y25591D03*
X17815Y1181D03*
Y2717D03*
Y8268D03*
Y13780D03*
Y19291D03*
Y22244D03*
X17953Y30000D03*
X17992Y354D03*
Y25591D03*
X18012Y1181D03*
Y8268D03*
Y13780D03*
Y19291D03*
Y27067D03*
X18189Y236D03*
X18209Y9587D03*
Y20591D03*
Y22146D03*
Y27067D03*
X18228Y10945D03*
X18386Y4980D03*
Y9705D03*
Y12067D03*
Y22717D03*
Y23071D03*
X18406Y10295D03*
Y20591D03*
X18425Y2854D03*
Y3051D03*
Y27638D03*
X18504Y3504D03*
Y3701D03*
Y4232D03*
Y4429D03*
X18543Y20984D03*
Y21181D03*
X18547Y21535D03*
X18622Y10492D03*
Y10728D03*
Y10925D03*
Y11122D03*
Y11319D03*
Y11516D03*
Y20256D03*
Y27441D03*
Y27638D03*
Y28425D03*
Y28642D03*
Y28858D03*
X18661Y9941D03*
Y10138D03*
Y12402D03*
Y22717D03*
Y23071D03*
Y28031D03*
X18898Y591D03*
Y1417D03*
Y6339D03*
X19016Y13937D03*
X19075Y30886D03*
X19213Y5984D03*
X19272Y30827D03*
X19409Y5984D03*
X19429Y13937D03*
X19476Y27835D03*
Y28248D03*
X19488Y20768D03*
Y21535D03*
Y22126D03*
Y22362D03*
Y28051D03*
Y28445D03*
X19528Y29252D03*
X19567Y3248D03*
Y3740D03*
Y29921D03*
Y30827D03*
X19606Y17953D03*
X19626Y31594D03*
X19665Y23780D03*
X19685Y21496D03*
Y23307D03*
X19705Y21732D03*
Y31988D03*
X19724Y4016D03*
X19744Y22835D03*
X19764Y5748D03*
Y6260D03*
Y15394D03*
Y22598D03*
Y27402D03*
Y32717D03*
X19803Y11063D03*
Y32244D03*
X19823Y12441D03*
X19843Y15787D03*
Y32480D03*
X19961Y3346D03*
Y3543D03*
Y3740D03*
Y3937D03*
X20039Y29921D03*
X20079Y4921D03*
Y19055D03*
Y19252D03*
X20197Y26299D03*
X20315Y19055D03*
X20394Y10079D03*
Y17756D03*
Y27913D03*
X20433Y24291D03*
X20512Y14508D03*
Y26299D03*
X20551Y15591D03*
Y17992D03*
Y29685D03*
X20591Y8346D03*
X20630Y8642D03*
Y10787D03*
Y12953D03*
Y17677D03*
Y32402D03*
X20669Y5669D03*
Y19252D03*
Y22598D03*
Y27323D03*
X20709Y10591D03*
Y15394D03*
Y19055D03*
X20768Y29665D03*
X20787Y10945D03*
Y23110D03*
Y30000D03*
Y32008D03*
X20827Y15787D03*
Y21575D03*
X20866Y20315D03*
Y22598D03*
Y26378D03*
X20906Y27323D03*
Y27638D03*
X20984Y20709D03*
X21024Y689D03*
Y15354D03*
Y30000D03*
X21063Y20315D03*
Y24055D03*
X21102Y13268D03*
Y22598D03*
Y32047D03*
X21201Y14429D03*
X21260Y12953D03*
Y20315D03*
X21339Y15354D03*
Y17638D03*
X21378Y8228D03*
Y12047D03*
X21417Y1378D03*
Y15748D03*
Y21693D03*
Y26339D03*
Y27441D03*
X21457Y5669D03*
Y16673D03*
Y24055D03*
Y32205D03*
X21496Y10866D03*
Y11063D03*
Y29843D03*
Y30118D03*
X21575Y14331D03*
X21654Y19016D03*
Y21693D03*
X21673Y17500D03*
X21693Y9449D03*
Y11575D03*
Y12441D03*
Y13425D03*
Y26181D03*
Y30866D03*
Y33228D03*
X21732Y6260D03*
Y6732D03*
Y17756D03*
Y18268D03*
Y20709D03*
Y23071D03*
Y23583D03*
Y27913D03*
Y28465D03*
Y32717D03*
X21772Y14331D03*
Y24252D03*
X21811Y1969D03*
Y8622D03*
X21850Y7598D03*
X21890Y19016D03*
Y21693D03*
X21969Y14331D03*
X22047Y2953D03*
X22244D03*
Y27402D03*
X22362Y26654D03*
X22441Y2953D03*
Y3780D03*
X22520Y31969D03*
X23031Y6693D03*
X23071Y6417D03*
X23307Y8937D03*
Y13760D03*
Y23406D03*
Y28425D03*
Y33031D03*
X23346Y18228D03*
Y18583D03*
X23386Y3425D03*
X23622Y8307D03*
Y26339D03*
Y27795D03*
X23740Y1614D03*
Y1811D03*
Y2008D03*
Y2205D03*
Y2441D03*
Y2677D03*
Y2874D03*
Y3150D03*
Y3386D03*
X23819Y27323D03*
X23858Y32126D03*
X23898Y23051D03*
X23937Y8543D03*
Y18228D03*
X24016Y1614D03*
Y1811D03*
Y2008D03*
Y2205D03*
Y2441D03*
Y2677D03*
Y2874D03*
Y3150D03*
Y3386D03*
Y3583D03*
Y3780D03*
Y3976D03*
Y4173D03*
Y4370D03*
Y4567D03*
Y4764D03*
Y4961D03*
X24094Y9252D03*
X24213Y27795D03*
X24291Y1614D03*
Y1811D03*
Y2008D03*
Y2205D03*
Y2441D03*
Y2677D03*
Y2874D03*
Y3150D03*
Y3386D03*
X24567Y6890D03*
Y7126D03*
Y30039D03*
Y30433D03*
X24724Y1063D03*
X24921Y21575D03*
X25157Y1614D03*
Y1890D03*
X25433Y1575D03*
X25630Y5433D03*
X25669Y5657D03*
Y10000D03*
Y15512D03*
X25689Y8760D03*
X25709Y1575D03*
X25768Y2933D03*
X26260Y433D03*
Y748D03*
X26457Y433D03*
X26575Y14882D03*
Y24528D03*
X26614Y33248D03*
X26693Y3051D03*
X26811Y177D03*
X26870Y4961D03*
X27008Y315D03*
X27126Y23602D03*
Y28425D03*
X27835Y22441D03*
Y22677D03*
Y22913D03*
Y23602D03*
Y33248D03*
X27854Y7087D03*
Y7382D03*
Y7677D03*
Y11909D03*
Y12205D03*
Y12500D03*
Y16732D03*
Y17028D03*
Y17323D03*
Y21555D03*
Y21850D03*
Y22146D03*
Y26378D03*
Y26673D03*
Y26969D03*
Y31201D03*
Y31496D03*
Y31791D03*
X28248Y7087D03*
Y7382D03*
Y7677D03*
Y11909D03*
Y12205D03*
Y12500D03*
Y16732D03*
Y17028D03*
Y17323D03*
Y21555D03*
Y21850D03*
Y31201D03*
X28268Y22441D03*
Y22677D03*
Y22913D03*
X29567Y13780D03*
X29705Y16693D03*
Y26457D03*
X30000Y11614D03*
X31102Y1732D03*
Y3307D03*
Y4882D03*
X31654Y1732D03*
X31693Y2795D03*
X31772Y4606D03*
G54D23*
X1220Y4882D03*
X2362Y10421D03*
X8150Y25669D03*
X11043Y8346D03*
X12283Y7067D03*
X14094Y26378D03*
X17618Y12579D03*
X24488Y10827D03*
X24606Y26673D03*
X25079Y6555D03*
X25591Y7283D03*
Y12008D03*
Y18406D03*
X26063Y22402D03*
Y27244D03*
X27244Y29429D03*
X28071Y14961D03*
X28110Y29429D03*
X29094Y13307D03*
Y18071D03*
Y22913D03*
Y27717D03*
X29134Y7894D03*
X29528Y9646D03*
Y24213D03*
Y28937D03*
X29587Y17657D03*
X29823Y12795D03*
X30138Y19724D03*
X30236Y7559D03*
G54D24*
X28248Y22146D03*
Y26378D03*
Y26969D03*
Y31496D03*
Y31791D03*
G54D25*
X1004Y20374D03*
Y21161D03*
Y21949D03*
Y22736D03*
Y23524D03*
Y24311D03*
X1358Y20374D03*
Y21161D03*
Y21949D03*
Y22736D03*
Y23524D03*
Y24311D03*
X3169Y689D03*
Y1476D03*
Y2264D03*
Y3051D03*
Y3839D03*
Y4626D03*
Y9055D03*
Y9843D03*
Y10630D03*
Y11417D03*
Y12205D03*
Y12992D03*
X3524Y689D03*
Y1476D03*
Y2264D03*
Y3051D03*
Y3839D03*
Y4626D03*
Y9055D03*
Y9843D03*
Y10630D03*
Y11417D03*
Y12205D03*
Y12992D03*
X5512Y32500D03*
Y32854D03*
X6299Y32500D03*
Y32854D03*
X7087Y32500D03*
Y32854D03*
X7874Y32500D03*
Y32854D03*
X8661Y32500D03*
Y32854D03*
X9449Y32500D03*
Y32854D03*
X15138Y14272D03*
Y15059D03*
Y15846D03*
Y16634D03*
Y17421D03*
Y18209D03*
X15492Y14272D03*
Y15059D03*
Y15846D03*
Y16634D03*
Y17421D03*
Y18209D03*
X31122Y689D03*
Y1476D03*
Y2264D03*
Y3051D03*
Y3839D03*
Y4626D03*
X31476Y689D03*
Y1476D03*
Y2264D03*
Y3051D03*
Y3839D03*
Y4626D03*
G54D26*
X4744Y24902D03*
Y25886D03*
X5118Y24902D03*
X5492D03*
Y25886D03*
X5531Y30807D03*
Y31791D03*
X5906D03*
X6280Y30807D03*
Y31791D03*
X7106Y30807D03*
Y31791D03*
X7480D03*
X7854Y30807D03*
Y31791D03*
X8681Y30807D03*
Y31791D03*
X9055D03*
X9429Y30807D03*
Y31791D03*
G54D27*
X2067Y20394D03*
Y20768D03*
Y21142D03*
Y21969D03*
Y22343D03*
Y22717D03*
Y23543D03*
Y23917D03*
Y24291D03*
X3051Y20394D03*
Y21142D03*
Y21969D03*
Y22717D03*
Y23543D03*
Y24291D03*
X4232Y709D03*
Y1083D03*
Y1457D03*
Y2283D03*
Y2657D03*
Y3031D03*
Y3858D03*
Y4232D03*
Y4606D03*
Y9075D03*
Y9449D03*
Y9823D03*
Y10650D03*
Y11024D03*
Y11398D03*
Y12224D03*
Y12598D03*
Y12972D03*
X5217Y709D03*
Y1457D03*
Y2283D03*
Y3031D03*
Y3858D03*
Y4606D03*
Y9075D03*
Y9823D03*
Y10650D03*
Y11398D03*
Y12224D03*
Y12972D03*
X10827Y32795D03*
Y33543D03*
X11811Y32795D03*
Y33169D03*
Y33543D03*
X13484Y14291D03*
Y15039D03*
Y15866D03*
Y16614D03*
Y17441D03*
Y18189D03*
X14469Y14291D03*
Y14665D03*
Y15039D03*
Y15866D03*
Y16240D03*
Y16614D03*
Y17441D03*
Y17815D03*
Y18189D03*
X29429Y709D03*
Y1457D03*
Y2283D03*
Y3031D03*
Y3858D03*
Y4606D03*
X30413Y709D03*
Y1083D03*
Y1457D03*
Y2283D03*
Y2657D03*
Y3031D03*
Y3858D03*
Y4232D03*
Y4606D03*
G54D28*
X10236Y31102D03*
Y31890D03*
G54D29*
X8630Y11398D03*
Y15177D03*
Y23996D03*
Y27776D03*
X9480Y11398D03*
Y15177D03*
Y23996D03*
Y27776D03*
G54D30*
X20681Y5217D03*
Y6594D03*
Y7776D03*
Y9154D03*
Y10138D03*
Y11516D03*
Y12500D03*
Y13878D03*
Y14862D03*
Y16240D03*
Y17224D03*
Y18602D03*
Y19783D03*
Y21161D03*
Y22146D03*
Y23524D03*
Y24508D03*
Y25886D03*
Y26870D03*
Y28248D03*
Y29232D03*
Y30610D03*
Y31594D03*
Y32972D03*
X20933Y5217D03*
Y6594D03*
Y7776D03*
Y9154D03*
Y10138D03*
Y11516D03*
Y12500D03*
Y13878D03*
Y14862D03*
Y16240D03*
Y17224D03*
Y18602D03*
Y19783D03*
Y21161D03*
Y22146D03*
Y23524D03*
Y24508D03*
Y25886D03*
Y26870D03*
Y28248D03*
Y29232D03*
Y30610D03*
Y31594D03*
Y32972D03*
X21193Y5217D03*
Y6594D03*
Y7776D03*
Y9154D03*
Y10138D03*
Y11516D03*
Y12500D03*
Y13878D03*
Y14862D03*
Y16240D03*
Y17224D03*
Y18602D03*
Y19783D03*
Y21161D03*
Y22146D03*
Y23524D03*
Y24508D03*
Y25886D03*
Y26870D03*
Y28248D03*
Y29232D03*
Y30610D03*
Y31594D03*
Y32972D03*
X21445Y5217D03*
Y6594D03*
Y7776D03*
Y9154D03*
Y10138D03*
Y11516D03*
Y12500D03*
Y13878D03*
Y14862D03*
Y16240D03*
Y17224D03*
Y18602D03*
Y19783D03*
Y21161D03*
Y22146D03*
Y23524D03*
Y24508D03*
Y25886D03*
Y26870D03*
Y28248D03*
Y29232D03*
Y30610D03*
Y31594D03*
Y32972D03*
G54D31*
X3917Y20394D03*
Y21142D03*
Y21969D03*
Y22717D03*
Y23543D03*
Y24291D03*
X4744Y20768D03*
Y22343D03*
Y23917D03*
X6083Y709D03*
Y1457D03*
Y2283D03*
Y3031D03*
Y3858D03*
Y4606D03*
Y9075D03*
Y9823D03*
Y10650D03*
Y11398D03*
Y12224D03*
Y12972D03*
X6909Y1083D03*
Y2657D03*
Y4232D03*
Y9449D03*
Y11024D03*
Y12598D03*
X11791Y14665D03*
Y16240D03*
Y17815D03*
X12618Y14291D03*
Y15039D03*
Y15866D03*
Y16614D03*
Y17441D03*
Y18189D03*
X27736Y1083D03*
Y2657D03*
Y4232D03*
X28563Y709D03*
Y1457D03*
Y2283D03*
Y3031D03*
Y3858D03*
Y4606D03*
G54D32*
X7972Y18091D03*
X9744D03*
X10138Y1555D03*
X11909D03*
X16437D03*
Y8642D03*
Y19665D03*
Y25965D03*
X18209Y1555D03*
Y8642D03*
Y19665D03*
Y25965D03*
G54D33*
X6791Y18130D03*
Y22815D03*
X6988Y18130D03*
Y22815D03*
X7185Y18130D03*
Y22815D03*
X7382Y18130D03*
Y22815D03*
X7579Y18130D03*
Y22815D03*
X7776Y18130D03*
Y22815D03*
X7972D03*
X8169Y18130D03*
X8366D03*
Y22815D03*
X8563Y18130D03*
Y22815D03*
X8760Y18130D03*
Y22815D03*
X8957Y1594D03*
Y6280D03*
Y18130D03*
Y22815D03*
X9154Y1594D03*
Y6280D03*
Y18130D03*
Y22815D03*
X9350Y1594D03*
Y6280D03*
Y18130D03*
Y22815D03*
X9547Y1594D03*
Y6280D03*
Y18130D03*
Y22815D03*
X9744Y1594D03*
Y6280D03*
Y22815D03*
X9941Y1594D03*
Y6280D03*
X10138D03*
X10335Y1594D03*
X10531D03*
Y6280D03*
X10728Y1594D03*
Y6280D03*
X10925Y1594D03*
Y6280D03*
X11122Y1594D03*
Y6280D03*
X11319Y1594D03*
Y6280D03*
X11516Y1594D03*
Y6280D03*
X11713Y1594D03*
Y6280D03*
X11909D03*
X15256Y1594D03*
Y6280D03*
Y8681D03*
Y13366D03*
Y19705D03*
Y24390D03*
Y26004D03*
Y30689D03*
X15453Y1594D03*
Y6280D03*
Y8681D03*
Y13366D03*
Y19705D03*
Y24390D03*
Y26004D03*
Y30689D03*
X15650Y1594D03*
Y6280D03*
Y8681D03*
Y13366D03*
Y19705D03*
Y24390D03*
Y26004D03*
Y30689D03*
X15846Y1594D03*
Y6280D03*
Y8681D03*
Y13366D03*
Y19705D03*
Y24390D03*
Y26004D03*
Y30689D03*
X16043Y1594D03*
Y6280D03*
Y8681D03*
Y13366D03*
Y19705D03*
Y24390D03*
Y26004D03*
Y30689D03*
X16240Y1594D03*
Y6280D03*
Y8681D03*
Y13366D03*
Y19705D03*
Y24390D03*
Y26004D03*
Y30689D03*
X16437Y6280D03*
Y13366D03*
Y24390D03*
Y30689D03*
X16634Y1594D03*
Y8681D03*
Y19705D03*
Y26004D03*
X16831Y1594D03*
Y6280D03*
Y8681D03*
Y13366D03*
Y19705D03*
Y24390D03*
Y26004D03*
Y30689D03*
X17028Y1594D03*
Y6280D03*
Y8681D03*
Y13366D03*
Y19705D03*
Y24390D03*
Y26004D03*
Y30689D03*
X17224Y1594D03*
Y6280D03*
Y8681D03*
Y13366D03*
Y19705D03*
Y24390D03*
Y26004D03*
Y30689D03*
X17421Y1594D03*
Y6280D03*
Y8681D03*
Y13366D03*
Y19705D03*
Y24390D03*
Y26004D03*
Y30689D03*
X17618Y1594D03*
Y6280D03*
Y8681D03*
Y13366D03*
Y19705D03*
Y24390D03*
Y26004D03*
Y30689D03*
X17815Y1594D03*
Y6280D03*
Y8681D03*
Y13366D03*
Y19705D03*
Y24390D03*
Y26004D03*
Y30689D03*
X18012Y1594D03*
Y6280D03*
Y8681D03*
Y13366D03*
Y19705D03*
Y24390D03*
Y26004D03*
Y30689D03*
X18209Y6280D03*
Y13366D03*
Y24390D03*
Y30689D03*
G54D34*
X5925Y18996D03*
Y19193D03*
Y19390D03*
Y19783D03*
Y19980D03*
Y20177D03*
Y20374D03*
Y20571D03*
Y20768D03*
Y20965D03*
Y21161D03*
Y21358D03*
Y21752D03*
Y21949D03*
X8091Y2461D03*
Y2657D03*
Y2854D03*
Y3248D03*
Y3445D03*
Y3642D03*
Y3839D03*
Y4035D03*
Y4232D03*
Y4429D03*
Y4626D03*
Y4823D03*
Y5217D03*
Y5413D03*
X10610Y18996D03*
Y19193D03*
Y19390D03*
Y19587D03*
Y19980D03*
Y20177D03*
Y20374D03*
Y20571D03*
Y20768D03*
Y20965D03*
Y21161D03*
Y21358D03*
Y21555D03*
Y21949D03*
X12776Y2461D03*
Y2657D03*
Y2854D03*
Y3051D03*
Y3445D03*
Y3642D03*
Y3839D03*
Y4035D03*
Y4232D03*
Y4429D03*
Y4626D03*
Y4823D03*
Y5020D03*
Y5413D03*
X14390Y2461D03*
Y2657D03*
Y2854D03*
Y3248D03*
Y3445D03*
Y3642D03*
Y3839D03*
Y4035D03*
Y4232D03*
Y4429D03*
Y4626D03*
Y4823D03*
Y5217D03*
Y5413D03*
Y9547D03*
Y9744D03*
Y9941D03*
Y10335D03*
Y10531D03*
Y10728D03*
Y10925D03*
Y11122D03*
Y11319D03*
Y11516D03*
Y11713D03*
Y11909D03*
Y12303D03*
Y12500D03*
Y20571D03*
Y20768D03*
Y20965D03*
Y21358D03*
Y21555D03*
Y21752D03*
Y21949D03*
Y22146D03*
Y22343D03*
Y22539D03*
Y22736D03*
Y22933D03*
Y23327D03*
Y23524D03*
Y26870D03*
Y27067D03*
Y27264D03*
Y27657D03*
Y27854D03*
Y28051D03*
Y28248D03*
Y28445D03*
Y28642D03*
Y28839D03*
Y29035D03*
Y29232D03*
Y29626D03*
Y29823D03*
X19075Y2461D03*
Y2657D03*
Y2854D03*
Y3051D03*
Y3445D03*
Y3642D03*
Y3839D03*
Y4035D03*
Y4232D03*
Y4429D03*
Y4626D03*
Y4823D03*
Y5020D03*
Y5413D03*
Y9547D03*
Y9744D03*
Y9941D03*
Y10138D03*
Y10531D03*
Y10728D03*
Y10925D03*
Y11122D03*
Y11319D03*
Y11516D03*
Y11713D03*
Y11909D03*
Y12106D03*
Y12500D03*
Y20571D03*
Y20768D03*
Y20965D03*
Y21161D03*
Y21555D03*
Y21752D03*
Y21949D03*
Y22146D03*
Y22343D03*
Y22539D03*
Y22736D03*
Y22933D03*
Y23130D03*
Y23524D03*
Y26870D03*
Y27067D03*
Y27264D03*
Y27461D03*
Y27854D03*
Y28051D03*
Y28248D03*
Y28445D03*
Y28642D03*
Y28839D03*
Y29035D03*
Y29232D03*
Y29429D03*
Y29823D03*
G54D35*
X5886Y19587D03*
Y21555D03*
X8051Y3051D03*
Y5020D03*
X14350Y3051D03*
Y5020D03*
Y10138D03*
Y12106D03*
Y21161D03*
Y23130D03*
Y27461D03*
Y29429D03*
G54D36*
X8169Y22854D03*
X10335Y6319D03*
X16634D03*
Y13406D03*
Y24429D03*
Y30728D03*
G54D37*
X10650Y19783D03*
Y21752D03*
X12815Y3248D03*
Y5217D03*
X19114Y3248D03*
Y5217D03*
Y10335D03*
Y12303D03*
Y21358D03*
Y23327D03*
Y27657D03*
Y29626D03*
G54D38*
X7264Y8150D03*
X11043D03*
X25374Y8152D03*
X29154D03*
G54D39*
X7776Y9154D03*
X8169D03*
X8563D03*
X8957D03*
X9350D03*
X9744D03*
X10138D03*
X10531D03*
X25886Y9156D03*
X26280D03*
X26673D03*
X27067D03*
X27461D03*
X27854D03*
X28248D03*
X28642D03*
G54D40*
X5531Y29941D03*
X5906Y29114D03*
X6280Y29941D03*
X7106D03*
X7480Y29114D03*
X7854Y29941D03*
X8681D03*
X9055Y29114D03*
X9429Y29941D03*
G54D41*
X3583Y5413D03*
X4291D03*
G54D70*
X6050Y28713D02*
Y28661D01*
X7638Y28622D02*
Y28661D01*
X7598*
X17953Y30000D02*
Y30011D01*
X18012Y30070*
Y30591*
G54D71*
X31299Y5610D03*
Y6398D03*
Y7185D03*
Y7972D03*
Y8760D03*
Y9547D03*
Y10335D03*
Y11122D03*
Y11909D03*
Y12697D03*
Y13484D03*
Y14272D03*
Y15059D03*
Y15846D03*
Y16634D03*
Y17421D03*
Y18209D03*
X31938D01*
X31299Y18996D03*
X32087D01*
X31299Y19783D03*
Y20571D03*
Y21358D03*
Y22146D03*
Y22933D03*
Y23720D02*
X32087D01*
X31299D03*
Y24508D03*
Y25295D03*
Y26083D03*
Y26870D03*
Y27657D03*
Y28445D03*
X31388Y19783D02*
X32017D01*
X32087Y5610D03*
Y6398D03*
Y7185D03*
Y7972D03*
Y8760D03*
Y9547D03*
Y10335D03*
Y11122D03*
Y11909D03*
Y12697D03*
Y13484D03*
Y14272D03*
Y15059D03*
Y15846D03*
Y16634D03*
Y17421D03*
Y18209D03*
Y18996D03*
Y19783D03*
Y20571D03*
Y21358D03*
Y22146D03*
Y22933D02*
X31299D01*
X32087D03*
Y23720D03*
Y24508D03*
Y25295D03*
Y26083D03*
Y26870D03*
Y27657D03*
Y28445D03*
G54D72*
X7626Y11909D03*
Y12303D03*
Y12697D03*
Y13091D03*
Y13484D03*
Y13878D03*
Y14272D03*
Y14665D03*
Y24508D03*
Y24902D03*
Y25295D03*
Y25689D03*
Y26083D03*
Y26476D03*
Y26870D03*
Y27264D03*
X10484Y11909D03*
Y12303D03*
Y12697D03*
Y13091D03*
Y13484D03*
Y13878D03*
Y14272D03*
Y14665D03*
Y24508D03*
Y24902D03*
Y25295D03*
Y25689D03*
Y26083D03*
Y26476D03*
Y26870D03*
Y27264D03*
G54D73*
X2756Y25098D03*
X3543D03*
X4724Y13681D03*
X5118Y5413D03*
X5512Y13681D03*
X5906Y5413D03*
X12008Y13583D03*
X12795D03*
M02*
