*
G04 Job   : C:\Mentor_proj\450\PCB\450.pcb*
G04 User  : WINDOWS-XP:user*
G04 Layer : LayerTop.gdo*
G04 Date  : Fri Dec 16 16:25:48 2022*
G04 Mentor Graphics Example Gerber Output Definition*
%ICAS*%
%MOIN*%
%FSLAX24Y24*%
%OFA0.0000B0.0000*%
G90*
G74*
%AMVB_RECTANGLE*
21,1,$1,$2,0,0,$3*
%
%AMVB_Custom_VIK_Cu*
20,1,0.0197,0.0000,0.0000,0.3100,0.0000,$1*
$4 = $2X0.0000*
$5 = $3X0.0000*
$6 = $2X0.0000*
$7 = $3X0.0000*
1,1,0.0197,$4-$5,$6+$7*
$4 = $2X0.3100*
$5 = $3X0.0000*
$6 = $2X0.0000*
$7 = $3X0.3100*
1,1,0.0197,$4-$5,$6+$7*
20,1,0.0197,0.0000,0.0000,0.0000,-0.2362,$1*
$4 = $2X0.0000*
$5 = $3X0.0000*
$6 = $2X0.0000*
$7 = $3X0.0000*
1,1,0.0197,$4-$5,$6+$7*
$4 = $2X0.0000*
$5 = $3X-0.2362*
$6 = $2X-0.2362*
$7 = $3X0.0000*
1,1,0.0197,$4-$5,$6+$7*
20,1,0.0197,0.0000,-0.2362,0.3150,-0.2362,$1*
$4 = $2X0.0000*
$5 = $3X-0.2362*
$6 = $2X-0.2362*
$7 = $3X0.0000*
1,1,0.0197,$4-$5,$6+$7*
$4 = $2X0.3150*
$5 = $3X-0.2362*
$6 = $2X-0.2362*
$7 = $3X0.3150*
1,1,0.0197,$4-$5,$6+$7*
20,1,0.0197,0.3146,0.0000,0.3146,-0.2362,$1*
$4 = $2X0.3146*
$5 = $3X0.0000*
$6 = $2X0.0000*
$7 = $3X0.3146*
1,1,0.0197,$4-$5,$6+$7*
$4 = $2X0.3146*
$5 = $3X-0.2362*
$6 = $2X-0.2362*
$7 = $3X0.3146*
1,1,0.0197,$4-$5,$6+$7*
4,1,6,0.1178,-0.2162,0.1178,-0.0194,0.0981,-0.0194,0.0981,-0.1375,0.0391,-0.0194,0.0194,-0.0194,0.1178,-0.2162,$1*
20,1,0.0197,0.1575,-0.1079,0.1575,-0.2063,$1*
$4 = $2X0.1575*
$5 = $3X-0.1079*
$6 = $2X-0.1079*
$7 = $3X0.1575*
1,1,0.0197,$4-$5,$6+$7*
$4 = $2X0.1575*
$5 = $3X-0.2063*
$6 = $2X-0.2063*
$7 = $3X0.1575*
1,1,0.0197,$4-$5,$6+$7*
4,1,6,0.1965,-0.0194,0.1965,-0.2162,0.2950,-0.0194,0.2753,-0.0194,0.2162,-0.1375,0.2162,-0.0194,0.1965,-0.0194,$1*
4,1,4,0.2261,-0.1178,0.2753,-0.2162,0.2950,-0.2162,0.2457,-0.1178,0.2261,-0.1178,$1*
$4 = $2X0.1575*
$5 = $3X-0.0492*
$6 = $2X-0.0492*
$7 = $3X0.1575*
1,1,0.0591,$4-$5,$6+$7*
20,1,0.0005,-0.0100,-0.0100,-0.0100,-0.0100,$1*
$4 = $2X-0.0100*
$5 = $3X-0.0100*
$6 = $2X-0.0100*
$7 = $3X-0.0100*
1,1,0.0005,$4-$5,$6+$7*
$4 = $2X-0.0100*
$5 = $3X-0.0100*
$6 = $2X-0.0100*
$7 = $3X-0.0100*
1,1,0.0005,$4-$5,$6+$7*
20,1,0.0005,-0.0100,-0.0100,-0.0100,-0.0100,$1*
$4 = $2X-0.0100*
$5 = $3X-0.0100*
$6 = $2X-0.0100*
$7 = $3X-0.0100*
1,1,0.0005,$4-$5,$6+$7*
$4 = $2X-0.0100*
$5 = $3X-0.0100*
$6 = $2X-0.0100*
$7 = $3X-0.0100*
1,1,0.0005,$4-$5,$6+$7*
20,1,0.0157,0.0247,-0.1997,0.0299,-0.2032,$1*
$4 = $2X0.0247*
$5 = $3X-0.1997*
$6 = $2X-0.1997*
$7 = $3X0.0247*
1,1,0.0157,$4-$5,$6+$7*
$4 = $2X0.0299*
$5 = $3X-0.2032*
$6 = $2X-0.2032*
$7 = $3X0.0299*
1,1,0.0157,$4-$5,$6+$7*
20,1,0.0157,0.0299,-0.2032,0.0357,-0.2054,$1*
$4 = $2X0.0299*
$5 = $3X-0.2032*
$6 = $2X-0.2032*
$7 = $3X0.0299*
1,1,0.0157,$4-$5,$6+$7*
$4 = $2X0.0357*
$5 = $3X-0.2054*
$6 = $2X-0.2054*
$7 = $3X0.0357*
1,1,0.0157,$4-$5,$6+$7*
20,1,0.0157,0.0357,-0.2054,0.0419,-0.2063,$1*
$4 = $2X0.0357*
$5 = $3X-0.2054*
$6 = $2X-0.2054*
$7 = $3X0.0357*
1,1,0.0157,$4-$5,$6+$7*
$4 = $2X0.0419*
$5 = $3X-0.2063*
$6 = $2X-0.2063*
$7 = $3X0.0419*
1,1,0.0157,$4-$5,$6+$7*
20,1,0.0157,0.0419,-0.2063,0.0481,-0.2060,$1*
$4 = $2X0.0419*
$5 = $3X-0.2063*
$6 = $2X-0.2063*
$7 = $3X0.0419*
1,1,0.0157,$4-$5,$6+$7*
$4 = $2X0.0481*
$5 = $3X-0.2060*
$6 = $2X-0.2060*
$7 = $3X0.0481*
1,1,0.0157,$4-$5,$6+$7*
20,1,0.0157,0.0481,-0.2060,0.0542,-0.2043,$1*
$4 = $2X0.0481*
$5 = $3X-0.2060*
$6 = $2X-0.2060*
$7 = $3X0.0481*
1,1,0.0157,$4-$5,$6+$7*
$4 = $2X0.0542*
$5 = $3X-0.2043*
$6 = $2X-0.2043*
$7 = $3X0.0542*
1,1,0.0157,$4-$5,$6+$7*
20,1,0.0157,0.0542,-0.2043,0.0597,-0.2014,$1*
$4 = $2X0.0542*
$5 = $3X-0.2043*
$6 = $2X-0.2043*
$7 = $3X0.0542*
1,1,0.0157,$4-$5,$6+$7*
$4 = $2X0.0597*
$5 = $3X-0.2014*
$6 = $2X-0.2014*
$7 = $3X0.0597*
1,1,0.0157,$4-$5,$6+$7*
20,1,0.0157,0.0597,-0.2014,0.0645,-0.1974,$1*
$4 = $2X0.0597*
$5 = $3X-0.2014*
$6 = $2X-0.2014*
$7 = $3X0.0597*
1,1,0.0157,$4-$5,$6+$7*
$4 = $2X0.0645*
$5 = $3X-0.1974*
$6 = $2X-0.1974*
$7 = $3X0.0645*
1,1,0.0157,$4-$5,$6+$7*
20,1,0.0157,0.0645,-0.1974,0.0684,-0.1925,$1*
$4 = $2X0.0645*
$5 = $3X-0.1974*
$6 = $2X-0.1974*
$7 = $3X0.0645*
1,1,0.0157,$4-$5,$6+$7*
$4 = $2X0.0684*
$5 = $3X-0.1925*
$6 = $2X-0.1925*
$7 = $3X0.0684*
1,1,0.0157,$4-$5,$6+$7*
20,1,0.0157,0.0684,-0.1925,0.0711,-0.1869,$1*
$4 = $2X0.0684*
$5 = $3X-0.1925*
$6 = $2X-0.1925*
$7 = $3X0.0684*
1,1,0.0157,$4-$5,$6+$7*
$4 = $2X0.0711*
$5 = $3X-0.1869*
$6 = $2X-0.1869*
$7 = $3X0.0711*
1,1,0.0157,$4-$5,$6+$7*
20,1,0.0157,0.0711,-0.1869,0.0726,-0.1809,$1*
$4 = $2X0.0711*
$5 = $3X-0.1869*
$6 = $2X-0.1869*
$7 = $3X0.0711*
1,1,0.0157,$4-$5,$6+$7*
$4 = $2X0.0726*
$5 = $3X-0.1809*
$6 = $2X-0.1809*
$7 = $3X0.0726*
1,1,0.0157,$4-$5,$6+$7*
20,1,0.0157,0.0726,-0.1809,0.0728,-0.1746,$1*
$4 = $2X0.0726*
$5 = $3X-0.1809*
$6 = $2X-0.1809*
$7 = $3X0.0726*
1,1,0.0157,$4-$5,$6+$7*
$4 = $2X0.0728*
$5 = $3X-0.1746*
$6 = $2X-0.1746*
$7 = $3X0.0728*
1,1,0.0157,$4-$5,$6+$7*
20,1,0.0157,0.0728,-0.1746,0.0717,-0.1685,$1*
$4 = $2X0.0728*
$5 = $3X-0.1746*
$6 = $2X-0.1746*
$7 = $3X0.0728*
1,1,0.0157,$4-$5,$6+$7*
$4 = $2X0.0717*
$5 = $3X-0.1685*
$6 = $2X-0.1685*
$7 = $3X0.0717*
1,1,0.0157,$4-$5,$6+$7*
20,1,0.0157,0.0717,-0.1685,0.0694,-0.1627,$1*
$4 = $2X0.0717*
$5 = $3X-0.1685*
$6 = $2X-0.1685*
$7 = $3X0.0717*
1,1,0.0157,$4-$5,$6+$7*
$4 = $2X0.0694*
$5 = $3X-0.1627*
$6 = $2X-0.1627*
$7 = $3X0.0694*
1,1,0.0157,$4-$5,$6+$7*
20,1,0.0157,0.0694,-0.1627,0.0658,-0.1576,$1*
$4 = $2X0.0694*
$5 = $3X-0.1627*
$6 = $2X-0.1627*
$7 = $3X0.0694*
1,1,0.0157,$4-$5,$6+$7*
$4 = $2X0.0658*
$5 = $3X-0.1576*
$6 = $2X-0.1576*
$7 = $3X0.0658*
1,1,0.0157,$4-$5,$6+$7*
20,1,0.0157,0.0658,-0.1576,0.0613,-0.1533,$1*
$4 = $2X0.0658*
$5 = $3X-0.1576*
$6 = $2X-0.1576*
$7 = $3X0.0658*
1,1,0.0157,$4-$5,$6+$7*
$4 = $2X0.0613*
$5 = $3X-0.1533*
$6 = $2X-0.1533*
$7 = $3X0.0613*
1,1,0.0157,$4-$5,$6+$7*
20,1,0.0157,0.0613,-0.1533,0.0560,-0.1500,$1*
$4 = $2X0.0613*
$5 = $3X-0.1533*
$6 = $2X-0.1533*
$7 = $3X0.0613*
1,1,0.0157,$4-$5,$6+$7*
$4 = $2X0.0560*
$5 = $3X-0.1500*
$6 = $2X-0.1500*
$7 = $3X0.0560*
1,1,0.0157,$4-$5,$6+$7*
20,1,0.0157,0.0560,-0.1500,0.0501,-0.1479,$1*
$4 = $2X0.0560*
$5 = $3X-0.1500*
$6 = $2X-0.1500*
$7 = $3X0.0560*
1,1,0.0157,$4-$5,$6+$7*
$4 = $2X0.0501*
$5 = $3X-0.1479*
$6 = $2X-0.1479*
$7 = $3X0.0501*
1,1,0.0157,$4-$5,$6+$7*
20,1,0.0157,0.0501,-0.1479,0.0439,-0.1472,$1*
$4 = $2X0.0501*
$5 = $3X-0.1479*
$6 = $2X-0.1479*
$7 = $3X0.0501*
1,1,0.0157,$4-$5,$6+$7*
$4 = $2X0.0439*
$5 = $3X-0.1472*
$6 = $2X-0.1472*
$7 = $3X0.0439*
1,1,0.0157,$4-$5,$6+$7*
20,1,0.0157,0.0439,-0.1472,0.0377,-0.1477,$1*
$4 = $2X0.0439*
$5 = $3X-0.1472*
$6 = $2X-0.1472*
$7 = $3X0.0439*
1,1,0.0157,$4-$5,$6+$7*
$4 = $2X0.0377*
$5 = $3X-0.1477*
$6 = $2X-0.1477*
$7 = $3X0.0377*
1,1,0.0157,$4-$5,$6+$7*
20,1,0.0157,0.0377,-0.1477,0.0317,-0.1495,$1*
$4 = $2X0.0377*
$5 = $3X-0.1477*
$6 = $2X-0.1477*
$7 = $3X0.0377*
1,1,0.0157,$4-$5,$6+$7*
$4 = $2X0.0317*
$5 = $3X-0.1495*
$6 = $2X-0.1495*
$7 = $3X0.0317*
1,1,0.0157,$4-$5,$6+$7*
20,1,0.0157,0.0317,-0.1495,0.0263,-0.1526,$1*
$4 = $2X0.0317*
$5 = $3X-0.1495*
$6 = $2X-0.1495*
$7 = $3X0.0317*
1,1,0.0157,$4-$5,$6+$7*
$4 = $2X0.0263*
$5 = $3X-0.1526*
$6 = $2X-0.1526*
$7 = $3X0.0263*
1,1,0.0157,$4-$5,$6+$7*
%
%AMVB_Custom_LQH43-Cu*
4,1,8,0.0295,-0.0591,0.0295,0.0591,-0.0295,0.0591,-0.0295,0.0295,-0.0886,0.0295,-0.0886,-0.0295,-0.0295,-0.0295,-0.0295,-0.0591,0.0295,-0.0591,$1*
%
%ADD19C,0.00394*%
%ADD15C,0.00591*%
%ADD13C,0.00787*%
%ADD23C,0.00984*%
%ADD71C,0.01181*%
%ADD17C,0.01378*%
%ADD20C,0.01575*%
%ADD27C,0.01772*%
%ADD18C,0.01969*%
%ADD25C,0.02362*%
%ADD21C,0.02559*%
%ADD14C,0.02756*%
%ADD22C,0.03150*%
%ADD26C,0.03543*%
%ADD16C,0.03937*%
%ADD24C,0.04724*%
%ADD70C,0.05906*%
%ADD12C,0.12205*%
%ADD10C,0.19685*%
%ADD11C,0.22472*%
%ADD58O,0.03346X0.01181*%
%ADD48O,0.01181X0.03346*%
%ADD57O,0.03740X0.01181*%
%ADD47O,0.01181X0.03740*%
%ADD50O,0.04331X0.01969*%
%ADD49O,0.01969X0.04331*%
%ADD29O,0.04724X0.02362*%
%ADD40O,0.02362X0.04724*%
%ADD42O,0.04921X0.02362*%
%ADD73O,0.05118X0.02362*%
%ADD38O,0.02362X0.05118*%
%ADD32O,0.01772X0.05315*%
%ADD39O,0.07874X0.02362*%
%ADD35VB_RECTANGLE,0.02362X0.02362X90.00000*%
%ADD33VB_RECTANGLE,0.01969X0.01772X0.00000*%
%ADD41VB_RECTANGLE,0.02559X0.00984X90.00000*%
%ADD59VB_RECTANGLE,0.02559X0.02165X180.00000*%
%ADD37VB_RECTANGLE,0.02559X0.02165X90.00000*%
%ADD55VB_RECTANGLE,0.03346X0.02362X270.00000*%
%ADD72VB_RECTANGLE,0.03740X0.03543X180.00000*%
%ADD36VB_RECTANGLE,0.03740X0.03543X270.00000*%
%ADD30VB_RECTANGLE,0.05512X0.04134X0.00000*%
%ADD43VB_RECTANGLE,0.05512X0.04134X270.00000*%
%ADD45VB_RECTANGLE,0.05709X0.03740X0.00000*%
%ADD44VB_RECTANGLE,0.05709X0.03740X90.00000*%
%ADD31VB_RECTANGLE,0.05906X0.03150X90.00000*%
%ADD60VB_RECTANGLE,0.07677X0.03543X180.00000*%
%ADD34VB_RECTANGLE,0.07677X0.03543X90.00000*%
%ADD46VB_RECTANGLE,0.13780X0.07087X0.00000*%
%ADD56VB_RECTANGLE,0.13780X0.07087X90.00000*%
%ADD51VB_Custom_LQH43-Cu,0.00000*%
%ADD54VB_Custom_LQH43-Cu,90.00000*%
%ADD52VB_Custom_LQH43-Cu,180.00000*%
%ADD53VB_Custom_LQH43-Cu,270.00000*%
%ADD28VB_Custom_VIK_Cu,0.00000X1.00000X0.00000*%
G01*
G36*
X118Y1142D02*
X1772D01*
Y18228*
X118*
Y1142*
Y28346D02*
X1102D01*
Y33031*
X118*
Y28346*
X827Y32913D02*
X5197D01*
Y33937*
X827*
Y32913*
X945Y31457D02*
X2520Y33031D01*
X945*
Y31457*
X1378Y6693D02*
X1929D01*
Y17717*
X1378*
Y6693*
X1811Y24803D02*
X2441D01*
Y25551*
X1811*
Y24803*
X2087Y25472D02*
X2795D01*
Y25709*
X2087*
Y25472*
Y26378D02*
X4213D01*
Y27165*
X2087*
Y26378*
X2520Y25512D02*
X2795D01*
Y26575*
X2520*
Y25512*
X3740Y13386D02*
X4370D01*
Y14252*
X3740*
Y13386*
X3858Y14961D02*
X5512D01*
Y15787*
X3858*
Y14961*
X3976Y6181D02*
X6024D01*
Y7008*
X3976*
Y6181*
X4173Y26772D02*
X5945D01*
Y27165*
X4173*
Y26772*
X4291Y14055D02*
X4567D01*
Y15079*
X4291*
Y14055*
X5472Y15039D02*
X5984D01*
Y15748*
X5472*
Y15039*
X5748Y7913D02*
X6299D01*
Y8425*
X5748*
Y7913*
X5945Y6299D02*
X6299D01*
Y7008*
X5945*
Y6299*
Y15157D02*
X9409D01*
Y15551*
X5945*
Y15157*
X6260Y6378D02*
X7913D01*
Y6811*
X6260*
Y6378*
X6535Y27087D02*
X12283D01*
Y28189*
X6535*
Y27087*
X6890Y20079D02*
X7431Y19537D01*
X7530Y19636*
X6988Y20177*
X6890Y20079*
X7402Y14370D02*
X8071D01*
Y14764*
X7402*
Y14370*
Y14724D02*
X9291D01*
Y17047*
X7402*
Y14724*
Y23858D02*
X8386D01*
Y25866*
X7402*
Y23858*
Y23898D02*
X7874D01*
Y26417*
X7402*
Y23898*
X7441Y26299D02*
X12283D01*
Y27244*
X7441*
Y26299*
X7776Y19488D02*
X8268D01*
Y19685*
X7776*
Y19488*
X8346Y23858D02*
X10866D01*
Y25512*
X8346*
Y23858*
X8701Y15000D02*
X9409D01*
Y15354*
X8701*
Y15000*
X8740Y23858D02*
X9528D01*
Y26378*
X8740*
Y23858*
X9016Y3071D02*
X9409Y3465D01*
X9469Y3406*
X9075Y3012*
X9016Y3071*
X9173Y11063D02*
X10866D01*
Y11378*
X9173*
Y11063*
X9961Y31457D02*
X11378D01*
Y31732*
X9961*
Y31457*
D02*
X10709D01*
Y32047*
X9961*
Y31457*
X10236Y3346D02*
Y3406D01*
X9685*
Y3543*
X10472*
Y3346*
X10236*
Y9370D02*
X10984D01*
Y9921*
X10236*
Y9370*
X10276Y25354D02*
X12283D01*
Y26378*
X10276*
Y25354*
X10512Y31496D02*
X10866D01*
Y32323*
X10512*
Y31496*
X10709Y10827D02*
X12520D01*
Y11614*
X10709*
Y10827*
D02*
X12598D01*
Y11614*
X10709*
Y10827*
X11496Y30039D02*
X12283D01*
Y30984*
X11496*
Y30039*
X11614Y28504D02*
X12008D01*
Y30394*
X11614*
Y28504*
Y30433D02*
X12402D01*
Y32047*
X11614*
Y30433*
X11969Y11535D02*
X12244D01*
Y12638*
X11969*
Y11535*
X12165Y12323D02*
X12795D01*
Y12638*
X12165*
Y12323*
X12323Y12441D02*
X12992D01*
Y13307*
X12323*
Y12441*
X13346Y30157D02*
X13819D01*
Y30472*
X13346*
Y30157*
X13425Y29528D02*
X13740D01*
Y29961*
X13425*
Y29528*
X14370Y27886D02*
X15157D01*
Y28051*
X14370*
Y27886*
X15108Y21801D02*
X15797Y21112D01*
X15846Y21161*
X15157Y21850*
X15108Y21801*
X15354Y27953D02*
X15846Y27461D01*
X15945Y27559*
X15453Y28051*
X15354Y27953*
X15453Y3051D02*
X15945Y3543D01*
X16043Y3445*
X15551Y2953*
X15453Y3051*
X15748Y21063D02*
X16732D01*
Y21260*
X15748*
Y21063*
X15906Y10657D02*
X16496D01*
Y10854*
X15906*
Y10657*
Y16929D02*
X18150D01*
Y18898*
X15906*
Y16929*
X15945Y3346D02*
X16870D01*
Y3445*
X15945*
Y3346*
Y10827D02*
X15453Y10335D01*
X15551Y10236*
X16043Y10728*
X15945Y10827*
X21969Y2874D02*
X22520D01*
Y3622*
X21969*
Y2874*
X23622Y1496D02*
X24409D01*
Y3504*
X23622*
Y1496*
X23819Y3307D02*
X24213D01*
Y5079*
X23819*
Y3307*
X24646Y1732D02*
X25079D01*
Y2008*
X24646*
Y1732*
X25079Y1260D02*
X25354D01*
Y1929*
X25079*
Y1260*
X25197Y984D02*
X25984D01*
Y1654*
X25197*
Y984*
X26969Y8465D02*
X27165D01*
Y9252*
X26969*
Y8465*
X27657Y6791D02*
X28445D01*
Y7972*
X27657*
Y6791*
Y11614D02*
X28445D01*
Y12795*
X27657*
Y11614*
Y16437D02*
X28445D01*
Y17618*
X27657*
Y16437*
Y21260D02*
X28445D01*
Y22441*
X27657*
Y21260*
Y26083D02*
X28445D01*
Y27264*
X27657*
Y26083*
Y30906D02*
X28445D01*
Y32087*
X27657*
Y30906*
X27717Y6220D02*
X28386D01*
Y8189*
X27717*
Y6220*
Y11024D02*
X28386D01*
Y13307*
X27717*
Y11024*
Y15866D02*
X28386D01*
Y18150*
X27717*
Y15866*
Y20669D02*
X28386D01*
Y23031*
X27717*
Y20669*
Y25472D02*
X28386D01*
Y27835*
X27717*
Y25472*
Y30315D02*
X28386D01*
Y32677*
X27717*
Y30315*
X28346Y6791D02*
X28740D01*
Y6988*
X28346*
Y6791*
X30945Y29528D02*
X31260D01*
Y30315*
X30945*
Y29528*
X32717D02*
X33031D01*
Y30315*
X32717*
Y29528*
G37*
G54D10*
X1083Y1083D03*
Y32972D03*
X32972Y1083D03*
Y32972D03*
G54D11*
X17028Y17028D03*
G54D12*
X1083Y1083D03*
Y32972D03*
X17028Y17028D03*
X32972Y1083D03*
Y32972D03*
G54D13*
X10374Y9094D02*
X10787D01*
X11614Y12028D02*
Y11737D01*
X10640*
X10556Y11654*
X10551*
X12520Y30276D02*
Y30689D01*
X12539Y30709*
X12815*
X17618Y2224D02*
Y2441D01*
X17630Y2454*
X17815*
Y2453*
Y2224D02*
Y2453D01*
X18012*
Y2224D02*
Y2453D01*
Y2874*
Y3091*
Y2874D02*
X18196D01*
X18209Y2886*
Y3091*
X23677Y26304D02*
X23742Y26369D01*
Y27010*
X23780Y27047*
X24114*
X23858Y32126D02*
X25388D01*
X25589Y32327*
Y33204*
X25633Y33248*
X26083*
X25669Y15512D02*
Y15514D01*
X25785Y15630*
X26083*
Y28425D02*
X25748D01*
X25433Y28110*
Y27587*
X25168Y27323*
X23819*
X30748Y6398D02*
X31299D01*
X30748Y11122D02*
X31299D01*
X30748Y13484D02*
X31299D01*
X30748Y15059D02*
X31299D01*
X30748Y23720D02*
X31299D01*
X30748Y26083D02*
X31299D01*
Y7972D02*
X30748D01*
X31299Y8760D02*
X30748D01*
X31299Y9547D02*
X30748D01*
X31299Y10335D02*
X30748D01*
X31299Y11909D02*
X30748D01*
X31299Y12697D02*
X30748D01*
X31299Y14272D02*
X30748D01*
X31299Y15846D02*
X30748D01*
X31299Y17421D02*
X30748D01*
X31299Y18209D02*
X30748D01*
X31299Y21358D02*
X30748D01*
X31299Y25295D02*
X30748D01*
X31299Y27657D02*
X30748D01*
X31299Y28445D02*
X30748D01*
X32087Y6398D02*
X32638D01*
X32087Y7972D02*
X32638D01*
X32087Y9547D02*
X32638D01*
X32087Y10335D02*
X32638D01*
X32087Y11122D02*
X32638D01*
X32087Y11909D02*
X32638D01*
X32087Y15846D02*
X32638D01*
X32087Y17421D02*
X32638D01*
X32087Y18209D02*
X32638D01*
X32087Y21358D02*
X32638D01*
X32087Y27657D02*
X32638D01*
Y8760D02*
X32087D01*
X32638Y12697D02*
X32087D01*
X32638Y13484D02*
X32087D01*
X32638Y14272D02*
X32087D01*
X32638Y15059D02*
X32087D01*
X32638Y22933D02*
X32087D01*
X32638Y23720D02*
X32087D01*
X32638Y25295D02*
X32087D01*
X32638Y26083D02*
X32087D01*
G54D14*
X1083Y21142D02*
Y20827D01*
Y22402D02*
Y22717D01*
Y24291D02*
Y23976D01*
X1654Y20768D02*
X2067D01*
X1654Y22343D02*
X2067D01*
X1654Y23917D02*
X2067D01*
Y20394D02*
X2750D01*
X2067Y21969D02*
X2899D01*
X2067Y23543D02*
X2908D01*
X2953Y21122D02*
X2521D01*
X2953Y22697D02*
X2585D01*
X2953Y23543D02*
X3536D01*
X2953Y24272D02*
X2555D01*
X3054Y27953D02*
Y27579D01*
Y28189D02*
X2756D01*
X3054D02*
X3410D01*
X3054D02*
Y27989D01*
X3150Y25112D02*
Y25101D01*
X3147Y25098*
X2717*
X3150Y25512D02*
Y25112D01*
X3236Y2717D02*
Y3031D01*
X3242Y9823D02*
Y9528D01*
X3246Y4606D02*
Y4921D01*
X3247Y12971D02*
Y12677D01*
X3248Y1432D02*
Y1142D01*
Y11732D02*
Y11398D01*
X3533Y20394D02*
X3917D01*
X3533D02*
Y20669D01*
Y20394D02*
X2953D01*
X3536Y23543D02*
Y23819D01*
Y23543D02*
X3917D01*
X3543Y21969D02*
X2953D01*
Y21988*
X3543Y22244D02*
Y21969D01*
X3819Y12598D02*
X4232D01*
X3917Y21969D02*
X3543D01*
X4016Y25000D02*
X4331D01*
X4057Y25902D02*
X3815D01*
X4213Y28366D02*
Y28799D01*
X4232Y1083D02*
X4646D01*
X4232Y2657D02*
X4646D01*
X4232Y9075D02*
X4646D01*
X4232Y9449D02*
X3819D01*
X4232Y11024D02*
X3819D01*
X4646Y709D02*
X4232D01*
X4646D02*
X5084D01*
X4646Y2283D02*
X4232D01*
X4646D02*
X5097D01*
X4646Y3858D02*
X4232D01*
X4646D02*
X4996D01*
X4646Y4232D02*
X4232D01*
X4646Y6339D02*
X4622D01*
Y5787*
X4646Y9075D02*
X4946D01*
X4646Y9094D02*
Y9075D01*
Y10650D02*
X4232D01*
X4646Y12234D02*
X4623Y12211D01*
X4609Y12224*
X4232*
X4646Y12234D02*
X4656Y12244D01*
X5118*
X4646D02*
Y12234D01*
X4665Y3012D02*
X5118D01*
X4715Y12953D02*
X5008D01*
X4744Y20768D02*
X4754D01*
Y21102*
X4764*
X4744Y23917D02*
X5217D01*
X4791Y22343D02*
X4793D01*
Y22677*
X4823Y16732D02*
X4803D01*
Y16723*
X4774Y16752*
X4823Y16732D02*
Y16161D01*
Y16732D02*
X4843D01*
X4903Y16793*
X5256*
Y16929*
X4921Y26378D02*
X4575D01*
X4100Y25902*
X4981Y7992D02*
X4724D01*
X4981D02*
X5039Y8051D01*
X4992Y11378D02*
X4691D01*
X5003Y9803D02*
X4712D01*
X5019Y7402D02*
Y7933D01*
X5067Y10650D02*
X4646D01*
X5118Y1437D02*
X4665D01*
X5118Y4587D02*
X4665D01*
X5453Y8169D02*
Y8051D01*
X5039*
X5590Y14608D02*
X6191D01*
X5709Y23898D02*
X5702Y23904D01*
X4803Y23006*
Y22677*
X5807Y12598D02*
Y12601D01*
X5617Y12791*
Y13187*
X5882Y13452*
X5945*
X5906Y32205D02*
Y31791D01*
X5945Y13504D02*
Y13452D01*
X6181Y23898D02*
Y23882D01*
X5197Y22898*
Y22677*
X6260Y30906D02*
Y30394D01*
X6280Y32776D02*
X6484D01*
X6417Y21457D02*
Y21463D01*
X6246*
X4757Y19974*
X2756*
X2362Y19581*
Y19421*
X6447Y5848D02*
X5778D01*
X6478Y16160D02*
X6223Y16414D01*
X6866Y4232D02*
Y3937D01*
X6870*
X6890Y2008D02*
X6885D01*
Y1083*
X6909*
Y11024D02*
Y11378D01*
Y12598D02*
X6476D01*
X6912Y2657D02*
Y2953D01*
X6929Y9803D02*
X6869D01*
Y9449*
X6949Y18327D02*
X6722D01*
X6949Y18799D02*
Y18327D01*
X7251D02*
X6949D01*
X7480Y32205D02*
Y31791D01*
X7835Y30906D02*
Y30394D01*
X7854Y32776D02*
X8150D01*
X7913Y21732D02*
Y21604D01*
X7825Y21516*
X7520*
X8071Y1969D02*
X7677D01*
X8169Y13091D02*
Y12677D01*
X8228Y21260D02*
Y21024D01*
X8366Y14480D02*
Y14154D01*
X8661Y1969D02*
X8937D01*
X9094Y2126*
X8720Y13799D02*
X8366D01*
X8957Y9665D02*
X8563D01*
X9055Y32205D02*
Y31791D01*
X9409Y30394D02*
Y30406D01*
Y30906*
X9429Y32776D02*
X9724D01*
X9646Y13110D02*
X10000D01*
X10020Y13091*
X9744Y11811D02*
X9961Y12028D01*
X10937*
X10020Y13465D02*
X9646D01*
X10079Y22785D02*
X9744Y22451D01*
X10630Y6083D02*
X10354D01*
X10276Y6004*
Y5728*
X11201Y30236D02*
Y30412D01*
Y30236D02*
Y30141D01*
X11319Y5906D02*
Y5551D01*
X11535Y14173D02*
X11691Y14329D01*
Y14665*
X11791*
X11649Y12415D02*
X11614D01*
Y12417*
X11649Y12415D02*
X11726D01*
X11712Y9823D02*
Y9781D01*
X11280*
Y9646*
X11712Y9823D02*
Y10413D01*
X11724Y17449D02*
Y17815D01*
X11795Y16240D02*
Y15787D01*
X11772*
X11909Y5906D02*
X12283D01*
X12008Y9823D02*
X11712D01*
X12008D02*
X12264D01*
X12283Y5906D02*
Y6276D01*
X12598Y1457D02*
Y1791D01*
X13110Y29701D02*
Y29541D01*
X13425Y31260D02*
X13366Y31201D01*
X12815*
X13543Y32874D02*
X13150D01*
X13583Y15039D02*
X14055D01*
X13583Y30768D02*
Y31109D01*
X13432Y31260*
X13425*
X13639Y16614D02*
X13619Y16594D01*
X13583*
X14035Y14311D02*
X13583D01*
X14035Y15886D02*
X13583D01*
X14035Y17461D02*
X13583D01*
X14469Y14665D02*
X14055D01*
X14469Y15039D02*
X14055D01*
X14469Y16240D02*
X14055D01*
X14469Y17815D02*
X14055D01*
X14921Y20748D02*
Y20487D01*
X15059Y8875D02*
X15684D01*
X15059Y9055D02*
Y9429D01*
Y20079D02*
Y20301D01*
X14889Y20471*
Y20487*
X15453Y16181D02*
Y15866D01*
Y17441D02*
Y17756D01*
X15455Y14294D02*
Y14643D01*
X18209Y24016D02*
X18426D01*
X18440*
X18618Y23839*
X18767*
X18583Y5906D02*
X18209D01*
X18898Y5728D02*
X18683D01*
X18575Y5837*
Y5898*
X18583Y5906*
X22028Y8616D02*
X22681D01*
X22028Y11077D02*
X22567D01*
X22618Y11128*
Y13443*
X22028Y13439D02*
Y13443D01*
X22618*
X22028Y23085D02*
X22630D01*
X22028Y25545D02*
X22406D01*
X22676Y25815*
Y26443*
X22028Y30368D02*
X22721D01*
X22813Y30460*
Y32183*
X22666Y32330*
Y32730*
X22343Y1378D02*
X22348D01*
X22643Y1674*
X23209*
X22421Y1969D02*
Y2272D01*
Y2598*
X22244*
X22421Y2272D02*
X22429Y2264D01*
X22756*
X22618Y13443D02*
Y13963D01*
X22793Y14138*
X23400*
X23622Y13916*
Y13760*
X22630Y23085D02*
Y20760D01*
X22593Y20722*
X22028*
X22630Y23085D02*
X22633D01*
Y23670*
X22732Y23769*
X23520*
X23622Y23667*
Y23406*
X22666Y32730D02*
X22028D01*
X22676Y26443D02*
Y27907D01*
X22028*
X22681Y8616D02*
Y9168D01*
X22821Y9308*
X23525*
X23622Y9211*
Y8937*
X22681Y8616D02*
Y6424D01*
X22511Y6254*
X22028*
X22756Y2265D02*
X23209D01*
X22825Y2622D02*
Y3439D01*
X23425Y4040*
Y4232*
X22835Y19606D02*
Y20015D01*
X23000Y20181*
Y21476*
X23130*
X23027Y25307D02*
Y25924D01*
X23130Y26028*
Y26299*
X23031Y23051D02*
Y22892D01*
X23573Y22351*
Y21545*
X23505Y21476*
X23130*
X23563Y7008D02*
X23130D01*
X23622Y11496D02*
X23618D01*
X23622Y11492*
Y10846*
Y11496D02*
Y11715D01*
X23750Y11842*
X23622Y15669D02*
X23627D01*
Y15857*
X23622Y20492D02*
Y20788D01*
Y20827*
X23346*
X23622Y28425D02*
Y28687D01*
X23517Y28792*
X22800*
X22677Y28669*
Y27907*
X22676*
X23622Y33051D02*
X24213D01*
X23622D02*
Y33335D01*
X23585Y33371*
X22723*
X22666Y33314*
Y32730*
X23627Y15857D02*
Y16488D01*
X23793Y16654*
X24114*
X23996Y10020D02*
Y9815D01*
X24035Y6181D02*
X24380D01*
X24528Y6033*
Y5984*
X24056Y29141D02*
X23996Y29202D01*
Y29311*
X24114Y11831D02*
X23752D01*
X24213Y8937D02*
X23622D01*
X24213Y13760D02*
X23622D01*
X24213Y23406D02*
X23622D01*
X24213Y28425D02*
X24543D01*
X24644Y28324*
Y27677*
X25098*
X24213Y28425D02*
X23622D01*
X24606Y26102D02*
X25098D01*
X24685Y31496D02*
X24232D01*
X25098Y8386D02*
X24652D01*
X24628Y8410*
Y8874*
X24566Y8937*
X24213*
X25098Y13209D02*
X24694D01*
X24629Y13274*
Y13701*
X24570Y13760*
X24213*
X25098Y22854D02*
X24686D01*
X24566Y22974*
Y23259*
X24419Y23406*
X24213*
X25098Y30925D02*
X24665D01*
Y31024*
X25098Y32500D02*
X24644D01*
X24599Y32545*
Y32921*
X24469Y33051*
X24213*
X25211Y2560D02*
Y2205D01*
X25512Y2579D02*
X25211D01*
X26083Y9967D02*
Y10059D01*
Y11634D02*
X26522D01*
X26083Y14882D02*
Y14769D01*
Y16457D02*
X26530D01*
X26083Y18031D02*
Y17639D01*
X26532*
Y17244*
X26083Y19263D02*
Y19242D01*
Y19705D02*
Y19596D01*
Y24097D02*
X26049Y24063D01*
X26083Y24528D02*
Y24499D01*
Y26102D02*
X26380D01*
X26083Y29284D02*
Y29350D01*
X26157Y2677D02*
Y1969D01*
X26236Y30909D02*
X26530D01*
X26522Y11634D02*
Y12421D01*
Y12517*
X26083Y12956*
Y13209*
X26527Y26063D02*
Y26102D01*
Y26811*
Y27524*
X26375Y27677*
X26083*
X26530Y16457D02*
X26532D01*
Y17244*
X26530Y16457D02*
Y16063D01*
X26870*
X26553Y7003D02*
Y7598D01*
X26549*
Y8037*
X26200Y8386*
X26083*
X26554Y21280D02*
X26083D01*
X26554Y22067D02*
Y21280D01*
Y22067D02*
Y22670D01*
X26369Y22854*
X26083*
X26554Y6772D02*
X26553D01*
Y7003*
X26554Y30886D02*
Y31713D01*
Y32391*
X26445Y32500*
X26083*
X26568Y7598D02*
X26553D01*
X26663D02*
X26870D01*
Y5631D02*
Y5906D01*
X26862*
X26554Y6214*
Y6772*
X26870D02*
X26554D01*
X26870Y10728D02*
Y11240D01*
X26531*
X26522Y11249*
Y11634*
X26870Y15551D02*
Y15236D01*
Y16063D02*
Y15551D01*
Y20377D02*
Y20059D01*
Y20886D02*
Y20377D01*
Y20886D02*
X26598D01*
X26554Y20931*
Y21280*
X26870Y25197D02*
X27461D01*
X26870D02*
X26706D01*
X26527Y25376*
Y26063*
X26870Y29705D02*
Y30014D01*
X26553Y30331*
Y30886*
X26870Y30014D02*
Y30020D01*
X27461*
X27067Y3051D02*
X26693D01*
X27205Y1181D02*
X26673D01*
X27458Y15551D02*
Y16555D01*
X27461*
X27458Y15551D02*
X26870D01*
X27461Y5906D02*
X26870D01*
X27461Y6909D02*
Y5906D01*
Y10728D02*
X26870D01*
X27461D02*
Y11732D01*
Y20377D02*
X26870D01*
X27461D02*
Y21378D01*
Y25197D02*
Y26201D01*
Y30960D02*
Y30020D01*
X27657Y5315D02*
X27244D01*
X27657Y5906D02*
X27461D01*
X27657Y10728D02*
X28543D01*
X27657D02*
X27461D01*
X27657Y15551D02*
X27458D01*
X27657Y20374D02*
X27559D01*
Y20377*
X27461*
X27657Y25197D02*
X27461D01*
X27657Y30020D02*
X27461D01*
X27736Y1083D02*
Y1575D01*
Y2657D02*
X27735D01*
Y2992*
X27736Y4232D02*
X27715D01*
Y4606*
X27953Y8425D02*
Y8780D01*
X28386Y13839D02*
Y13625D01*
X28642Y13369*
Y12677*
X28386Y18602D02*
Y18547D01*
X28642Y18291*
Y17500*
X28386Y23425D02*
Y23333D01*
X28642Y23077*
Y22323*
X28531Y25197D02*
X27657D01*
X28543Y5906D02*
X27657D01*
X28543Y15551D02*
X27657D01*
X28543Y20374D02*
X27657D01*
X28543Y25197D02*
X28531D01*
X28543Y30020D02*
X27657D01*
X28563Y1457D02*
X29016D01*
X28563Y3031D02*
X29016D01*
X28563Y4606D02*
X29016D01*
X28642Y7539D02*
Y7512D01*
X29272*
Y7480*
X28642Y7539D02*
Y7854D01*
Y8938*
X28661Y8957*
X28681*
X28642Y12362D02*
Y12677D01*
Y17185D02*
Y17228D01*
Y17500*
Y22323D02*
Y22027D01*
Y26985D02*
Y26831D01*
Y26985D02*
X29272D01*
Y26969*
X28642Y27146D02*
Y26985D01*
Y27146D02*
Y27933D01*
X28386Y28189*
Y28248*
X28642Y31692D02*
X29272D01*
X28642Y31969D02*
Y31692D01*
Y31969D02*
Y32728D01*
X28386Y32984*
Y33071*
X28976Y5315D02*
X28543D01*
X28991Y9788D02*
Y10704D01*
X29074Y10787*
X29459*
X28991Y14565D02*
Y15522D01*
X29079Y15610*
X29459*
X28991Y24336D02*
Y25319D01*
X29026Y25354*
X29459*
X29016Y1457D02*
Y1280D01*
Y3031D02*
Y2854D01*
Y3031D02*
Y3033D01*
X29528*
Y3031*
X29016Y4606D02*
Y4429D01*
Y4606D02*
Y4607D01*
X29528*
Y4606*
X29272Y7480D02*
X29350D01*
Y6693*
X29272Y12402D02*
Y12451D01*
X29045Y12677*
X28642*
X29272Y17224D02*
Y16969D01*
X29350Y16890*
Y16437*
X29272Y17224D02*
Y17228D01*
X28642*
X29272Y22047D02*
Y22096D01*
X29045Y22323*
X28642*
X29272Y22047D02*
X29265D01*
Y21346*
X29350Y21260*
X29272Y31692D02*
Y31362D01*
X29350Y31283*
Y30906*
X29272Y31693D02*
Y31692D01*
X29350Y5965D02*
X29528D01*
X29350Y6693D02*
Y5965D01*
Y11614D02*
Y10896D01*
X29459Y10787*
X29350Y11614D02*
X29272D01*
Y12402*
X29350Y15719D02*
Y16437D01*
Y26181D02*
X29272D01*
Y26969*
X29459Y10787D02*
X29528D01*
X29459Y20433D02*
X29059D01*
X28981Y20355*
Y19410*
X29459Y20433D02*
X29350Y20541D01*
Y21260*
X29459Y25354D02*
X29475D01*
X29459D02*
X29350Y25463D01*
Y26181*
X29459Y30079D02*
X29027D01*
X28998Y30050*
Y29000*
X28903Y28905*
X29459Y30079D02*
X29350Y30187D01*
Y30906*
X29459Y30079D02*
X29528D01*
Y1437D02*
Y1457D01*
Y1459*
X29016*
Y1457*
X29528Y3031D02*
X30413D01*
X29528Y4606D02*
Y4587D01*
Y20433D02*
X29459D01*
X29783Y12402D02*
Y12756D01*
Y17596D02*
Y17224D01*
Y26969D02*
X29817D01*
Y27402*
X29783Y31693D02*
Y32067D01*
X29793Y32076*
X29724Y32145*
Y32382*
X29817Y27402D02*
Y27756D01*
X29823Y12795D02*
Y13189D01*
Y18012D02*
Y17719D01*
X29742Y17638*
X29980Y728D02*
X29528D01*
X29980Y2303D02*
X29528D01*
X29980Y3878D02*
X29528D01*
X30413Y1083D02*
X30945D01*
X30413Y1457D02*
X29528D01*
X30413Y2657D02*
X30945D01*
X30413Y4232D02*
X30945D01*
X30413Y4606D02*
X29528D01*
X31392Y2283D02*
Y2598D01*
X31393Y709D02*
Y1024D01*
X31394Y3858D02*
Y4173D01*
X32087Y26870D02*
X31299D01*
G54D15*
X748Y23071D02*
Y23504D01*
X709*
X787Y25492D02*
Y25906D01*
Y27087D02*
Y26260D01*
Y27087D02*
X1132D01*
X1217Y27172*
Y27514*
X1262Y27559*
X1398*
X984Y21693D02*
X630D01*
X1378Y25276D02*
X1398D01*
X1577*
X1649Y25204*
Y24725*
X1725Y24648*
X2717*
Y25098*
X1398Y25276D02*
Y25787D01*
Y26378D02*
Y25787D01*
X1752Y26969D02*
Y26378D01*
Y27245D02*
Y27559D01*
Y27245D02*
X1447D01*
X1398Y27195*
Y26969*
X1971Y25965D02*
Y25826D01*
X1933Y25787*
X1752*
X1971Y25965D02*
Y27201D01*
X1927Y27245*
X1752*
X2323Y26772D02*
Y26496D01*
Y26772D02*
Y27047D01*
X2362Y25965D02*
X1971D01*
X2362Y27579D02*
X2215D01*
X2096Y27698*
Y28346*
X2067*
X2362Y27579D02*
X2559D01*
X2750Y20394D02*
X2755Y20388D01*
X2953*
Y20394*
X2899Y21969D02*
X2919Y21988D01*
X2953*
X2908Y23543D02*
X2909Y23542D01*
X2953*
Y23543*
Y18031D02*
X2965D01*
X2971Y18037*
X3017*
X2953Y20413D02*
Y20394D01*
Y23563D02*
Y23543D01*
Y27579D02*
X3054D01*
X3051Y27953D02*
X3054D01*
Y27579D02*
X3150D01*
X3054Y27989D02*
Y27953D01*
X3150Y13858D02*
X3169D01*
X3150Y25512D02*
X3140D01*
Y25517*
X3169Y13858D02*
Y14370D01*
Y14862*
Y15354D02*
Y15561D01*
X3678*
X3730Y15509*
Y14551*
X3169Y15846D02*
Y15561D01*
X3236Y3031D02*
X3248D01*
X3238Y2717D02*
X3236D01*
X3242Y9528D02*
X3248D01*
X3246Y4921D02*
X3248D01*
X3247Y12677D02*
X3248D01*
Y1457D02*
X3223D01*
X3248Y1432*
Y4606D02*
X3246D01*
X3248Y9823D02*
X3242D01*
X3248Y12972D02*
X3247Y12971D01*
X3268Y5807D02*
Y6398D01*
X3410Y28189D02*
X3484D01*
Y28346*
X3524Y14370D02*
X3704Y14551D01*
X3730*
X3524Y14862D02*
Y15354D01*
Y15846D02*
Y16339D01*
Y16614*
X3536Y23819D02*
X3543D01*
Y20669D02*
X3533D01*
X3543Y25965D02*
Y25825D01*
X3542Y25824*
Y25618*
X3661Y25499*
Y25492*
X3543Y27579D02*
Y27326D01*
X3607Y27262*
X4143*
X4201Y27320*
Y27520*
X3622Y5807D02*
Y5837D01*
X3839*
X3622Y6398D02*
Y6660D01*
X3582Y6700*
X3349*
X3268Y6781*
Y6988*
X3622Y7579D02*
Y6988D01*
X3661Y25000D02*
X3750D01*
Y24793*
X3819Y24724*
X3937*
X3701Y26772D02*
X3622Y26850D01*
X3701Y26929*
Y27047*
X3815Y25902D02*
X3740D01*
Y25965*
X3839Y5837D02*
X4331D01*
Y5787*
X3839Y5837D02*
Y6978D01*
X3829Y6988*
X3622*
X3976Y24724D02*
X3937D01*
X4134Y14547D02*
X3847D01*
X3844Y14551*
X3730*
X4213Y15079D02*
X4331D01*
X4232Y12972D02*
X3901D01*
X3612Y12684*
Y12372*
X3780Y12205*
X4233Y16161D02*
X4134D01*
X4252Y6850D02*
Y6594D01*
X4331Y7402D02*
X4528D01*
X4331D02*
X4183D01*
X3937Y7648*
Y8268*
X4331Y16161D02*
X4233D01*
X4401Y27696D02*
X4538Y27559D01*
X4921*
X4528Y16161D02*
Y16496D01*
X4646Y709D02*
Y748D01*
X4685Y13681D02*
X4552Y13549D01*
Y13324*
X4486Y13257*
X3633*
X3445Y13445*
Y13793*
X3379Y13858*
X3169*
X4724Y16161D02*
X4823D01*
X4744Y22343D02*
X4791D01*
X4793Y22677D02*
X4803D01*
Y13804D02*
Y13681D01*
X4823Y16161D02*
X4921D01*
Y27559D02*
X5160Y27321D01*
X5838*
X5945Y27428*
Y27657*
X4946Y9075D02*
X4960Y9061D01*
X5118*
Y9075*
X4981Y7992D02*
X4970Y7981D01*
X4982Y7969*
X4983*
X5019Y7933*
X4996Y3858D02*
X5016Y3878D01*
X5118*
X5019Y7402D02*
X4921D01*
X5084Y709D02*
X5104Y728D01*
X5118*
X5097Y2283D02*
X5117Y2303D01*
X5118*
Y7402D02*
X5019D01*
X5118Y9094D02*
Y9075D01*
Y10650D02*
Y10669D01*
Y10650D02*
Y10630D01*
X5086*
X5067Y10650*
X5118Y15630D02*
X5008Y15520D01*
X4929*
X4823Y15413*
X5217Y23917D02*
X5236Y23937D01*
X5273Y5335D02*
X5315Y5376D01*
Y7402D02*
Y7593D01*
X5512Y5787D02*
Y5434D01*
X5729Y5217*
X5925*
X5512Y19921D02*
X5728D01*
X5531Y31791D02*
Y31739D01*
X5551Y31719*
Y31653*
Y30906D02*
X5531D01*
X5590Y14578D02*
Y14547D01*
X5512*
X5669Y27618D02*
Y27638D01*
X5728Y19685D02*
Y19921D01*
Y20276*
X5778Y5848D02*
X5769D01*
X5709Y5787*
X5807Y12224D02*
X6083D01*
X5807D02*
X5738D01*
X5836Y9075D02*
X6083D01*
X5852Y709D02*
X6083D01*
X5866Y2283D02*
X6083D01*
X5945Y28012D02*
X5738D01*
X5669Y27943*
Y27638*
X5965Y7726D02*
X5963D01*
X6083Y3858D02*
X5846D01*
X6083Y9823D02*
Y9999D01*
X5983Y10098*
X4313*
X6083Y10650D02*
X5837D01*
X6191Y14578D02*
X6527D01*
X6693Y14745*
Y14264*
X6803Y14154*
X7776*
X6220Y7402D02*
Y7362D01*
X5950Y7092*
X5546*
X5512Y7126*
Y7402*
X6447Y5848D02*
X6302Y5703D01*
Y5217*
X6280*
X6555Y18504D02*
Y18494D01*
X6693Y14764D02*
X6377D01*
X6191Y14578*
X6693Y15945D02*
Y16524D01*
X7067Y16898*
Y17126*
X6693Y15945D02*
X6478Y16160D01*
X6713Y17126D02*
X6496D01*
X6339Y16969*
X6722Y18327D02*
X6555Y18494D01*
X6869Y9449D02*
X6909D01*
Y2657D02*
X6912D01*
X6909Y4232D02*
X6866D01*
X6909Y8366D02*
X6639D01*
X6496Y8223*
Y8150*
X6909Y11378D02*
X6929D01*
X6912Y2953D02*
X6890D01*
X6988Y6004D02*
X6603D01*
X6447Y5848*
X6988Y7185D02*
X7264Y7461D01*
Y8366*
X7098Y30906D02*
X7126D01*
X7106Y31791D02*
Y31564D01*
Y32776D02*
X6901D01*
X6831Y32705*
Y29786*
X7097Y29521*
X7760*
X7854Y29614*
Y29941*
X7126Y30906D02*
Y30820D01*
X7106Y30800*
X7520Y21004D02*
X7210D01*
X7180Y21034*
Y21354*
X7096Y21437*
X6890*
X7795Y13091D02*
Y12638D01*
X8031Y12403*
X8543*
Y12106*
X8150Y26083D02*
X8169Y26063D01*
X8248Y21260D02*
X8228D01*
X8268Y5650D02*
X8484D01*
X8858Y6024*
X8366Y14488D02*
Y14480D01*
X8465Y18327D02*
X7874D01*
X8681Y31791D02*
Y31649D01*
Y32776D02*
X8510D01*
X8255Y32520*
Y29937*
X8637Y29555*
X9268*
X9429Y29717*
Y29941*
X8701Y31447D02*
Y31378D01*
X8937Y32500D02*
X9052D01*
X9429Y32123*
Y31791*
X8976Y5295D02*
X8494D01*
X8374Y5175*
Y4645*
X8276Y4547*
X7992*
X8976Y21732D02*
X9075D01*
X9154Y21654*
Y21437*
X9016Y20138D02*
X9154D01*
Y17717D02*
Y18248D01*
Y18760D02*
X9350D01*
X9154D02*
X9152D01*
Y19204*
X9016Y19340*
Y20138*
X9350Y17717D02*
Y18248D01*
Y18760D02*
X9547D01*
X9350Y20138D02*
X9154D01*
X9350Y21437D02*
X9547D01*
Y17717D02*
Y18248D01*
Y20394D02*
X9528D01*
X9547Y20374*
Y20138*
Y21437D02*
X9744D01*
Y10630D02*
Y9189D01*
X9839Y9094*
X10020*
X9744Y20138D02*
X9547D01*
X9744Y21437D02*
X9882D01*
X9961Y21358*
Y21220*
X9744Y22451D02*
Y22441D01*
X10039Y1791D02*
X10059D01*
X10630*
X10079Y22795D02*
Y22785D01*
X10138Y31142D02*
X10236D01*
X10354Y3839D02*
Y4498D01*
X10177Y4675*
X9872*
X10413Y32867D02*
Y32653D01*
X10364Y32603*
X9958*
X9776Y32422*
Y31221*
X9855Y31142*
X10138*
X10413Y32874D02*
X10421D01*
X10413Y32867*
X10512Y10551D02*
X10650Y10689D01*
X11220*
Y10413*
X10531Y22264D02*
Y20059D01*
X10709Y3248D02*
Y3477D01*
X10553Y3632*
X10188*
X9995Y3825*
Y3906*
X9785Y4116*
X9339*
X8937Y3714*
Y3681*
X10906Y12598D02*
X11157D01*
X11220Y12535*
Y12028*
X10937D02*
X11024D01*
X10984Y4488D02*
Y4852D01*
X10906Y4931*
X10600*
X11024Y12028D02*
Y12307D01*
X10973Y12357*
X10580*
X10551Y12386*
Y12598*
X11024Y32854D02*
X10426D01*
X10413Y32867*
X11201Y30412D02*
Y30512D01*
Y30709D02*
X10927D01*
X10809Y30591*
X10630*
X11201Y31890D02*
Y32291D01*
X12205*
Y32500*
X11201Y32291D02*
Y32292D01*
X11040*
X11024Y32308*
Y32500*
X11220Y29630D02*
Y29331D01*
X11319Y2224D02*
X11516D01*
X11319Y3602D02*
X11516D01*
X11319D02*
X11222D01*
X11181Y3562*
Y2884*
X11319Y2746*
Y2224*
Y4469D02*
X10984D01*
Y4488*
X11339Y32677D02*
X11342D01*
Y32805*
X11292Y32854*
X11024*
X11417Y13189D02*
Y13505D01*
X11516Y2224D02*
X11713D01*
X11516Y4469D02*
X11319D01*
X11614Y10413D02*
X11712D01*
X11614Y32500D02*
X11380D01*
X11342Y32538*
Y32677*
X11649Y12415D02*
Y12472D01*
X11712Y10413D02*
X11811D01*
X11713Y1713D02*
Y1181D01*
Y3602D02*
X11909D01*
X11713D02*
Y4469D01*
X11516*
X11724Y17815D02*
X11791D01*
X11732Y17441D02*
X11724Y17449D01*
X11732Y30709D02*
X12008Y30984D01*
X11732Y31654D02*
X12008Y31378D01*
X11732Y31850D02*
X11755D01*
X12008Y31598*
X11791Y16240D02*
X11795D01*
X11988Y33366D02*
X12618D01*
X12008Y30472D02*
X12283D01*
X12008D02*
X11732D01*
X12205Y32854D02*
X11614D01*
X12244Y14882D02*
Y14321D01*
X12274Y14291*
X12618*
X12244Y15197D02*
X12362Y15315D01*
X14603*
X14879Y15039*
X15453*
X12323Y9823D02*
Y9882D01*
X12264Y9823*
X12402Y10413D02*
X12205D01*
X12598Y1791D02*
X13028D01*
X13108Y1872*
Y2390*
X12598Y2900*
Y3169*
X12618Y15039D02*
X11489D01*
X11296Y15232*
X10418*
X10029Y14843*
X9744*
X12618Y33366D02*
Y33224D01*
X12795Y33047*
Y32854*
X12629Y29331D02*
X12402D01*
X12697Y9646D02*
Y10266D01*
X12549Y10413*
X12402*
X12775Y15039D02*
X12618D01*
X12785Y12205D02*
X12402D01*
Y12028*
X12795Y32500D02*
X12205D01*
X12815Y31102D02*
Y31201D01*
Y31299*
Y31890D02*
Y31693D01*
X12929Y18189D02*
X13091D01*
X13110Y18169*
X12976Y30906D02*
X12815D01*
X13005Y29541D02*
Y29537D01*
X12836*
X13012Y11614D02*
Y11024D01*
Y12205D02*
X12785D01*
X13025Y15039D02*
X13051D01*
Y15020*
X13071Y16600D02*
X13056Y16614D01*
X12618*
X13150Y13602D02*
Y13622D01*
Y13623*
X11597*
X11125Y14094*
X10728*
X13150Y32008D02*
Y31555D01*
X13091Y31496*
X12815*
X13179Y29331D02*
X13199Y29311D01*
X13583*
X13366Y10735D02*
X12905D01*
X12785Y10856*
Y12205*
X13366Y10735D02*
Y10433D01*
Y11024D02*
Y10735D01*
Y12205D02*
Y11614D01*
Y12815D02*
Y12205D01*
X13386Y12815D02*
X13366D01*
X13406Y31280D02*
X13425Y31260D01*
X13543Y32283D02*
Y32279D01*
X13056*
X12815Y32037*
Y31890*
X13583Y15020D02*
Y15039D01*
Y16600D02*
Y16594D01*
X13775Y18189D02*
X13755Y18169D01*
X13583*
X13976Y12421D02*
X13957Y12402D01*
X13996Y21358D02*
X13988D01*
Y20991*
X14072Y8780D02*
X14094D01*
X14193Y28445D02*
Y28937D01*
X14257Y11024D02*
X14475D01*
X14350Y21949D02*
Y21693D01*
X14271Y21614*
X13785*
X13740Y21569*
Y21142*
X14475Y11024D02*
Y11614D01*
X14488*
Y9843D02*
Y10433D01*
Y11024D02*
X14475D01*
X14744Y3248D02*
X14748Y3252D01*
X15000*
Y3248*
X14744D02*
Y3839D01*
X14843Y23327D02*
X14889Y20487*
X14921D01*
X15059Y9055D02*
Y8875D01*
X15217Y27441D02*
Y27579D01*
X14370*
X15453Y14291D02*
X15455Y14294D01*
X15453Y16614D02*
X14879D01*
X14603Y16890*
X12464*
X12274Y16700*
Y15910*
X12317Y15866*
X12618*
X15453Y18189D02*
X14879D01*
X14603Y18465*
X12464*
X12274Y18275*
Y17441*
X12618*
X15455Y14643D02*
X15453Y14646D01*
X15709Y12343D02*
Y12746D01*
X16132Y13169*
X16339*
X15748Y8875D02*
Y8878D01*
X15886Y21772D02*
X16654D01*
Y21752*
X15945Y23012D02*
X15620D01*
X15541Y23091*
X15118*
X16063Y2815D02*
Y2451D01*
X16121Y2393*
X17087*
X16083Y28071D02*
X16472D01*
X16557Y27987*
Y27695*
X16673Y27579*
X16929*
X16167Y15836D02*
X16243Y15761D01*
Y14291*
X16240*
X16219Y25612D02*
X16240Y25591D01*
Y1791D02*
X16637D01*
X16339Y8878D02*
X16929D01*
X16339Y19902D02*
X16929D01*
X16339D02*
Y19619D01*
X16289Y19569*
X15928*
X15650Y19291*
X16637Y1791D02*
X16831D01*
X16752Y3248D02*
Y3178D01*
Y3839D02*
X16571Y4019D01*
Y4285*
X16486Y4370*
X16181*
X16752Y10325D02*
X16841Y10236D01*
X16811Y29114D02*
Y29284D01*
X16705Y29390*
X16004*
X16841Y10236D02*
X16929D01*
X16909Y4626D02*
X17165D01*
Y5433*
X17008Y20809D02*
X15451D01*
X15118Y21142*
X15020*
X17008Y21161D02*
Y20809D01*
X17087Y2393D02*
Y2264D01*
X17106Y2657D02*
X17087D01*
Y2393*
X17224Y20118D02*
X17217D01*
Y20601*
X17009Y20809*
X17008*
X17244Y28268D02*
Y28266D01*
X17473Y28037*
Y28012*
X17421Y9134D02*
X17381D01*
Y10463*
X17313Y10531*
X17106*
X17421Y20118D02*
Y20717D01*
X17276Y20863*
Y21413*
X17219Y21470*
X16729*
X16654Y21545*
Y21752*
X17473Y28012D02*
X17618D01*
Y1713D02*
Y1181D01*
Y3091D02*
Y2887D01*
X17628Y2877*
X17815*
X17618Y8268D02*
Y8799D01*
Y9311D02*
X17815D01*
X17618Y10689D02*
Y10906D01*
X16762*
X16752Y10915*
Y11122*
X17618Y10689D02*
X17815D01*
X17618Y19291D02*
Y19823D01*
Y20335D02*
X17815D01*
X17618D02*
X17616D01*
Y20666*
X17480Y20802*
Y21667*
X17525Y21713*
X17618*
X17815*
X17618Y22579D02*
Y22362D01*
X17598Y22343*
Y22283*
X17618Y26634D02*
Y27024D01*
X17473Y27168*
Y28012*
X17618Y26634D02*
X17815D01*
X17618Y27500D02*
Y27264D01*
X17815Y27067*
X18012*
X17815Y2877D02*
Y2717D01*
Y3091D02*
Y2877D01*
Y8799D02*
Y8268D01*
Y9311D02*
X18012D01*
X17815Y12067D02*
X18012D01*
X17815Y22244D02*
Y22579D01*
Y26634D02*
X18012D01*
X17815Y28012D02*
X17618D01*
X17815Y29390D02*
X18012D01*
Y4980D02*
Y5190D01*
X17824*
X17815Y5180*
Y4980*
X18012Y8268D02*
Y8799D01*
Y10689D02*
X18209D01*
X18012Y12067D02*
X18209D01*
X18012Y20335D02*
X17815D01*
X18012Y23091D02*
X17815D01*
X18012Y28012D02*
X18209D01*
X18012Y29390D02*
X18209D01*
X18208Y23091D02*
X18012D01*
X18209Y4980D02*
X18386D01*
X18209D02*
Y5190D01*
X18012*
X18209Y21713D02*
X18346D01*
X18386Y21752*
Y22717*
X18209Y21713D02*
X18012D01*
X18209Y22146D02*
Y22579D01*
Y23091D02*
X18366D01*
X18386Y23071*
X18209Y23091D02*
X18208D01*
X18209Y24016D02*
Y24006D01*
X18218Y23996*
Y23147*
X18208Y23137*
Y23091*
X18209Y29390D02*
Y30315D01*
X18228Y10945D02*
X18051Y11122D01*
X17106*
X18228Y10945D02*
X18209Y10925D01*
Y10689*
X18386Y12067D02*
Y12087D01*
X18366*
X18346Y12067*
X18209*
X18898Y2146D02*
Y2126D01*
Y3524D02*
X18691D01*
X18668Y3501*
Y2381*
X18295Y2008*
X18012*
Y2224*
X18996Y20256D02*
Y21280D01*
Y20256D02*
X18898D01*
X18996Y23839D02*
X18767D01*
X18996Y26555D02*
Y27579D01*
Y27933D02*
X18760D01*
X18661Y28031*
X19764Y5748D02*
X20093D01*
X20098Y5754*
X19803Y31732D02*
X20096D01*
X20098Y31730*
X19823Y6693D02*
Y6732D01*
X19843*
X20039Y29921D02*
Y29882D01*
X20085*
X20098Y29868*
Y14900D02*
X20884D01*
X21339Y15354*
X20098Y15400D02*
X20703D01*
X20709Y15394*
X20098Y25045D02*
X20756D01*
X21063Y24738*
Y24055*
X20098Y28407D02*
X20096Y28406D01*
X19823*
X20098Y29368D02*
X20833D01*
X20098Y33230D02*
X20100Y33228D01*
X20354*
X20315Y19055D02*
X20709D01*
X20551Y29685D02*
Y29705D01*
X20381Y29875*
X20098*
Y29868*
X20709Y10591D02*
X20695Y10577D01*
X20098*
X21024Y30000D02*
Y29539D01*
X20853Y29368*
X20833*
X21693Y30866D02*
Y30868D01*
Y33230D02*
Y33228D01*
X21732Y6732D02*
Y6754D01*
Y28465D02*
X21970D01*
X22028Y28407*
X21772Y24252D02*
X21941D01*
X22028Y24339*
Y24545*
Y7616D02*
X22010Y7598D01*
X21850*
X22028Y11577D02*
X22026Y11575D01*
X21693*
X22028Y12939D02*
X22014Y12953D01*
X21732*
X22028Y18762D02*
Y18969D01*
X21980Y19016*
X21890*
X22146Y4055D02*
X22421Y3780D01*
X22441*
X22146Y4409D02*
X23248D01*
X23425Y4232*
X22756Y2264D02*
Y2265D01*
X23209Y1575D02*
Y1674D01*
Y1772*
Y2165D02*
Y2265D01*
Y2362*
Y2756D02*
X23464D01*
X23488Y2780*
Y3323*
X23386Y3425*
X23228Y1063D02*
X22774D01*
X22618Y907*
Y689*
X23228Y1063D02*
X23429D01*
X23636Y1270*
X24409*
Y1269*
X23228Y5315D02*
X23330Y5214D01*
X24488*
X24707Y5433*
X25098*
X23228Y5484D02*
Y5459D01*
X23248Y10020D02*
Y10364D01*
X23317Y10433*
X25098*
X23248Y14843D02*
Y15195D01*
X23309Y15256*
X25098*
X23248Y24488D02*
Y24833D01*
X23327Y24911*
X25098*
Y24902*
X23248Y31122D02*
Y30066D01*
X23103Y29921*
X23071*
X23622Y20788D02*
X23683Y20727D01*
X24114*
X23819Y709D02*
X24409D01*
X23996Y14843D02*
Y14654D01*
Y19445D02*
Y19665D01*
Y24287D02*
Y24488D01*
X24016Y2402D02*
X23740Y2677D01*
X24035Y5433D02*
X24385D01*
X24759Y5807*
X25098*
X24110Y7008D02*
X24114D01*
Y7756D02*
X23836D01*
X23789Y7710*
Y7041*
X23823Y7008*
X24110*
X24114Y16654D02*
X24678D01*
X24746Y16722*
Y16920*
X24114Y20727D02*
Y21476D01*
Y20727D02*
X24116D01*
X24422Y20421*
Y19999*
X24717Y19705*
X25098*
X24114Y22224D02*
X23824D01*
X23781Y22181*
Y21506*
X23811Y21476*
X24114*
X24154Y31122D02*
X24232D01*
Y31870D02*
X23916D01*
X23881Y31835*
Y31156*
X23915Y31122*
X24154*
X24409Y709D02*
X25000D01*
X24409Y1269D02*
X24665D01*
X24823Y1427*
Y1575*
X24409Y1269D02*
Y1063D01*
X24606Y4232D02*
X24843Y4469D01*
X26102*
X24608Y29272D02*
X24224Y29656D01*
X23904*
X23560Y29311*
X23248*
X24746Y16920D02*
Y17336D01*
X24680Y17402*
X24114*
X24823Y2953D02*
X24818D01*
Y3082*
X24921Y21575D02*
X25340D01*
X25607Y21308*
Y20557*
X25711Y20453*
X26083*
X24952Y2560D02*
X24824D01*
X24823Y2559*
X25000Y709D02*
X25853D01*
X26157Y1013*
Y1969*
X25079Y6555D02*
X25090D01*
Y6909D02*
X25098D01*
Y10059D02*
X25398D01*
X25474Y10135*
Y11681*
X25221Y11934*
X24609*
X24506Y11831*
X24114*
X25098Y14882D02*
X25416D01*
X25433Y14899*
Y16628*
X25141Y16920*
X24746*
X25098Y24528D02*
X25437D01*
X25483Y24574*
Y25311*
X25119Y25675*
X23622*
X25098Y29350D02*
X24764D01*
X24726Y29388*
Y30208*
X24685Y30250*
X23696*
X23622Y30176*
X25098Y29724D02*
X25211Y2560*
Y2579D01*
X25669Y5657D02*
Y5669D01*
X25689Y1969D02*
Y1929D01*
X26083Y30925D02*
X26099Y30909D01*
X26236*
X26102Y4114D02*
X25896D01*
X25202Y3420*
Y2895*
X25063Y2756*
X24823*
X26157Y2677D02*
X26083D01*
X26380Y26102D02*
X26527D01*
X26522Y12421D02*
X26870D01*
X26527Y26063D02*
X26870D01*
X26527Y26811D02*
X26870D01*
X26532Y17244D02*
X26870D01*
X26553Y7003D02*
X26459Y6909D01*
X26553Y30886D02*
X26530Y30909D01*
X26553Y30886D02*
X26554D01*
X26663Y7598D02*
X26568D01*
X26870Y7953D02*
Y8289D01*
X26772Y8387*
Y8780*
X26870Y11594D02*
Y11957D01*
X26960Y12047*
X27461*
X26870Y12776D02*
Y13602D01*
Y18425D02*
Y17598D01*
Y21240D02*
X26905Y21275D01*
Y21565*
X27033Y21693*
X27461*
X26870Y22067D02*
X26554D01*
X26870Y22421D02*
X27077D01*
X27196Y22302*
Y22035*
X27223Y22008*
X27461*
X26870Y23248D02*
Y22421D01*
Y25709D02*
X27077D01*
X27126Y25758*
Y26439*
X27203Y26516*
X27461*
X26870Y27165D02*
Y28071D01*
Y32067D02*
X27077D01*
X27150Y31993*
Y31705*
X27202Y31654*
X27461*
X26870Y32894D02*
Y32067D01*
X27067Y3425D02*
X26536D01*
X26432Y3321*
Y2702*
X26407Y2677*
X26157*
X27461Y7224D02*
X27181D01*
X27137Y7180*
Y6477*
X27077Y6417*
X26870*
X27461Y7854D02*
Y8276D01*
X27362Y8375*
Y8780*
X27461Y12362D02*
X27178D01*
X27141Y12400*
Y12672*
X27037Y12776*
X26870*
X27461Y12677D02*
Y13210D01*
X27559Y13308*
Y13602*
X27461Y16870D02*
X27101D01*
X26870Y16639*
Y16417*
X27461Y17185D02*
X27232D01*
X27185Y17231*
Y17556*
X27143Y17598*
X26870*
X27461Y17500D02*
X27457D01*
Y18127*
X27559Y18229*
Y18425*
X27461Y22323D02*
Y22569D01*
X27545Y22653*
X27550*
Y23248*
X27559*
X27461Y26831D02*
X27451D01*
X27116Y27165*
X26870*
X27461Y27146D02*
X27474D01*
Y27819*
X27544Y27889*
Y28071*
X27559*
X27461Y31339D02*
X27216D01*
X27156Y31279*
Y30611*
X27077Y30531*
X26870*
X27461Y31969D02*
Y32573D01*
X27550Y32662*
Y32894*
X27559*
X27715Y4606D02*
X27717D01*
X27735Y2992D02*
X27736D01*
X28531Y25197D02*
Y25344D01*
X28883Y25697*
Y26456*
X28824Y26516*
X28642*
X28543Y5906D02*
Y6208D01*
X28926Y6591*
Y7183*
X28885Y7224*
X28642*
X28543Y10728D02*
Y11173D01*
X28953Y11583*
Y11920*
X28826Y12047*
X28642*
X28543Y20374D02*
Y20637D01*
X28916Y21009*
Y21623*
X28846Y21693*
X28642*
Y16870D02*
X28902D01*
X28924Y16848*
Y16383*
X28543Y16002*
Y15551*
X28642Y22027D02*
Y22008D01*
Y31339D02*
X28849D01*
X28917Y31270*
Y30835*
X28543Y30461*
Y30020*
X29459Y15610D02*
X29350Y15719D01*
X29475Y25354D02*
X29528D01*
Y3012D02*
Y3031D01*
Y15610D02*
X29459D01*
X29742Y17638D02*
X29783Y17596D01*
X29764Y32047D02*
X29783Y32067D01*
Y8268D02*
X29823D01*
X29783Y12756D02*
X29823Y12795D01*
X29817Y27402D02*
X29823D01*
X29817Y27756D02*
X29823D01*
X31299Y18996D02*
X31380D01*
X31299Y22146D02*
X31373D01*
X31299Y28445D02*
X31535D01*
X31392Y2598D02*
X31398D01*
X31393Y1024D02*
X31398D01*
X31394Y4173D02*
X31398D01*
Y709D02*
X31393D01*
X31398Y2283D02*
X31392D01*
X31398Y3858D02*
X31394D01*
X31417Y31142D02*
Y30948D01*
X31321Y30852*
X30812*
X30669Y30709*
Y30354*
X31417Y31457D02*
X31615D01*
X31716Y31356*
Y30947*
X31535Y30766*
Y30354*
X31969Y22146D02*
X32087D01*
X33189Y31142D02*
Y30929D01*
X33064Y30804*
X32536*
X32441Y30709*
Y30354*
X33189Y31457D02*
X33428D01*
X33470Y31415*
Y30892*
X33307Y30729*
Y30354*
G54D16*
X1347Y12421D02*
X2362D01*
X1414Y14921D02*
X2362D01*
X1452Y17421D02*
X2362D01*
X1476Y27972D02*
Y28346D01*
X1531Y9921D02*
X2362D01*
X1585Y7421D02*
X2362D01*
Y4921D03*
Y5421D03*
Y5921D03*
Y6421D03*
Y6921D03*
Y7421D03*
Y7921D03*
Y8421D03*
Y8921D03*
Y9421D03*
Y9921D03*
Y10921D03*
Y11421D03*
Y11921D03*
Y12421D03*
Y12921D03*
Y13421D03*
Y13921D03*
Y14421D03*
Y14921D03*
Y15421D03*
Y15921D03*
Y16421D03*
Y16921D03*
Y17421D03*
Y17921D03*
Y18421D03*
Y18921D03*
Y19421D03*
X3017Y18037D02*
X5195D01*
X5197Y18039*
X5118Y3878D02*
X5593D01*
X5642Y3927*
X5118Y10650D02*
X5807D01*
X5642Y805D02*
Y760D01*
X5610Y728*
X5118*
X5642Y805D02*
X5738Y709D01*
X5852*
X5642Y886D02*
Y805D01*
Y2380D02*
Y2335D01*
X5610Y2303*
X5118*
X5642Y2380D02*
X5738Y2283D01*
X5866*
X5642Y2461D02*
Y2380D01*
Y4035D02*
Y3927D01*
X5738Y12224D02*
X5118D01*
Y12244*
X5807Y9075D02*
Y9449D01*
Y9075D02*
X5836D01*
X5807D02*
X5118D01*
X5807Y11024D02*
Y10650D01*
Y12598D02*
Y12224D01*
X5837Y10650D02*
X5807D01*
X5846Y3858D02*
X5711D01*
X5642Y3927*
X6555Y18494D02*
Y18111D01*
X6483Y18039*
X5197*
X10236Y31142D02*
X10709D01*
X11201Y30236D02*
X11220Y30217D01*
Y29630*
X11614Y12992D02*
X11649D01*
X12047*
X11649D02*
Y12472D01*
X12618Y18189D02*
X12929D01*
X12757Y16600D02*
X13071D01*
X13025Y15039D02*
X12775D01*
X13051Y15020D02*
Y14705D01*
X13071Y14685*
Y16600D02*
X13583D01*
X13071Y16339D02*
Y16573D01*
Y16600*
Y17874D02*
X13110D01*
Y18169*
X13583*
X13287Y9646D02*
Y9980D01*
X13583Y15020D02*
X13051D01*
X13639Y16614D02*
X14055D01*
X14094Y26378D02*
X14508D01*
X14469Y16614D02*
X14055D01*
X14469Y18189D02*
X13775D01*
X17618Y12992D02*
Y12579D01*
X21752Y1378D02*
X21417D01*
X23130Y11831D02*
Y11496D01*
Y16654D02*
Y17008D01*
X23110Y17028*
X23228Y5459D02*
Y5315D01*
Y5807D02*
Y5484D01*
Y5807D02*
X23209D01*
X23622Y25675D02*
Y25315D01*
Y26339D02*
Y25675D01*
Y30138D02*
Y30176D01*
Y30709*
X23819Y30906*
X23627Y15857D02*
X23031D01*
Y15866*
X23677Y26304D02*
X23622Y26358D01*
Y26339*
X23996Y9815D02*
Y9792D01*
X24143Y9646*
X26083*
X24110Y7008D02*
Y6606D01*
X23551*
X23496Y6551*
Y5807*
X23228*
X24114Y26299D02*
X23681D01*
X23677Y26304*
X24154Y31122D02*
X23937Y30906D01*
X23819*
X24488Y10827D02*
Y11348D01*
X24774Y11634*
X25098*
X24818Y3082D02*
Y4020D01*
X24606Y4232*
X25090Y6660D02*
Y6813D01*
X25098Y16457D02*
X25008D01*
X24417Y15866*
X24134*
X25308Y2205D02*
X25604D01*
X25689Y2120*
Y1969*
X26049Y24063D02*
X24173D01*
Y24094*
X24045*
X23996Y24144*
Y24287*
X26083Y9646D02*
Y9967D01*
Y9646D02*
X28849D01*
X28991Y9788*
X26083Y14435D02*
X28861D01*
X28991Y14565*
X26083Y14435D02*
X24134D01*
Y14449*
X24045*
X23996Y14498*
Y14654*
X26083Y14769D02*
Y14435D01*
Y19242D02*
X24134D01*
Y19252*
X24065*
X23996Y19321*
Y19445*
X26083Y19596D02*
Y19263D01*
Y24097D02*
Y24063D01*
X28919*
X28991Y24135*
Y24336*
X26083Y24499D02*
Y24097D01*
Y28861D02*
X24337D01*
X24056Y29141*
X26083Y28861D02*
Y29284D01*
X26157Y1969D02*
X25689D01*
X26157D02*
X26673D01*
X28903Y28905D02*
Y28861D01*
X26083*
X28981Y19410D02*
Y19402D01*
X28821Y19242*
X26083*
X29094Y13839D02*
Y13307D01*
Y18602D02*
Y18071D01*
Y32559D02*
Y33071D01*
X29350Y5965D02*
X29016D01*
X29528Y10079D02*
Y9646D01*
Y14902D02*
Y14488D01*
Y24213D02*
Y24646D01*
Y28937D02*
Y29370D01*
X29823Y8957D02*
X29390D01*
X30017Y19726D02*
X29528D01*
X30059Y5256D02*
X29528D01*
G54D17*
X2520Y26772D02*
X2323D01*
X2520D02*
Y26496D01*
X2521Y21122D02*
X2480D01*
X2555Y24272D02*
X2480D01*
X2559Y25965D02*
X2756D01*
X2585Y22697D02*
X2480D01*
X2600Y26772D02*
X2520D01*
X2600D02*
X2520Y26852D01*
Y27047*
X2677Y26772D02*
X2600D01*
X2677D02*
X2717D01*
X2677Y26811*
Y26870*
X2699Y26892*
X2717*
Y27047*
Y26772D02*
Y26496D01*
Y26772D02*
X2677D01*
X2913Y26496D02*
X3110D01*
X2913Y26772D02*
X3051D01*
X2913D02*
X2717D01*
X2992Y8268D02*
X3346D01*
X3031Y27047D02*
X2913D01*
X3031D02*
X3110D01*
X3051Y26772D02*
X3031Y26791D01*
Y27047*
X3110Y26496D02*
X3307D01*
X3110Y26772D02*
X3051D01*
X3110Y27047D02*
X3307D01*
X3169Y16339D02*
Y16575D01*
X3248Y16654*
Y17028D02*
Y16654D01*
X3307Y26496D02*
X3504D01*
X3307Y26772D02*
X3110D01*
X3346Y27579D02*
Y27854D01*
X3399Y27906*
X4291*
X4401Y27796*
Y27696*
X3504Y26772D02*
X3543D01*
X3504D02*
X3307D01*
X3504D02*
Y26496D01*
Y27047D02*
Y26870D01*
X3543Y26831*
Y26772*
X3701*
Y26496*
X3740Y27579D02*
X3976D01*
X4193Y28346D02*
X4213Y28366D01*
Y15354D02*
Y15079D01*
X4252Y6594D02*
X4449D01*
X4409Y8307D02*
X4449Y8346D01*
X4724*
X4449Y6575D02*
Y6339D01*
Y6594D02*
X4469D01*
X4449D02*
Y6850D01*
X4469Y6594D02*
X4449Y6575D01*
X4488Y15354D02*
Y15079D01*
Y15354D02*
X4213D01*
X4488D02*
X4803D01*
X4488D02*
Y15630D01*
Y15354D02*
X4213Y15630D01*
X4528Y5787D02*
X4622D01*
X4528Y17106D02*
X4252D01*
X4622Y5787D02*
X4724D01*
X4646Y6594D02*
X4469D01*
X4646D02*
Y6598D01*
X4662*
X4646Y6614*
Y6850*
Y12953D02*
X4715D01*
X4691Y11378D02*
X4646D01*
X4712Y9803D02*
X4646D01*
X4724Y14547D02*
Y14243D01*
X4807Y14160*
X4803Y15079D02*
Y15135D01*
X4859Y15079*
X5118*
X4803Y15354D02*
X4823D01*
X4803Y15630D02*
Y15433D01*
X4823Y15413*
Y15354D02*
Y15413D01*
Y15354D02*
X4803Y15335D01*
Y15135*
X4843Y6339D02*
X4646D01*
X4843D02*
X5039D01*
X4843Y6594D02*
X4646D01*
X4843Y6850D02*
X5039D01*
X4921Y5538D02*
Y5787D01*
X5008Y12953D02*
X5118D01*
X5020Y6594D02*
X4843D01*
X5039Y6339D02*
X5236D01*
X5039D02*
Y6575D01*
X5020Y6594*
X5039D02*
Y6575D01*
Y6850D02*
Y6614D01*
X5020Y6594*
X5039Y6850D02*
X5236D01*
X5118Y9803D02*
X5003D01*
X5118Y11378D02*
X4992D01*
X5118Y13681D02*
Y13732D01*
X5264Y13878*
X5531*
X5118Y14547D02*
Y14278D01*
X5000Y14160*
X4991*
X5118Y15079D02*
X5433D01*
X5118Y15354D02*
X4823D01*
X5118Y15630D02*
X5433D01*
X5236Y6594D02*
X5413D01*
X5236D02*
X5039D01*
X5315Y5527D02*
Y5787D01*
X5413Y6594D02*
X5433Y6614D01*
Y6850*
Y6575D02*
X5453D01*
X5433D02*
X5413Y6594D01*
X5433D02*
Y6575D01*
Y15354D02*
X5118D01*
X5453Y6575D02*
X5433Y6555D01*
Y6339*
X5551Y18504D02*
X5965D01*
X5610Y6575D02*
X5630Y6594D01*
X5610Y6575D02*
X5453D01*
X5610D02*
X5630Y6555D01*
Y6339*
Y6594D02*
X5797D01*
X5630Y6850D02*
Y6594D01*
X5787Y16220D02*
Y16222D01*
X5512*
Y16161*
X5827Y6575D02*
X5817D01*
X5797Y6594*
X5827Y6575D02*
Y6339D01*
Y6594D02*
Y6575D01*
Y6850D02*
Y6624D01*
X5797Y6594*
X5886Y13878D02*
Y14134D01*
X5945Y7402D02*
X5709D01*
X6083Y19685D02*
Y20276D01*
Y19685D02*
X6339D01*
X7579Y18681D02*
X7283D01*
X7795Y3248D02*
Y3543D01*
X7697*
X7795Y3839D02*
Y3543D01*
X8150Y25669D02*
X8189Y25709D01*
X8563*
X8169Y18681D02*
X7874D01*
X8268Y6024D02*
X7953D01*
X8465Y18681D02*
X8169D01*
X8465Y22264D02*
X9449Y2146*
X9724D01*
X9744Y2126*
Y26063D02*
Y26417D01*
X10236Y5189D02*
X10234Y5187D01*
X9872*
X10236Y18327D02*
X10531D01*
X10349Y2146D02*
X10039D01*
X10354Y2126D02*
X10349Y2131D01*
Y2146*
X10531Y22618D02*
Y23150D01*
X10630Y2146D02*
X10349D01*
X10630Y5728D02*
X10945D01*
Y13484D02*
X10571D01*
X10551Y13465*
Y13189*
X11024Y10413D02*
Y10351D01*
X10748*
Y10354*
X11102Y11220D02*
Y10945D01*
Y11220D02*
X11378D01*
X11102D02*
Y11496D01*
X11378Y11220D02*
Y10945D01*
Y11220D02*
X11693D01*
X11378Y11496D02*
Y11220D01*
X11417Y12028D02*
Y12303D01*
X11610Y12413D02*
X11614Y12417D01*
X11693Y11220D02*
Y10945D01*
Y11220D02*
X11713D01*
X11693Y11496D02*
X11713Y11476D01*
Y11220*
X12008*
X11732Y30945D02*
Y31181D01*
X11988*
X12008Y31201*
X11732Y31417D02*
Y31181D01*
X11811Y12330D02*
Y12028D01*
X11909Y2224D02*
Y2480D01*
Y4469D02*
Y4213D01*
X12008Y10945D02*
Y11220D01*
X12314*
X12008D02*
Y11496D01*
Y12028*
Y30709D02*
X12283D01*
X12008D02*
Y30472D01*
Y30945D02*
Y30709D01*
Y30984D02*
Y30945D01*
Y31181D02*
Y31201D01*
Y31181D02*
Y30984D01*
Y31201D02*
Y31378D01*
Y31417D02*
Y31598D01*
Y31417D02*
Y31378D01*
Y31654D02*
X12283D01*
X12008D02*
Y31598D01*
Y31850D02*
Y31654D01*
Y31850D02*
X12283D01*
X12205Y12028D02*
Y11496D01*
X12323*
X12283Y30945D02*
Y30709D01*
Y31181D02*
Y30945D01*
Y31417D02*
Y31654D01*
X12314Y11220D02*
X12323D01*
Y10945*
Y11496D02*
Y11229D01*
X12314Y11220*
X12598Y6083D02*
Y6358D01*
X12618Y6378*
X12657*
X12629Y29331D02*
X12836Y29537D01*
X12629Y29331D02*
X13179D01*
X12815Y30236D02*
X12835D01*
Y30492*
X12815Y30512*
X13287Y9980D02*
Y10039D01*
X14350Y20079D02*
X14075D01*
X14350Y21358D02*
Y20819D01*
X14370Y5728D02*
X14646D01*
X14370Y6083D02*
Y6378D01*
Y24193D02*
X14075D01*
X14370Y27933D02*
Y27953D01*
X13937*
X14390Y3248D02*
Y3839D01*
X14469Y9055D02*
Y9072D01*
X14094*
Y9114*
X14469Y20079D02*
X14350D01*
X14547Y28445D02*
X14791D01*
X14665Y24193D02*
X14961D01*
X14791Y28937D02*
X14547D01*
X14843Y11586D02*
Y11614D01*
X14858Y13169D02*
X14862D01*
X14961Y5728D02*
Y5433D01*
Y6083D02*
Y6378D01*
X15118Y22579D02*
X15423D01*
X15433Y22589*
Y22795*
X15197Y12343D02*
Y13110D01*
X15138Y13169*
X14862*
X15276Y29134D02*
X14940D01*
X14665Y29408*
Y30118*
X15650Y1791D02*
Y1489D01*
X16036Y1102*
X16043*
X15748Y9528D02*
Y9232D01*
Y20256D02*
Y20551D01*
X15846Y8268D02*
Y8506D01*
X15748Y8605*
Y8875*
X15866Y30384D02*
Y30236D01*
X16240Y2146D02*
X16535D01*
X16831*
X16634Y9213D02*
X16654Y9232D01*
X16929*
X16634Y9213D02*
X16614Y9232D01*
X16339*
X16634D02*
Y9213D01*
Y20256D02*
X16929D01*
X16634D02*
X16339D01*
X16654Y21161D02*
X16378D01*
X16929Y6083D02*
Y6673D01*
Y23839D02*
X17218D01*
X17307Y23749*
Y23602*
X17561Y23348*
X17738*
X18012Y23622*
X16929Y24193D02*
X16722D01*
X16614Y24085*
Y23937*
X17126Y12599D02*
Y12559D01*
X17283Y21752D02*
X17008D01*
X17362Y23268D02*
Y23169D01*
X17441Y23091*
X17618*
X17441Y12067D02*
Y12047D01*
X17461Y12067*
X17618*
Y5551D02*
Y4980D01*
Y5906D02*
Y5551D01*
Y24016D02*
Y23622D01*
Y29390D02*
Y29882D01*
Y30315*
X18012Y13780D02*
Y13899D01*
X17935Y13976*
X17659*
X18209Y9311D02*
Y9587D01*
Y20335D02*
Y20591D01*
Y26634D02*
Y27067D01*
X18425Y24409D02*
X18426D01*
Y24016*
X18602Y9232D02*
Y9705D01*
X18622*
X18898Y6083D02*
Y6339D01*
X18996Y24193D02*
X19291D01*
X19528Y18701D02*
X19589Y18762D01*
X20098*
X19823Y6754D02*
X19843Y6734D01*
Y6732*
X20077*
X20098Y6754*
X19843Y9134D02*
X20081D01*
X20098Y9116*
X19843Y9213D02*
Y9134D01*
Y26220D02*
Y26142D01*
X20098Y13939D02*
X20100Y13937D01*
X20354*
X20098Y16400D02*
X20116Y16417D01*
X20386*
X20098Y23585D02*
X20100Y23583D01*
X20394*
X20098Y26045D02*
X20018D01*
X19843Y26220*
X20118Y21535D02*
Y21575D01*
X20827*
X20118Y21535D02*
X20098Y21516D01*
Y21222*
X20354Y11575D02*
X20100D01*
X20098Y11577*
X20394Y30866D02*
X20100D01*
X20098Y30868*
X20866Y26378D02*
X20742Y26502D01*
X20093*
X19843Y26252*
Y26220*
X21417Y15748D02*
Y15811D01*
X21506Y15900*
X22028*
X21417Y26339D02*
X21522Y26443D01*
X22676*
X21496Y30118D02*
Y30358D01*
X21506Y30368*
X22028*
X21693Y13425D02*
Y13439D01*
X22028*
X21732Y6260D02*
Y6254D01*
X22028*
X21732Y17756D02*
X22022D01*
X22028Y17762*
X21732Y18268D02*
Y18262D01*
X22028*
X21732Y23071D02*
Y23085D01*
X22028*
X21732Y27913D02*
X21772Y27874D01*
X21994*
X22028Y27907*
X21732Y32717D02*
Y32730D01*
X22028*
X21811Y8622D02*
X22022D01*
X22028Y8616*
Y11077D02*
X22014Y11063D01*
X21496*
X22028Y20722D02*
X22014Y20709D01*
X21732*
X22028Y22585D02*
X22041Y22598D01*
X22283*
X22028Y25045D02*
X22510D01*
X22677Y24878*
Y24291*
X22028Y29868D02*
X22033Y29862D01*
X22283*
X22028Y32230D02*
X22033Y32224D01*
X22283*
X22244Y27402D02*
X22033D01*
X22028Y27407*
X22283Y5748D02*
X22033D01*
X22028Y5754*
X22323Y8110D02*
X22033D01*
X22028Y8116*
X22323Y15394D02*
Y15400D01*
X22028*
X22323Y17756D02*
X22033D01*
X22028Y17762*
X22596Y20222D02*
X22598Y20224D01*
X22624Y10577D02*
X22638Y10591D01*
X23031Y13406D02*
Y13009D01*
X23186Y12854*
X23367*
X23497Y12724*
Y12356*
X23130Y11989*
Y11831*
X23031Y28425D02*
X23307D01*
X23209Y2559D02*
X22825D01*
Y2622*
X23209Y2953D02*
Y3169D01*
X23228Y3189*
X23563Y7008D02*
Y7798D01*
X23031Y8329*
Y8583*
X23622Y28071D02*
Y27795D01*
X23740Y1614D02*
Y1811D01*
Y2008*
Y2205*
X23957*
X24016Y2264*
X23740Y2441D02*
Y2205D01*
Y2874D02*
Y2677D01*
X23750Y11831D02*
Y11842D01*
Y12579*
X24114*
X24016Y1811D02*
Y1614D01*
Y2008D02*
Y1811D01*
Y2008D02*
Y2205D01*
Y2264*
Y2402*
Y2264D02*
X24232D01*
X24016Y2402D02*
Y2441D01*
Y2598*
Y2677*
Y2874*
X24114Y7382D02*
X24528D01*
X24213Y8583D02*
X24173Y8543D01*
X24213Y28071D02*
Y27795D01*
X24291Y2677D02*
X24094D01*
X24016Y2598*
X24291Y2677D02*
Y2874D01*
Y1614D02*
Y1811D01*
X24016*
X24291Y2205D02*
Y2008D01*
Y2205D02*
X24232Y2264D01*
X24291Y2441D02*
Y2323D01*
X24232Y2264*
X24823Y1772D02*
Y1870D01*
Y1969*
Y1870D02*
X25157D01*
Y1890*
X24823Y1969D02*
X24832Y1960D01*
X25211Y2165D02*
X24823D01*
X25211Y2205D02*
X25308D01*
X25211Y2560D02*
X24952D01*
X25610Y16831D02*
X25591Y16811D01*
X25628Y7283D02*
X25591D01*
X25768Y2933D02*
X25512D01*
X26083Y7631D02*
Y7657D01*
X26554Y30886D02*
X26870D01*
X26554Y31713D02*
X26870D01*
X26575Y13957D02*
Y13937D01*
X26594Y13957*
X27854Y7382D02*
Y7087D01*
Y7382D02*
Y7677D01*
Y7382D02*
X28248D01*
X27854Y11909D02*
Y12205D01*
X28248*
X27854Y12500D02*
Y12205D01*
Y16732D02*
Y17028D01*
X28248*
X27854Y17323D02*
Y17028D01*
Y21555D02*
Y21850D01*
X28248*
X27854Y22146D02*
Y21850D01*
Y26378D02*
Y26673D01*
X27978*
X27854Y26969D02*
Y26673D01*
Y31496D02*
Y31201D01*
Y31496D02*
X28248D01*
X27854Y31791D02*
Y31496D01*
X27978Y26673D02*
X28248D01*
X28122Y16555D02*
X28642D01*
X28134Y31024D02*
X28642D01*
X28157Y11732D02*
X28642D01*
X28173Y26201D02*
X28642D01*
X28248Y7382D02*
Y7087D01*
Y7677D02*
Y7382D01*
Y11909D02*
Y12205D01*
Y12500D02*
Y12205D01*
Y16732D02*
Y17028D01*
Y17323D02*
Y17028D01*
Y21555D02*
Y21850D01*
Y22146*
Y26673D02*
Y26378D01*
Y26969D02*
Y26673D01*
Y31201D02*
Y31496D01*
Y31791D02*
Y31496D01*
X28315Y21378D02*
X28642D01*
X29528Y19726D02*
Y19724D01*
X29705Y21260D02*
Y21555D01*
X29724Y21575*
X30138Y19724D02*
X30039D01*
Y19726*
X30017*
X31299Y16634D02*
X30748D01*
X31299Y20571D02*
X30748D01*
X31299Y24508D02*
X30748D01*
X31299Y26870D02*
X30748D01*
X32087Y20571D02*
X31299D01*
X32087D02*
X32638D01*
X32087Y24508D02*
X32638D01*
X32087D02*
X31299D01*
X32638Y16634D02*
X32087D01*
X32638Y26870D02*
X32087D01*
X32874Y29055D02*
Y29567D01*
G54D18*
X2362Y4114D02*
Y4409D01*
Y4921*
X2756Y28543D02*
X2480D01*
X3661Y25000D02*
X3261D01*
X3150Y25112*
X4233Y16161D02*
Y16624D01*
X3839Y17018*
Y17028*
X4774Y16752D02*
X4528D01*
X4803Y14063D02*
Y14160D01*
X4807*
X4991D02*
X4807D01*
X5000Y5335D02*
Y5410D01*
X4910Y5500*
X4921Y5512*
Y5538*
X5000Y5335D02*
X4882Y5217D01*
X4606*
X5197Y18039D02*
Y18583D01*
X5315Y5376D02*
Y5527D01*
X6102Y22264D02*
X5815D01*
X6102Y22913D02*
Y22618D01*
X6484Y32776D02*
X6575D01*
X6693Y22264D02*
X6447D01*
X6406Y22222*
Y21850*
X6693Y22618D02*
Y22894D01*
X6673Y22913*
X6535*
X6829Y7711D02*
Y7709D01*
X7283Y18327D02*
X7251D01*
X8169Y26063D02*
X8563D01*
X8228Y19882D02*
X8287Y19823D01*
Y19587*
Y20177D02*
Y19941D01*
X8228Y19882*
X8465Y22264D02*
Y22073D01*
X8529Y22008*
X9547*
X8563Y6378D02*
X8268D01*
X8563Y10020D02*
X8937D01*
X8583Y4921D02*
X8976D01*
X8780Y22362D02*
Y22510D01*
X8671Y22618*
X8465*
X8780Y22362D02*
X8858Y22441D01*
X9154*
X8858Y6378D02*
X8563D01*
X9094Y2126D02*
X9097Y2124D01*
Y1876*
X9181Y1791*
X9449*
X9744Y25709D02*
X10039D01*
X10059Y25689*
X10039Y29941D02*
Y30236D01*
X10138Y31142D02*
X10039Y31043D01*
Y30591*
X10236Y18681D02*
X10531D01*
X10354Y2953D02*
Y2657D01*
Y3248D02*
Y2953D01*
X10531Y22264D02*
X10008D01*
X9831Y22441*
X9744*
X10728Y14469D02*
X11339D01*
X11201Y30236D02*
X10630D01*
X11299Y33366D02*
X11634D01*
X11417Y12303D02*
X11528Y12413D01*
X11610*
X11417Y13189D02*
X10906D01*
X11614Y12992D02*
X11417Y13189D01*
X11726Y12415D02*
X11811Y12330D01*
X12008Y9469D02*
X12323D01*
X12283Y5906D02*
X12471Y5718D01*
X12598*
Y5728*
X12283Y6276D02*
Y6299D01*
X12598Y2146D02*
X12913D01*
X13012Y10433D02*
Y10185D01*
X13110Y29541D02*
X13005D01*
X13147Y30387D02*
Y29738D01*
X13110Y29701*
X13406Y31594D02*
Y31280D01*
X13583Y29685D02*
Y30059D01*
X13760Y31929D02*
Y31594D01*
X13898Y23524D02*
Y23022D01*
X14085Y22835*
X14390*
X13976Y12815D02*
Y12421D01*
Y13169D02*
X14567D01*
X14055Y1969D02*
X14469D01*
X14350Y20817D02*
Y20079D01*
Y20819D02*
Y20817D01*
X14370Y23839D02*
X14021D01*
X13898Y23715*
Y23524*
X14390Y3839D02*
Y4114D01*
X14429Y4154*
X14843*
X14567Y12815D02*
X14862D01*
X14567Y13169D02*
X14858D01*
X14665Y30118D02*
X14685Y30138D01*
X14961*
X14665D02*
Y30118D01*
X14843Y11024D02*
Y11319D01*
Y11024D02*
Y10433D01*
Y11319D02*
Y11586D01*
X14961Y23839D02*
Y23444D01*
X14843Y23327*
X14961Y30492D02*
X14665D01*
X15059Y2362D02*
X15060Y2361D01*
Y1969*
X15059*
Y20079D02*
X15291D01*
X15468Y19902*
X15748*
X15098Y26378D02*
X15374D01*
X15453Y26457*
Y13071D02*
Y12717D01*
X15551Y30138D02*
Y29882D01*
X15295Y29626*
X14882*
X15551Y30492D02*
X15758D01*
X15866Y30384*
X15650Y2146D02*
X15630Y2126D01*
X15394*
X15684Y8875D02*
X15748D01*
Y26201D02*
X15541D01*
X15453Y26289*
Y26457*
X15748Y26555D02*
X16043D01*
X16004Y28878D02*
X16417D01*
X16043Y20157D02*
Y19990D01*
X15955Y19902*
X15748*
X16181Y4882D02*
Y5220D01*
X16433Y5472*
X16929*
X16634Y26555D02*
X16339D01*
X16752Y2953D02*
Y2657D01*
Y3178D02*
Y2953D01*
Y10531D02*
Y10325D01*
Y10531D02*
X16523Y10761D01*
X16503Y10741*
X16488Y10756*
X16841Y10236D02*
X16772D01*
X16752Y10217*
Y9941*
X16929Y5472D02*
Y5728D01*
Y26555D02*
X16634D01*
X16929Y28228D02*
Y27933D01*
X17028Y30138D02*
Y29843D01*
X17126Y12815D02*
Y12599D01*
X17659Y13976D02*
X17497D01*
X17126Y13605*
Y13169*
X18209Y12992D02*
Y12981D01*
X18395Y12795*
X18583*
X18209Y30315D02*
X18622D01*
X18661Y30354*
Y30433*
X18583Y12795D02*
X18602Y12815D01*
X18898*
X18602Y8878D02*
Y8642D01*
X18504Y8543*
X18701Y26201D02*
X18996D01*
X18898Y1417D02*
Y1791D01*
Y2126D02*
X19252D01*
X18898Y2146D02*
Y3169D01*
Y13169D02*
X18622D01*
X18602Y13189*
X18898Y20256D02*
X18622D01*
X18996Y19902D02*
X18610D01*
X18996Y26555D02*
X18701D01*
X18996Y30138D02*
X19233D01*
X19238Y30133*
X19397*
X19412Y30118*
X19409*
X18996Y30492D02*
X18720D01*
X18661Y30433*
X21280Y689D02*
X21024D01*
X21811Y1969D02*
X22067D01*
X22028Y10577D02*
X22624D01*
X22028Y15900D02*
X22511D01*
X22613Y16001*
Y18262*
X22028Y20222D02*
X22596D01*
X22613Y18262D02*
X22618D01*
Y18795*
X22687Y18865*
X23608*
X23622Y18851*
Y18583*
X22613Y18262D02*
X22028D01*
X23031Y8937D02*
X23307D01*
X23031Y13760D02*
X23307D01*
X23031Y18583D02*
X23346D01*
X23031Y33051D02*
X23287D01*
X23307Y33031*
X23130Y26299D02*
Y26513D01*
X23539Y26922*
Y27244*
X23031Y27752*
Y28071*
X23307Y23406D02*
X23031D01*
X23346Y18228D02*
X23622D01*
Y8307D02*
Y8583D01*
Y13110D02*
Y13406D01*
Y18583D02*
X24213D01*
X23622Y23051D02*
X23898D01*
X23622Y32402D02*
Y32697D01*
X23752Y11831D02*
X23750D01*
X23937Y18228D02*
X24213D01*
X24114Y17028D02*
X24528D01*
X24114Y21850D02*
X24606D01*
X24114Y26673D02*
X24606D01*
X24173Y8543D02*
X23937D01*
X24213Y13110D02*
Y13406D01*
Y22756D02*
Y23051D01*
Y32697D02*
Y32402D01*
X24528Y12205D02*
X24114D01*
X25090Y6555D02*
Y6660D01*
Y6813D02*
Y6909D01*
X25098Y18031D02*
X24698D01*
X24589Y18141*
Y18413*
X24419Y18583*
X24213*
X25098Y21280D02*
X24646D01*
X25211Y2165D02*
Y2205D01*
X25591Y12008D02*
X26083D01*
X25591Y13583D02*
X26083D01*
X25630Y5433D02*
X26083D01*
X25630Y23228D02*
X26083D01*
X25669Y5669D02*
Y5768D01*
X25709Y5807*
X26083*
X25689Y8760D02*
X26083D01*
Y3425D02*
X26148D01*
Y3701*
X26257Y3810*
X27871*
X28124Y3557*
X28848*
X29016Y3725*
Y4429*
X26083Y7283D02*
Y7631D01*
Y7283D02*
X25628D01*
X26083Y12008D02*
Y12382D01*
Y15256D02*
X26496D01*
X26083Y16831D02*
X25610D01*
X26083Y17205D02*
Y16831D01*
Y18406D02*
X25591D01*
X26083Y21654D02*
Y22028D01*
Y22382*
X26063Y22402*
X26083Y24902D02*
X26535D01*
X26083Y26850D02*
Y26476D01*
Y26850D02*
Y27224D01*
X26063Y27244*
X26083Y28051D02*
X26535D01*
X26083Y31673D02*
Y31299D01*
Y31673D02*
Y31988D01*
X26102Y32008*
X26083Y32874D02*
X26535D01*
X26459Y6909D02*
X26083D01*
X26535Y10059D02*
Y10315D01*
X26417Y10433*
X26083*
X26535Y20079D02*
X26083D01*
X26535Y29331D02*
Y29606D01*
X26417Y29724*
X26083*
X26575Y14888D02*
Y14882D01*
Y19705D02*
X26870D01*
X26575Y24528D02*
X26870D01*
X26594Y13957D02*
X26870D01*
X26772Y9134D02*
X27362D01*
X26870Y5236D02*
Y4961D01*
Y10059D02*
X26555D01*
X26535Y10039*
Y10059*
X26870Y10413D02*
Y10728D01*
Y14882D02*
X26575D01*
X26870Y24882D02*
Y25197D01*
Y29350D02*
X26555D01*
X26535Y29331*
X26870Y33248D02*
X26614D01*
X27126Y23602D02*
X26870D01*
X27126Y28425D02*
X26870D01*
X27205Y18780D02*
X26870D01*
X27244Y13957D02*
X27559D01*
X27244Y14961D02*
X27657D01*
X27264Y10138D02*
X27657D01*
X27362Y9134D02*
X27953D01*
X27559Y28425D02*
X27874D01*
X27559Y33248D02*
X27835D01*
X27657Y19783D02*
X27244D01*
X27657Y24606D02*
X27244D01*
X27657Y29429D02*
X27244D01*
X27835Y23602D02*
X27559D01*
X27874Y18780D02*
X27559D01*
X28071Y14961D02*
X28543D01*
X28150Y24606D02*
X28543D01*
Y10138D02*
X28150D01*
X28543Y19783D02*
X28150D01*
X28543Y29429D02*
X28110D01*
X29094Y18602D02*
X29823D01*
X29094Y23425D02*
Y22913D01*
Y28248D02*
Y27717D01*
X29134Y7894D02*
X29232Y7992D01*
Y8268*
X29705Y6693D02*
X30000D01*
X29705Y16437D02*
Y16693D01*
Y26181D02*
Y26457D01*
X29724Y31220D02*
X29705Y31201D01*
Y30906*
X29783Y7480D02*
Y7556D01*
Y8268*
Y22047D02*
X29823D01*
Y22146*
Y13780D02*
X29567D01*
X29823Y22835D02*
Y22146D01*
Y23780D02*
Y23425D01*
Y28346D02*
Y28701D01*
X30000Y11614D02*
X29705D01*
X30059Y32972D02*
X29724D01*
X30236Y7559D02*
X30233Y7556D01*
X29783*
X31102Y29567D02*
Y29055D01*
G54D19*
X276Y28150D02*
X145Y28019D01*
Y20054*
X2278Y17921*
X2362*
X374Y27756D02*
X317D01*
Y20461*
X1857Y18921*
X2362*
X472Y28110D02*
Y28126D01*
X225Y27879*
Y20086*
X1890Y18421*
X2362*
X787Y27992D02*
Y27441D01*
X984Y20000D02*
Y19991D01*
X914*
X399Y20507*
Y24285*
X1031Y24918*
X1374*
X1378Y24921*
X1083Y20394D02*
X768D01*
Y21223*
X962Y21417*
X3265*
X3541Y21142*
X3917*
X1083Y21969D02*
X754D01*
X697Y22025*
Y22728*
X962Y22992*
X3265*
X3541Y22717*
X3917*
X1319Y23780D02*
X1325D01*
Y24008*
X1608Y24291*
X2067*
Y21142D02*
X1608D01*
X1299Y20833*
Y20650*
X2067Y22717D02*
X1608D01*
X1304Y22412*
Y22229*
X1299Y22224*
X2362Y6421D02*
X1921Y5980D01*
Y1870*
X2411Y1380*
Y445*
X2733Y123*
X16149*
X16917Y891*
Y1181*
X16909*
X2362Y8421D02*
X2411D01*
X2797Y8807*
X8032*
X9450Y7390*
X10408*
X10728Y7069*
Y6732*
X2362Y12921D02*
X2874Y13433D01*
Y17243*
X3095Y17465*
X7516*
X7725Y17256*
X10538*
X12366Y19084*
X13280*
X13601Y19405*
X14640*
X14978Y19067*
X18990*
X19623Y19699*
Y20427*
X19264Y20786*
Y22138*
X19488Y22362*
X2626Y17665D02*
Y16685D01*
X2362Y16421*
X2706Y3760D02*
X2362D01*
X2706D02*
Y7287D01*
X2997Y7579*
X3268*
X2756Y27579D02*
Y27856D01*
X2699Y27913*
X2598*
X2795Y19134D02*
X5362D01*
X2835Y18661D02*
X2728Y18555D01*
Y17939*
X2885Y17781*
X7699*
X7910Y17571*
X10297*
X10827Y18102*
Y23171*
X10645Y23354*
X9429*
X9350Y23275*
Y23228*
X2972Y1043D02*
X2835Y1181D01*
Y1535*
X3150Y1850*
X2992Y19449D02*
X2996Y19445D01*
X4484*
X4685Y19646*
Y19651*
X5197*
Y19646*
X3150Y25965D02*
Y26226D01*
X3182Y26259*
X3840*
X3917Y26181*
X3189Y3543D02*
Y3504D01*
X3236Y3456*
X6825*
X7542Y4174*
X9111*
X9384Y4447*
Y6274*
X9843Y6732*
X3248Y2283D02*
X3470D01*
Y2761*
X4006Y3297*
X5426*
X5692Y3031*
X6083*
X3248Y3858D02*
X3271D01*
Y4233*
X3911Y4872*
X5426*
X5692Y4606*
X6083*
X3248Y9075D02*
X3006D01*
X2914Y9166*
Y9885*
X3127Y10098*
X4313*
X3248Y10650D02*
X3265D01*
Y11024*
X3271*
X3916Y11669*
X5421*
X5692Y11398*
X6083*
X3268Y5807D02*
Y5610D01*
X3869Y5009*
X4561*
X4606Y5054*
Y5217*
X3465Y10945D02*
Y11052D01*
X3810Y11398*
X4232*
X3780Y591D02*
X3634Y736D01*
Y1173*
X3917Y1457*
X4232*
X3819Y3622D02*
Y3593D01*
X6850*
X7515Y4258*
X9084*
X9299Y4473*
Y6421*
X9646Y6768*
Y6772*
X3819Y9843D02*
Y9838D01*
X3834Y9823*
X4232*
X3917Y24291D02*
X3534D01*
X3268Y24557*
X952*
X768Y24373*
Y23772*
X997Y23543*
X1083*
X4232Y3031D02*
X3872D01*
X3634Y2793*
Y2409*
X3780Y2264*
X4232Y4606D02*
X3842D01*
X3586Y4349*
Y4080*
X3819Y3847*
Y3819*
X5079Y24213D02*
Y24209D01*
X4619*
X4409Y23999*
Y23387*
X4555Y23242*
Y22605*
X4409Y22459*
Y22261*
X5174Y21496*
X5433*
X5118Y5787D02*
Y6053D01*
X5163Y6098*
X6220*
Y6142*
X5236Y21850D02*
Y22372D01*
X5457Y22593*
Y22752*
X6535Y23831*
Y26260*
X5273Y5335D02*
X5799Y4809D01*
X6310*
X6571Y4547*
X7692*
X5315Y14547D02*
Y14302D01*
X5336Y14281*
X6096*
X6164Y14213*
Y14001*
X6412Y13752*
X7292*
X7339Y13799*
X7776*
X5315Y16161D02*
Y15894D01*
X5866*
Y15945*
X5362Y19134D02*
Y20259D01*
X6186Y21083*
X6890*
X5394Y21988D02*
X5381Y22001D01*
Y22367*
X5536Y22522*
Y22720*
X6732Y23916*
Y26260*
X5472Y21280D02*
X5280D01*
X5053Y21506*
X611*
X482Y21635*
Y23599*
X601Y23718*
X630*
Y23701*
X5590Y14578D02*
Y14608D01*
X5630Y28346D02*
Y28353D01*
X12461*
X12534Y28280*
X13052*
X13095Y28322*
X12992Y28425*
X5669Y14882D02*
Y14855D01*
X4963*
X4921Y14813*
Y14547*
X6083Y1457D02*
X5706D01*
X5432Y1731*
X3919*
X3497Y1310*
Y709*
X3248*
X6083Y12972D02*
X6183D01*
X6199Y12956*
Y12530*
X6417Y12312*
Y12143*
X6176Y11902*
X3409*
X3248Y12063*
Y12224*
X6142Y13701D02*
X6241Y13602D01*
X7724*
X7795Y13530*
Y13091*
X6191Y14608D02*
Y14578D01*
X6280Y29941D02*
Y29968D01*
X6468*
X6741Y30241*
Y32985*
X6635Y33091*
X5571*
X5531Y33051*
Y32776*
X6280Y31791D02*
Y32137D01*
X5916Y32500*
X5787*
X6339Y26772D02*
X6720D01*
X7196Y26295*
Y22789*
X9060Y20925*
X9154*
X6339Y27480D02*
Y28251D01*
X6362Y28274*
X12428*
X12492Y28211*
Y27154*
X12520Y27126*
X6614Y9134D02*
X6720Y9240D01*
X8532*
X8993Y8780*
X13150*
X6752Y19567D02*
Y19316D01*
X6795Y19272*
X8642*
X6890Y9055D02*
X6996Y9161D01*
X8500*
X8972Y8689*
X12948*
X13004Y8634*
X13210*
X13768Y9192*
Y11242*
X14467Y11941*
X15787*
X16000Y12154*
X16383*
X16757Y12528*
X16951*
X17066Y12413*
X17186*
X17343Y12570*
Y13307*
X17815Y13780*
X6929Y26260D02*
Y24002D01*
X5615Y22687*
Y22251*
X5568Y22205*
X5551*
X7126Y33780D02*
Y33846D01*
X13944*
X15748Y32043*
Y31299*
X7244Y18937D02*
Y18879D01*
X8614*
X8661Y18832*
Y18350*
X8639Y18327*
X8465*
X7244Y18937D02*
X7236D01*
X7177Y18996*
X6807*
X6593Y18783*
X4449*
Y18780*
X7551Y2815D02*
X7539D01*
Y2806*
X7453Y2719*
Y1316*
X7588Y1181*
X7795*
X7618Y20197D02*
Y20431D01*
X7681Y20494*
X8325*
X8642Y20177*
X7657Y4409D02*
X7692Y4444D01*
Y4547*
X7992*
X7795Y2657D02*
Y2911D01*
X7745Y2961*
X7444*
X7364Y2882*
Y1122*
X6616Y373*
X2915*
X2706Y582*
Y3760*
X7795Y12106D02*
Y12421D01*
X7365Y12852*
X6620*
X6020Y13452*
X5945*
X7854Y31791D02*
Y32345D01*
X7700Y32500*
X7362*
X7992Y5295D02*
X7572D01*
X7013Y4736*
X6571*
X6347Y4961*
X5906*
X8150Y2657D02*
X8413D01*
X8502Y2746*
Y3033*
X8504Y3035*
X8150Y3248D02*
Y3839D01*
X8504*
X8300Y3051D02*
X7092D01*
X6993Y3150*
X6825*
X6496Y2821*
Y2281*
X6233Y2018*
X3117*
X2835Y2300*
Y4055*
X3110Y4331*
X8327Y6929D02*
X8484Y7087D01*
X8799*
X8366Y23228D02*
Y23261D01*
X8868Y23763*
X11144*
X13078Y25697*
X14805*
X15057Y25445*
X18966*
X19373Y25852*
Y26787*
X19743Y27157*
X20504*
X20669Y27323*
X8445Y7382D02*
X8996D01*
X9439Y6939*
X10058*
X10650Y6347*
X11353*
X11575Y6125*
Y5410*
X11713Y5273*
Y4980*
X8504Y3642D02*
Y3255D01*
X8300Y3051*
X8504Y4449D02*
Y4451D01*
X8601Y4547*
X8976*
X8563Y19035D02*
X8439Y19159D01*
X6845*
X6557Y18871*
X5622*
X5362Y19131*
Y19134*
X8642Y19272D02*
X8643D01*
X8807Y19108*
Y18642*
X8642Y19587D02*
Y19272D01*
Y20177D02*
X8704D01*
X8891Y19990*
Y19036*
X8996Y18932*
Y18543*
X8760Y23228D02*
Y23214D01*
X8528Y22982*
X8481*
X8268Y22769*
Y22019*
X9056Y21230*
X9449*
X9547Y21132*
Y20925*
X8957Y23228D02*
Y23259D01*
X9215Y23517*
X11233*
X13003Y25287*
X19112*
X19533Y25708*
Y26711*
X20832*
X21211Y27089*
Y28063*
X21555Y28407*
X22028*
X8996Y7087D02*
Y7113D01*
X8877Y7232*
X8414*
X8150Y6968*
Y6811*
X9015Y20138D02*
X9016D01*
X9154Y19626D02*
Y19419D01*
X9232Y19341*
X9754*
X9843Y19252*
X9154Y20925D02*
Y20719D01*
X9232Y20640*
X10029*
X10157Y20768*
X10197*
X9154Y23228D02*
Y23253D01*
X9339Y23438*
X11265*
X13035Y25209*
X19383*
X19614Y25439*
Y26334*
X19911Y26632*
X21147*
X21417Y26902*
Y26907*
X9350Y19626D02*
Y19419D01*
X9919*
X9921Y19421*
Y19567*
X9350Y20925D02*
Y21132D01*
X9331Y21152*
X9013*
X7314Y22850*
Y26345*
X6728Y26932*
X6293*
X5892Y26531*
Y25943*
X5315Y25367*
X4640*
X4449Y25558*
Y25787*
X9350Y20925D02*
Y20734D01*
X9366Y20719*
X9915*
X10161Y20965*
X10197*
X9547Y19626D02*
Y19833D01*
X9646Y19931*
X9826*
X9872Y19977*
Y19978*
X10012Y20118*
X10157*
X9567Y2815D02*
Y2717D01*
X9855Y2428*
X10709*
X9567Y5866D02*
X9464Y5763D01*
Y4416*
X9094Y4045*
X7547*
X6878Y3376*
X3254*
X3213Y3335*
X3189*
Y3307*
X9665Y1181D02*
X8150D01*
X9744Y18248D02*
X9872D01*
X10020Y18396*
Y19053*
X10238Y19271*
Y19518*
X10217Y19539*
Y19685*
X9744Y18760D02*
Y19055D01*
Y19626D02*
Y19833D01*
X9764Y19852*
X9872*
X9966Y19946*
X10192*
X10321Y20075*
Y20456*
X10423Y20558*
Y21087*
X10251Y21260*
X10197*
X9744Y20925D02*
X9900D01*
X10085Y21110*
X10257*
X10343Y21025*
Y20679*
X10235Y20571*
X10197*
X9744Y22441D02*
Y21437D01*
X10039Y6732D02*
Y6089D01*
X9577Y5627*
Y5114*
X9759Y4931*
X10047*
X10709Y4269*
Y3839*
X10039Y7165D02*
X9451D01*
X7975Y8642*
X2972*
X2835Y8504*
X10059Y1791D02*
Y1563D01*
X9677Y1181*
X9665*
X10067Y14094D02*
Y14640D01*
X10270Y14843*
X10728*
X10067Y14094D02*
X9744D01*
X10531Y19705D02*
X10358Y19879D01*
X10235*
X10187Y19831*
X10156*
X10070Y19745*
Y19215*
X9939Y19084*
Y18666*
X9826Y18553*
X9547*
Y18760*
X10709Y2428D02*
Y2657D01*
X10925Y2008D02*
Y2220D01*
X10717Y2428*
X10709*
X10945Y23268D02*
X11257D01*
X13120Y25130*
X19416*
X19623Y25337*
X20474*
X21063Y25926*
Y26190*
X21526Y26654*
X22362*
X11024Y20177D02*
X11045D01*
X11213Y20345*
Y22046*
X13973Y24806*
X19093*
X19833Y24066*
X20595*
X20830Y23831*
X21468*
X21772Y24134*
Y24252*
X11122Y2165D02*
X10941Y2346D01*
Y2793*
X10709Y3026*
Y3248*
X11122Y2421D02*
Y2818D01*
X10921Y3018*
Y3468*
X10709Y3680*
Y3839*
X11201Y31102D02*
X11467D01*
X11519Y31154*
Y32157*
X11561Y32200*
X12843*
X13189Y32546*
Y32559*
X11319Y1713D02*
Y1181D01*
Y6732D02*
X11426D01*
X11508Y6650*
X12758*
X12975Y6433*
X13584*
X14871Y7720*
X18525*
X19622Y8817*
Y10154*
X19752Y10284*
X20684*
X20938Y10538*
Y12331*
X21102Y12495*
Y13268*
X11417Y13505D02*
X12939D01*
X13115Y13329*
Y12913*
X13213Y12815*
X13366*
X11417Y13505D02*
Y13515D01*
X11149Y13783*
X10380*
X10069Y14094*
X10067*
X11457Y21929D02*
Y18584D01*
X10365Y17492*
X7835*
X7627Y17701*
X2855*
X2650Y17906*
Y19461*
X2795Y19606*
X11516Y1181D02*
Y1713D01*
Y4980D02*
Y5187D01*
X11421Y5282*
X11027*
X10836Y5472*
X10827*
X11693Y21929D02*
X11686D01*
Y22401*
X14012Y24727*
X19061*
X19802Y23985*
X20550*
X20787Y23748*
X21506*
X21846Y24088*
X23379*
X23622Y24331*
Y24530*
X23915Y24823*
X24236*
X24739Y24320*
X25497*
X25663Y24485*
Y25180*
X25758Y25276*
X26083*
X11713Y2224D02*
Y2018D01*
X11991*
X12252Y2278*
Y3178*
X12197Y3234*
Y3407*
X12284Y3494*
X12569*
X12598Y3524*
X11909Y1713D02*
X12037D01*
X12343Y2018*
Y3346*
X11909Y3091D02*
X12024D01*
X12039Y3106*
Y3596*
X12231Y3787*
X13024*
X13268Y3543*
X11909Y4980D02*
Y5187D01*
X11654Y5443*
Y6158*
X11318Y6493*
X10650*
X10124Y7019*
X9487*
X7942Y8563*
X4214*
X4210Y8559*
Y8107*
X4522Y7795*
X4596*
X4724Y7667*
Y7402*
X12008Y10413D02*
Y10679D01*
X12041Y10712*
X12645*
X12687Y10755*
Y12047*
X12598*
X12106Y2579D02*
X12059Y2626D01*
X11577*
X11319Y2884*
Y3091*
X12106Y2776D02*
X11624D01*
X11516Y2884*
Y3091*
X12126Y4567D02*
X12018Y4675D01*
X11417*
X11319Y4774*
Y4980*
X12126Y4567D02*
X12549D01*
X13344Y5362*
Y6078*
X14902Y7636*
X18553*
X19836Y8919*
X20456*
X20571Y9035*
Y9902*
X20394Y10079*
X12205Y4961D02*
X12185Y4980D01*
X11909*
X12343Y3642D02*
X12197D01*
X12118Y3563*
Y3011*
X11963Y2856*
X11760*
X11719Y2897*
Y3091*
X11713*
X12362Y4764D02*
X11722D01*
X11713Y4774*
Y4980*
X12362Y22835D02*
X12874D01*
X12638Y27323D02*
Y27467D01*
X13813Y28643*
Y29395*
X13989Y29571*
Y32904*
X13527Y33366*
X12972*
X12913Y20354D02*
Y20315D01*
X13819*
X12992Y28740D02*
X13548D01*
X13583Y28775*
Y28957*
X13150Y8780D02*
X13679Y9309D01*
Y11375*
X14335Y12031*
X15766*
X15961Y12226*
Y12657*
X16119Y12815*
X16339*
X13150Y28583D02*
X12913D01*
X12767Y28436*
X5955*
X5831Y28560*
X5493*
X5394Y28460*
Y28386*
X13189Y5413D02*
Y6108D01*
X12726Y6572*
X10683*
X10541Y6713*
Y6988*
X10218Y7311*
X9417*
X8002Y8726*
X2843*
X2686Y8569*
Y8355*
X2362Y8032*
Y7921*
X13228Y22087D02*
Y22106D01*
X13268Y22146*
X17436*
X17456Y22126*
X17770*
X17835Y22191*
Y22205*
X17815*
Y22244*
X13228Y24862D02*
Y24968D01*
X19239*
X19412Y24795*
X20402*
X20571Y24627*
Y24429*
X20433Y24291*
X13228Y25551D02*
X13044D01*
X11167Y23675*
X8958*
X8563Y23279*
Y23228*
X13268Y3307D02*
X13715Y3755D01*
Y6103*
X14636Y7024*
X18479*
X19268Y7813*
X20642*
X21467Y8638*
Y9429*
X21633Y9594*
X23517*
X23860Y9252*
X24094*
X13268Y3780D02*
X13277D01*
X13522Y4025*
Y6022*
X14969Y7469*
X18801*
X19251Y7919*
X20637*
X21380Y8662*
Y9958*
X21499Y10077*
X13268Y3976D02*
X13279D01*
X13439Y4136*
Y6059*
X14930Y7550*
X18751*
X19570Y8369*
X20407*
X13289Y19843D02*
X13132Y19685D01*
X13130*
X13289Y19843D02*
X13819D01*
X13346Y19488D02*
X12503D01*
X10428Y17413*
X7803*
X7594Y17622*
X3025*
X2711Y17308*
Y14270*
X2362Y13921*
X13386Y13169D02*
Y13461D01*
X13659Y13734*
X16344*
X16850Y13228*
Y12874*
X13425Y19685D02*
X13500Y19610D01*
Y19421*
X13247Y19167*
X12328*
X10496Y17335*
X7770*
X7561Y17543*
X3058*
X2795Y17281*
Y13854*
X2362Y13421*
X13622Y27205D02*
Y27304D01*
X13698Y27381*
X13701*
X13661Y23780D02*
Y24041D01*
X14215Y24594*
X15301*
X16254Y23642*
X17134*
X17165Y23610*
Y23465*
X13701Y21791D02*
X12323D01*
X13701Y27381D02*
Y27978D01*
X13865Y28142*
X14699*
X15054Y28496*
X16702*
X16811Y28605*
Y28760*
X13701Y27381D02*
Y27377D01*
X14690*
X15012Y27055*
X15761*
X16006Y26811*
X16024*
X13740Y19094D02*
X13325Y18679D01*
X12231*
X11416Y17864*
Y16917*
X9429Y14930*
Y13780*
X8740Y13091*
X8543*
X13740Y19134D02*
Y19094D01*
X13780Y28268D02*
X13957Y28445D01*
X14193*
X13819Y20551D02*
Y20502D01*
X12815*
Y20551*
X13898Y19252D02*
Y19283D01*
X13595*
X13317Y19004*
X12428*
X10589Y17165*
X7704*
X7484Y17386*
X3128*
X2953Y17211*
Y13545*
X2993Y13504*
X3150*
X13937Y19252D02*
X13898D01*
X13976Y10315D02*
X14002D01*
X14120Y10433*
X14488*
X13976Y10551D02*
Y10756D01*
X14244Y11024*
X14257*
X13988Y20991D02*
X13989D01*
Y20817*
X13996*
X13988Y20991D02*
X13740D01*
Y20945*
X13996Y21949D02*
X13297D01*
X13289Y21941*
X13168*
X13121Y21988*
X12402*
X14232Y30039D02*
X14202D01*
Y33163*
X13937Y33429*
Y33425*
X14390Y2657D02*
Y2404D01*
X14488Y2306*
X14656*
X14764Y2199*
Y1573*
X15459Y878*
X16350*
X16457Y984*
X14469Y14291D02*
X14783D01*
X15138Y14646*
Y14803*
X14469Y15866D02*
X14803D01*
X14843Y15827*
X14541Y7884D02*
X18455D01*
X19443Y8872*
Y11710*
X19975Y12242*
X20456*
X20799Y12586*
Y13822*
X21346Y14369*
Y14420*
X21482Y14555*
X22001*
X22052Y14504*
X23335*
X23660Y14179*
X26057*
X26083Y14154*
Y13957*
X14541Y7884D02*
X14518Y7861D01*
Y7825*
X13425Y6732*
X14744Y2657D02*
X14915D01*
X15000Y2743*
Y3051*
X14744Y3248D02*
Y3040D01*
X14631Y2926*
X13944*
X13752Y2734*
Y1954*
X15116Y591*
X15118*
X14843Y9843D02*
X14646Y9646D01*
X14291*
X13976Y9961*
X14882Y17441D02*
X14469D01*
X15217Y27441D02*
Y27213D01*
X15266Y27163*
X16856*
X17224Y26794*
Y26457*
X15354Y31299D02*
Y32214D01*
X13926Y33642*
X8895*
X8808Y33555*
X7093*
X6929Y33719*
Y33780*
X15492Y15315D02*
X15574D01*
X16043Y14845*
Y14291*
X15551Y31299D02*
Y32128D01*
X13959Y33720*
X8661*
Y33701*
X15630Y8268D02*
X15116D01*
X14961Y8423*
Y8425*
X15669Y16339D02*
X16167Y15841D01*
Y15836*
X15945Y22657D02*
Y22421D01*
X15906Y22382*
X13436*
X13425Y22392*
Y22402*
X15945Y31299D02*
Y32034D01*
X14034Y33945*
X5906*
Y33898*
X16063Y10098D02*
Y10000D01*
X16326Y9737*
X17106*
X16102Y8268D02*
Y8844D01*
X16139Y8881*
X16141Y8883*
Y9615*
X16030Y9726*
X15222*
X15167Y9780*
Y11283*
X15213Y11329*
X15410*
X16078Y11996*
X16543*
X16850Y12303*
X16139Y8881D02*
X16142Y8878D01*
X16339*
X16230Y26003D02*
Y25612D01*
X16219*
X16230Y26003D02*
Y26004D01*
X13669*
X13461Y26213*
Y28171*
X13896Y28607*
Y29367*
X14070Y29541*
Y33042*
X13549Y33563*
X10437*
X10059Y33185*
Y32874*
X16299Y11850D02*
X16594Y11555D01*
X17618*
X16299Y12323D02*
X16535Y12559D01*
Y13320*
X16391Y13465*
X13740*
X16339Y26201D02*
Y26030D01*
X16312Y26003*
X16230*
X16437Y14291D02*
Y15692D01*
X15828Y16301*
Y17894*
X15769Y17953*
X15748*
X16693Y984D02*
X16637D01*
Y1791*
X16831Y12677D02*
X16700Y12808D01*
Y13267*
X16357Y13610*
X13680*
X13589Y13519*
Y9471*
X13015Y8898*
X9869*
X9276Y9491*
Y10022*
X9016Y10282*
Y11024*
X16929Y26201D02*
X16339D01*
X16929Y27579D02*
Y27362D01*
X17421Y26870*
Y26457*
X16969Y23465D02*
Y23319D01*
X17425Y22863*
X18012*
Y22862*
X17047Y12165D02*
Y12020D01*
X17295Y11772*
X17805*
X17815Y11762*
Y11555*
X17106Y3248D02*
X17303Y3051D01*
Y2461*
X17244Y2402*
X17106Y3248D02*
Y3429D01*
X16992Y3543*
X16568*
X16442Y3670*
Y3886*
X16283Y4045*
X15699*
X15433Y3780*
Y3681*
X17106Y3839D02*
X17285D01*
X17390Y3734*
Y2100*
X17297Y2008*
X17087*
X17106Y9737D02*
X17108D01*
X17224Y9620*
Y9134*
X17106Y9941D02*
Y9737D01*
Y10531D02*
X16821Y10817D01*
X16690*
X16442Y11065*
Y11169*
X16283Y11329*
X15699*
X15433Y11063*
Y10965*
X17126Y31102D02*
Y31090D01*
X17477Y30740*
X19097*
X19677Y30159*
X20420*
X20768Y29811*
Y29665*
X17205Y5630D02*
Y5669D01*
X17311Y5563*
Y4191*
X17486Y4016*
Y2031*
X16764Y1309*
Y1120*
X16839Y1045*
Y924*
X16124Y209*
X2784*
X2533Y460*
Y1386*
X2020Y1900*
Y5579*
X2362Y5921*
X17224Y15118D02*
X17218D01*
Y15237*
X19243Y17262*
X20098*
X17244Y5827D02*
Y5802D01*
X17395Y5651*
Y4883*
X17524Y4754*
X18009*
X17244Y12165D02*
Y12058D01*
X17451Y11850*
X17933*
X18012Y11772*
Y11555*
X17283Y6732D02*
Y6693D01*
X17402Y6575*
X19194*
X19735Y6034*
X20521*
X20669Y5886*
Y5669*
X17323Y31102D02*
Y31093D01*
X17530Y30886*
X19075*
X17421Y15118D02*
X17422D01*
Y15321*
X17493Y15392*
X17656*
X18954Y16690*
X21008*
X21526Y17209*
Y18691*
X21597Y18762*
X22028*
X17520Y31102D02*
X17650Y31233D01*
X20494*
X21280Y32018*
Y32955*
X21555Y33230*
X21693*
X17559Y512D02*
X18456D01*
X18636Y332*
X25630*
X26285Y987*
Y1485*
X26385Y1585*
X26992*
X27067Y1660*
Y2677*
X17598Y22283D02*
Y22234D01*
X13228*
Y22303*
X17618Y3602D02*
Y3837D01*
X17670Y3888*
X18345*
X18494Y3740*
X18504*
X17618Y10177D02*
Y9970D01*
X17717Y9872*
X18526*
X18595Y9940*
X18661*
Y9941*
X17618Y10689D02*
X17518D01*
X17488Y10659*
Y9801*
X17618Y9671*
Y9311*
Y26122D02*
Y25794D01*
X17795Y25617*
Y25591*
X17618Y28878D02*
Y28671D01*
X17697Y28593*
X18622*
Y28642*
X17618Y28878D02*
X17490D01*
X17421Y28947*
Y29051*
X15752Y30720*
X14911*
X14567Y31065*
Y32126*
X17815Y1713D02*
Y1181D01*
Y4469D02*
Y4262D01*
X17848Y4228*
X18257*
X18337Y4308*
Y4407*
X18358Y4429*
X18504*
X17815Y4469D02*
Y4675D01*
X17536*
X17490Y4629*
Y4234*
X17757Y3968*
X19546*
X19732Y3781*
Y2513*
X21251Y995*
X22546*
X22856Y1305*
X23413*
X23505Y1397*
X24453*
X24524Y1468*
Y2329*
X24557Y2362*
X24823*
X17815Y10177D02*
Y9989D01*
X17848Y9956*
X18464*
X18646Y10138*
X18661*
X17815Y19823D02*
Y19291D01*
Y21201D02*
Y20994D01*
X18319*
X18506Y21181*
X18543*
X17815Y26122D02*
Y25780D01*
X17992Y25602*
Y25591*
X17815Y28878D02*
Y29085D01*
X17795Y29104*
X17480*
X15785Y30799*
X14952*
X14716Y31035*
Y32196*
X14594Y32318*
X14567*
Y32323*
X17815Y28878D02*
Y28703D01*
X17847Y28671*
X18415*
X18602Y28858*
X18622*
X18009Y4754D02*
X18012D01*
Y4469*
Y1181D02*
Y1713D01*
Y10177D02*
Y10384D01*
X18051Y10423*
X18231*
X18300Y10492*
X18622*
X18012Y19823D02*
Y19291D01*
Y22579D02*
Y22862D01*
Y26122D02*
Y26334D01*
X17518*
X17490Y26306*
Y25699*
X17598Y25591*
X18012Y27500D02*
Y27307D01*
X18025Y27293*
X18290*
X18414Y27417*
Y27627*
X18425Y27638*
X18012Y28878D02*
Y29085D01*
X17913Y29183*
X17536*
X17299Y29421*
Y30276*
X17303*
X18209Y2224D02*
Y2527D01*
X18280Y2598*
X18465*
X18209Y4469D02*
Y4675D01*
X18689*
X18209Y21201D02*
X18353D01*
X18510Y21358*
X18612*
X18698Y21445*
Y22717*
X18661*
X18209Y27500D02*
Y27723D01*
X18426Y27941*
Y28002*
X18601Y28177*
X18691*
X18934Y28420*
Y29288*
X19567Y29921*
X18209Y28012D02*
X18337D01*
X18347Y28023*
Y28035*
X18568Y28256*
X18659*
X18846Y28444*
Y28951*
X18408Y29390*
X18209*
Y28878D02*
X18403D01*
X18529Y29004*
X18682*
X18768Y28919*
Y28571*
X18622Y28425*
X18386Y9705D02*
Y9685D01*
Y9200*
X18209Y9022*
Y8799*
X18406Y10295D02*
Y10276D01*
X18386Y10256*
Y10226*
X18337Y10177*
X18209*
X18406Y20591D02*
Y20555D01*
X18399Y20549*
Y20227*
X18209Y20037*
Y19823*
X18425Y2854D02*
Y2845D01*
X18489*
X18580Y2935*
Y3220*
X18209Y3591*
Y3602*
X18425Y3051D02*
Y3238D01*
X18315Y3348*
X18012*
Y3602*
X18504Y3504D02*
X18475D01*
X18358Y3621*
Y3764*
X18313Y3809*
X17834*
X17815Y3790*
Y3602*
X18504Y3740D02*
X19567D01*
X18504D02*
Y3701D01*
X18543Y20984D02*
X18570D01*
X18482Y20896*
X17717*
X17618Y20994*
Y21201*
X18547Y21535D02*
X18563D01*
X18509Y21481*
X18085*
X18012Y21407*
Y21201*
X18622Y10728D02*
X18768D01*
X18937Y10898*
Y12238*
X19280Y12580*
Y14691*
X19685Y15096*
X20766*
X21024Y15354*
X18622Y10925D02*
X18768D01*
X18859Y11016*
Y12276*
X19173Y12590*
Y14696*
X19672Y15195*
X20735*
X20874Y15334*
Y15471*
X21074Y15671*
Y16019*
X21454Y16400*
X21455*
X18622Y11319D02*
X18574D01*
X18517Y11261*
X17706*
X17618Y11348*
Y11555*
X18622Y11516D02*
X18594D01*
X18426Y11348*
X17815*
Y11555*
X18622Y27441D02*
X18598D01*
X18372Y27215*
X17894*
X17815Y27293*
Y27500*
X18622Y27638D02*
X18661D01*
Y27653*
X18725*
X18768Y27610*
Y27381*
X18651Y27264*
X18544*
X18387Y27107*
Y26128*
X18381Y26122*
X18209*
X18661Y12402D02*
X17803D01*
X17724Y12323*
X17045*
X16919Y12449*
X16790*
X16416Y12075*
X16045*
X15378Y11407*
X15181*
X15064Y11291*
Y9716*
X14889Y9541*
X14260*
X13274Y8555*
X12971*
X12936Y8591*
X8707*
X8282Y9016*
X7165*
X18661Y23071D02*
X19516Y23925D01*
X19751*
X19779Y23897*
X20520*
X20751Y23666*
X21551*
X21890Y24004*
X23563*
X23765Y23802*
X26080*
X26083Y23799*
Y23602*
X18689Y4675D02*
Y4369D01*
X18552Y4232*
X18504*
X18764Y11689D02*
X18555D01*
X18421Y11555*
X18209*
X18764Y11689D02*
X18768Y11685D01*
Y11202*
X18688Y11122*
X18622*
X18898Y591D02*
X17795D01*
X17303Y1083*
X18996Y21634D02*
X18830D01*
X18777Y21581*
Y20973*
X18612Y20807*
X18086*
X18012Y20733*
Y20335*
X19016Y13937D02*
X19034D01*
X19094Y13877*
Y12628*
X18780Y12313*
Y11701*
X18767Y11689*
X18764*
X19213Y5984D02*
Y6246D01*
X18973Y6486*
X17284*
X17106Y6664*
Y6716*
X17003Y6819*
X14542*
X13970Y6247*
Y3136*
X13643Y2809*
Y1962*
X11970Y288*
X2822*
X2618Y492*
Y1413*
X2098Y1932*
Y5157*
X2362Y5421*
X19409Y5984D02*
Y5969D01*
X19120Y5680*
Y5255*
X18630Y4765*
X18020*
X18009Y4754*
X19429Y13937D02*
X19449D01*
Y14666*
X19682Y14900*
X20098*
X19476Y27835D02*
X19488D01*
Y27763*
X19638Y27613*
X20566*
X21674Y28720*
X22233*
X23270Y29758*
X23786*
X24068Y30039*
X24567*
X19567Y3248D02*
Y1672D01*
X19129Y1235*
X18408*
X18209Y1434*
Y1713*
X19567Y30827D02*
Y30492D01*
X19690Y30368*
X20098*
X19606Y17953D02*
X19593Y17966D01*
Y18311*
X19794Y18512*
X20685*
X21335Y19161*
X23736*
X23921Y18976*
X25435*
X25632Y18780*
X26083*
X19705Y21732D02*
X20967D01*
X21231Y21469*
X21810*
X19705Y31988D02*
X20440D01*
X20885Y32434*
Y32672*
X21782Y33568*
X29191*
X29399Y33360*
Y32767*
X29568Y32598*
X29856*
X30094Y32360*
Y31553*
X30505Y31142*
X30787*
X19724Y4016D02*
X19813Y3927D01*
Y2620*
X21321Y1112*
X22552*
X22846Y1406*
X23363*
X23474Y1518*
Y1969*
X23209*
X19724Y4016D02*
X19700D01*
X19669Y4047*
X17833*
X17618Y4262*
Y4469*
X19744Y22835D02*
X20433D01*
X20669Y22598*
X19764Y15394D02*
X20093D01*
X20098Y15400*
X19764Y27402D02*
Y27407D01*
X20098*
X19803Y11063D02*
Y11077D01*
X20098*
X19803Y31732D02*
X19660D01*
X19624Y31697*
Y31596*
X19626Y31594*
X19803Y32244D02*
X20085D01*
X20098Y32230*
X19823Y12441D02*
X20096D01*
X20098Y12439*
X19823Y12441D02*
X19640D01*
X19362Y12163*
Y8917*
X18418Y7973*
X13692*
X12541Y6823*
X11558*
X11424Y6957*
X11004*
X10925Y6878*
Y6732*
X19843Y15787D02*
X19921D01*
X20033Y15900*
X20098*
X19843Y32480D02*
X20503D01*
X21672Y33650*
X29334*
X29511Y33472*
Y32766*
X29556Y32722*
X29911*
X30202Y32430*
Y31555*
X30301Y31457*
X30787*
X20079Y19252D02*
X20669D01*
X20098Y5254D02*
X19262D01*
X18689Y4680*
Y4675*
X20098Y5254D02*
Y4941D01*
X20079Y4921*
X20098Y6254D02*
X20093Y6260D01*
X19764*
X20098Y8116D02*
X20563D01*
X20591Y8143*
X20098Y11077D02*
X20571D01*
X20630Y11018*
Y10787*
X20098Y12939D02*
X20581D01*
X20630Y12988*
X20098Y13439D02*
X19626D01*
Y14021*
X20259Y14654*
X20976*
X21201Y14429*
X20098Y17752D02*
Y17717D01*
X20394*
Y17756*
X20098Y17752D02*
X19507D01*
X19342Y17916*
Y18777*
X19620Y19055*
X20079*
X20098Y17762D02*
Y17752D01*
Y18262D02*
X20571D01*
X20098Y20722D02*
X20528D01*
X20778Y20473*
X20933*
X21063Y20343*
Y20315*
X20098Y22085D02*
Y22078D01*
X21032*
X21417Y21693*
X20098Y22085D02*
X19841D01*
X19786Y22140*
Y22305*
X19229Y22862*
X18012*
X20098Y22585D02*
X20085Y22598D01*
X19764*
X20098Y23085D02*
X20596D01*
X21083Y22598*
X21102*
X20098Y24545D02*
Y24348D01*
X20302Y24145*
X20728*
X20963Y23909*
X21316*
X21457Y24050*
Y24055*
X20098Y24545D02*
X19465D01*
X19125Y24886*
X13919*
X11063Y22029*
Y20571*
X20098Y26907D02*
X20696D01*
X21051Y27262*
Y27492*
X20906Y27638*
X20098Y26907D02*
X19605D01*
X19452Y26755*
Y25738*
X19080Y25366*
X12970*
X11200Y23596*
X9067*
X8754Y23282*
Y23234*
X8760Y23228*
X20098Y27407D02*
X20487D01*
X20626Y27547*
X20760*
X20906Y27402*
Y27323*
X20098Y27907D02*
X20104Y27913D01*
X20394*
X20098Y32730D02*
X20085Y32717D01*
X19764*
X20098Y32730D02*
X20641D01*
X21639Y33728*
X29621*
X32207Y31142*
X32559*
X20197Y26299D02*
X20512D01*
X20394Y10079D02*
X20100D01*
X20098Y10077*
X20512Y26299D02*
X20571Y26240D01*
Y25545*
X20098*
X20551Y15591D02*
X20523Y15619D01*
X19045*
X18398Y14972*
X17146*
X17028Y15091*
Y15118*
X20551Y17992D02*
X20571Y18012D01*
Y18262*
X20591Y8346D02*
Y8143D01*
X20630Y8642D02*
X20899Y8911D01*
X20998*
X21021Y8934*
X20630Y8642D02*
Y8622D01*
X20624Y8616*
X20098*
X20630Y12953D02*
Y12988D01*
X20629*
Y14391*
X20512Y14508*
X20630Y17677D02*
X20517Y17565D01*
X19434*
X17470Y15600*
X17278*
X16656Y14978*
Y14291*
X16654*
X20630Y32402D02*
Y32289D01*
X20571Y32230*
X20098*
X20787Y23110D02*
X20591Y23307D01*
X19685*
X20787Y23110D02*
X21072D01*
X21516Y22667*
Y22166*
X21597Y22085*
X22028*
X20787Y30000D02*
Y30152D01*
X20571Y30368*
X20098*
X20787Y32008D02*
Y31835D01*
X20270Y31318*
X17135*
X16929Y31112*
Y31102*
X20827Y10945D02*
X20787D01*
X20827D02*
Y10709D01*
X20709Y10591*
X20827Y15787D02*
X20715Y15900D01*
X20098*
X20833Y29368D02*
Y28588D01*
X20456Y28211*
X19722*
X19488Y28445*
X20866Y20315D02*
X20848D01*
X20756Y20222*
X20098*
X20866Y22598D02*
X20875D01*
X20722Y22445*
X20513*
X20374Y22585*
X20098*
X20984Y20709D02*
Y20740D01*
X20705Y21019*
X19748*
X19620Y21147*
Y21431*
X19685Y21496*
X21021Y8934D02*
Y12152D01*
X21260Y12391*
Y12953*
X21024Y15354D02*
X21169Y15500D01*
X21438*
X21524Y15415*
Y14965*
X21589Y14900*
X22028*
X21102Y32047D02*
X20996Y32154D01*
X20727*
X20642Y32068*
Y31801*
X20571Y31730*
X20098*
X21203Y8905D02*
Y12098D01*
X21359Y12254*
X21511*
X21693Y12072*
Y11575*
X21203Y8905D02*
X20792Y8494D01*
X20532*
X20438Y8400*
Y8399*
X20407Y8369*
X21260Y12953D02*
Y13799D01*
X21772Y14311*
Y14331*
X21260Y20315D02*
Y20324D01*
X21021Y20563*
X20868*
X20512Y20919*
X19735*
X19343Y21312*
Y21980*
X19488Y22126*
X21260Y20315D02*
Y20144D01*
X20838Y19722*
X20098*
X21293Y8864D02*
Y11918D01*
X21378Y12003*
Y12047*
X21293Y8864D02*
X20776Y8346D01*
X20591*
X21339Y17638D02*
X20963Y17262D01*
X20098*
X21378Y8228D02*
X20766Y7616D01*
X20098*
X21417Y26907D02*
X22028D01*
X21417Y27441D02*
Y26907D01*
X21457Y5669D02*
Y5352D01*
X21555Y5254*
X22028*
X21457Y16673D02*
X21455D01*
Y16400*
X21457Y31730D02*
Y32205D01*
Y31730D02*
X21453D01*
Y31728*
X20880Y31154*
X17774*
X17717Y31097*
Y31083*
X21496Y10866D02*
Y10077D01*
X21499*
X21496Y29843D02*
Y29448D01*
X21497Y29447*
Y29368*
X21391*
X21184Y29162*
Y28439*
X20456Y27711*
X19741*
X19624Y27828*
Y27915*
X19488Y28051*
X21499Y10077D02*
X22028D01*
X21550Y9116D02*
Y7710D01*
X21151Y7312*
X19211*
X18807Y6908*
X17666*
X17520Y6762*
Y6732*
X21575Y14331D02*
X20957Y13713D01*
Y12519*
X20827Y12389*
Y10945*
X21634Y689D02*
X22264D01*
X21634D02*
Y848D01*
X21586Y896*
X17697*
X17364Y1228*
X17243*
X17155Y1141*
Y913*
X17165*
X21654Y19016D02*
Y19025D01*
X21652*
X20889Y18262*
X20571*
X21654Y21693D02*
X21508Y21547D01*
X21357*
X21026Y21878*
X19644*
X19488Y21722*
Y21535*
X21666Y17262D02*
Y17507D01*
X21673Y17500*
X21666Y17262D02*
Y17148D01*
X21125Y16606*
X19087*
X17618Y15138*
X21693Y9449D02*
Y9444D01*
X21549Y9300*
Y9116*
X21550*
X21693Y12441D02*
X21732Y12480D01*
X21850*
Y12441*
X22026*
X22028Y12439*
X21693Y26045D02*
X22028D01*
X21693D02*
X21441D01*
X20642Y25246*
X19738*
X19543Y25051*
X13152*
X10917Y22816*
Y20480*
X11024Y20374*
X21693Y26181D02*
Y26045D01*
Y30868D02*
X21555D01*
X21260Y30573*
Y29510*
X20912Y29162*
Y28555*
X20488Y28132*
X19690*
X19574Y28248*
X19476*
X21693Y30868D02*
X22028D01*
X21732Y6754D02*
X22028D01*
X21732D02*
X21413D01*
X21017Y6357*
Y4222*
X20731Y3937*
X19961*
X21732Y23583D02*
X20723D01*
X20524Y23781*
X19667*
X19665Y23780*
X21810Y21469D02*
Y21222D01*
X22028*
X21810Y21469D02*
X21890Y21548D01*
Y21693*
X21850Y7598D02*
Y7369D01*
X21713Y7232*
X19343*
X18804Y6693*
X17717*
Y6732*
X21969Y14331D02*
Y14385D01*
X21877Y14476*
X21514*
X21425Y14387*
Y14336*
X20878Y13789*
Y12553*
X20487Y12162*
X20015*
X19530Y11677*
Y8843*
X18491Y7803*
X14841*
X13553Y6515*
X13008*
X12794Y6730*
X11540*
X11392Y6878*
X11122*
Y6732*
X22028Y5254D02*
Y4952D01*
X20619Y3543*
X19961*
X22028Y9116D02*
X21550D01*
X22028Y13939D02*
X21969D01*
Y14331*
X22028Y16400D02*
X21455D01*
X22028Y17262D02*
X21666D01*
X22028Y19722D02*
X21632D01*
X21406Y19948*
Y20425*
X21122Y20709*
X20984*
X22028Y23585D02*
X22026Y23583D01*
X21732*
X22028Y29368D02*
X21497D01*
X22028Y31730D02*
X21457D01*
X22028Y33230D02*
X21693D01*
X22520Y31969D02*
Y31668D01*
X21927Y31075*
X19495*
X19272Y30852*
Y30827*
X23031Y6693D02*
X22925Y6587D01*
Y6389*
X22550Y6015*
X21437*
X21301Y5879*
Y4396*
X20646Y3740*
X19961*
X23071Y6417D02*
X22687Y6033D01*
Y5359*
X20674Y3346*
X19961*
X23228Y709D02*
X23465D01*
X23514Y758*
Y974*
X23603Y1063*
X23819*
X24567Y7126D02*
X24748Y7307D01*
Y7767*
X25003Y8022*
X25192*
X25514Y8344*
Y8880*
X25768Y9134*
X26083*
X24567Y30433D02*
X25945D01*
X26083Y30295*
Y30098*
X24724Y1063D02*
X25000D01*
X25098Y20079D02*
X25444D01*
X25467Y20056*
Y19653*
X25312Y19498*
X24667*
X24100Y20064*
X23293*
X23248Y20020*
Y19665*
X25098Y29724D02*
X25423D01*
Y29269*
X25308Y29154*
X24726*
X24608Y29272*
X25669Y10000D02*
Y10719D01*
X25758Y10807*
X26083*
Y6181D02*
Y6378D01*
X25354Y7106*
X24823*
X24567Y6850*
Y6890*
X26260Y748D02*
Y433D01*
X26457D02*
X26458D01*
Y379*
X26332Y253*
X18461*
X18332Y382*
X18020*
X17992Y354*
X26811Y177D02*
Y154D01*
X31619*
X31903Y438*
Y4439*
X31772Y4570*
Y4606*
X30413Y709D02*
X30849D01*
X31142Y1001*
Y1275*
X31083Y1335*
Y1732*
X31102*
Y3307D02*
Y3301D01*
X31083Y3281*
Y2880*
X31193Y2770*
Y2627*
X30849Y2283*
X30413*
X31102Y4882D02*
X31083D01*
Y4373*
X31142Y4314*
Y4151*
X30849Y3858*
X30413*
X31398Y1457D02*
Y1776D01*
X31157Y2017*
X28707*
X28189Y1499*
Y771*
X28252Y709*
X28563*
X31398Y3031D02*
Y3262D01*
X31195Y3465*
X29065*
X28897Y3297*
X28413*
X28228Y3113*
Y2283*
X28563*
X31398Y4606D02*
Y5008D01*
X31301Y5104*
X30506*
X30341Y4939*
X28480*
X28160Y4619*
Y3901*
X28203Y3858*
X28563*
X31654Y1732D02*
X31673Y1752D01*
X31713Y1713*
Y627*
X31398Y312*
X27376*
X27172Y516*
X26824*
X26482Y174*
X18189*
Y236*
X31693Y2795D02*
X31703D01*
X31822Y2677*
Y469*
X31586Y233*
X27122*
X27041Y315*
X27008*
X32559Y31457D02*
X32011D01*
X29641Y33827*
X21556*
X20710Y32980*
X19794*
X19618Y32804*
Y32458*
X19803Y32273*
Y32244*
G54D20*
X276Y28150D03*
X374Y27756D03*
X472Y28110D03*
X630Y21693D03*
Y23701D03*
X709Y23504D03*
X748Y23071D03*
X787Y25492D03*
Y27992D03*
X984Y20000D03*
Y21693D03*
X1299Y20650D03*
Y22224D03*
X1319Y23780D03*
X2323Y26496D03*
Y26772D03*
Y27047D03*
X2362Y4409D03*
Y24882D03*
Y25098D03*
Y25315D03*
X2480Y28543D03*
X2520Y26496D03*
Y26772D03*
Y27047D03*
X2598Y27913D03*
X2626Y17665D03*
X2717Y26496D03*
Y26772D03*
Y27047D03*
X2795Y19134D03*
Y19606D03*
X2835Y8504D03*
Y18661D03*
X2913Y26496D03*
Y26772D03*
Y27047D03*
X2972Y1043D03*
X2992Y19449D03*
X3110Y4331D03*
Y26496D03*
Y26772D03*
Y27047D03*
X3150Y1850D03*
X3189Y3307D03*
Y3543D03*
X3307Y26496D03*
Y26772D03*
Y27047D03*
X3465Y10945D03*
X3504Y26496D03*
Y26772D03*
Y27047D03*
X3524Y16614D03*
X3701Y26496D03*
Y26772D03*
Y27047D03*
X3780Y591D03*
Y2264D03*
Y12205D03*
Y14094D03*
X3819Y3622D03*
Y3819D03*
Y9843D03*
X3917Y26181D03*
X3937Y5157D03*
Y5394D03*
Y5630D03*
Y26654D03*
Y26969D03*
X3976Y14094D03*
Y24724D03*
Y27579D03*
X4134Y14213D03*
X4173Y26969D03*
X4201Y27520D03*
X4213Y15079D03*
Y15354D03*
Y15630D03*
X4252Y6339D03*
Y6594D03*
Y6850D03*
Y17106D03*
X4331Y13465D03*
Y13661D03*
Y13858D03*
Y14055D03*
Y14252D03*
X4409Y26969D03*
X4449Y6339D03*
Y6575D03*
Y6850D03*
Y18780D03*
Y25787D03*
X4488Y15079D03*
Y15354D03*
Y15630D03*
X4528Y14213D03*
Y16496D03*
X4646Y6339D03*
Y6594D03*
Y6850D03*
Y26969D03*
X4803Y15079D03*
Y15354D03*
Y15630D03*
X4843Y6339D03*
Y6594D03*
Y6850D03*
X4921Y26969D03*
X5039Y6339D03*
Y6594D03*
Y6850D03*
X5079Y24213D03*
X5118Y15079D03*
Y15354D03*
Y15630D03*
X5140Y16507D02*
X5118Y16484D01*
Y16161*
X5157Y26969D03*
X5197Y19646D03*
X5236Y6339D03*
Y6594D03*
Y6850D03*
Y21850D03*
X5394Y21988D03*
Y26969D03*
Y28386D03*
X5433Y6339D03*
Y6594D03*
Y6850D03*
Y15079D03*
Y15354D03*
Y15630D03*
Y21496D03*
X5472Y21280D03*
X5512Y19921D03*
X5551Y22205D03*
X5630Y6339D03*
Y6594D03*
Y6850D03*
Y26969D03*
Y28346D03*
X5669Y14882D03*
Y27618D03*
X5756Y7726D02*
X5373D01*
X5315Y7668*
Y7593*
X5787Y32500D03*
X5827Y6339D03*
Y6594D03*
Y6850D03*
Y8130D03*
Y8327D03*
X5866Y15945D03*
Y26969D03*
X5886Y14134D03*
X5906Y4961D03*
Y15118D03*
Y15354D03*
Y33898D03*
X5963Y7726D02*
X5756D01*
X6017Y7705D02*
X5983D01*
X5965Y7723*
Y7726*
X6024Y6339D03*
Y6575D03*
Y6850D03*
X6131Y16507D02*
X5140D01*
X6142Y13701D03*
Y15354D03*
X6220Y6142D03*
Y6575D03*
Y7402D03*
X6223Y16414D02*
X6131Y16507D01*
X6339Y16969D03*
Y19685D03*
Y26772D03*
Y27480D03*
X6378Y15354D03*
X6417Y6575D03*
X6496Y8150D03*
X6535Y26260D03*
X6575Y32776D03*
X6614Y9134D03*
Y15354D03*
X6732Y26260D03*
X6811Y15354D03*
X6829Y7709D02*
Y7705D01*
X6890Y9055D03*
X6929Y26260D03*
Y33780D03*
X6988Y7185D02*
Y7552D01*
X6829Y7711*
X7008Y15354D03*
X7126Y33780D03*
X7165Y9016D03*
X7244Y18937D03*
X7362Y32500D03*
X7441Y8110D03*
X7551Y2815D03*
X7657Y4409D03*
X7697Y3543D03*
X7874Y33189D03*
X7913Y21732D03*
X7953Y6024D03*
X8150Y6811D03*
Y32776D03*
X8228Y21024D03*
X8327Y6929D03*
X8366Y23228D03*
X8445Y7382D03*
X8504Y3035D03*
Y3642D03*
Y3839D03*
Y4449D03*
X8563Y19035D03*
Y23228D03*
X8583Y4921D03*
X8661Y33701D03*
X8720Y13799D03*
X8760Y23228D03*
X8799Y7087D03*
X8807Y18642D03*
X8937Y32500D03*
X8957Y23228D03*
X8976Y21732D03*
X8996Y7087D03*
Y18543D03*
X9016Y11024D03*
X9154Y17717D03*
Y23228D03*
X9252Y11220D03*
X9350Y17717D03*
Y23228D03*
X9449Y11220D03*
X9547Y17717D03*
Y20394D03*
X9567Y5866D03*
X9646Y6772D03*
X9665Y1181D03*
X9685Y11220D03*
X9724Y32776D03*
X9744Y10630D02*
X9811D01*
X10382Y10059*
X11339*
X11417Y10138*
Y10413*
X9744Y19055D03*
Y26417D03*
X9843Y6732D03*
Y19252D03*
X9921Y11220D03*
Y19567D03*
X9961Y21220D03*
X10039Y6732D03*
Y7165D03*
X10059Y25689D03*
X10157Y20118D03*
X10197Y20571D03*
Y20768D03*
Y20965D03*
Y21260D03*
X10217Y19685D03*
X10236Y5189D03*
X10315Y11220D03*
X10354Y2126D03*
X10512Y10551D03*
Y11220D03*
X10551Y11654D03*
X10669Y11024D03*
Y11339D03*
X10728Y6732D03*
X10787Y9094D03*
X10827Y5472D03*
X10906Y11024D03*
X10925Y2008D03*
Y6732D03*
X10945Y9449D03*
Y9646D03*
Y9843D03*
Y23268D03*
X10984Y4488D03*
X11024Y20177D03*
Y20374D03*
X11063Y20571D03*
X11102Y10945D03*
Y11220D03*
Y11496D03*
X11122Y2165D03*
Y2421D03*
Y6732D03*
X11319Y1181D03*
Y6732D03*
X11339Y14469D03*
Y32677D03*
X11378Y10945D03*
Y11220D03*
Y11496D03*
X11457Y21929D03*
X11516Y1181D03*
X11693Y10945D03*
Y11220D03*
Y11496D03*
Y21929D03*
X11713Y1181D03*
X11732Y30472D03*
Y30709D03*
Y30945D03*
Y31181D03*
Y31417D03*
Y31654D03*
Y31850D03*
X11811Y28622D03*
Y28819D03*
Y29055D03*
Y29331D03*
Y29567D03*
Y29843D03*
Y30079D03*
Y30276D03*
X11909Y2480D03*
Y4213D03*
X12008Y10945D03*
Y11220D03*
Y11496D03*
Y12559D03*
Y30472D03*
Y30709D03*
Y30945D03*
Y31181D03*
Y31417D03*
Y31654D03*
Y31850D03*
X12087Y12362D03*
X12106Y2579D03*
Y2776D03*
X12126Y4567D03*
Y30276D03*
X12205Y4961D03*
Y12559D03*
X12244Y14882D03*
Y15197D03*
Y33169D03*
X12283Y12362D03*
Y30472D03*
Y30709D03*
Y30945D03*
Y31181D03*
Y31417D03*
Y31654D03*
Y31850D03*
X12323Y10945D03*
Y11220D03*
Y11496D03*
Y21791D03*
X12343Y3346D03*
Y3642D03*
X12362Y4764D03*
Y22835D03*
X12402Y12559D03*
Y12795D03*
Y12992D03*
Y13189D03*
Y21988D03*
X12520Y27126D03*
Y30276D03*
X12598Y12047D03*
X12638Y27323D03*
X12815Y20551D03*
X12874Y22835D03*
X12913Y20354D03*
X12992Y28425D03*
Y28740D03*
X13012Y10185D03*
X13130Y19685D03*
X13147Y30387D02*
Y30860D01*
X13101Y30906*
X12976*
X13150Y8780D03*
Y13602D03*
Y28583D03*
Y32008D03*
X13189Y2657D03*
Y5413D03*
Y32559D03*
X13228Y22087D03*
Y22303D03*
Y24862D03*
Y25551D03*
X13268Y3307D03*
Y3543D03*
Y3780D03*
Y3976D03*
X13346Y19488D03*
X13386Y30433D03*
X13425Y6732D03*
Y19685D03*
Y22402D03*
X13583Y30433D03*
X13622Y27205D03*
X13661Y23780D03*
X13701Y21791D03*
X13740Y13465D03*
Y19134D03*
Y20945D03*
Y21142D03*
X13780Y28268D03*
Y30433D03*
X13819Y19843D03*
Y20315D03*
Y20551D03*
X13937Y19252D03*
Y33425D03*
X13976Y9961D03*
Y10315D03*
Y10551D03*
X14232Y30039D03*
X14567Y32126D03*
Y32323D03*
X14646Y5728D03*
X14665Y30138D03*
X14791Y28445D03*
Y28937D03*
X14843Y4154D03*
Y11319D03*
Y15827D03*
X14882Y17441D03*
Y29626D03*
X14961Y5433D03*
Y8425D03*
X15000Y3051D03*
Y3248D03*
X15039Y30945D03*
X15118Y591D03*
X15138Y14803D03*
X15354Y31299D03*
X15394Y2126D03*
X15453Y12717D03*
X15492Y15315D03*
X15551Y31299D03*
X15630Y8268D03*
X15650Y19291D03*
X15669Y16339D03*
X15748Y17953D03*
Y31299D03*
X15846Y8268D03*
X15945Y31299D03*
X16024Y26811D03*
X16043Y14291D03*
X16102Y8268D03*
X16240Y14291D03*
Y25591D03*
X16299Y11850D03*
Y12323D03*
X16378Y21161D03*
X16437Y14291D03*
X16457Y984D03*
X16535Y2146D03*
X16634Y9232D03*
Y26555D03*
X16654Y14291D03*
X16693Y984D03*
X16831Y12677D03*
X16850Y12303D03*
Y12874D03*
X16909Y1181D03*
X16929Y5472D03*
Y6673D03*
Y28228D03*
Y31102D03*
X16969Y23465D03*
X17028Y15118D03*
X17047Y12165D03*
X17087Y2008D03*
Y2264D03*
X17126Y12559D03*
Y31102D03*
X17165Y913D03*
Y5433D03*
Y23465D03*
X17205Y5630D03*
X17224Y9134D03*
Y15118D03*
Y20118D03*
Y26457D03*
X17244Y2402D03*
Y5827D03*
Y12165D03*
Y28268D03*
X17283Y6732D03*
Y21752D03*
X17303Y1083D03*
Y30276D03*
X17323Y31102D03*
X17362Y23268D03*
X17421Y9134D03*
Y15118D03*
Y20118D03*
Y26457D03*
X17441Y12067D03*
X17520Y6732D03*
Y31102D03*
X17559Y512D03*
X17598Y22283D03*
Y25591D03*
X17618Y1181D03*
Y8268D03*
Y15138D03*
Y19291D03*
X17717Y6732D03*
Y31083D03*
X17795Y25591D03*
X17815Y1181D03*
Y2717D03*
Y8268D03*
Y13780D03*
Y19291D03*
Y22244D03*
X17953Y30000D03*
X17992Y354D03*
Y25591D03*
X18012Y1181D03*
Y8268D03*
Y13780D03*
Y19291D03*
Y27067D03*
X18189Y236D03*
X18209Y9587D03*
Y20591D03*
Y22146D03*
Y27067D03*
X18228Y10945D03*
X18386Y4980D03*
Y9705D03*
Y12067D03*
Y22717D03*
Y23071D03*
X18406Y10295D03*
Y20591D03*
X18425Y2854D03*
Y3051D03*
Y27638D03*
X18504Y3504D03*
Y3701D03*
Y4232D03*
Y4429D03*
X18543Y20984D03*
Y21181D03*
X18547Y21535D03*
X18622Y10492D03*
Y10728D03*
Y10925D03*
Y11122D03*
Y11319D03*
Y11516D03*
Y20256D03*
Y27441D03*
Y27638D03*
Y28425D03*
Y28642D03*
Y28858D03*
X18661Y9941D03*
Y10138D03*
Y12402D03*
Y22717D03*
Y23071D03*
Y28031D03*
X18898Y591D03*
Y1417D03*
Y6339D03*
X19016Y13937D03*
X19075Y30886D03*
X19213Y5984D03*
X19272Y30827D03*
X19409Y5984D03*
X19429Y13937D03*
X19476Y27835D03*
Y28248D03*
X19488Y20768D03*
Y21535D03*
Y22126D03*
Y22362D03*
Y28051D03*
Y28445D03*
X19528Y29252D03*
X19567Y3248D03*
Y3740D03*
Y29921D03*
Y30827D03*
X19606Y17953D03*
X19626Y31594D03*
X19665Y23780D03*
X19685Y21496D03*
Y23307D03*
X19705Y21732D03*
Y31988D03*
X19724Y4016D03*
X19744Y22835D03*
X19764Y5748D03*
Y6260D03*
Y15394D03*
Y22598D03*
Y27402D03*
Y32717D03*
X19803Y11063D03*
Y32244D03*
X19823Y12441D03*
X19843Y15787D03*
Y32480D03*
X19961Y3346D03*
Y3543D03*
Y3740D03*
Y3937D03*
X20039Y29921D03*
X20079Y4921D03*
Y19055D03*
Y19252D03*
X20197Y26299D03*
X20315Y19055D03*
X20394Y10079D03*
Y17756D03*
Y27913D03*
X20433Y24291D03*
X20512Y14508D03*
Y26299D03*
X20551Y15591D03*
Y17992D03*
Y29685D03*
X20591Y8346D03*
X20630Y8642D03*
Y10787D03*
Y12953D03*
Y17677D03*
Y32402D03*
X20669Y5669D03*
Y19252D03*
Y22598D03*
Y27323D03*
X20709Y10591D03*
Y15394D03*
Y19055D03*
X20768Y29665D03*
X20787Y10945D03*
Y23110D03*
Y30000D03*
Y32008D03*
X20827Y15787D03*
Y21575D03*
X20866Y20315D03*
Y22598D03*
Y26378D03*
X20906Y27323D03*
Y27638D03*
X20984Y20709D03*
X21024Y689D03*
Y15354D03*
Y30000D03*
X21063Y20315D03*
Y24055D03*
X21102Y13268D03*
Y22598D03*
Y32047D03*
X21201Y14429D03*
X21260Y12953D03*
Y20315D03*
X21339Y15354D03*
Y17638D03*
X21378Y8228D03*
Y12047D03*
X21417Y1378D03*
Y15748D03*
Y21693D03*
Y26339D03*
Y27441D03*
X21457Y5669D03*
Y16673D03*
Y24055D03*
Y32205D03*
X21496Y10866D03*
Y11063D03*
Y29843D03*
Y30118D03*
X21575Y14331D03*
X21654Y19016D03*
Y21693D03*
X21673Y17500D03*
X21693Y9449D03*
Y11575D03*
Y12441D03*
Y13425D03*
Y26181D03*
Y30866D03*
Y33228D03*
X21732Y6260D03*
Y6732D03*
Y17756D03*
Y18268D03*
Y20709D03*
Y23071D03*
Y23583D03*
Y27913D03*
Y28465D03*
Y32717D03*
X21772Y14331D03*
Y24252D03*
X21811Y1969D03*
Y8622D03*
X21850Y7598D03*
X21890Y19016D03*
Y21693D03*
X21969Y14331D03*
X22047Y2953D03*
X22244D03*
Y27402D03*
X22362Y26654D03*
X22441Y2953D03*
Y3780D03*
X22520Y31969D03*
X23031Y6693D03*
X23071Y6417D03*
X23248Y31122D02*
X23542D01*
X23677Y31257*
Y31984*
X23478Y32183*
X23307*
X23031Y32459*
Y32697*
X23307Y8937D03*
Y13760D03*
Y23406D03*
Y28425D03*
Y33031D03*
X23346Y18228D03*
Y18583D03*
X23386Y3425D03*
X23622Y8307D03*
Y26339D03*
Y27795D03*
X23740Y1614D03*
Y1811D03*
Y2008D03*
Y2205D03*
Y2441D03*
Y2677D03*
Y2874D03*
Y3150D03*
Y3386D03*
X23819Y27323D03*
X23858Y32126D03*
X23898Y23051D03*
X23937Y8543D03*
Y18228D03*
X24016Y1614D03*
Y1811D03*
Y2008D03*
Y2205D03*
Y2441D03*
Y2677D03*
Y2874D03*
Y3150D03*
Y3386D03*
Y3583D03*
Y3780D03*
Y3976D03*
Y4173D03*
Y4370D03*
Y4567D03*
Y4764D03*
Y4961D03*
X24094Y9252D03*
X24213Y27795D03*
X24291Y1614D03*
Y1811D03*
Y2008D03*
Y2205D03*
Y2441D03*
Y2677D03*
Y2874D03*
Y3150D03*
Y3386D03*
X24567Y6890D03*
Y7126D03*
Y30039D03*
Y30433D03*
X24724Y1063D03*
X24921Y21575D03*
X25157Y1614D03*
Y1890D03*
X25433Y1575D03*
X25630Y5433D03*
X25669Y5657D03*
Y10000D03*
Y15512D03*
X25689Y8760D03*
X25709Y1575D03*
X25768Y2933D03*
X26260Y433D03*
Y748D03*
X26457Y433D03*
X26575Y14882D03*
Y24528D03*
X26614Y33248D03*
X26693Y3051D03*
X26811Y177D03*
X26870Y4961D03*
Y5591D02*
Y5631D01*
X27008Y315D03*
X27126Y23602D03*
Y28425D03*
X27461Y31024D02*
Y30960D01*
X27835Y22441D03*
Y22677D03*
Y22913D03*
Y23602D03*
Y33248D03*
X27854Y7087D03*
Y7382D03*
Y7677D03*
Y11909D03*
Y12205D03*
Y12500D03*
Y16732D03*
Y17028D03*
Y17323D03*
Y21555D03*
Y21850D03*
Y22146D03*
Y26378D03*
Y26673D03*
Y26969D03*
Y31201D03*
Y31496D03*
Y31791D03*
X28248Y7087D03*
Y7382D03*
Y7677D03*
Y11909D03*
Y12205D03*
Y12500D03*
Y16732D03*
Y17028D03*
Y17323D03*
Y21555D03*
Y21850D03*
Y31201D03*
X28268Y22441D03*
Y22677D03*
Y22913D03*
X28642Y31692D02*
Y31654D01*
X29567Y13780D03*
X29705Y16693D03*
Y26457D03*
X30000Y11614D03*
X31102Y1732D03*
Y3307D03*
Y4882D03*
X31654Y1732D03*
X31693Y2795D03*
X31772Y4606D03*
G54D21*
X6829Y7705D02*
Y7704D01*
X6017*
Y7705*
G54D22*
X2953Y18031D03*
X3150Y25512D03*
X3543Y20669D03*
Y22244D03*
Y23819D03*
Y24606D03*
X4685Y13681D02*
X4803D01*
X4764Y21102D03*
X4803Y13681D02*
X5118D01*
X4803Y14063D02*
Y13804D01*
Y22677D03*
X5000Y5335D02*
X5273D01*
X5000D03*
X5118Y13681D03*
X5197Y22677D03*
X5236Y23937D03*
X5531Y30906D02*
Y29941D01*
X5551Y18504D03*
Y30906D02*
Y31378D01*
X5531*
X5551Y31653D02*
Y31378D01*
X5642Y886D03*
Y2461D03*
Y4035D03*
X5709Y23898D03*
X5787Y16220D03*
X5807Y9449D03*
Y11024D03*
Y12598D03*
X5945Y13504D03*
X5965Y16929D03*
X6102Y28661D02*
X6086D01*
X5896Y28851*
Y29114*
X5906*
X6102Y28661D03*
X6142Y1083D03*
Y2657D03*
Y4232D03*
X6181Y23898D03*
X6417Y21457D03*
X6929Y9803D03*
Y11378D03*
X7087Y13091D03*
X7106Y30800D02*
Y29941D01*
Y31564D02*
Y31467D01*
X7126Y31447*
Y31378*
X7098*
Y30906*
X7598Y28661D02*
X7589D01*
X7480Y28770*
Y29114*
X7598Y28661D03*
X7677Y1969D03*
X8150Y26083D03*
X8366Y14488D03*
X8661Y23996D03*
Y27776D03*
X8681Y31649D02*
Y31467D01*
X8701Y31447*
Y30906D02*
Y29941D01*
X8681*
X8701Y31378D02*
Y30906D01*
X8740Y11417D03*
X8858Y15157D03*
X8957Y9665D03*
X8996Y8346D02*
X8993Y8343D01*
Y8153*
X9538Y7607*
X11993*
X12283Y7317*
Y7067*
X8996Y8346D03*
X9055Y29114D02*
Y28897D01*
X9409*
Y28898*
X9252Y15157D03*
X9370Y8346D02*
Y8279D01*
X9684Y7965*
X13257*
X14072Y8780*
X9370Y8346D03*
X9409Y28898D03*
X9449Y23996D03*
Y27776D03*
X9823Y8346D03*
X10079Y22795D03*
X10236Y32283D03*
X10276Y5728D03*
X10748Y10354D03*
X11102Y25039D03*
X11535Y14173D03*
X11614Y12992D03*
X11732Y17441D03*
X11772Y15787D03*
X12283Y6299D03*
X12598Y1457D03*
X12815Y30236D03*
X12835Y26929D03*
X13071Y14685D03*
Y16339D03*
Y17874D03*
Y26457D03*
X13150Y32874D03*
X13287Y10039D03*
X13425Y31260D03*
X13898Y23524D03*
Y27146D03*
X14055Y1969D03*
X14075Y20079D03*
X15059Y2362D03*
X15118Y26811D03*
X16043Y1102D03*
X17618Y29882D03*
X18504Y8543D03*
X18661Y30433D03*
X19252Y2126D03*
X19370Y20276D03*
X19547Y28720D03*
X19646Y4370D03*
Y4941D03*
X19783Y29035D03*
X20000Y28740D03*
X20079Y4606D03*
X22283Y5748D03*
X22638Y10591D03*
X22756Y2264D03*
X22835Y19606D03*
X23027Y25307D03*
X23031Y15866D03*
X23071Y29921D03*
X23110Y17028D03*
X23130Y11496D03*
X23228Y5315D03*
X23819Y30906D03*
X24134Y15866D03*
X24528Y5984D03*
X24606Y26102D03*
X24646Y21280D03*
X24665Y31024D03*
X24685Y31496D03*
X25591Y13583D03*
Y16811D03*
X25630Y23228D03*
X26102Y32008D03*
X26535Y28051D03*
Y29331D03*
Y32874D03*
X27067Y8543D03*
X27205Y1181D03*
X27244Y5315D03*
Y14961D03*
Y19783D03*
Y24606D03*
X27264Y10138D03*
X27717Y4606D03*
X27736Y1575D03*
Y2992D03*
X27953Y8425D03*
X28150Y10138D03*
Y19783D03*
Y24606D03*
X28976Y5315D03*
X29016Y1280D03*
Y2854D03*
Y4429D03*
X29094Y32559D03*
X29390Y8957D03*
X29528Y14488D03*
X29823Y8957D03*
Y23780D03*
Y27402D03*
Y28701D03*
X30059Y5256D03*
Y32972D03*
X31102Y29055D03*
X32874D03*
G54D23*
X17953Y30000D02*
X17913Y30039D01*
Y30537*
X17823Y30628*
X17163*
X17028Y30492*
G54D24*
X29587Y17657D02*
Y17638D01*
X29742*
X30748Y18996D02*
X31299D01*
Y5610D03*
Y6398D03*
Y7185D03*
Y7972D03*
Y8760D03*
Y9547D03*
Y10335D03*
Y11122D03*
Y11909D03*
Y12697D03*
Y13484D03*
Y14272D03*
Y15059D03*
Y15846D03*
Y16634D03*
Y17421D03*
Y18209D03*
Y18996D03*
Y19783D02*
X30748D01*
X31299D03*
Y20571D03*
Y21358D03*
Y22146D03*
Y22933D02*
X30748D01*
X31299D03*
Y23720D03*
Y24508D03*
Y25295D03*
Y26083D03*
Y26870D03*
Y27657D03*
Y28445D03*
X32087Y5610D03*
Y6398D03*
Y7185D03*
Y7972D03*
Y8760D03*
Y9547D03*
Y10335D03*
Y11122D03*
Y11909D03*
Y12697D03*
Y13484D03*
Y14272D03*
Y15059D03*
Y15846D03*
Y16634D03*
Y17421D03*
Y18209D03*
Y18996D03*
Y19783D02*
X32638D01*
X32087D03*
Y20571D03*
Y21358D03*
Y22146D03*
Y22933D03*
Y23720D03*
Y24508D03*
Y25295D03*
Y26083D03*
Y26870D03*
Y27657D03*
Y28445D03*
X32638Y18996D02*
X32087D01*
G54D25*
X1083Y20827D03*
Y22402D03*
Y23976D03*
X1476Y27972D03*
X1654Y20768D03*
Y22343D03*
Y23917D03*
X2480Y20768D03*
Y21122D03*
Y22343D03*
Y22697D03*
Y23917D03*
Y24272D03*
X2992Y8268D03*
X3051Y27953D03*
X3238Y2717D03*
X3248Y1142D03*
Y4921D03*
Y9528D03*
Y11732D03*
Y12677D03*
Y16654D03*
X3819Y1083D03*
Y2657D03*
Y4232D03*
Y9449D03*
Y11024D03*
Y12598D03*
X4213Y28799D03*
X4331Y25000D03*
X4370Y21142D03*
Y22717D03*
Y24291D03*
X4409Y8307D03*
X4646Y748D03*
Y1083D03*
Y2283D03*
Y2657D03*
Y3858D03*
Y4232D03*
Y9094D03*
Y9449D03*
Y9803D03*
Y10650D03*
Y11024D03*
Y11378D03*
Y12244D03*
Y12598D03*
Y12953D03*
X4665Y1437D03*
Y3012D03*
Y4587D03*
X4823Y16732D03*
X5039Y8051D03*
X5118Y24488D03*
X5197Y18583D03*
X5531Y31378D03*
X5815Y22264D03*
X5906Y29921D03*
Y32205D03*
X5945Y7402D03*
X6102Y22913D03*
X6260Y30394D03*
X6406Y21850D03*
X6417Y19094D03*
X6476Y12598D03*
X6535Y9843D03*
Y11417D03*
Y22913D03*
X6870Y3937D03*
Y4921D03*
X6890Y2008D03*
Y2953D03*
X6949Y18799D03*
X7126Y31378D03*
X7480Y29921D03*
Y32205D03*
X7579Y18681D03*
X7638Y2362D03*
X7795Y7480D03*
X7835Y30394D03*
X8150Y7717D03*
X8169Y12677D03*
Y18681D03*
X8228Y19882D03*
X8268Y5650D03*
X8563Y6378D03*
X8701Y31378D03*
X8780Y22362D03*
X8937Y10020D03*
X9055Y29921D03*
Y32205D03*
X9094Y2126D03*
X9409Y30394D03*
X9547Y22008D03*
X9744Y2126D03*
X10020Y13091D03*
Y13465D03*
X10039Y29941D03*
X10236Y18327D03*
Y18681D03*
X10354Y2953D03*
X10531Y23150D03*
X10709Y31142D03*
X10748Y31614D03*
Y31929D03*
Y32244D03*
X10945Y5728D03*
Y13484D03*
X11102Y19193D03*
X11299Y33366D03*
X11319Y5551D03*
X12323Y9469D03*
Y9823D03*
X12480Y14665D03*
Y16240D03*
Y17795D03*
X12657Y6378D03*
X12913Y2146D03*
X13504Y20768D03*
X13583Y29685D03*
X13760Y31929D03*
X13937Y2657D03*
Y27953D03*
X13957Y9685D03*
Y12402D03*
X14035Y14311D03*
Y15886D03*
Y17461D03*
X14055Y14665D03*
Y15039D03*
Y16240D03*
Y16614D03*
Y17815D03*
X14075Y24193D03*
X14094Y8780D03*
Y9114D03*
X14370Y6378D03*
X14665Y24193D03*
Y30492D03*
X14843Y23327D03*
X14862Y12815D03*
Y13169D03*
X14882Y14665D03*
Y16240D03*
Y17815D03*
X14921Y20748D03*
X14961Y6378D03*
X15059Y9429D03*
X15433Y22795D03*
X15453Y14646D03*
Y16181D03*
Y17756D03*
Y26457D03*
X15748Y9528D03*
Y20551D03*
X15866Y30236D03*
X16043Y19252D03*
Y20157D03*
Y26555D03*
X16417Y28878D03*
X16614Y23937D03*
X16634Y20256D03*
X16752Y2953D03*
X16929Y10236D03*
X17028Y29843D03*
X17618Y5551D03*
Y23622D03*
X18012D03*
X18307Y13819D03*
X18425Y24409D03*
X18465Y2598D03*
X18583Y5906D03*
Y12795D03*
X18602Y13189D03*
X18610Y19902D03*
X18622Y9705D03*
Y27067D03*
X18701Y26201D03*
Y26555D03*
X19291Y24193D03*
X19409Y30118D03*
X19528Y18701D03*
X19823Y6693D03*
Y28406D03*
X19843Y9213D03*
Y26142D03*
X20118Y21535D03*
X20354Y11575D03*
Y13937D03*
Y33228D03*
X20386Y16417D03*
X20394Y23583D03*
Y30866D03*
X21732Y12953D03*
X22283Y22598D03*
Y29862D03*
Y32224D03*
X22323Y8110D03*
Y15394D03*
Y17756D03*
X22598Y20224D03*
X22677Y24291D03*
X23228Y3189D03*
X23346Y20827D03*
X23563Y7008D03*
X23622Y11496D03*
Y13110D03*
Y32402D03*
X24213Y13110D03*
Y22756D03*
Y32402D03*
X24528Y7382D03*
Y12205D03*
Y17028D03*
X24606Y21850D03*
X26496Y15256D03*
X26535Y10059D03*
Y20079D03*
Y24902D03*
X26575Y13957D03*
Y19705D03*
X27205Y18780D03*
X27244Y13957D03*
X27874Y18780D03*
Y28425D03*
X28543Y2657D03*
Y4232D03*
X28996Y689D03*
X29016Y5965D03*
X29724Y21575D03*
Y31220D03*
X29764Y32047D03*
X29980Y728D03*
Y1083D03*
Y2303D03*
Y3878D03*
X30000Y2657D03*
Y4232D03*
Y6693D03*
X30945Y1083D03*
Y2657D03*
Y4232D03*
X31398Y1024D03*
Y2598D03*
Y4173D03*
G54D26*
X1220Y4882D03*
X2362Y10421D03*
X8150Y25669D03*
X11043Y8346D03*
X12283Y7067D03*
X14094Y26378D03*
X17618Y12579D03*
X24488Y10827D03*
X24606Y26673D03*
X25079Y6555D03*
X25591Y7283D03*
Y12008D03*
Y18406D03*
X26063Y22402D03*
Y27244D03*
X27244Y29429D03*
X28071Y14961D03*
X28110Y29429D03*
X29094Y13307D03*
Y18071D03*
Y22913D03*
Y27717D03*
X29134Y7894D03*
X29528Y9646D03*
Y24213D03*
Y28937D03*
X29587Y17657D03*
X29823Y12795D03*
X30138Y19724D03*
X30236Y7559D03*
G54D27*
X28248Y22146D03*
Y26378D03*
Y26969D03*
Y31496D03*
Y31791D03*
G54D28*
X16240Y33858D03*
G54D29*
X1083Y20394D03*
Y21142D03*
Y21969D03*
Y22717D03*
Y23543D03*
Y24291D03*
X2067Y20394D03*
Y20768D03*
Y21142D03*
Y21969D03*
Y22343D03*
Y22717D03*
Y23543D03*
Y23917D03*
Y24291D03*
X3248Y709D03*
Y1457D03*
Y2283D03*
Y3031D03*
Y3858D03*
Y4606D03*
Y9075D03*
Y9823D03*
Y10650D03*
Y11398D03*
Y12224D03*
Y12972D03*
X4232Y709D03*
Y1083D03*
Y1457D03*
Y2283D03*
Y2657D03*
Y3031D03*
Y3858D03*
Y4232D03*
Y4606D03*
Y9075D03*
Y9449D03*
Y9823D03*
Y10650D03*
Y11024D03*
Y11398D03*
Y12224D03*
Y12598D03*
Y12972D03*
X7992Y4547D03*
Y5295D03*
X8976Y4547D03*
Y4921D03*
Y5295D03*
X9744Y14094D03*
Y14843D03*
X10728Y14094D03*
Y14469D03*
Y14843D03*
X14469Y14291D03*
Y14665D03*
Y15039D03*
Y15866D03*
Y16240D03*
Y16614D03*
Y17441D03*
Y17815D03*
Y18189D03*
X15453Y14291D03*
Y15039D03*
Y15866D03*
Y16614D03*
Y17441D03*
Y18189D03*
X23130Y7008D03*
Y7756D03*
Y11831D03*
Y12579D03*
Y16654D03*
Y17402D03*
Y21476D03*
Y22224D03*
Y26299D03*
Y27047D03*
X23248Y31122D03*
Y31870D03*
X24114Y7008D03*
Y7382D03*
Y7756D03*
Y11831D03*
Y12205D03*
Y12579D03*
Y16654D03*
Y17028D03*
Y17402D03*
Y21476D03*
Y21850D03*
Y22224D03*
Y26299D03*
Y26673D03*
Y27047D03*
X24232Y31122D03*
Y31496D03*
Y31870D03*
X25098Y6909D03*
Y7657D03*
Y8386D03*
Y9134D03*
Y11634D03*
Y12382D03*
Y13209D03*
Y13957D03*
Y16457D03*
Y17205D03*
Y18031D03*
Y18780D03*
Y21280D03*
Y22028D03*
Y22854D03*
Y23602D03*
Y26102D03*
Y26850D03*
Y27677D03*
Y28425D03*
Y30925D03*
Y31673D03*
Y32500D03*
Y33248D03*
X26083Y2677D03*
Y3425D03*
Y6909D03*
Y7283D03*
Y7657D03*
Y8386D03*
Y8760D03*
Y9134D03*
Y11634D03*
Y12008D03*
Y12382D03*
Y13209D03*
Y13583D03*
Y13957D03*
Y16457D03*
Y16831D03*
Y17205D03*
Y18031D03*
Y18406D03*
Y18780D03*
Y21280D03*
Y21654D03*
Y22028D03*
Y22854D03*
Y23228D03*
Y23602D03*
Y26102D03*
Y26476D03*
Y26850D03*
Y27677D03*
Y28051D03*
Y28425D03*
Y30925D03*
Y31299D03*
Y31673D03*
Y32500D03*
Y32874D03*
Y33248D03*
X27067Y2677D03*
Y3051D03*
Y3425D03*
X30413Y709D03*
Y1083D03*
Y1457D03*
Y2283D03*
Y2657D03*
Y3031D03*
Y3858D03*
Y4232D03*
Y4606D03*
X31398Y709D03*
Y1457D03*
Y2283D03*
Y3031D03*
Y3858D03*
Y4606D03*
G54D30*
X2953Y20413D03*
Y21122D03*
Y21988D03*
Y22697D03*
Y23563D03*
Y24272D03*
X5118Y728D03*
Y1437D03*
Y2303D03*
Y3012D03*
Y3878D03*
Y4587D03*
Y9094D03*
Y9803D03*
Y10669D03*
Y11378D03*
Y12244D03*
Y12953D03*
X10236Y31142D03*
Y31850D03*
X13583Y14311D03*
Y15020D03*
Y15886D03*
Y16594D03*
Y17461D03*
Y18169D03*
Y30059D03*
Y30768D03*
X22244Y2598D03*
Y3307D03*
X25689Y1220D03*
Y1929D03*
X29528Y728D03*
Y1437D03*
Y2303D03*
Y3012D03*
Y3878D03*
Y4587D03*
Y5256D03*
Y5965D03*
Y10079D03*
Y10787D03*
Y14902D03*
Y15610D03*
Y19724D03*
Y20433D03*
Y24646D03*
Y25354D03*
Y29370D03*
Y30079D03*
G54D31*
X31102Y29567D03*
Y30276D03*
X32874Y29567D03*
Y30276D03*
G54D32*
X30669Y29488D03*
Y30354D03*
X31535Y29488D03*
Y30354D03*
X32441Y29488D03*
Y30354D03*
X33307Y29488D03*
Y30354D03*
G54D33*
X27461Y6909D03*
Y7224D03*
Y7539D03*
Y7854D03*
Y11732D03*
Y12047D03*
Y12362D03*
Y12677D03*
Y16555D03*
Y16870D03*
Y17185D03*
Y17500D03*
Y21378D03*
Y21693D03*
Y22008D03*
Y22323D03*
Y26201D03*
Y26516D03*
Y26831D03*
Y27146D03*
Y31024D03*
Y31339D03*
Y31654D03*
Y31969D03*
X28642Y6909D03*
Y7224D03*
Y7539D03*
Y7854D03*
Y11732D03*
Y12047D03*
Y12362D03*
Y12677D03*
Y16555D03*
Y16870D03*
Y17185D03*
Y17500D03*
Y21378D03*
Y21693D03*
Y22008D03*
Y22323D03*
Y26201D03*
Y26516D03*
Y26831D03*
Y27146D03*
Y31024D03*
Y31339D03*
Y31654D03*
Y31969D03*
X30787Y31142D03*
Y31457D03*
X31417Y31142D03*
Y31457D03*
X32559Y31142D03*
Y31457D03*
X33189Y31142D03*
Y31457D03*
G54D34*
X27854Y7382D03*
Y12205D03*
Y17028D03*
Y21850D03*
Y26673D03*
Y31496D03*
X28248Y7382D03*
Y12205D03*
Y17028D03*
Y21850D03*
Y26673D03*
Y31496D03*
G54D35*
X787Y25906D03*
Y26260D03*
Y27087D03*
Y27441D03*
X1378Y24921D03*
Y25276D03*
X1398Y25787D03*
Y26378D03*
Y26969D03*
Y27559D03*
X1752Y25787D03*
Y26378D03*
Y26969D03*
Y27559D03*
X2362Y3760D03*
Y4114D03*
X2756Y28189D03*
Y28543D03*
X3150Y13504D03*
Y13858D03*
X3169Y14370D03*
Y14862D03*
Y15354D03*
Y15846D03*
Y16339D03*
X3268Y5807D03*
Y6398D03*
Y6988D03*
Y7579D03*
X3524Y14370D03*
Y14862D03*
Y15354D03*
Y15846D03*
Y16339D03*
X3622Y5807D03*
Y6398D03*
Y6988D03*
Y7579D03*
X3661Y25000D03*
Y25492D03*
X4016Y25000D03*
Y25492D03*
X4252Y5217D03*
X4528Y16752D03*
Y17106D03*
X4606Y5217D03*
X4724Y7992D03*
Y8346D03*
X5531Y13878D03*
X5728Y19685D03*
Y20276D03*
X5886Y13878D03*
X5925Y5217D03*
X5945Y27657D03*
Y28012D03*
X6083Y19685D03*
Y20276D03*
X6102Y22264D03*
Y22618D03*
X6280Y5217D03*
X6693Y22264D03*
Y22618D03*
X6713Y17126D03*
X6890Y21083D03*
Y21437D03*
X6909Y8366D03*
X7067Y17126D03*
X7264Y8366D03*
X7283Y18327D03*
Y18681D03*
X7776Y13799D03*
Y14154D03*
X7795Y1181D03*
Y2657D03*
Y3248D03*
Y3839D03*
X7874Y18327D03*
Y18681D03*
X8150Y1181D03*
Y2657D03*
Y3248D03*
Y3839D03*
X8268Y6024D03*
Y6378D03*
X8287Y19587D03*
Y20177D03*
X8366Y13799D03*
Y14154D03*
X8465Y18327D03*
Y18681D03*
Y22264D03*
Y22618D03*
X8563Y9665D03*
Y10020D03*
Y25709D03*
Y26063D03*
X8642Y19587D03*
Y20177D03*
X8858Y6024D03*
Y6378D03*
X9449Y1791D03*
Y2146D03*
X9646Y13110D03*
Y13465D03*
X9744Y25709D03*
Y26063D03*
X10020Y9094D03*
X10039Y1791D03*
Y2146D03*
Y30236D03*
Y30591D03*
X10059Y32874D03*
X10354Y2657D03*
Y3248D03*
Y3839D03*
X10374Y9094D03*
X10413Y32874D03*
X10531Y18327D03*
Y18681D03*
Y19705D03*
Y20059D03*
Y22264D03*
Y22618D03*
X10551Y12598D03*
Y13189D03*
X10630Y1791D03*
Y2146D03*
Y5728D03*
Y6083D03*
Y30236D03*
Y30591D03*
X10709Y2657D03*
Y3248D03*
Y3839D03*
X10906Y12598D03*
Y13189D03*
X11024Y32500D03*
Y32854D03*
X11614Y32500D03*
Y32854D03*
X11634Y33366D03*
X11988D03*
X12008Y9469D03*
Y9823D03*
X12205Y32500D03*
Y32854D03*
X12598Y1791D03*
Y2146D03*
Y3169D03*
Y3524D03*
Y5728D03*
Y6083D03*
X12618Y33366D03*
X12795Y32500D03*
Y32854D03*
X12972Y33366D03*
X13012Y10433D03*
Y11024D03*
Y11614D03*
Y12205D03*
X13366Y10433D03*
Y11024D03*
Y11614D03*
Y12205D03*
X13386Y12815D03*
Y13169D03*
X13406Y31594D03*
X13583Y28957D03*
Y29311D03*
X13760Y31594D03*
X13976Y12815D03*
Y13169D03*
X13996Y20817D03*
Y21358D03*
Y21949D03*
X14193Y28445D03*
Y28937D03*
X14350Y20817D03*
Y21358D03*
Y21949D03*
X14370Y5728D03*
Y6083D03*
Y23839D03*
Y24193D03*
Y27579D03*
Y27933D03*
X14390Y2657D03*
Y3248D03*
Y3839D03*
X14488Y9843D03*
Y10433D03*
Y11024D03*
Y11614D03*
X14547Y28445D03*
Y28937D03*
X14567Y12815D03*
Y13169D03*
X14744Y2657D03*
Y3248D03*
Y3839D03*
X14843Y9843D03*
Y10433D03*
Y11024D03*
Y11614D03*
X14961Y5728D03*
Y6083D03*
Y23839D03*
Y24193D03*
Y30138D03*
Y30492D03*
X15551Y30138D03*
Y30492D03*
X15650Y1791D03*
Y2146D03*
X15748Y8878D03*
Y9232D03*
Y19902D03*
Y20256D03*
Y26201D03*
Y26555D03*
X15945Y22657D03*
Y23012D03*
X16240Y1791D03*
Y2146D03*
X16339Y8878D03*
Y9232D03*
Y12815D03*
Y13169D03*
Y19902D03*
Y20256D03*
Y26201D03*
Y26555D03*
X16654Y21161D03*
Y21752D03*
X16752Y2657D03*
Y3248D03*
Y3839D03*
Y9941D03*
Y10531D03*
Y11122D03*
X16811Y28760D03*
Y29114D03*
X16831Y1791D03*
Y2146D03*
X16929Y5728D03*
Y6083D03*
Y8878D03*
Y9232D03*
Y19902D03*
Y20256D03*
Y23839D03*
Y24193D03*
Y26201D03*
Y26555D03*
Y27579D03*
Y27933D03*
X17008Y21161D03*
Y21752D03*
X17028Y30138D03*
Y30492D03*
X17106Y2657D03*
Y3248D03*
Y3839D03*
Y9941D03*
Y10531D03*
Y11122D03*
X17126Y12815D03*
Y13169D03*
X18602Y8878D03*
Y9232D03*
X18898Y1791D03*
Y2146D03*
Y3169D03*
Y3524D03*
Y5728D03*
Y6083D03*
Y12815D03*
Y13169D03*
X18996Y19902D03*
Y20256D03*
Y21280D03*
Y21634D03*
Y23839D03*
Y24193D03*
Y26201D03*
Y26555D03*
Y27579D03*
Y27933D03*
Y30138D03*
Y30492D03*
X21280Y689D03*
X21634D03*
X22067Y1969D03*
X22146Y4055D03*
Y4409D03*
X22264Y689D03*
X22421Y1969D03*
X22618Y689D03*
X23031Y8583D03*
Y8937D03*
Y13406D03*
Y13760D03*
Y18228D03*
Y18583D03*
Y23051D03*
Y23406D03*
Y28071D03*
Y28425D03*
Y32697D03*
Y33051D03*
X23228Y709D03*
Y1063D03*
X23622Y8583D03*
Y8937D03*
Y13406D03*
Y13760D03*
Y18228D03*
Y18583D03*
Y23051D03*
Y23406D03*
Y28071D03*
Y28425D03*
Y32697D03*
Y33051D03*
X23819Y709D03*
Y1063D03*
X24213Y8583D03*
Y8937D03*
Y13406D03*
Y13760D03*
Y18228D03*
Y18583D03*
Y23051D03*
Y23406D03*
Y28071D03*
Y28425D03*
Y32697D03*
Y33051D03*
X24409Y709D03*
Y1063D03*
X25000Y709D03*
Y1063D03*
X25512Y2579D03*
Y2933D03*
X26102Y4114D03*
Y4469D03*
X26772Y8780D03*
Y9134D03*
X26870Y5236D03*
Y5591D03*
Y6417D03*
Y6772D03*
Y7598D03*
Y7953D03*
Y10059D03*
Y10413D03*
Y11240D03*
Y11594D03*
Y12421D03*
Y12776D03*
Y13602D03*
Y13957D03*
Y14882D03*
Y15236D03*
Y16063D03*
Y16417D03*
Y17244D03*
Y17598D03*
Y18425D03*
Y18780D03*
Y19705D03*
Y20059D03*
Y20886D03*
Y21240D03*
Y22067D03*
Y22421D03*
Y23248D03*
Y23602D03*
Y24528D03*
Y24882D03*
Y25709D03*
Y26063D03*
Y26811D03*
Y27165D03*
Y28071D03*
Y28425D03*
Y29350D03*
Y29705D03*
Y30531D03*
Y30886D03*
Y31713D03*
Y32067D03*
Y32894D03*
Y33248D03*
X27362Y8780D03*
Y9134D03*
X27559Y13602D03*
Y13957D03*
Y18425D03*
Y18780D03*
Y23248D03*
Y23602D03*
Y28071D03*
Y28425D03*
Y32894D03*
Y33248D03*
X27953Y8780D03*
Y9134D03*
X29350Y6693D03*
Y11614D03*
Y16437D03*
Y21260D03*
Y26181D03*
Y30906D03*
X29705Y6693D03*
Y11614D03*
Y16437D03*
Y21260D03*
Y26181D03*
Y30906D03*
G54D36*
X1476Y28346D03*
X2067D03*
X3248Y17028D03*
X3346Y8268D03*
X3839Y17028D03*
X3937Y8268D03*
X5965Y18504D03*
X6555D03*
X8071Y1969D03*
X8661D03*
X9154Y22441D03*
X9744D03*
X11319Y5906D03*
X11909D03*
X12697Y9646D03*
X13287D03*
X14469Y1969D03*
Y9055D03*
Y20079D03*
X14508Y26378D03*
X15059Y1969D03*
Y9055D03*
Y20079D03*
X15098Y26378D03*
X17618Y5906D03*
Y12992D03*
Y24016D03*
Y30315D03*
X18209Y5906D03*
Y12992D03*
Y24016D03*
Y30315D03*
X21752Y1378D03*
X22343D03*
G54D37*
X29724Y32382D03*
Y32972D03*
X29823Y13189D03*
Y13780D03*
Y18012D03*
Y18602D03*
Y22835D03*
Y23425D03*
Y27756D03*
Y28346D03*
G54D38*
X5531Y29941D03*
X5906Y29114D03*
X6280Y29941D03*
X7106D03*
X7480Y29114D03*
X7854Y29941D03*
X8681D03*
X9055Y29114D03*
X9429Y29941D03*
X23248Y10020D03*
Y14843D03*
Y19665D03*
Y24488D03*
Y29311D03*
X23622Y10846D03*
Y15669D03*
Y20492D03*
Y25315D03*
Y30138D03*
X23996Y10020D03*
Y14843D03*
Y19665D03*
Y24488D03*
Y29311D03*
G54D39*
X20098Y5254D03*
Y5754D03*
Y6254D03*
Y6754D03*
Y7616D03*
Y8116D03*
Y8616D03*
Y9116D03*
Y10077D03*
Y10577D03*
Y11077D03*
Y11577D03*
Y12439D03*
Y12939D03*
Y13439D03*
Y13939D03*
Y14900D03*
Y15400D03*
Y15900D03*
Y16400D03*
Y17262D03*
Y17762D03*
Y18262D03*
Y18762D03*
Y19722D03*
Y20222D03*
Y20722D03*
Y21222D03*
Y22085D03*
Y22585D03*
Y23085D03*
Y23585D03*
Y24545D03*
Y25045D03*
Y25545D03*
Y26045D03*
Y26907D03*
Y27407D03*
Y27907D03*
Y28407D03*
Y29368D03*
Y29868D03*
Y30368D03*
Y30868D03*
Y31730D03*
Y32230D03*
Y32730D03*
Y33230D03*
X22028Y5254D03*
Y5754D03*
Y6254D03*
Y6754D03*
Y7616D03*
Y8116D03*
Y8616D03*
Y9116D03*
Y10077D03*
Y10577D03*
Y11077D03*
Y11577D03*
Y12439D03*
Y12939D03*
Y13439D03*
Y13939D03*
Y14900D03*
Y15400D03*
Y15900D03*
Y16400D03*
Y17262D03*
Y17762D03*
Y18262D03*
Y18762D03*
Y19722D03*
Y20222D03*
Y20722D03*
Y21222D03*
Y22085D03*
Y22585D03*
Y23085D03*
Y23585D03*
Y24545D03*
Y25045D03*
Y25545D03*
Y26045D03*
Y26907D03*
Y27407D03*
Y27907D03*
Y28407D03*
Y29368D03*
Y29868D03*
Y30368D03*
Y30868D03*
Y31730D03*
Y32230D03*
Y32730D03*
Y33230D03*
G54D40*
X5531Y31791D03*
Y32776D03*
X5906Y31791D03*
X6280D03*
Y32776D03*
X7106Y31791D03*
Y32776D03*
X7480Y31791D03*
X7795Y12106D03*
Y13091D03*
X7854Y31791D03*
Y32776D03*
X8169Y13091D03*
X8543Y12106D03*
Y13091D03*
X8681Y31791D03*
Y32776D03*
X9055Y31791D03*
X9429D03*
Y32776D03*
G54D41*
X9154Y18248D03*
Y18760D03*
Y19626D03*
Y20138D03*
Y20925D03*
Y21437D03*
X9350Y18248D03*
Y18760D03*
Y19626D03*
Y20138D03*
Y20925D03*
Y21437D03*
X9547Y18248D03*
Y18760D03*
Y19626D03*
Y20138D03*
Y20925D03*
Y21437D03*
X9744Y18248D03*
Y18760D03*
Y19626D03*
Y20138D03*
Y20925D03*
Y21437D03*
X11319Y1713D03*
Y2224D03*
Y3091D03*
Y3602D03*
Y4469D03*
Y4980D03*
X11516Y1713D03*
Y2224D03*
Y3091D03*
Y3602D03*
Y4469D03*
Y4980D03*
X11713Y1713D03*
Y2224D03*
Y3091D03*
Y3602D03*
Y4469D03*
Y4980D03*
X11909Y1713D03*
Y2224D03*
Y3091D03*
Y3602D03*
Y4469D03*
Y4980D03*
X17618Y1713D03*
Y2224D03*
Y3091D03*
Y3602D03*
Y4469D03*
Y4980D03*
Y8799D03*
Y9311D03*
Y10177D03*
Y10689D03*
Y11555D03*
Y12067D03*
Y19823D03*
Y20335D03*
Y21201D03*
Y21713D03*
Y22579D03*
Y23091D03*
Y26122D03*
Y26634D03*
Y27500D03*
Y28012D03*
Y28878D03*
Y29390D03*
X17815Y1713D03*
Y2224D03*
Y3091D03*
Y3602D03*
Y4469D03*
Y4980D03*
Y8799D03*
Y9311D03*
Y10177D03*
Y10689D03*
Y11555D03*
Y12067D03*
Y19823D03*
Y20335D03*
Y21201D03*
Y21713D03*
Y22579D03*
Y23091D03*
Y26122D03*
Y26634D03*
Y27500D03*
Y28012D03*
Y28878D03*
Y29390D03*
X18012Y1713D03*
Y2224D03*
Y3091D03*
Y3602D03*
Y4469D03*
Y4980D03*
Y8799D03*
Y9311D03*
Y10177D03*
Y10689D03*
Y11555D03*
Y12067D03*
Y19823D03*
Y20335D03*
Y21201D03*
Y21713D03*
Y22579D03*
Y23091D03*
Y26122D03*
Y26634D03*
Y27500D03*
Y28012D03*
Y28878D03*
Y29390D03*
X18209Y1713D03*
Y2224D03*
Y3091D03*
Y3602D03*
Y4469D03*
Y4980D03*
Y8799D03*
Y9311D03*
Y10177D03*
Y10689D03*
Y11555D03*
Y12067D03*
Y19823D03*
Y20335D03*
Y21201D03*
Y21713D03*
Y22579D03*
Y23091D03*
Y26122D03*
Y26634D03*
Y27500D03*
Y28012D03*
Y28878D03*
Y29390D03*
G54D42*
X25098Y5433D03*
Y5807D03*
Y6181D03*
Y10059D03*
Y10433D03*
Y10807D03*
Y14882D03*
Y15256D03*
Y15630D03*
Y19705D03*
Y20079D03*
Y20453D03*
Y24528D03*
Y24902D03*
Y25276D03*
Y29350D03*
Y29724D03*
Y30098D03*
X26083Y5433D03*
Y5807D03*
Y6181D03*
Y10059D03*
Y10433D03*
Y10807D03*
Y14882D03*
Y15256D03*
Y15630D03*
Y19705D03*
Y20079D03*
Y20453D03*
Y24528D03*
Y24902D03*
Y25276D03*
Y29350D03*
Y29724D03*
Y30098D03*
G54D43*
X2008Y25098D03*
X2717D03*
X3484Y28346D03*
X3976Y13681D03*
X4193Y28346D03*
X4685Y13681D03*
X5256Y16929D03*
X5453Y8169D03*
X5551Y30906D03*
X5965Y16929D03*
X6161Y8169D03*
X6260Y30906D03*
X7126D03*
X7835D03*
X8701D03*
X9409D03*
X10571Y9646D03*
X11280D03*
X12047Y12992D03*
X12756D03*
X28386Y13839D03*
Y18602D03*
Y23425D03*
Y28248D03*
Y33071D03*
X28681Y8957D03*
X29094Y13839D03*
Y18602D03*
Y23425D03*
Y28248D03*
Y33071D03*
X29390Y8957D03*
G54D44*
X8937Y2815D03*
Y3681D03*
X9567Y2815D03*
Y3681D03*
X15433Y2815D03*
Y3681D03*
Y10098D03*
Y10965D03*
X16063Y2815D03*
Y3681D03*
Y10098D03*
Y10965D03*
G54D45*
X6752Y19567D03*
Y20197D03*
X7618Y19567D03*
Y20197D03*
X15020Y21142D03*
Y21772D03*
X15217Y27441D03*
Y28071D03*
X15886Y21142D03*
Y21772D03*
X16083Y27441D03*
Y28071D03*
X26673Y1181D03*
Y1969D03*
G54D46*
X3051Y26772D03*
X4823Y15354D03*
X5020Y6594D03*
X11713Y11220D03*
G54D47*
X2362Y25965D03*
Y27579D03*
X2559D03*
X2756Y25965D03*
Y27579D03*
X2953Y25965D03*
Y27579D03*
X3150Y25965D03*
Y27579D03*
X3346Y25965D03*
Y27579D03*
X3543Y25965D03*
Y27579D03*
X3740Y25965D03*
Y27579D03*
X4134Y14547D03*
Y16161D03*
X4331Y5787D03*
Y7402D03*
Y16161D03*
X4528Y7402D03*
Y14547D03*
Y16161D03*
X4724Y5787D03*
Y7402D03*
Y14547D03*
Y16161D03*
X4921Y5787D03*
Y7402D03*
Y14547D03*
Y16161D03*
X5118Y5787D03*
Y7402D03*
Y14547D03*
Y16161D03*
X5315Y5787D03*
Y7402D03*
Y14547D03*
Y16161D03*
X5512Y5787D03*
Y7402D03*
Y14547D03*
Y16161D03*
X5709Y5787D03*
Y7402D03*
X11024Y10413D03*
Y12028D03*
X11220Y10413D03*
Y12028D03*
X11417Y10413D03*
Y12028D03*
X11614Y10413D03*
Y12028D03*
X11811Y10413D03*
Y12028D03*
X12008Y10413D03*
Y12028D03*
X12205Y10413D03*
X12402D03*
Y12028D03*
G54D48*
X2559Y25965D03*
X4331Y14547D03*
X4528Y5787D03*
X12205Y12028D03*
G54D49*
X15197Y12343D03*
X15453Y13071D03*
X15709Y12343D03*
G54D50*
X7520Y21004D03*
Y21516D03*
X8248Y21260D03*
X9872Y4675D03*
Y5187D03*
X10600Y4931D03*
X14390Y22835D03*
X15118Y22579D03*
Y23091D03*
X15276Y29134D03*
X16004Y28878D03*
Y29390D03*
X16181Y4370D03*
Y4882D03*
X16909Y4626D03*
G54D51*
X11220Y29331D03*
X23425Y4232D03*
G54D52*
X12402Y29331D03*
X24606Y4232D03*
G54D53*
X4921Y27559D03*
X6693Y15945D03*
X6988Y7185D03*
X9744Y11811D03*
G54D54*
X4921Y26378D03*
X6693Y14764D03*
X6988Y6004D03*
X9744Y10630D03*
G54D55*
X29272Y7480D03*
Y12402D03*
Y17224D03*
Y22047D03*
Y26969D03*
Y31693D03*
X29783Y7480D03*
Y12402D03*
Y17224D03*
Y22047D03*
Y26969D03*
Y31693D03*
G54D56*
X12008Y31201D03*
X24016Y2264D03*
G54D57*
X11201Y30512D03*
Y30709D03*
Y30906D03*
Y31102D03*
Y31299D03*
Y31496D03*
Y31890D03*
X12815Y30512D03*
Y30709D03*
Y30906D03*
Y31102D03*
Y31299D03*
Y31496D03*
Y31693D03*
Y31890D03*
X23209Y1575D03*
Y1772D03*
Y1969D03*
Y2165D03*
Y2362D03*
Y2559D03*
Y2756D03*
Y2953D03*
X24823Y1575D03*
Y1969D03*
Y2165D03*
Y2362D03*
Y2559D03*
Y2756D03*
Y2953D03*
G54D58*
X11201Y31693D03*
X24823Y1772D03*
G54D59*
X29232Y8268D03*
X29823D03*
G54D60*
X30748Y5610D03*
Y6398D03*
Y7185D03*
Y7972D03*
Y8760D03*
Y9547D03*
Y10335D03*
Y11122D03*
Y11909D03*
Y12697D03*
Y13484D03*
Y14272D03*
Y15059D03*
Y15846D03*
Y16634D03*
Y17421D03*
Y18209D03*
Y18996D03*
Y19783D03*
Y20571D03*
Y21358D03*
Y22146D03*
Y22933D03*
Y23720D03*
Y24508D03*
Y25295D03*
Y26083D03*
Y26870D03*
Y27657D03*
Y28445D03*
X32638Y5610D03*
Y6398D03*
Y7185D03*
Y7972D03*
Y8760D03*
Y9547D03*
Y10335D03*
Y11122D03*
Y11909D03*
Y12697D03*
Y13484D03*
Y14272D03*
Y15059D03*
Y15846D03*
Y16634D03*
Y17421D03*
Y18209D03*
Y18996D03*
Y19783D03*
Y20571D03*
Y21358D03*
Y22146D03*
Y22933D03*
Y23720D03*
Y24508D03*
Y25295D03*
Y26083D03*
Y26870D03*
Y27657D03*
Y28445D03*
G54D70*
X29823Y22146D02*
X30748D01*
Y5610D02*
X31299D01*
X30748Y7185D02*
X31299D01*
X30748Y22146D02*
X31299D01*
Y5610D02*
X32087D01*
X31299Y7185D02*
X32087D01*
X31374Y22146D02*
X31969D01*
X32087Y5610D02*
X32638D01*
X32087Y7185D02*
X32638D01*
X32087Y22146D02*
X32638D01*
G54D71*
X3140Y25517D02*
X3044D01*
X2953Y25608*
Y25965*
X3150Y25512D02*
X3248D01*
X3346Y25610*
Y25965*
X3937Y5394D02*
Y5276D01*
X3996Y5217*
X3937Y5157*
X4016Y25492D02*
X4066D01*
Y25902*
X4057D02*
X4066D01*
X4100*
X4252Y5217D02*
X3996D01*
X11201Y30906D02*
X10945D01*
X10709Y31142*
X11201Y31299D02*
X10866D01*
X10709Y31142*
X23130Y17008D02*
Y17026D01*
X23467*
X23507Y17066*
Y17523*
X23031Y17998*
Y18228*
X27461Y7539D02*
X27182D01*
X27146Y7575*
Y7883*
X27077Y7953*
X26870*
X30669Y29488D02*
X30242D01*
X30122Y29368*
Y27717*
X30181Y27657*
X30748*
X31299Y25295D02*
X32087D01*
X31299Y27657D02*
X32087D01*
X31535Y28445D02*
X32087D01*
X31535Y29488D02*
Y28445D01*
X32087Y26083D02*
X31299D01*
X32441Y29488D02*
Y28972D01*
X32633Y28779*
X33212*
X33290Y28701*
Y26151*
X33222Y26083*
X32638*
Y25295D02*
X33239D01*
X33530Y25586*
Y29465*
X33507Y29488*
X33307*
X32638Y28445D02*
X32087D01*
G54D72*
X13543Y32283D03*
Y32874D03*
X27657Y5315D03*
Y5906D03*
Y10138D03*
Y10728D03*
Y14961D03*
Y15551D03*
Y19783D03*
Y20374D03*
Y24606D03*
Y25197D03*
Y29429D03*
Y30020D03*
X28543Y5315D03*
Y5906D03*
Y10138D03*
Y10728D03*
Y14961D03*
Y15551D03*
Y19783D03*
Y20374D03*
Y24606D03*
Y25197D03*
Y29429D03*
Y30020D03*
G54D73*
X3917Y20394D03*
Y21142D03*
Y21969D03*
Y22717D03*
Y23543D03*
Y24291D03*
X4744Y20768D03*
Y22343D03*
Y23917D03*
X6083Y709D03*
Y1457D03*
Y2283D03*
Y3031D03*
Y3858D03*
Y4606D03*
Y9075D03*
Y9823D03*
Y10650D03*
Y11398D03*
Y12224D03*
Y12972D03*
X6909Y1083D03*
Y2657D03*
Y4232D03*
Y9449D03*
Y11024D03*
Y12598D03*
X11791Y14665D03*
Y16240D03*
Y17815D03*
X12618Y14291D03*
Y15039D03*
Y15866D03*
Y16614D03*
Y17441D03*
Y18189D03*
X23209Y5807D03*
X24035Y5433D03*
Y6181D03*
X27736Y1083D03*
Y2657D03*
Y4232D03*
X28563Y709D03*
Y1457D03*
Y2283D03*
Y3031D03*
Y3858D03*
Y4606D03*
M02*
