*
G04 Job   : C:\Mentor_proj\450\PCB\450.pcb*
G04 User  : WINDOWS-XP:user*
G04 Layer : SilkscreenBottom.gdo*
G04 Date  : Fri Dec 16 16:25:48 2022*
G04 Mentor Graphics Example Gerber Output Definition*
%ICAS*%
%MOIN*%
%FSLAX24Y24*%
%OFA0.0000B0.0000*%
G90*
G74*
%ADD10C,0.00197*%
%ADD13C,0.00394*%
%ADD14C,0.00591*%
%ADD11C,0.00787*%
%ADD12C,0.00984*%
G01*
G54D10*
X33366D02*
X34055Y689D01*
Y33366*
X33366Y34055*
X689*
X0Y33366*
Y689*
X689Y0*
X33366*
X34055Y689D02*
X33366Y0D01*
X689*
X0Y689*
Y33366*
X689Y34055*
X33366*
X34055Y33366*
Y689*
G54D11*
X2461Y20177D02*
X2657D01*
Y21358*
X2461*
Y20177*
Y21752D02*
X2657D01*
Y22933*
X2461*
Y21752*
Y23327D02*
X2657D01*
Y24508*
X2461*
Y23327*
X2657Y20177D02*
X2461D01*
Y21358*
X2657*
Y20177*
Y21752D02*
X2461D01*
Y22933*
X2657*
Y21752*
Y23327D02*
X2461D01*
Y24508*
X2657*
Y23327*
X3189Y24823D02*
X3110D01*
X3189*
Y25374D02*
X3110D01*
X3189*
X3937Y5177D02*
Y5650D01*
Y5177*
X4331Y20177D02*
Y21358D01*
Y20177*
Y21752D02*
Y22933D01*
Y21752*
Y23327D02*
Y24508D01*
Y23327*
X4528Y25295D02*
X5709D01*
Y25492*
X4528*
Y25295*
X4626Y492D02*
X4823D01*
Y984*
X4626*
Y492*
Y984D02*
X4823D01*
Y1673*
X4626*
Y984*
Y2067D02*
X4823D01*
Y3248*
X4626*
Y2067*
Y3642D02*
X4823D01*
Y4823*
X4626*
Y3642*
Y8858D02*
X4823D01*
Y10039*
X4626*
Y8858*
Y10433D02*
X4823D01*
Y11614*
X4626*
Y10433*
Y12008D02*
X4823D01*
Y13189*
X4626*
Y12008*
X4823Y2067D02*
X4626D01*
Y3248*
X4823*
Y2067*
Y3642D02*
X4626D01*
Y4823*
X4823*
Y3642*
Y8858D02*
X4626D01*
Y10039*
X4823*
Y8858*
Y10433D02*
X4626D01*
Y11614*
X4823*
Y10433*
Y12008D02*
X4626D01*
Y13189*
X4823*
Y12008*
X5157Y13406D02*
X5079D01*
X5157*
Y13957D02*
X5079D01*
X5157*
X5315Y31201D02*
X6496D01*
Y31398*
X5315*
Y31201*
X5551Y5138D02*
X5472D01*
X5551*
Y5689D02*
X5472D01*
X5551*
X5709Y25295D02*
X4528D01*
Y25492*
X5709*
Y25295*
X6496Y2067D02*
Y3248D01*
Y2067*
Y3642D02*
Y4823D01*
Y3642*
Y8858D02*
Y10039D01*
Y8858*
Y10433D02*
Y11614D01*
Y10433*
Y12008D02*
Y13189D01*
Y12008*
Y29528D02*
X5315D01*
X6496*
Y31201D02*
X5315D01*
Y31398*
X6496*
Y31201*
X6890D02*
X8071D01*
Y31398*
X6890*
Y31201*
X8071Y29528D02*
X6890D01*
X8071*
Y31201D02*
X6890D01*
Y31398*
X8071*
Y31201*
X8465D02*
X9646D01*
Y31398*
X8465*
Y31201*
X9646Y29528D02*
X8465D01*
X9646*
Y31201D02*
X8465D01*
Y31398*
X9646*
Y31201*
X9961Y31457D02*
Y31535D01*
Y31457*
X10512D02*
Y31535D01*
Y31457*
X11220Y32579D02*
X11417D01*
Y33071*
X11220*
Y32579*
Y33071D02*
X11417D01*
Y33760*
X11220*
Y33071*
X12205Y14075D02*
Y15256D01*
Y14075*
Y15650D02*
Y16831D01*
Y15650*
Y17224D02*
Y18406D01*
Y17224*
X12441Y13307D02*
X12362D01*
X12441*
Y13858D02*
X12362D01*
X12441*
X13878Y14075D02*
X14075D01*
Y15256*
X13878*
Y14075*
Y15650D02*
X14075D01*
Y16831*
X13878*
Y15650*
Y17224D02*
X14075D01*
Y18406*
X13878*
Y17224*
X14075Y14075D02*
X13878D01*
Y15256*
X14075*
Y14075*
Y15650D02*
X13878D01*
Y16831*
X14075*
Y15650*
Y17224D02*
X13878D01*
Y18406*
X14075*
Y17224*
X16457Y17028D02*
X984D01*
Y1645*
Y17028*
X394*
X984*
Y32410*
Y17028*
X16457*
X20453Y5512D02*
X21673D01*
Y6299*
X20610*
X20453Y6142*
Y5512*
Y6142D02*
X20610Y6299D01*
X20571*
X20453Y6181*
Y6142*
Y6181D02*
X20571Y6299D01*
X20531*
X20453Y6220*
Y6181*
Y6220D02*
X20531Y6299D01*
X20492*
X20453Y6260*
Y6220*
Y6260D02*
X20492Y6299D01*
X20453*
Y6260*
Y8071D02*
X21673D01*
Y8858*
X20610*
X20453Y8701*
Y8071*
Y8701D02*
X20610Y8858D01*
X20571*
X20453Y8740*
Y8701*
Y8740D02*
X20571Y8858D01*
X20531*
X20453Y8780*
Y8740*
Y8780D02*
X20531Y8858D01*
X20492*
X20453Y8819*
Y8780*
Y8819D02*
X20492Y8858D01*
X20453*
Y8819*
Y10433D02*
X21673D01*
Y11220*
X20610*
X20453Y11063*
Y10433*
Y11063D02*
X20610Y11220D01*
X20571*
X20453Y11102*
Y11063*
Y11102D02*
X20571Y11220D01*
X20531*
X20453Y11142*
Y11102*
Y11142D02*
X20531Y11220D01*
X20492*
X20453Y11181*
Y11142*
Y11181D02*
X20492Y11220D01*
X20453*
Y11181*
Y12795D02*
X21673D01*
Y13583*
X20610*
X20453Y13425*
Y12795*
Y13425D02*
X20610Y13583D01*
X20571*
X20453Y13465*
Y13425*
Y13465D02*
X20571Y13583D01*
X20531*
X20453Y13504*
Y13465*
Y13504D02*
X20531Y13583D01*
X20492*
X20453Y13543*
Y13504*
Y13543D02*
X20492Y13583D01*
X20453*
Y13543*
Y15157D02*
X21673D01*
Y15945*
X20610*
X20453Y15787*
Y15157*
Y15787D02*
X20610Y15945D01*
X20571*
X20453Y15827*
Y15787*
Y15827D02*
X20571Y15945D01*
X20531*
X20453Y15866*
Y15827*
Y15866D02*
X20531Y15945D01*
X20492*
X20453Y15906*
Y15866*
Y15906D02*
X20492Y15945D01*
X20453*
Y15906*
Y17520D02*
X21673D01*
Y18307*
X20610*
X20453Y18150*
Y17520*
Y18150D02*
X20610Y18307D01*
X20571*
X20453Y18189*
Y18150*
Y18189D02*
X20571Y18307D01*
X20531*
X20453Y18228*
Y18189*
Y18228D02*
X20531Y18307D01*
X20492*
X20453Y18268*
Y18228*
Y18268D02*
X20492Y18307D01*
X20453*
Y18268*
Y20079D02*
X21673D01*
Y20866*
X20610*
X20453Y20709*
Y20079*
Y20709D02*
X20610Y20866D01*
X20571*
X20453Y20748*
Y20709*
Y20748D02*
X20571Y20866D01*
X20531*
X20453Y20787*
Y20748*
Y20787D02*
X20531Y20866D01*
X20492*
X20453Y20827*
Y20787*
Y20827D02*
X20492Y20866D01*
X20453*
Y20827*
Y22441D02*
X21673D01*
Y23228*
X20610*
X20453Y23071*
Y22441*
Y23071D02*
X20610Y23228D01*
X20571*
X20453Y23110*
Y23071*
Y23110D02*
X20571Y23228D01*
X20531*
X20453Y23150*
Y23110*
Y23150D02*
X20531Y23228D01*
X20492*
X20453Y23189*
Y23150*
Y23189D02*
X20492Y23228D01*
X20453*
Y23189*
Y24803D02*
X21673D01*
Y25591*
X20610*
X20453Y25433*
Y24803*
Y25433D02*
X20610Y25591D01*
X20571*
X20453Y25472*
Y25433*
Y25472D02*
X20571Y25591D01*
X20531*
X20453Y25512*
Y25472*
Y25512D02*
X20531Y25591D01*
X20492*
X20453Y25551*
Y25512*
Y25551D02*
X20492Y25591D01*
X20453*
Y25551*
Y27165D02*
X21673D01*
Y27953*
X20610*
X20453Y27795*
Y27165*
Y27795D02*
X20610Y27953D01*
X20571*
X20453Y27835*
Y27795*
Y27835D02*
X20571Y27953D01*
X20531*
X20453Y27874*
Y27835*
Y27874D02*
X20531Y27953D01*
X20492*
X20453Y27913*
Y27874*
Y27913D02*
X20492Y27953D01*
X20453*
Y27913*
Y29528D02*
X21673D01*
Y30315*
X20610*
X20453Y30157*
Y29528*
Y30157D02*
X20610Y30315D01*
X20571*
X20453Y30197*
Y30157*
Y30197D02*
X20571Y30315D01*
X20531*
X20453Y30236*
Y30197*
Y30236D02*
X20531Y30315D01*
X20492*
X20453Y30276*
Y30236*
Y30276D02*
X20492Y30315D01*
X20453*
Y30276*
Y31890D02*
X21673D01*
Y32677*
X20610*
X20453Y32520*
Y31890*
Y32520D02*
X20610Y32677D01*
X20571*
X20453Y32559*
Y32520*
Y32559D02*
X20571Y32677D01*
X20531*
X20453Y32598*
Y32559*
Y32598D02*
X20531Y32677D01*
X20492*
X20453Y32638*
Y32598*
Y32638D02*
X20492Y32677D01*
X20453*
Y32638*
X21673Y5512D02*
X20453D01*
Y6299*
X21673*
Y5512*
Y8071D02*
X20453D01*
Y8858*
X21673*
Y8071*
Y10433D02*
X20453D01*
Y11220*
X21673*
Y10433*
Y12795D02*
X20453D01*
Y13583*
X21673*
Y12795*
Y15157D02*
X20453D01*
Y15945*
X21673*
Y15157*
Y17520D02*
X20453D01*
Y18307*
X21673*
Y17520*
Y20079D02*
X20453D01*
Y20866*
X21673*
Y20079*
Y22441D02*
X20453D01*
Y23228*
X21673*
Y22441*
Y24803D02*
X20453D01*
Y25591*
X21673*
Y24803*
Y27165D02*
X20453D01*
Y27953*
X21673*
Y27165*
Y29528D02*
X20453D01*
Y30315*
X21673*
Y29528*
Y31890D02*
X20453D01*
Y32677*
X21673*
Y31890*
X28150Y2067D02*
Y3248D01*
Y2067*
Y3642D02*
Y4823D01*
Y3642*
X29823Y492D02*
X30020D01*
Y984*
X29823*
Y492*
Y984D02*
X30020D01*
Y1673*
X29823*
Y984*
Y2067D02*
X30020D01*
Y3248*
X29823*
Y2067*
Y3642D02*
X30020D01*
Y4823*
X29823*
Y3642*
X30020Y2067D02*
X29823D01*
Y3248*
X30020*
Y2067*
Y3642D02*
X29823D01*
Y4823*
X30020*
Y3642*
X32410Y984D02*
X30020D01*
Y492*
X29823*
Y984*
X28150*
Y492*
Y984*
X17028*
Y394*
Y984*
X6496*
Y492*
Y984*
X4823*
Y492*
X4626*
Y984*
X1645*
X4626*
Y1673*
X4823*
Y984*
X6496*
Y1673*
Y984*
X17028*
Y16457*
Y984*
X28150*
Y1673*
Y984*
X29823*
Y1673*
X30020*
Y984*
X32410*
Y33071D02*
X17028D01*
Y17598*
Y33071*
X11417*
Y32579*
X11220*
Y33071*
X1645*
X11220*
Y33760*
X11417*
Y33071*
X17028*
Y33661*
Y33071*
X32410*
X33661Y17028D02*
X33071D01*
Y1645*
Y17028*
X17598*
X33071*
Y32410*
Y17028*
X33661*
G54D12*
X1978Y20059D02*
G03X1929Y20108I49D01*
X1880Y20059J49*
X1929Y20010I49*
X1978Y20059J49*
G01Y21634D02*
G03X1929Y21683I49D01*
X1880Y21634J49*
X1929Y21585I49*
X1978Y21634J49*
G01Y23209D02*
G03X1929Y23258I49D01*
X1880Y23209J49*
X1929Y23159I49*
X1978Y23209J50*
G01Y20059D02*
G03X1929Y20108I49D01*
X1880Y20059J49*
X1929Y20010I49*
X1978Y20059J49*
G01Y21634D02*
G03X1929Y21683I49D01*
X1880Y21634J49*
X1929Y21585I49*
X1978Y21634J49*
G01Y23209D02*
G03X1929Y23258I49D01*
X1880Y23209J49*
X1929Y23159I49*
X1978Y23209J50*
G01X3809Y20059D02*
G03X3760Y20108I49D01*
X3711Y20059J49*
X3760Y20010I49*
X3809Y20059J49*
G01Y21634D02*
G03X3760Y21683I49D01*
X3711Y21634J49*
X3760Y21585I49*
X3809Y21634J49*
G01Y23209D02*
G03X3760Y23258I49D01*
X3711Y23209J49*
X3760Y23159I49*
X3809Y23209J50*
G01Y20059D02*
G03X3760Y20108I49D01*
X3711Y20059J49*
X3760Y20010I49*
X3809Y20059J49*
G01Y21634D02*
G03X3760Y21683I49D01*
X3711Y21634J49*
X3760Y21585I49*
X3809Y21634J49*
G01Y23209D02*
G03X3760Y23258I49D01*
X3711Y23209J49*
X3760Y23159I49*
X3809Y23209J50*
G01X4144Y374D02*
G03X4094Y423I50D01*
X4045Y374J49*
X4094Y325I49*
X4144Y374J49*
G01Y1949D02*
G03X4094Y1998I50D01*
X4045Y1949J49*
X4094Y1900I49*
X4144Y1949J49*
G01Y3524D02*
G03X4094Y3573I50D01*
X4045Y3524J49*
X4094Y3474I49*
X4144Y3524J50*
G01Y8740D02*
G03X4094Y8789I50D01*
X4045Y8740J49*
X4094Y8691I49*
X4144Y8740J49*
G01Y10315D02*
G03X4094Y10364I50D01*
X4045Y10315J49*
X4094Y10266I49*
X4144Y10315J49*
G01Y11890D02*
G03X4094Y11939I50D01*
X4045Y11890J49*
X4094Y11841I49*
X4144Y11890J49*
G01Y374D02*
G03X4094Y423I50D01*
X4045Y374J49*
X4094Y325I49*
X4144Y374J49*
G01Y1949D02*
G03X4094Y1998I50D01*
X4045Y1949J49*
X4094Y1900I49*
X4144Y1949J49*
G01Y3524D02*
G03X4094Y3573I50D01*
X4045Y3524J49*
X4094Y3474I49*
X4144Y3524J50*
G01Y8740D02*
G03X4094Y8789I50D01*
X4045Y8740J49*
X4094Y8691I49*
X4144Y8740J49*
G01Y10315D02*
G03X4094Y10364I50D01*
X4045Y10315J49*
X4094Y10266I49*
X4144Y10315J49*
G01Y11890D02*
G03X4094Y11939I50D01*
X4045Y11890J49*
X4094Y11841I49*
X4144Y11890J49*
G01X5246Y30098D02*
G03X5197Y30148I49D01*
X5148Y30098J50*
X5197Y30049I49*
X5246Y30098J49*
G01Y31929D02*
G03X5197Y31978I49D01*
X5148Y31929J49*
X5197Y31880I49*
X5246Y31929J49*
G01Y30098D02*
G03X5197Y30148I49D01*
X5148Y30098J50*
X5197Y30049I49*
X5246Y30098J49*
G01Y31929D02*
G03X5197Y31978I49D01*
X5148Y31929J49*
X5197Y31880I49*
X5246Y31929J49*
G01X5876Y24764D02*
G03X5827Y24813I49D01*
X5778Y24764J49*
X5827Y24715I49*
X5876Y24764J49*
X5827Y24813I49*
X5778Y24764J49*
X5827Y24715I49*
X5876Y24764J49*
G01X5974Y374D02*
G03X5925Y423I49D01*
X5876Y374J49*
X5925Y325I49*
X5974Y374J49*
G01Y1949D02*
G03X5925Y1998I49D01*
X5876Y1949J49*
X5925Y1900I49*
X5974Y1949J49*
G01Y3524D02*
G03X5925Y3573I49D01*
X5876Y3524J49*
X5925Y3474I49*
X5974Y3524J50*
G01Y8740D02*
G03X5925Y8789I49D01*
X5876Y8740J49*
X5925Y8691I49*
X5974Y8740J49*
G01Y10315D02*
G03X5925Y10364I49D01*
X5876Y10315J49*
X5925Y10266I49*
X5974Y10315J49*
G01Y11890D02*
G03X5925Y11939I49D01*
X5876Y11890J49*
X5925Y11841I49*
X5974Y11890J49*
G01Y374D02*
G03X5925Y423I49D01*
X5876Y374J49*
X5925Y325I49*
X5974Y374J49*
G01Y1949D02*
G03X5925Y1998I49D01*
X5876Y1949J49*
X5925Y1900I49*
X5974Y1949J49*
G01Y3524D02*
G03X5925Y3573I49D01*
X5876Y3524J49*
X5925Y3474I49*
X5974Y3524J50*
G01Y8740D02*
G03X5925Y8789I49D01*
X5876Y8740J49*
X5925Y8691I49*
X5974Y8740J49*
G01Y10315D02*
G03X5925Y10364I49D01*
X5876Y10315J49*
X5925Y10266I49*
X5974Y10315J49*
G01Y11890D02*
G03X5925Y11939I49D01*
X5876Y11890J49*
X5925Y11841I49*
X5974Y11890J49*
G01X6821Y30098D02*
G03X6772Y30148I49D01*
X6722Y30098J50*
X6772Y30049I50*
X6821Y30098J49*
G01Y31929D02*
G03X6772Y31978I49D01*
X6722Y31929J49*
X6772Y31880I50*
X6821Y31929J49*
G01Y30098D02*
G03X6772Y30148I49D01*
X6722Y30098J50*
X6772Y30049I50*
X6821Y30098J49*
G01Y31929D02*
G03X6772Y31978I49D01*
X6722Y31929J49*
X6772Y31880I50*
X6821Y31929J49*
G01X8396Y30098D02*
G03X8346Y30148I50D01*
X8297Y30098J50*
X8346Y30049I49*
X8396Y30098J49*
G01Y31929D02*
G03X8346Y31978I50D01*
X8297Y31929J49*
X8346Y31880I49*
X8396Y31929J49*
G01Y30098D02*
G03X8346Y30148I50D01*
X8297Y30098J50*
X8346Y30049I49*
X8396Y30098J49*
G01Y31929D02*
G03X8346Y31978I50D01*
X8297Y31929J49*
X8346Y31880I49*
X8396Y31929J49*
G01X11998Y33878D02*
G03X11949Y33927I49D01*
X11900Y33878J49*
X11949Y33829I49*
X11998Y33878J49*
X11949Y33927I49*
X11900Y33878J49*
X11949Y33829I49*
X11998Y33878J49*
G01X12825Y15374D02*
G03X12776Y15423I49D01*
X12726Y15374J49*
X12776Y15325I50*
X12825Y15374J49*
G01Y16949D02*
G03X12776Y16998I49D01*
X12726Y16949J49*
X12776Y16900I50*
X12825Y16949J49*
G01Y18524D02*
G03X12776Y18573I49D01*
X12726Y18524J49*
X12776Y18474I50*
X12825Y18524J50*
G01Y15374D02*
G03X12776Y15423I49D01*
X12726Y15374J49*
X12776Y15325I50*
X12825Y15374J49*
G01Y16949D02*
G03X12776Y16998I49D01*
X12726Y16949J49*
X12776Y16900I50*
X12825Y16949J49*
G01Y18524D02*
G03X12776Y18573I49D01*
X12726Y18524J49*
X12776Y18474I50*
X12825Y18524J50*
G01X14656Y15374D02*
G03X14606Y15423I50D01*
X14557Y15374J49*
X14606Y15325I49*
X14656Y15374J49*
G01Y16949D02*
G03X14606Y16998I50D01*
X14557Y16949J49*
X14606Y16900I49*
X14656Y16949J49*
G01Y18524D02*
G03X14606Y18573I50D01*
X14557Y18524J49*
X14606Y18474I49*
X14656Y18524J50*
G01Y15374D02*
G03X14606Y15423I50D01*
X14557Y15374J49*
X14606Y15325I49*
X14656Y15374J49*
G01Y16949D02*
G03X14606Y16998I50D01*
X14557Y16949J49*
X14606Y16900I49*
X14656Y16949J49*
G01Y18524D02*
G03X14606Y18573I50D01*
X14557Y18524J49*
X14606Y18474I49*
X14656Y18524J50*
G01X20423Y6752D02*
G03X20374Y6801I49D01*
X20325Y6752J49*
X20374Y6703I49*
X20423Y6752J49*
G01Y9311D02*
G03X20374Y9360I49D01*
X20325Y9311J49*
X20374Y9262I49*
X20423Y9311J49*
G01Y11673D02*
G03X20374Y11722I49D01*
X20325Y11673J49*
X20374Y11624I49*
X20423Y11673J49*
G01Y14035D02*
G03X20374Y14085I49D01*
X20325Y14035J50*
X20374Y13986I49*
X20423Y14035J49*
G01Y16398D02*
G03X20374Y16447I49D01*
X20325Y16398J49*
X20374Y16348I49*
X20423Y16398J50*
G01Y18760D02*
G03X20374Y18809I49D01*
X20325Y18760J49*
X20374Y18711I49*
X20423Y18760J49*
G01Y21319D02*
G03X20374Y21368I49D01*
X20325Y21319J49*
X20374Y21270I49*
X20423Y21319J49*
G01Y23681D02*
G03X20374Y23730I49D01*
X20325Y23681J49*
X20374Y23632I49*
X20423Y23681J49*
G01Y26043D02*
G03X20374Y26093I49D01*
X20325Y26043J50*
X20374Y25994I49*
X20423Y26043J49*
G01Y28406D02*
G03X20374Y28455I49D01*
X20325Y28406J49*
X20374Y28356I49*
X20423Y28406J50*
G01Y30768D02*
G03X20374Y30817I49D01*
X20325Y30768J49*
X20374Y30719I49*
X20423Y30768J49*
G01Y33130D02*
G03X20374Y33179I49D01*
X20325Y33130J49*
X20374Y33081I49*
X20423Y33130J49*
G01Y6752D02*
G03X20374Y6801I49D01*
X20325Y6752J49*
X20374Y6703I49*
X20423Y6752J49*
G01Y9311D02*
G03X20374Y9360I49D01*
X20325Y9311J49*
X20374Y9262I49*
X20423Y9311J49*
G01Y11673D02*
G03X20374Y11722I49D01*
X20325Y11673J49*
X20374Y11624I49*
X20423Y11673J49*
G01Y14035D02*
G03X20374Y14085I49D01*
X20325Y14035J50*
X20374Y13986I49*
X20423Y14035J49*
G01Y16398D02*
G03X20374Y16447I49D01*
X20325Y16398J49*
X20374Y16348I49*
X20423Y16398J50*
G01Y18760D02*
G03X20374Y18809I49D01*
X20325Y18760J49*
X20374Y18711I49*
X20423Y18760J49*
G01Y21319D02*
G03X20374Y21368I49D01*
X20325Y21319J49*
X20374Y21270I49*
X20423Y21319J49*
G01Y23681D02*
G03X20374Y23730I49D01*
X20325Y23681J49*
X20374Y23632I49*
X20423Y23681J49*
G01Y26043D02*
G03X20374Y26093I49D01*
X20325Y26043J50*
X20374Y25994I49*
X20423Y26043J49*
G01Y28406D02*
G03X20374Y28455I49D01*
X20325Y28406J49*
X20374Y28356I49*
X20423Y28406J50*
G01Y30768D02*
G03X20374Y30817I49D01*
X20325Y30768J49*
X20374Y30718I49*
X20423Y30768J50*
G01Y33130D02*
G03X20374Y33179I49D01*
X20325Y33130J49*
X20374Y33081I49*
X20423Y33130J49*
G01X28770Y1791D02*
G03X28720Y1841I50D01*
X28671Y1791J50*
X28720Y1742I49*
X28770Y1791J49*
G01Y3366D02*
G03X28720Y3415I50D01*
X28671Y3366J49*
X28720Y3317I49*
X28770Y3366J49*
G01Y4941D02*
G03X28720Y4990I50D01*
X28671Y4941J49*
X28720Y4892I49*
X28770Y4941J49*
G01Y1791D02*
G03X28720Y1841I50D01*
X28671Y1791J50*
X28720Y1742I49*
X28770Y1791J49*
G01Y3366D02*
G03X28720Y3415I50D01*
X28671Y3366J49*
X28720Y3317I49*
X28770Y3366J49*
G01Y4941D02*
G03X28720Y4990I50D01*
X28671Y4941J49*
X28720Y4892I49*
X28770Y4941J49*
G01X30600Y1791D02*
G03X30551Y1841I49D01*
X30502Y1791J50*
X30551Y1742I49*
X30600Y1791J49*
G01Y3366D02*
G03X30551Y3415I49D01*
X30502Y3366J49*
X30551Y3317I49*
X30600Y3366J49*
G01Y4941D02*
G03X30551Y4990I49D01*
X30502Y4941J49*
X30551Y4892I49*
X30600Y4941J49*
G01Y1791D02*
G03X30551Y1841I49D01*
X30502Y1791J50*
X30551Y1742I49*
X30600Y1791J49*
G01Y3366D02*
G03X30551Y3415I49D01*
X30502Y3366J49*
X30551Y3317I49*
X30600Y3366J49*
G01Y4941D02*
G03X30551Y4990I49D01*
X30502Y4941J49*
X30551Y4892I49*
X30600Y4941J49*
G54D13*
G01X6988Y8071D02*
X11319D01*
Y9547*
X7718*
G02X7579Y9408I139*
X7440Y9547J139*
G01X6988*
Y8071*
X7093Y11713D02*
G03X7232Y11573I139D01*
G01Y11852*
G03X7093Y11713J139*
G01Y24311D02*
G03X7232Y24172I139D01*
G01Y24450*
G03X7093Y24311J139*
G01X7232Y11122D02*
X8709D01*
Y15453*
X7232*
Y11852*
G02X7371Y11713J139*
X7232Y11573I139*
G01Y11122*
Y11573D02*
G03X7371Y11713J140D01*
X7232Y11852I139*
G01Y11573*
Y23720D02*
X8709D01*
Y28051*
X7232*
Y24450*
G02X7371Y24311J139*
X7232Y24172I139*
G01Y23720*
Y24172D02*
G03X7371Y24311J139D01*
X7232Y24450I139*
G01Y24172*
X7440Y9547D02*
G03X7579Y9408I139D01*
X7718Y9547J139*
G01X7440*
X7718*
G03X7579Y9686I139*
X7440Y9547J139*
G01X8709Y11122D02*
X7232D01*
Y11573*
G02X7093Y11713J140*
X7232Y11852I139*
G01Y15453*
X8709*
Y11122*
Y23720D02*
X7232D01*
Y24172*
G02X7093Y24311J139*
X7232Y24450I139*
G01Y28051*
X8709*
Y23720*
X10739Y14862D02*
G02X10878Y15001I139D01*
G01Y15453*
X9402*
Y11122*
X10878*
Y14723*
G02X10739Y14862J139*
G01Y27461D02*
G02X10878Y27600I139D01*
G01Y28051*
X9402*
Y23720*
X10878*
Y27321*
G02X10739Y27461J140*
G01Y14862D02*
G03X10878Y14723I139D01*
G01Y15001*
G03X10739Y14862J139*
G01Y27461D02*
G03X10878Y27321I139D01*
G01Y27600*
G03X10739Y27461J139*
G01X10878Y14723D02*
G03X11017Y14862J139D01*
X10878Y15001I139*
G01Y14723*
Y27321D02*
G03X11017Y27461J140D01*
X10878Y27600I139*
G01Y27321*
X11017Y14862D02*
G02X10878Y14723I139D01*
G01Y11122*
X9402*
Y15453*
X10878*
Y15001*
G02X11017Y14862J139*
G01Y27461D02*
G02X10878Y27321I139D01*
G01Y23720*
X9402*
Y28051*
X10878*
Y27600*
G02X11017Y27461J139*
G01X11319Y8071D02*
X6988D01*
Y9547*
X7440*
G02X7579Y9686I139*
X7718Y9547J139*
G01X11319*
Y8071*
X25098Y8073D02*
X29429D01*
Y9549*
X25828*
G02X25689Y9410I139*
X25550Y9549J139*
G01X25098*
Y8073*
X25550Y9549D02*
G03X25689Y9410I139D01*
X25828Y9549J139*
G01X25550*
X25828*
G03X25689Y9688I139*
X25550Y9549J139*
G01X29429Y8073D02*
X25098D01*
Y9549*
X25550*
G02X25689Y9688I139*
X25828Y9549J139*
G01X29429*
Y8073*
G54D14*
X9717Y18524D02*
X10217Y19024D01*
Y22421*
X6319*
Y18524*
X9717*
X10217Y19024D02*
X9717Y18524D01*
X6319*
Y22421*
X10217*
Y19024*
X11882Y1988D02*
X12382Y2488D01*
Y5886*
X8484*
Y1988*
X11882*
X12382Y2488D02*
X11882Y1988D01*
X8484*
Y5886*
X12382*
Y2488*
X18181Y1988D02*
X18681Y2488D01*
Y5886*
X14783*
Y1988*
X18181*
Y9075D02*
X18681Y9575D01*
Y12972*
X14783*
Y9075*
X18181*
Y20098D02*
X18681Y20598D01*
Y23996*
X14783*
Y20098*
X18181*
Y26398D02*
X18681Y26898D01*
Y30295*
X14783*
Y26398*
X18181*
X18681Y2488D02*
X18181Y1988D01*
X14783*
Y5886*
X18681*
Y2488*
Y9575D02*
X18181Y9075D01*
X14783*
Y12972*
X18681*
Y9575*
Y20598D02*
X18181Y20098D01*
X14783*
Y23996*
X18681*
Y20598*
Y26898D02*
X18181Y26398D01*
X14783*
Y30295*
X18681*
Y26898*
M02*
