*
G04 Job   : C:\Mentor_proj\450\PCB\450.pcb*
G04 User  : WINDOWS-XP:user*
G04 Layer : SilkscreenTop.gdo*
G04 Date  : Fri Dec 16 16:25:48 2022*
G04 Mentor Graphics Example Gerber Output Definition*
%ICAS*%
%MOIN*%
%FSLAX24Y24*%
%OFA0.0000B0.0000*%
G90*
G74*
%ADD11C,0.00197*%
%ADD12C,0.00394*%
%ADD15C,0.00591*%
%ADD13C,0.00787*%
%ADD14C,0.00984*%
%ADD10C,0.01000*%
G01*
G54D10*
X9774Y23160D02*
X13808D01*
Y24123*
X9774*
Y23160*
Y24123D02*
Y23160D01*
X9864D02*
Y24123D01*
X9954D02*
Y23160D01*
X10044D02*
Y24123D01*
X10134D02*
Y23160D01*
X10224D02*
Y24123D01*
X10314D02*
Y23160D01*
X10404D02*
Y24123D01*
X10494D02*
Y23160D01*
X10584D02*
Y24123D01*
X10674D02*
Y23160D01*
X10764D02*
Y24123D01*
X10854D02*
Y23160D01*
X10944D02*
Y24123D01*
X11034D02*
Y23160D01*
X11124D02*
Y24123D01*
X11214D02*
Y23160D01*
X11304D02*
Y24123D01*
X11394D02*
Y23160D01*
X11484D02*
Y24123D01*
X11574D02*
Y23160D01*
X11664D02*
Y24123D01*
X11754D02*
Y23160D01*
X11844D02*
Y24123D01*
X11934D02*
Y23160D01*
X12024D02*
Y24123D01*
X12114D02*
Y23160D01*
X12204D02*
Y24123D01*
X12294D02*
Y23160D01*
X12384D02*
Y24123D01*
X12474D02*
Y23160D01*
X12564D02*
Y24123D01*
X12654D02*
Y23160D01*
X12744D02*
Y24123D01*
X12834D02*
Y23160D01*
X12924D02*
Y24123D01*
X13014D02*
Y23160D01*
X13104D02*
Y24123D01*
X13194D02*
Y23160D01*
X13284D02*
Y24123D01*
X13374D02*
Y23160D01*
X13464D02*
Y24123D01*
X13554D02*
Y23160D01*
X13644D02*
Y24123D01*
X13734D02*
Y23160D01*
X32376Y5357D02*
Y5267D01*
X32430D02*
X32286D01*
X32430Y5411*
Y5267*
G54D11*
X33366Y0D02*
X34055Y689D01*
Y33366*
X33366Y34055*
X689*
X0Y33366*
Y689*
X689Y0*
X33366*
X34055Y689D02*
X33366Y0D01*
X689*
X0Y689*
Y33366*
X689Y34055*
X33366*
X34055Y33366*
Y689*
G54D12*
X2116Y1083D02*
G03X1083Y2116I1033D01*
X49Y1083J1033*
X1083Y49I1034*
X2116Y1083J1034*
X1083Y2116I1033*
X49Y1083J1033*
X1083Y49I1034*
X2116Y1083J1034*
G01X2480Y4567D02*
G03X2559Y4528I79J59D01*
X2638Y4567J98*
G01X2480*
X2638D02*
G03X2657Y4626I79J59D01*
X2559Y4724I98*
X2461Y4626J98*
X2480Y4567I98*
G01X2638*
X2717*
Y19724*
X2008*
Y4567*
X2480*
G02X2461Y4626I79J59*
X2559Y4724I98*
X2657Y4626J98*
X2638Y4567I98*
G01X2717D02*
X2638D01*
G02X2559Y4528I79J59*
X2480Y4567J98*
G01X2008*
Y19724*
X2717*
Y4567*
X5678Y23733D02*
X5679Y23742D01*
X5677Y23751*
X5675Y23761*
X5669Y23769*
X5662Y23778*
X5653Y23785*
X5643Y23790*
X5632Y23792*
X5620Y23794*
X5612Y23793*
X5606Y23792*
X5598Y23790*
X5592Y23788*
X5585Y23784*
X5578Y23780*
X5571Y23775*
X5564Y23769*
X5557Y23763*
X5550Y23756*
X5543Y23748*
X5537Y23739*
X5530Y23730*
X5523Y23720*
X5517Y23709*
X5510Y23698*
Y23794*
X5491*
X5361Y23741*
X5365Y23725*
X5374Y23727*
X5383Y23730*
X5390Y23731*
X5404*
X5409Y23730*
X5414Y23728*
X5418Y23725*
X5422Y23721*
X5425Y23717*
X5428Y23711*
X5430Y23705*
Y23700*
X5431Y23693*
Y23685*
X5432Y23675*
Y23663*
Y23649*
Y23425*
Y23419*
Y23414*
X5431Y23410*
X5430Y23407*
Y23404*
X5427Y23397*
X5424Y23390*
X5419Y23385*
X5414Y23380*
X5405Y23376*
X5393Y23373*
X5381Y23371*
X5365Y23370*
Y23353*
X5585*
Y23370*
X5572Y23371*
X5559Y23372*
X5549Y23375*
X5541Y23379*
X5533Y23383*
X5527Y23388*
X5523Y23393*
X5519Y23399*
X5515Y23409*
X5512Y23421*
X5511Y23436*
X5510Y23453*
Y23658*
X5515Y23669*
X5521Y23678*
X5527Y23688*
X5532Y23696*
X5537Y23703*
X5543Y23710*
X5548Y23716*
X5553Y23721*
X5558Y23725*
X5563Y23728*
X5567Y23730*
X5572Y23731*
X5577Y23729*
X5584Y23727*
X5592Y23721*
X5601Y23715*
X5611Y23707*
X5620Y23703*
X5629Y23699*
X5638*
X5646*
X5653Y23702*
X5661Y23705*
X5667Y23711*
X5672Y23718*
X5676Y23725*
X5678Y23733*
X5679Y23742D02*
X5678Y23733D01*
X5676Y23725*
X5672Y23718*
X5667Y23711*
X5661Y23705*
X5653Y23702*
X5646Y23699*
X5638Y23698*
X5629Y23699*
X5620Y23703*
X5611Y23707*
X5601Y23715*
X5592Y23721*
X5584Y23727*
X5577Y23729*
X5572Y23731*
X5567Y23730*
X5563Y23728*
X5558Y23725*
X5553Y23721*
X5548Y23716*
X5543Y23710*
X5537Y23703*
X5532Y23696*
X5527Y23688*
X5521Y23678*
X5515Y23669*
X5510Y23658*
Y23453*
X5511Y23436*
X5512Y23421*
X5515Y23409*
X5519Y23399*
X5523Y23393*
X5527Y23388*
X5533Y23383*
X5541Y23379*
X5549Y23375*
X5559Y23372*
X5572Y23371*
X5585Y23370*
Y23353*
X5365*
Y23370*
X5381Y23371*
X5393Y23373*
X5405Y23376*
X5414Y23380*
X5419Y23385*
X5424Y23390*
X5427Y23397*
X5430Y23404*
Y23407*
X5431Y23410*
X5432Y23414*
Y23419*
Y23425*
Y23649*
Y23663*
Y23675*
X5431Y23685*
Y23693*
X5430Y23700*
Y23705*
X5428Y23711*
X5425Y23717*
X5422Y23721*
X5418Y23725*
X5414Y23728*
X5409Y23730*
X5404Y23731*
X5390*
X5383Y23730*
X5374Y23727*
X5365Y23725*
X5361Y23741*
X5491Y23794*
X5510*
Y23698*
X5517Y23709*
X5523Y23720*
X5530Y23730*
X5537Y23739*
X5543Y23748*
X5550Y23756*
X5557Y23763*
X5564Y23769*
X5571Y23775*
X5578Y23780*
X5585Y23784*
X5592Y23788*
X5598Y23790*
X5606Y23792*
X5612Y23793*
X5620Y23794*
X5632Y23792*
X5643Y23790*
X5653Y23785*
X5662Y23778*
X5669Y23769*
X5675Y23761*
X5677Y23751*
X5679Y23742*
X5774Y23620D02*
X6070D01*
X6069Y23639*
X6067Y23657*
X6063Y23674*
X6059Y23690*
X6052Y23706*
X6044Y23721*
X6035Y23734*
X6024Y23746*
X6012Y23757*
X5999Y23767*
X5986Y23775*
X5971Y23781*
X5956Y23787*
X5940Y23791*
X5924Y23793*
X5905Y23794*
X5885Y23793*
X5865Y23790*
X5846Y23785*
X5828Y23778*
X5810Y23769*
X5794Y23759*
X5779Y23747*
X5764Y23732*
X5751Y23716*
X5740Y23699*
X5730Y23679*
X5722Y23659*
X5716Y23637*
X5711Y23613*
X5709Y23588*
X5708Y23561*
X5709Y23537*
X5711Y23513*
X5716Y23491*
X5722Y23470*
X5729Y23451*
X5739Y23433*
X5750Y23416*
X5763Y23400*
X5777Y23386*
X5792Y23374*
X5807Y23364*
X5823Y23355*
X5841Y23349*
X5858Y23344*
X5876Y23341*
X5895Y23340*
X5912Y23341*
X5929Y23344*
X5945Y23348*
X5960Y23354*
X5974Y23361*
X5988Y23370*
X6001Y23381*
X6013Y23393*
X6025Y23406*
X6035Y23420*
X6043Y23434*
X6051Y23448*
X6057Y23463*
X6063Y23478*
X6067Y23494*
X6070Y23510*
X6055Y23519*
X6050Y23506*
X6044Y23493*
X6038Y23482*
X6032Y23471*
X6025Y23462*
X6018Y23454*
X6011Y23446*
X6003Y23439*
X5995Y23434*
X5987Y23429*
X5978Y23425*
X5970Y23422*
X5960Y23420*
X5950Y23418*
X5940Y23417*
X5930*
X5915*
X5899Y23420*
X5885Y23424*
X5871Y23430*
X5858Y23437*
X5845Y23447*
X5833Y23458*
X5820Y23471*
X5810Y23485*
X5800Y23500*
X5792Y23517*
X5786Y23535*
X5780Y23554*
X5777Y23575*
X5775Y23596*
X5774Y23620*
Y23646D02*
X5973D01*
X5972Y23656*
Y23665*
X5970Y23674*
Y23681*
X5968Y23688*
X5966Y23694*
X5965Y23699*
X5963Y23704*
X5956Y23717*
X5949Y23727*
X5939Y23737*
X5928Y23745*
X5917Y23751*
X5905Y23756*
X5892Y23759*
X5880Y23760*
X5870Y23759*
X5861Y23758*
X5852Y23756*
X5843Y23753*
X5826Y23743*
X5818Y23737*
X5810Y23730*
X5803Y23722*
X5796Y23713*
X5791Y23704*
X5786Y23694*
X5782Y23683*
X5778Y23672*
X5774Y23646*
X5973D02*
X5774D01*
X5778Y23672*
X5782Y23683*
X5786Y23694*
X5791Y23704*
X5796Y23713*
X5803Y23722*
X5810Y23730*
X5818Y23737*
X5826Y23743*
X5843Y23753*
X5852Y23756*
X5861Y23758*
X5870Y23759*
X5880Y23760*
X5892Y23759*
X5905Y23756*
X5917Y23751*
X5928Y23745*
X5939Y23737*
X5949Y23727*
X5956Y23717*
X5963Y23704*
X5965Y23699*
X5966Y23694*
X5968Y23688*
X5970Y23681*
Y23674*
X5972Y23665*
Y23656*
X5973Y23646*
X6061Y25184D02*
X6086D01*
Y25203*
X5886*
X5632Y24650*
X5377Y25203*
X5175*
Y25184*
X5196Y25183*
X5213Y25182*
X5227Y25178*
X5238Y25173*
X5247Y25168*
X5255Y25162*
X5261Y25155*
X5265Y25149*
X5267Y25143*
X5270Y25136*
X5272Y25129*
X5273Y25121*
X5274Y25112*
X5275Y25102*
X5276Y25092*
Y24604*
X5275Y24591*
X5274Y24579*
X5273Y24570*
X5271Y24561*
X5269Y24553*
X5267Y24547*
X5264Y24542*
X5259Y24536*
X5253Y24530*
X5246Y24526*
X5239Y24522*
X5231Y24519*
X5221Y24517*
X5211Y24516*
X5201Y24515*
X5175*
Y24496*
X5422*
Y24515*
X5397*
X5377Y24517*
X5360Y24520*
X5347Y24527*
X5336Y24537*
X5332Y24542*
X5330Y24548*
X5327Y24556*
X5325Y24565*
X5324Y24576*
X5322Y24588*
X5321Y24603*
Y25091*
X5595Y24496*
X5612*
X5885Y25091*
Y24604*
Y24591*
X5884Y24579*
X5882Y24570*
X5881Y24561*
X5879Y24553*
X5876Y24547*
X5874Y24542*
X5869Y24536*
X5863Y24530*
X5856Y24526*
X5849Y24522*
X5840Y24519*
X5831Y24517*
X5821Y24516*
X5811Y24515*
X5785*
Y24496*
X6086*
Y24515*
X6061*
X6042Y24517*
X6025Y24520*
X6011Y24527*
X6001Y24537*
X5997Y24542*
X5994Y24548*
X5992Y24556*
X5989Y24565*
X5988Y24576*
X5986Y24588*
Y24603*
Y25095*
Y25108*
X5987Y25119*
X5989Y25129*
X5990Y25138*
X5992Y25146*
X5995Y25152*
X5997Y25157*
X6002Y25163*
X6008Y25169*
X6015Y25173*
X6022Y25177*
X6031Y25180*
X6040Y25182*
X6051Y25183*
X6061Y25184*
X6070Y23620D02*
X5774D01*
X5775Y23596*
X5777Y23575*
X5780Y23554*
X5786Y23535*
X5792Y23517*
X5800Y23500*
X5810Y23485*
X5820Y23471*
X5833Y23458*
X5845Y23447*
X5858Y23437*
X5871Y23430*
X5885Y23424*
X5899Y23420*
X5915Y23417*
X5930*
X5940*
X5950Y23418*
X5960Y23420*
X5970Y23422*
X5978Y23425*
X5987Y23429*
X5995Y23434*
X6003Y23439*
X6011Y23446*
X6018Y23454*
X6025Y23462*
X6032Y23471*
X6038Y23482*
X6044Y23493*
X6050Y23506*
X6055Y23519*
X6070Y23510*
X6067Y23494*
X6063Y23478*
X6057Y23463*
X6051Y23448*
X6043Y23434*
X6035Y23420*
X6025Y23406*
X6013Y23393*
X6001Y23381*
X5988Y23370*
X5974Y23361*
X5960Y23354*
X5945Y23348*
X5929Y23344*
X5912Y23341*
X5895Y23340*
X5876Y23341*
X5858Y23344*
X5841Y23349*
X5823Y23355*
X5807Y23364*
X5792Y23374*
X5777Y23386*
X5763Y23400*
X5750Y23416*
X5739Y23433*
X5729Y23451*
X5722Y23470*
X5716Y23491*
X5711Y23513*
X5709Y23537*
X5708Y23561*
X5709Y23588*
X5711Y23613*
X5716Y23637*
X5722Y23659*
X5730Y23679*
X5740Y23699*
X5751Y23716*
X5764Y23732*
X5779Y23747*
X5794Y23759*
X5810Y23769*
X5828Y23778*
X5846Y23785*
X5865Y23790*
X5885Y23793*
X5905Y23794*
X5924Y23793*
X5940Y23791*
X5956Y23787*
X5971Y23782*
X5986Y23775*
X5999Y23767*
X6012Y23757*
X6024Y23746*
X6035Y23734*
X6044Y23721*
X6052Y23706*
X6059Y23690*
X6063Y23674*
X6067Y23657*
X6069Y23639*
X6070Y23620*
X6086Y25184D02*
X6061D01*
X6051Y25183*
X6040Y25182*
X6031Y25180*
X6022Y25177*
X6015Y25173*
X6008Y25169*
X6002Y25163*
X5997Y25157*
X5995Y25152*
X5992Y25146*
X5990Y25138*
X5989Y25129*
X5987Y25119*
X5986Y25108*
Y25095*
Y24603*
Y24588*
X5988Y24576*
X5989Y24565*
X5992Y24556*
X5994Y24548*
X5997Y24542*
X6001Y24537*
X6011Y24527*
X6025Y24520*
X6042Y24517*
X6061Y24515*
X6086*
Y24496*
X5785*
Y24515*
X5811*
X5821Y24516*
X5831Y24517*
X5840Y24519*
X5849Y24522*
X5856Y24526*
X5863Y24530*
X5869Y24536*
X5874Y24542*
X5876Y24547*
X5879Y24553*
X5881Y24561*
X5882Y24570*
X5884Y24579*
X5885Y24591*
Y24604*
Y25091*
X5612Y24496*
X5595*
X5321Y25091*
Y24603*
X5322Y24588*
X5324Y24576*
X5325Y24565*
X5327Y24556*
X5330Y24548*
X5332Y24542*
X5336Y24537*
X5347Y24527*
X5360Y24520*
X5377Y24517*
X5397Y24515*
X5422*
Y24496*
X5175*
Y24515*
X5201*
X5211Y24516*
X5221Y24517*
X5231Y24519*
X5239Y24522*
X5246Y24526*
X5253Y24530*
X5259Y24536*
X5264Y24542*
X5267Y24547*
X5269Y24553*
X5271Y24561*
X5273Y24570*
X5274Y24579*
X5275Y24591*
X5276Y24604*
Y25092*
X5275Y25102*
X5274Y25112*
X5273Y25121*
X5272Y25129*
X5270Y25136*
X5267Y25143*
X5265Y25149*
X5261Y25155*
X5255Y25162*
X5247Y25168*
X5238Y25173*
X5227Y25178*
X5213Y25182*
X5196Y25183*
X5175Y25184*
Y25203*
X5377*
X5632Y24650*
X5886Y25203*
X6086*
Y25184*
X6449Y24633D02*
X6480D01*
Y25061*
X6461*
X6442Y25060*
X6425Y25058*
X6408Y25056*
X6393Y25054*
X6379Y25050*
X6366Y25046*
X6355Y25042*
X6344Y25036*
X6334Y25030*
X6324Y25023*
X6315Y25015*
X6306Y25007*
X6297Y24997*
X6289Y24986*
X6282Y24975*
X6274Y24963*
X6268Y24950*
X6263Y24936*
X6259Y24921*
X6256Y24906*
X6254Y24889*
X6253Y24872*
X6252Y24854*
X6253Y24834*
X6254Y24814*
X6257Y24796*
X6261Y24778*
X6265Y24762*
X6271Y24746*
X6279Y24731*
X6287Y24718*
X6295Y24704*
X6305Y24693*
X6315Y24682*
X6324Y24673*
X6335Y24665*
X6346Y24658*
X6357Y24652*
X6369Y24648*
X6393Y24641*
X6420Y24636*
X6449Y24633*
X6480D02*
X6449D01*
X6420Y24636*
X6393Y24641*
X6369Y24648*
X6357Y24652*
X6346Y24658*
X6335Y24665*
X6324Y24673*
X6315Y24682*
X6305Y24693*
X6295Y24704*
X6287Y24718*
X6279Y24731*
X6271Y24746*
X6265Y24762*
X6261Y24778*
X6257Y24796*
X6254Y24814*
X6253Y24834*
X6252Y24854*
X6253Y24872*
X6254Y24889*
X6256Y24906*
X6259Y24921*
X6263Y24936*
X6268Y24950*
X6274Y24963*
X6282Y24975*
X6289Y24986*
X6297Y24997*
X6306Y25007*
X6315Y25015*
X6324Y25023*
X6334Y25030*
X6344Y25037*
X6355Y25042*
X6366Y25046*
X6379Y25050*
X6393Y25054*
X6408Y25056*
X6425Y25058*
X6442Y25060*
X6461Y25061*
X6480*
Y24633*
X6555Y23763D02*
X6566Y23764D01*
Y23781*
X6427*
Y23764*
X6438*
X6447Y23763*
X6454*
X6459Y23761*
X6466Y23758*
X6472Y23752*
X6475Y23747*
X6476Y23741*
X6475Y23733*
X6473Y23725*
X6470Y23714*
X6465Y23701*
X6366Y23456*
X6266Y23692*
X6262Y23703*
X6259Y23713*
X6257Y23723*
Y23739*
X6259Y23745*
X6262Y23750*
X6266Y23755*
X6272Y23759*
X6278Y23762*
X6285Y23763*
X6294Y23764*
X6306*
Y23781*
X6106*
Y23764*
X6117Y23762*
X6126Y23760*
X6132Y23758*
X6138Y23756*
X6150Y23748*
X6161Y23737*
X6166Y23731*
X6171Y23723*
X6176Y23713*
X6181Y23701*
X6333Y23340*
X6353*
X6503Y23707*
X6510Y23723*
X6517Y23735*
X6525Y23746*
X6533Y23754*
X6538Y23758*
X6545Y23761*
X6555Y23763*
X6566Y23764D02*
X6555Y23763D01*
X6545Y23761*
X6538Y23758*
X6533Y23754*
X6525Y23746*
X6517Y23735*
X6510Y23723*
X6503Y23707*
X6353Y23340*
X6333*
X6332*
X6181Y23701*
X6176Y23713*
X6171Y23723*
X6166Y23731*
X6161Y23737*
X6150Y23748*
X6138Y23756*
X6132Y23758*
X6126Y23760*
X6117Y23762*
X6106Y23764*
Y23781*
X6306*
Y23764*
X6294*
X6285Y23763*
X6278Y23762*
X6272Y23759*
X6266Y23755*
X6262Y23750*
X6259Y23745*
X6257Y23739*
Y23723*
X6259Y23713*
X6262Y23703*
X6266Y23692*
X6366Y23456*
X6465Y23701*
X6470Y23714*
X6473Y23725*
X6475Y23733*
X6476Y23741*
X6475Y23747*
X6472Y23752*
X6466Y23758*
X6459Y23761*
X6454Y23763*
X6447*
X6438Y23764*
X6427*
Y23781*
X6566*
Y23764*
X6746Y23382D02*
X6747Y23392D01*
X6746Y23403*
X6743Y23412*
X6738Y23421*
X6732Y23429*
X6724Y23435*
X6715Y23440*
X6705Y23443*
X6695Y23444*
X6685Y23443*
X6675Y23440*
X6666Y23435*
X6658Y23429*
X6652Y23421*
X6647Y23413*
X6644Y23403*
X6643Y23392*
X6644Y23382*
X6647Y23373*
X6652Y23364*
X6658Y23356*
X6666Y23349*
X6675Y23344*
X6685Y23341*
X6695Y23340*
X6705Y23341*
X6715Y23344*
X6723Y23349*
X6731Y23356*
X6738Y23364*
X6743Y23373*
X6746Y23382*
X6747Y23392D02*
X6746Y23382D01*
X6743Y23373*
X6738Y23364*
X6731Y23356*
X6723Y23349*
X6715Y23344*
X6705Y23341*
X6695Y23340*
X6685Y23341*
X6675Y23344*
X6666Y23349*
X6658Y23356*
X6652Y23364*
X6647Y23373*
X6644Y23382*
X6643Y23392*
X6644Y23403*
X6647Y23413*
X6652Y23421*
X6658Y23429*
X6666Y23435*
X6675Y23440*
X6685Y23444*
X6695*
X6705*
X6715Y23440*
X6724Y23435*
X6732Y23429*
X6738Y23421*
X6743Y23412*
X6746Y23403*
X6747Y23392*
X6808Y24835D02*
X6809Y24854D01*
X6808Y24871*
X6807Y24888*
X6805Y24904*
X6802Y24920*
X6797Y24935*
X6792Y24949*
X6786Y24962*
X6778Y24975*
X6771Y24987*
X6763Y24998*
X6754Y25008*
X6745Y25017*
X6735Y25025*
X6725Y25032*
X6714Y25038*
X6703Y25043*
X6691Y25047*
X6677Y25051*
X6664Y25054*
X6649Y25057*
X6633Y25059*
X6617Y25060*
X6599Y25061*
X6580*
Y24633*
X6599*
X6617Y24634*
X6633Y24636*
X6650Y24638*
X6664Y24640*
X6678Y24644*
X6691Y24648*
X6703Y24653*
X6714Y24658*
X6725Y24665*
X6735Y24672*
X6745Y24680*
X6755Y24690*
X6763Y24701*
X6779Y24725*
X6786Y24738*
X6792Y24752*
X6797Y24767*
X6802Y24783*
X6805Y24799*
X6808Y24817*
Y24835*
X6809Y24854D02*
X6808Y24835D01*
Y24817*
X6805Y24799*
X6802Y24783*
X6797Y24767*
X6792Y24752*
X6786Y24738*
X6779Y24725*
X6763Y24701*
X6755Y24690*
X6745Y24680*
X6735Y24672*
X6725Y24665*
X6714Y24658*
X6703Y24653*
X6691Y24648*
X6678Y24644*
X6664Y24640*
X6650Y24638*
X6633Y24636*
X6617Y24634*
X6599Y24633*
X6580*
Y25061*
X6599*
X6617Y25060*
X6633Y25059*
X6649Y25057*
X6664Y25054*
X6677Y25051*
X6691Y25047*
X6703Y25043*
X6714Y25038*
X6725Y25032*
X6735Y25025*
X6745Y25017*
X6754Y25008*
X6763Y24998*
X6771Y24987*
X6778Y24975*
X6786Y24962*
X6792Y24949*
X6797Y24935*
X6802Y24920*
X6805Y24904*
X6807Y24888*
X6808Y24871*
X6809Y24854*
X6912Y24826D02*
X6914Y24853D01*
X6913Y24873*
X6911Y24894*
X6907Y24912*
X6903Y24930*
X6896Y24947*
X6888Y24964*
X6879Y24980*
X6868Y24994*
X6857Y25008*
X6844Y25021*
X6832Y25032*
X6818Y25042*
X6804Y25052*
X6789Y25061*
X6774Y25069*
X6758Y25075*
X6741Y25081*
X6722Y25086*
X6703Y25090*
X6681Y25094*
X6658Y25096*
X6634Y25099*
X6608*
X6580Y25100*
X6581Y25112*
X6582Y25123*
X6585Y25132*
X6587Y25140*
X6590Y25149*
X6594Y25155*
X6597Y25161*
X6602Y25165*
X6608Y25169*
X6615Y25173*
X6622Y25176*
X6632Y25178*
X6642Y25180*
X6655Y25182*
X6668Y25183*
X6683Y25184*
Y25203*
X6378*
Y25184*
X6389*
X6398Y25183*
X6407Y25182*
X6416*
X6422Y25181*
X6429Y25179*
X6434*
X6438Y25177*
X6446Y25174*
X6453Y25170*
X6460Y25164*
X6467Y25158*
X6470Y25154*
X6472Y25149*
X6474Y25143*
X6476Y25136*
X6478Y25129*
X6479Y25120*
Y25111*
X6480Y25100*
X6455Y25099*
X6430*
X6407Y25097*
X6385Y25094*
X6363Y25091*
X6344Y25087*
X6325Y25083*
X6307Y25078*
X6291Y25071*
X6275Y25063*
X6259Y25055*
X6245Y25045*
X6231Y25035*
X6218Y25023*
X6205Y25010*
X6194Y24995*
X6182Y24980*
X6173Y24965*
X6165Y24948*
X6158Y24930*
X6154Y24912*
X6150Y24894*
X6148Y24873*
X6147Y24853*
X6149Y24826*
X6152Y24800*
X6158Y24775*
X6167Y24751*
X6178Y24728*
X6191Y24707*
X6207Y24687*
X6225Y24668*
X6235Y24659*
X6258Y24642*
X6271Y24636*
X6284Y24629*
X6297Y24623*
X6312Y24617*
X6328Y24612*
X6345Y24608*
X6361Y24604*
X6379Y24601*
X6398Y24598*
X6417Y24596*
X6437Y24594*
X6458*
X6480*
X6479Y24582*
Y24572*
X6474Y24554*
X6471Y24547*
X6467Y24541*
X6464Y24535*
X6458Y24531*
X6452Y24528*
X6446Y24525*
X6437Y24522*
X6428Y24520*
X6417Y24518*
X6405Y24517*
X6392Y24516*
X6378Y24515*
Y24496*
X6683*
Y24515*
X6669Y24516*
X6655Y24517*
X6643Y24518*
X6632Y24520*
X6623Y24522*
X6615Y24525*
X6607Y24528*
X6602Y24532*
X6597Y24536*
X6593Y24541*
X6589Y24547*
X6586Y24555*
X6584Y24563*
X6582Y24572*
X6581Y24582*
X6580Y24594*
X6603*
X6624Y24595*
X6645Y24596*
X6665Y24598*
X6702Y24604*
X6719Y24608*
X6736Y24612*
X6752Y24618*
X6766Y24623*
X6780Y24630*
X6793Y24636*
X6806Y24644*
X6817Y24651*
X6828Y24660*
X6838Y24669*
X6856Y24689*
X6871Y24709*
X6884Y24731*
X6895Y24753*
X6903Y24777*
X6909Y24801*
X6912Y24826*
X6914Y24853D02*
X6912Y24826D01*
X6909Y24801*
X6903Y24777*
X6895Y24753*
X6884Y24731*
X6871Y24709*
X6856Y24689*
X6838Y24669*
X6828Y24660*
X6817Y24651*
X6806Y24644*
X6793Y24636*
X6780Y24630*
X6766Y24623*
X6752Y24618*
X6736Y24612*
X6719Y24608*
X6702Y24604*
X6665Y24598*
X6645Y24596*
X6624Y24595*
X6603Y24594*
X6580*
X6581Y24582*
X6582Y24572*
X6584Y24563*
X6586Y24555*
X6589Y24547*
X6593Y24541*
X6597Y24536*
X6602Y24532*
X6607Y24528*
X6615Y24525*
X6623Y24522*
X6632Y24520*
X6643Y24518*
X6655Y24517*
X6669Y24516*
X6683Y24515*
Y24496*
X6378*
Y24515*
X6392Y24516*
X6405Y24517*
X6417Y24518*
X6428Y24520*
X6437Y24522*
X6446Y24525*
X6452Y24528*
X6458Y24531*
X6464Y24535*
X6467Y24541*
X6471Y24547*
X6474Y24554*
X6478Y24572*
X6479Y24582*
X6480Y24594*
X6458*
X6437*
X6417Y24596*
X6398Y24598*
X6379Y24601*
X6361Y24604*
X6345Y24608*
X6328Y24612*
X6312Y24617*
X6297Y24623*
X6284Y24629*
X6271Y24636*
X6258Y24642*
X6235Y24659*
X6225Y24668*
X6207Y24687*
X6191Y24707*
X6178Y24728*
X6167Y24751*
X6158Y24775*
X6152Y24800*
X6149Y24826*
X6147Y24853*
X6148Y24873*
X6150Y24894*
X6154Y24912*
X6158Y24930*
X6165Y24948*
X6173Y24965*
X6182Y24980*
X6194Y24995*
X6205Y25010*
X6218Y25023*
X6231Y25035*
X6245Y25045*
X6259Y25055*
X6275Y25063*
X6291Y25071*
X6307Y25078*
X6325Y25083*
X6344Y25087*
X6363Y25091*
X6385Y25094*
X6407Y25097*
X6430Y25099*
X6455*
X6480Y25100*
X6479Y25111*
X6478Y25120*
Y25129*
X6476Y25136*
X6474Y25143*
X6472Y25149*
X6470Y25154*
X6467Y25158*
X6460Y25164*
X6453Y25170*
X6446Y25174*
X6438Y25177*
X6434Y25179*
X6429*
X6422Y25181*
X6416Y25182*
X6407*
X6398Y25183*
X6389Y25184*
X6378*
Y25203*
X6683*
Y25184*
X6668Y25183*
X6655Y25182*
X6642Y25180*
X6632Y25178*
X6622Y25176*
X6615Y25173*
X6608Y25169*
X6602Y25165*
X6597Y25161*
X6594Y25155*
X6590Y25149*
X6587Y25140*
X6585Y25132*
X6582Y25123*
X6581Y25112*
X6580Y25100*
X6608Y25099*
X6634*
X6658Y25096*
X6681Y25094*
X6703Y25090*
X6722Y25086*
X6741Y25081*
X6758Y25075*
X6774Y25069*
X6789Y25061*
X6804Y25052*
X6818Y25042*
X6832Y25032*
X6844Y25021*
X6857Y25008*
X6868Y24994*
X6879Y24980*
X6888Y24964*
X6896Y24947*
X6903Y24930*
X6907Y24912*
X6911Y24894*
X6913Y24873*
X6914Y24853*
X7185Y24771D02*
X7427D01*
X7308Y25057*
X7185Y24771*
X7361Y23637D02*
X7362Y23668D01*
X7361Y23701*
X7357Y23731*
X7352Y23759*
X7344Y23786*
X7334Y23811*
X7322Y23834*
X7307Y23856*
X7290Y23875*
X7272Y23893*
X7252Y23908*
X7231Y23921*
X7209Y23932*
X7185Y23940*
X7160Y23946*
X7134Y23949*
X7107Y23951*
X7085Y23950*
X7062Y23947*
X7037Y23943*
X7011Y23937*
Y23399*
X7040Y23394*
X7065Y23390*
X7089Y23387*
X7111*
X7137Y23388*
X7162Y23391*
X7187Y23397*
X7210Y23405*
X7231Y23416*
X7252Y23429*
X7272Y23445*
X7290Y23462*
X7307Y23482*
X7322Y23504*
X7334Y23527*
X7344Y23552*
X7352Y23579*
X7357Y23607*
X7361Y23637*
X7362Y23668D02*
X7361Y23637D01*
X7357Y23607*
X7352Y23579*
X7344Y23552*
X7334Y23527*
X7322Y23504*
X7307Y23482*
X7290Y23462*
X7272Y23445*
X7252Y23429*
X7231Y23416*
X7210Y23405*
X7187Y23397*
X7162Y23391*
X7137Y23388*
X7111Y23387*
X7089*
X7065Y23390*
X7040Y23394*
X7011Y23399*
Y23937*
X7037Y23943*
X7062Y23947*
X7085Y23950*
X7107Y23951*
X7134Y23949*
X7160Y23946*
X7185Y23940*
X7209Y23932*
X7231Y23921*
X7252Y23908*
X7272Y23893*
X7290Y23875*
X7307Y23856*
X7322Y23834*
X7334Y23811*
X7344Y23786*
X7352Y23759*
X7357Y23731*
X7361Y23701*
X7362Y23668*
X7427Y24771D02*
X7185D01*
X7308Y25057*
X7427Y24771*
X7434Y24496D02*
X7713D01*
Y24515*
X7693Y24517*
X7675Y24523*
X7659Y24529*
X7645Y24539*
X7639Y24545*
X7633Y24553*
X7627Y24561*
X7620Y24572*
X7613Y24585*
X7606Y24598*
X7599Y24614*
X7592Y24631*
X7345Y25219*
X7327*
X7078Y24637*
X7069Y24618*
X7062Y24602*
X7054Y24587*
X7047Y24573*
X7040Y24561*
X7032Y24551*
X7025Y24543*
X7019Y24535*
X7015Y24532*
X7010Y24529*
X7004Y24526*
X6998Y24524*
X6990Y24522*
X6972Y24517*
X6961Y24515*
Y24496*
X7185*
Y24515*
X7173Y24516*
X7161Y24517*
X7151Y24519*
X7142Y24521*
X7135Y24523*
X7128Y24526*
X7123Y24528*
X7118Y24531*
X7111Y24538*
X7106Y24544*
X7104Y24552*
X7102Y24559*
X7104Y24570*
X7107Y24585*
X7113Y24602*
X7120Y24621*
X7168Y24732*
X7443*
X7485Y24631*
X7490Y24619*
X7494Y24608*
X7498Y24597*
X7501Y24588*
X7503Y24579*
X7505Y24571*
X7506Y24564*
Y24559*
X7505Y24550*
X7503Y24542*
X7497Y24535*
X7491Y24529*
X7487Y24526*
X7482Y24523*
X7476Y24522*
X7470Y24520*
X7462Y24518*
X7453Y24517*
X7444Y24516*
X7434Y24515*
Y24496*
X7468Y23640D02*
X7469Y23673D01*
X7468Y23697*
X7466Y23721*
X7463Y23743*
X7458Y23765*
X7452Y23787*
X7444Y23808*
X7434Y23828*
X7424Y23846*
X7412Y23864*
X7399Y23881*
X7386Y23897*
X7372Y23911*
X7357Y23924*
X7340Y23935*
X7323Y23945*
X7305Y23954*
X7286Y23962*
X7263Y23968*
X7240Y23974*
X7214Y23978*
X7186Y23982*
X7156Y23984*
X7124Y23986*
X7089*
X6831*
Y23969*
X6855*
X6871Y23968*
X6886Y23964*
X6898Y23958*
X6909Y23948*
X6911Y23944*
X6914Y23938*
X6916Y23931*
X6918Y23923*
X6919Y23913*
X6921Y23901*
Y23889*
Y23452*
Y23441*
X6920Y23430*
X6919Y23421*
X6917Y23413*
X6915Y23406*
X6913Y23401*
X6911Y23396*
X6907Y23390*
X6901Y23385*
X6895Y23381*
X6889Y23377*
X6881Y23374*
X6873Y23372*
X6865Y23371*
X6855*
X6831*
Y23353*
X7114*
X7137Y23354*
X7158*
X7180Y23357*
X7201Y23359*
X7220Y23363*
X7239Y23367*
X7257Y23372*
X7275Y23378*
X7292Y23385*
X7308Y23392*
X7323Y23400*
X7338Y23409*
X7352Y23419*
X7365Y23429*
X7377Y23440*
X7389Y23452*
X7407Y23475*
X7424Y23499*
X7437Y23524*
X7449Y23552*
X7458Y23580*
X7464Y23609*
X7468Y23640*
X7469Y23673D02*
X7468Y23640D01*
X7464Y23609*
X7458Y23580*
X7449Y23552*
X7438Y23524*
X7424Y23499*
X7407Y23475*
X7389Y23452*
X7377Y23440*
X7365Y23429*
X7352Y23419*
X7338Y23409*
X7323Y23400*
X7308Y23392*
X7292Y23385*
X7275Y23378*
X7257Y23372*
X7239Y23367*
X7220Y23363*
X7201Y23359*
X7180Y23356*
X7158Y23354*
X7137*
X7114Y23353*
X6831*
Y23371*
X6855*
X6865*
X6873Y23372*
X6881Y23374*
X6889Y23377*
X6895Y23381*
X6901Y23385*
X6907Y23390*
X6911Y23396*
X6913Y23401*
X6915Y23406*
X6917Y23413*
X6919Y23421*
X6920Y23430*
X6921Y23441*
Y23452*
Y23889*
Y23901*
X6919Y23913*
X6918Y23923*
X6916Y23931*
X6914Y23938*
X6911Y23944*
X6909Y23948*
X6898Y23958*
X6886Y23964*
X6871Y23968*
X6855Y23969*
X6831*
Y23986*
X7089*
X7124*
X7156Y23984*
X7186Y23982*
X7214Y23978*
X7240Y23974*
X7263Y23968*
X7286Y23962*
X7305Y23954*
X7323Y23945*
X7340Y23935*
X7357Y23924*
X7372Y23911*
X7386Y23897*
X7399Y23881*
X7412Y23864*
X7424Y23846*
X7434Y23828*
X7444Y23808*
X7452Y23787*
X7458Y23765*
X7463Y23743*
X7466Y23721*
X7468Y23697*
X7469Y23673*
X7714Y24496D02*
X7434D01*
Y24515*
X7444Y24516*
X7453Y24517*
X7462Y24518*
X7470Y24520*
X7476Y24522*
X7482Y24523*
X7487Y24526*
X7491Y24529*
X7497Y24535*
X7503Y24542*
X7505Y24550*
X7506Y24559*
Y24564*
X7505Y24571*
X7503Y24579*
X7501Y24588*
X7498Y24597*
X7494Y24608*
X7490Y24619*
X7485Y24631*
X7443Y24732*
X7168*
X7120Y24621*
X7113Y24602*
X7107Y24585*
X7104Y24570*
X7102Y24559*
X7104Y24552*
X7106Y24544*
X7111Y24538*
X7118Y24531*
X7123Y24528*
X7128Y24526*
X7135Y24523*
X7142Y24521*
X7151Y24519*
X7161Y24517*
X7173Y24516*
X7185Y24515*
Y24496*
X6961*
Y24515*
X6972Y24517*
X6990Y24522*
X6998Y24524*
X7004Y24526*
X7010Y24529*
X7015Y24532*
X7019Y24535*
X7025Y24543*
X7032Y24551*
X7040Y24561*
X7047Y24573*
X7054Y24587*
X7062Y24602*
X7069Y24618*
X7078Y24637*
X7327Y25219*
X7345*
X7592Y24631*
X7599Y24614*
X7606Y24598*
X7613Y24585*
X7620Y24572*
X7627Y24561*
X7633Y24553*
X7639Y24545*
X7645Y24539*
X7659Y24529*
X7675Y24523*
X7693Y24517*
X7714Y24515*
Y24496*
X8387Y24639D02*
X8400Y24662D01*
X8384Y24672*
X8369Y24651*
X8353Y24632*
X8338Y24615*
X8324Y24599*
X8310Y24585*
X8295Y24573*
X8282Y24563*
X8269Y24555*
X8255Y24548*
X8241Y24542*
X8227Y24537*
X8197Y24529*
X8180Y24527*
X8164Y24526*
X8147*
X8128*
X8108Y24528*
X8091Y24531*
X8073Y24535*
X8055Y24540*
X8038Y24547*
X8022Y24554*
X8007Y24563*
X7992Y24573*
X7978Y24584*
X7965Y24596*
X7952Y24609*
X7942Y24623*
X7931Y24638*
X7922Y24654*
X7914Y24671*
X7906Y24689*
X7901Y24708*
X7895Y24728*
X7891Y24748*
X7888Y24769*
X7886Y24791*
X7884Y24814*
X7883Y24838*
X7884Y24866*
X7886Y24893*
X7888Y24919*
X7892Y24944*
X7896Y24968*
X7901Y24990*
X7908Y25012*
X7915Y25032*
X7924Y25051*
X7933Y25069*
X7944Y25084*
X7954Y25099*
X7966Y25113*
X7978Y25126*
X7991Y25136*
X8005Y25146*
X8019Y25154*
X8034Y25161*
X8049Y25167*
X8065Y25173*
X8081Y25176*
X8097Y25179*
X8114Y25181*
X8132Y25182*
X8153Y25181*
X8172Y25179*
X8191Y25175*
X8209Y25170*
X8227Y25163*
X8244Y25155*
X8260Y25145*
X8275Y25134*
X8289Y25121*
X8304Y25106*
X8316Y25090*
X8328Y25071*
X8340Y25051*
X8349Y25028*
X8359Y25004*
X8367Y24978*
X8384*
X8367Y25219*
X8349*
X8346Y25207*
X8342Y25197*
X8337Y25188*
X8330Y25179*
X8325Y25175*
X8319Y25172*
X8313Y25170*
X8305*
X8300*
X8293Y25173*
X8284Y25176*
X8275Y25181*
X8256Y25190*
X8237Y25197*
X8218Y25204*
X8199Y25209*
X8180Y25214*
X8162Y25217*
X8142Y25218*
X8123Y25219*
X8099Y25218*
X8075Y25216*
X8052Y25212*
X8028Y25207*
X8006Y25200*
X7984Y25191*
X7963Y25182*
X7942Y25170*
X7921Y25158*
X7902Y25143*
X7884Y25128*
X7868Y25111*
X7852Y25093*
X7837Y25075*
X7823Y25054*
X7811Y25033*
X7800Y25010*
X7791Y24987*
X7782Y24964*
X7776Y24940*
X7770Y24915*
X7767Y24891*
X7764Y24864*
Y24838*
X7765Y24806*
X7768Y24775*
X7774Y24745*
X7782Y24716*
X7792Y24688*
X7804Y24661*
X7819Y24635*
X7835Y24610*
X7848Y24594*
X7861Y24579*
X7874Y24566*
X7889Y24553*
X7904Y24541*
X7919Y24531*
X7935Y24521*
X7952Y24512*
X7969Y24505*
X7987Y24498*
X8006Y24493*
X8025Y24488*
X8045Y24484*
X8065Y24482*
X8086Y24481*
X8108Y24480*
X8132Y24481*
X8155Y24483*
X8177Y24486*
X8198Y24491*
X8219Y24497*
X8239Y24505*
X8258Y24514*
X8276Y24523*
X8293Y24535*
X8310Y24549*
X8327Y24564*
X8343Y24580*
X8358Y24598*
X8373Y24618*
X8387Y24639*
X8400Y24662D02*
X8387Y24639D01*
X8373Y24618*
X8358Y24598*
X8343Y24580*
X8327Y24564*
X8310Y24549*
X8293Y24535*
X8276Y24523*
X8258Y24514*
X8239Y24505*
X8219Y24497*
X8198Y24491*
X8177Y24486*
X8155Y24483*
X8132Y24481*
X8108Y24480*
X8086Y24481*
X8065Y24482*
X8045Y24484*
X8025Y24488*
X8006Y24493*
X7987Y24498*
X7969Y24505*
X7952Y24512*
X7935Y24521*
X7919Y24531*
X7904Y24541*
X7889Y24553*
X7874Y24566*
X7861Y24579*
X7848Y24594*
X7835Y24610*
X7819Y24635*
X7804Y24661*
X7792Y24688*
X7782Y24716*
X7774Y24745*
X7768Y24775*
X7765Y24806*
X7764Y24838*
Y24864*
X7767Y24891*
X7770Y24915*
X7776Y24940*
X7782Y24964*
X7791Y24987*
X7800Y25010*
X7811Y25033*
X7823Y25054*
X7837Y25075*
X7852Y25093*
X7868Y25111*
X7884Y25128*
X7902Y25143*
X7921Y25158*
X7942Y25170*
X7963Y25182*
X7984Y25191*
X8006Y25200*
X8028Y25207*
X8052Y25212*
X8075Y25216*
X8099Y25218*
X8123Y25219*
X8142Y25218*
X8162Y25217*
X8180Y25214*
X8199Y25209*
X8218Y25204*
X8237Y25197*
X8256Y25190*
X8275Y25181*
X8284Y25176*
X8293Y25173*
X8300Y25170*
X8305*
X8313*
X8319Y25172*
X8325Y25175*
X8330Y25179*
X8337Y25188*
X8342Y25197*
X8346Y25207*
X8349Y25219*
X8367*
X8384Y24978*
X8367*
X8359Y25004*
X8349Y25028*
X8340Y25051*
X8328Y25071*
X8316Y25090*
X8304Y25106*
X8289Y25121*
X8275Y25134*
X8260Y25145*
X8244Y25155*
X8227Y25163*
X8209Y25170*
X8191Y25175*
X8172Y25179*
X8153Y25181*
X8132Y25182*
X8114Y25181*
X8097Y25179*
X8081Y25176*
X8065Y25173*
X8049Y25167*
X8034Y25161*
X8019Y25154*
X8005Y25146*
X7991Y25136*
X7978Y25126*
X7966Y25113*
X7954Y25099*
X7944Y25084*
X7933Y25069*
X7924Y25051*
X7915Y25032*
X7908Y25012*
X7901Y24990*
X7896Y24968*
X7892Y24944*
X7888Y24919*
X7886Y24893*
X7884Y24866*
X7883Y24838*
X7884Y24814*
X7886Y24791*
X7888Y24769*
X7891Y24748*
X7895Y24728*
X7901Y24708*
X7907Y24689*
X7914Y24671*
X7922Y24654*
X7931Y24638*
X7942Y24623*
X7952Y24609*
X7965Y24596*
X7978Y24584*
X7992Y24573*
X8007Y24563*
X8022Y24554*
X8038Y24547*
X8055Y24540*
X8073Y24535*
X8091Y24531*
X8108Y24528*
X8128Y24526*
X8147*
X8164*
X8180Y24527*
X8197Y24529*
X8227Y24537*
X8241Y24542*
X8255Y24548*
X8269Y24555*
X8282Y24563*
X8295Y24573*
X8310Y24585*
X8324Y24599*
X8338Y24615*
X8353Y24632*
X8369Y24651*
X8384Y24672*
X8400Y24662*
X8464Y23497D02*
Y23514D01*
X8463Y23533*
X8460Y23552*
X8454Y23569*
X8447Y23587*
X8437Y23603*
X8425Y23619*
X8412Y23634*
X8397Y23647*
X8388Y23654*
X8377Y23661*
X8364Y23669*
X8350Y23678*
X8334Y23687*
X8316Y23697*
X8297Y23709*
X8275Y23720*
X8249Y23734*
X8226Y23747*
X8205Y23760*
X8186Y23772*
X8170Y23784*
X8156Y23794*
X8146Y23804*
X8137Y23813*
X8128Y23825*
X8122Y23838*
X8118Y23852*
X8117Y23866*
Y23875*
X8119Y23884*
X8122Y23893*
X8125Y23901*
X8130Y23910*
X8135Y23918*
X8141Y23925*
X8149Y23933*
X8157Y23940*
X8166Y23946*
X8175Y23951*
Y23952*
X8184Y23956*
X8195Y23959*
X8206Y23961*
X8217Y23962*
X8229Y23963*
X8240Y23962*
X8251*
X8261Y23960*
X8271Y23958*
X8282Y23954*
X8292Y23950*
X8302Y23946*
X8312Y23941*
X8332Y23929*
X8348Y23915*
X8362Y23899*
X8375Y23882*
X8380Y23872*
X8385Y23861*
X8389Y23850*
X8393Y23838*
X8397Y23825*
X8399Y23812*
X8403Y23797*
X8405Y23782*
X8422*
Y24000*
X8405*
X8402Y23990*
X8399Y23982*
X8396Y23976*
X8393Y23972*
X8388Y23968*
X8383Y23966*
X8378Y23965*
X8373Y23964*
X8372*
X8366Y23965*
X8358Y23967*
X8348Y23971*
X8336Y23976*
X8322Y23982*
X8308Y23986*
X8294Y23991*
X8280Y23994*
X8267Y23997*
X8254Y23999*
X8241Y24000*
X8228*
X8209*
X8190Y23997*
X8172Y23994*
X8154Y23988*
X8138Y23981*
X8123Y23973*
X8109Y23963*
X8095Y23951*
X8083Y23939*
X8072Y23925*
X8063Y23911*
X8056Y23897*
X8050Y23882*
X8046Y23866*
X8043Y23850*
Y23834*
X8044Y23814*
X8047Y23796*
X8053Y23779*
X8061Y23762*
X8070Y23746*
X8082Y23731*
X8096Y23716*
X8112Y23702*
X8122Y23695*
X8133Y23687*
X8145Y23679*
X8159Y23670*
X8174Y23661*
X8190Y23651*
X8209Y23641*
X8229Y23630*
X8248Y23619*
X8265Y23609*
X8281Y23600*
X8294Y23593*
X8306Y23585*
X8316Y23579*
X8323Y23575*
X8328Y23571*
X8341Y23560*
X8352Y23549*
X8361Y23538*
X8368Y23526*
X8374Y23514*
X8378Y23502*
X8381Y23491*
Y23479*
Y23469*
X8379Y23459*
X8377Y23449*
X8373Y23439*
X8368Y23431*
X8362Y23422*
X8355Y23414*
X8347Y23406*
X8338Y23399*
X8329Y23393*
X8318Y23387*
X8308Y23383*
X8296Y23379*
X8283Y23377*
X8269Y23376*
X8255Y23375*
X8243*
X8231Y23377*
X8207Y23381*
X8195Y23384*
X8184Y23388*
X8173Y23393*
X8162Y23397*
X8152Y23403*
X8142Y23409*
X8134Y23416*
X8126Y23423*
X8118Y23430*
X8111Y23437*
X8105Y23446*
X8099Y23454*
X8094Y23463*
X8089Y23473*
X8085Y23484*
X8081Y23496*
X8077Y23510*
X8073Y23524*
X8070Y23539*
X8067Y23556*
X8049*
Y23339*
X8067*
X8069Y23349*
X8071Y23357*
X8073Y23364*
X8077Y23368*
X8081Y23371*
X8085Y23373*
X8089Y23375*
X8095*
X8099*
X8103*
X8109Y23373*
X8115Y23371*
X8124Y23369*
X8132Y23367*
X8142Y23364*
X8153Y23361*
X8164Y23357*
X8174Y23354*
X8182Y23351*
X8190Y23348*
X8198Y23346*
X8204Y23345*
X8209Y23344*
X8213Y23343*
X8238Y23340*
X8265Y23339*
X8286Y23340*
X8307Y23342*
X8326Y23346*
X8344Y23352*
X8362Y23359*
X8379Y23369*
X8394Y23379*
X8409Y23391*
X8421Y23404*
X8433Y23418*
X8442Y23433*
X8450Y23448*
X8456Y23464*
X8461Y23480*
X8464Y23497*
Y23514D02*
Y23497D01*
X8461Y23480*
X8456Y23464*
X8450Y23448*
X8442Y23433*
X8433Y23418*
X8421Y23404*
X8409Y23391*
X8394Y23379*
X8379Y23369*
X8362Y23359*
X8344Y23352*
X8326Y23346*
X8307Y23342*
X8286Y23340*
X8265Y23339*
X8238Y23340*
X8213Y23343*
X8209Y23344*
X8204Y23345*
X8198Y23346*
X8190Y23348*
X8182Y23351*
X8174Y23354*
X8164Y23357*
X8153Y23361*
X8142Y23364*
X8132Y23367*
X8124Y23369*
X8115Y23371*
X8109Y23373*
X8103Y23375*
X8099*
X8095*
X8089*
X8085Y23373*
X8081Y23371*
X8077Y23368*
X8073Y23364*
X8071Y23357*
X8069Y23349*
X8067Y23339*
X8049*
Y23556*
X8067*
X8070Y23539*
X8073Y23524*
X8077Y23510*
X8081Y23496*
X8085Y23484*
X8089Y23473*
X8094Y23463*
X8099Y23454*
X8105Y23446*
X8111Y23437*
X8118Y23430*
X8126Y23423*
X8134Y23416*
X8142Y23409*
X8152Y23403*
X8162Y23397*
X8173Y23393*
X8184Y23388*
X8195Y23384*
X8207Y23381*
X8231Y23377*
X8243Y23375*
X8255*
X8269Y23376*
X8283Y23377*
X8296Y23379*
X8308Y23383*
X8318Y23387*
X8329Y23393*
X8338Y23399*
X8347Y23406*
X8355Y23414*
X8362Y23422*
X8368Y23431*
X8372Y23439*
X8377Y23449*
X8379Y23459*
X8381Y23469*
Y23479*
Y23491*
X8378Y23502*
X8374Y23514*
X8368Y23526*
X8361Y23538*
X8352Y23549*
X8341Y23560*
X8328Y23571*
X8323Y23575*
X8316Y23579*
X8306Y23585*
X8294Y23593*
X8281Y23600*
X8265Y23609*
X8248Y23619*
X8229Y23630*
X8209Y23641*
X8190Y23651*
X8174Y23661*
X8159Y23670*
X8145Y23679*
X8133Y23687*
X8122Y23695*
X8112Y23702*
X8096Y23716*
X8082Y23731*
X8070Y23746*
X8061Y23762*
X8053Y23779*
X8047Y23796*
X8044Y23814*
X8043Y23834*
Y23850*
X8046Y23866*
X8050Y23882*
X8056Y23897*
X8063Y23911*
X8072Y23925*
X8083Y23939*
X8095Y23951*
X8109Y23963*
X8123Y23973*
X8138Y23981*
X8154Y23988*
X8172Y23994*
X8190Y23997*
X8209Y24000*
X8228*
X8241*
X8254Y23999*
X8267Y23997*
X8280Y23994*
X8294Y23991*
X8308Y23986*
X8322Y23982*
X8336Y23976*
X8348Y23971*
X8358Y23967*
X8366Y23965*
X8373Y23964*
X8378Y23965*
X8383Y23966*
X8388Y23968*
X8393Y23972*
X8396Y23976*
X8399Y23982*
X8402Y23990*
X8405Y24000*
X8422*
Y23781*
X8405*
X8403Y23797*
X8399Y23812*
X8397Y23825*
X8393Y23838*
X8389Y23850*
X8385Y23861*
X8380Y23872*
X8375Y23882*
X8362Y23899*
X8348Y23915*
X8332Y23929*
X8312Y23941*
X8302Y23946*
X8292Y23950*
X8282Y23954*
X8271Y23958*
X8261Y23960*
X8251Y23962*
X8240*
X8229Y23963*
X8217Y23962*
X8206Y23961*
X8195Y23959*
X8184Y23956*
X8175Y23951*
X8166Y23946*
X8157Y23940*
X8149Y23933*
X8141Y23925*
X8135Y23918*
X8130Y23910*
X8125Y23901*
X8122Y23893*
X8119Y23884*
X8118Y23875*
X8117Y23866*
X8118Y23852*
X8122Y23838*
X8128Y23825*
X8137Y23813*
X8146Y23804*
X8156Y23794*
X8170Y23784*
X8186Y23772*
X8205Y23760*
X8226Y23747*
X8249Y23734*
X8275Y23720*
X8297Y23709*
X8316Y23697*
X8334Y23687*
X8350Y23678*
X8364Y23669*
X8377Y23661*
X8388Y23654*
X8397Y23647*
X8412Y23634*
X8425Y23619*
X8437Y23603*
X8447Y23587*
X8454Y23569*
X8460Y23552*
X8463Y23533*
X8464Y23514*
X8628Y24528D02*
X8629Y24539D01*
X8628Y24551*
X8625Y24561*
X8619Y24571*
X8613Y24580*
X8604Y24588*
X8594Y24593*
X8583Y24597*
X8571*
X8560*
X8549Y24593*
X8539Y24588*
X8530Y24581*
X8523Y24572*
X8518Y24562*
X8514Y24551*
X8513Y24539*
X8514Y24528*
X8518Y24517*
X8523Y24508*
X8530Y24499*
X8539Y24491*
X8549Y24486*
X8560Y24482*
X8571Y24481*
X8583Y24482*
X8593Y24486*
X8603Y24491*
X8612Y24499*
X8619Y24508*
X8625Y24517*
X8628Y24528*
X8629Y24539D02*
X8628Y24528D01*
X8625Y24517*
X8619Y24508*
X8612Y24499*
X8603Y24491*
X8593Y24486*
X8583Y24482*
X8571Y24481*
X8560Y24482*
X8549Y24486*
X8539Y24491*
X8530Y24499*
X8523Y24508*
X8518Y24517*
X8514Y24528*
X8513Y24539*
X8514Y24551*
X8518Y24562*
X8523Y24572*
X8530Y24581*
X8539Y24588*
X8549Y24593*
X8560Y24597*
X8571*
X8583*
X8594Y24593*
X8604Y24588*
X8613Y24580*
X8619Y24571*
X8625Y24561*
X8628Y24551*
X8629Y24539*
X8686Y23382D02*
Y23392D01*
Y23403*
X8682Y23412*
X8678Y23421*
X8672Y23429*
X8664Y23435*
X8655Y23440*
X8645Y23443*
X8635Y23444*
X8624Y23443*
X8615Y23440*
X8606Y23435*
X8598Y23429*
X8591Y23421*
X8587Y23413*
X8583Y23403*
Y23392*
Y23382*
X8587Y23373*
X8591Y23364*
X8598Y23356*
X8606Y23349*
X8615Y23344*
X8624Y23341*
X8635Y23340*
X8645Y23341*
X8654Y23344*
X8663Y23349*
X8671Y23356*
X8678Y23364*
X8682Y23373*
X8686Y23382*
Y23392D02*
Y23382D01*
X8682Y23373*
X8678Y23364*
X8671Y23356*
X8663Y23349*
X8654Y23344*
X8645Y23341*
X8635Y23340*
X8624Y23341*
X8615Y23344*
X8606Y23349*
X8598Y23356*
X8591Y23364*
X8587Y23373*
X8583Y23382*
Y23392*
Y23403*
X8587Y23413*
X8591Y23421*
X8598Y23429*
X8606Y23435*
X8615Y23440*
X8624Y23444*
X8635*
X8645*
X8655Y23440*
X8664Y23435*
X8672Y23429*
X8678Y23421*
X8682Y23412*
X8686Y23403*
Y23392*
X8772Y24757D02*
X9021D01*
Y25108*
X8772Y24757*
X9021D02*
X8772D01*
X9021Y25108*
Y24757*
X9107Y24683D02*
X9202D01*
Y24757*
X9107*
Y25218*
X9049*
X8721Y24749*
Y24683*
X9021*
Y24496*
X9107*
Y24683*
X9202D02*
X9107D01*
Y24496*
X9021*
Y24683*
X8721*
Y24749*
X9049Y25218*
X9107*
Y24757*
X9202*
Y24683*
X9409Y23969D02*
X9431D01*
Y23986*
X9211*
Y23969*
X9233*
X9251Y23968*
X9265Y23964*
X9278Y23958*
X9287Y23949*
X9291Y23945*
X9293Y23939*
X9295Y23932*
X9297Y23924*
X9299Y23914*
X9300Y23903*
X9301Y23891*
Y23511*
X8913Y23986*
X8741*
Y23969*
X8754*
X8765Y23968*
X8775Y23966*
X8782Y23965*
X8795Y23960*
X8806Y23956*
X8816Y23951*
X8824Y23945*
X8828Y23943*
X8832Y23939*
X8836Y23935*
X8842Y23930*
X8847Y23924*
X8853Y23918*
X8859Y23911*
X8866Y23903*
Y23450*
X8865Y23439*
X8864Y23428*
X8863Y23419*
X8862Y23411*
X8860Y23405*
X8858Y23399*
X8856Y23395*
X8851Y23389*
X8846Y23384*
X8840Y23380*
X8833Y23377*
X8825Y23374*
X8817Y23372*
X8808Y23371*
X8798*
X8776*
Y23353*
X8996*
Y23371*
X8974*
X8957Y23372*
X8942Y23375*
X8929Y23381*
X8919Y23390*
X8916Y23395*
X8914Y23400*
X8911Y23407*
X8910Y23415*
X8909Y23425*
X8907Y23436*
Y23449*
Y23854*
X9325Y23343*
X9342*
Y23889*
Y23901*
X9343Y23911*
X9344Y23920*
X9346Y23928*
X9348Y23935*
X9350Y23940*
X9352Y23945*
X9356Y23950*
X9362Y23956*
X9368Y23960*
X9374Y23963*
X9382Y23966*
X9390Y23968*
X9399*
X9409Y23969*
X9431D02*
X9409D01*
X9399Y23968*
X9390*
X9382Y23966*
X9374Y23963*
X9368Y23960*
X9362Y23956*
X9356Y23950*
X9352Y23945*
X9350Y23940*
X9348Y23935*
X9346Y23928*
X9344Y23920*
X9343Y23911*
X9342Y23901*
Y23889*
Y23343*
X9325*
X8907Y23854*
Y23449*
Y23436*
X8909Y23425*
X8910Y23415*
X8911Y23407*
X8914Y23400*
X8916Y23395*
X8919Y23390*
X8929Y23381*
X8942Y23375*
X8957Y23372*
X8974Y23371*
X8996*
Y23353*
X8776*
Y23371*
X8798*
X8808*
X8817Y23372*
X8825Y23374*
X8833Y23377*
X8840Y23380*
X8846Y23384*
X8851Y23389*
X8856Y23395*
X8858Y23399*
X8860Y23405*
X8862Y23411*
X8863Y23419*
X8864Y23428*
X8865Y23439*
X8866Y23450*
Y23903*
X8859Y23911*
X8853Y23918*
X8847Y23924*
X8842Y23930*
X8836Y23935*
X8832Y23939*
X8828Y23943*
X8824Y23945*
X8816Y23951*
X8806Y23956*
X8795Y23960*
X8782Y23965*
X8775Y23966*
X8765Y23968*
X8754Y23969*
X8741*
Y23986*
X8913*
X9301Y23511*
Y23891*
X9300Y23903*
X9299Y23914*
X9297Y23924*
X9295Y23932*
X9293Y23939*
X9291Y23945*
X9287Y23949*
X9278Y23958*
X9265Y23964*
X9251Y23968*
X9233Y23969*
X9211*
Y23986*
X9431*
Y23969*
X9615Y23382D02*
X9616Y23392D01*
X9615Y23403*
X9612Y23412*
X9607Y23421*
X9601Y23429*
X9593Y23435*
X9585Y23440*
X9575Y23443*
X9565Y23444*
X9554Y23443*
X9544Y23440*
X9536Y23435*
X9528Y23429*
X9521Y23421*
X9516Y23413*
X9513Y23403*
X9512Y23392*
X9513Y23382*
X9516Y23373*
X9521Y23364*
X9528Y23356*
X9536Y23349*
X9544Y23344*
X9554Y23341*
X9565Y23340*
X9575Y23341*
X9584Y23344*
X9593Y23349*
X9601Y23356*
X9607Y23364*
X9612Y23373*
X9615Y23382*
X9616Y23392D02*
X9615Y23382D01*
X9612Y23373*
X9607Y23364*
X9601Y23356*
X9593Y23349*
X9584Y23344*
X9575Y23341*
X9565Y23340*
X9554Y23341*
X9544Y23344*
X9536Y23349*
X9528Y23356*
X9521Y23364*
X9516Y23373*
X9513Y23382*
X9512Y23392*
X9513Y23403*
X9516Y23413*
X9521Y23421*
X9528Y23429*
X9536Y23435*
X9544Y23440*
X9554Y23444*
X9565*
X9575*
X9585Y23440*
X9593Y23435*
X9601Y23429*
X9607Y23421*
X9612Y23412*
X9615Y23403*
X9616Y23392*
X9640Y24658D02*
Y24677D01*
Y24699*
X9638Y24720*
X9635Y24740*
X9631Y24760*
X9626Y24779*
X9620Y24797*
X9614Y24814*
X9613*
X9605Y24832*
X9596Y24846*
X9585Y24860*
X9574Y24871*
X9562Y24880*
X9549Y24888*
X9535Y24892*
X9520Y24896*
X9504Y24897*
X9494Y24896*
X9483Y24894*
X9473Y24892*
X9462Y24888*
X9449Y24883*
X9433Y24875*
X9415Y24865*
X9394Y24852*
X9392Y24835*
X9390Y24819*
X9388Y24803*
X9387Y24789*
X9386Y24775*
X9385Y24762*
Y24750*
Y24739*
X9386Y24713*
X9389Y24686*
X9395Y24659*
X9403Y24630*
X9408Y24615*
X9414Y24602*
X9420Y24589*
X9427Y24577*
X9433Y24566*
X9441Y24556*
X9450Y24546*
X9459Y24537*
X9465Y24531*
X9472Y24526*
X9480Y24522*
X9488Y24518*
X9496Y24516*
X9505Y24514*
X9514Y24512*
X9523*
X9534Y24513*
X9545Y24515*
X9556Y24518*
X9566Y24523*
X9576Y24529*
X9586Y24536*
X9596Y24545*
X9605Y24555*
X9613Y24566*
X9620Y24579*
X9626Y24592*
X9631Y24606*
X9635Y24623*
X9638Y24639*
X9640Y24658*
Y24677D02*
Y24658D01*
X9638Y24639*
X9635Y24623*
X9631Y24606*
X9626Y24592*
X9620Y24579*
X9613Y24566*
X9605Y24555*
X9596Y24545*
X9586Y24536*
X9576Y24529*
X9566Y24523*
X9556Y24518*
X9545Y24515*
X9534Y24513*
X9523Y24512*
X9514*
X9505Y24514*
X9496Y24516*
X9488Y24518*
X9480Y24522*
X9472Y24526*
X9465Y24531*
X9459Y24537*
X9450Y24546*
X9441Y24556*
X9433Y24566*
X9426Y24577*
X9420Y24589*
X9414Y24602*
X9408Y24615*
X9403Y24630*
X9395Y24659*
X9389Y24686*
X9386Y24713*
X9385Y24739*
Y24750*
Y24762*
X9386Y24775*
X9387Y24789*
X9388Y24803*
X9390Y24819*
X9392Y24835*
X9394Y24852*
X9415Y24865*
X9433Y24875*
X9449Y24883*
X9462Y24888*
X9473Y24892*
X9483Y24894*
X9494Y24896*
X9504Y24897*
X9520Y24896*
X9535Y24892*
X9549Y24888*
X9562Y24880*
X9574Y24871*
X9585Y24860*
X9596Y24847*
Y24846*
X9605Y24832*
X9614Y24814*
X9620Y24797*
X9626Y24779*
X9631Y24760*
X9635Y24740*
X9638Y24720*
X9640Y24699*
Y24677*
X9732Y24712D02*
X9733Y24734D01*
X9732Y24756*
X9730Y24777*
X9726Y24798*
X9720Y24817*
X9712Y24835*
X9703Y24852*
X9693Y24869*
X9680Y24884*
X9667Y24897*
X9652Y24909*
X9637Y24919*
X9622Y24927*
X9606Y24934*
X9589Y24938*
X9572Y24941*
X9554Y24942*
X9535Y24941*
X9516Y24939*
X9498Y24935*
X9479Y24930*
X9459Y24922*
X9441Y24913*
X9422Y24903*
X9403Y24891*
X9413Y24925*
X9424Y24957*
X9436Y24986*
X9450Y25013*
X9465Y25039*
X9482Y25063*
X9500Y25086*
X9521Y25108*
X9542Y25128*
X9563Y25144*
X9585Y25159*
X9607Y25170*
X9618Y25176*
X9630Y25180*
X9643Y25184*
X9656Y25188*
X9671Y25191*
X9686Y25194*
X9703Y25196*
X9719Y25198*
Y25218*
X9688*
X9660Y25216*
X9631Y25212*
X9600Y25205*
X9568Y25194*
X9551Y25188*
X9535Y25180*
X9519Y25171*
X9501Y25161*
X9485Y25149*
X9468Y25136*
X9450Y25121*
X9432Y25105*
X9415Y25088*
X9399Y25071*
X9384Y25053*
X9370Y25034*
X9356Y25015*
X9344Y24995*
X9333Y24974*
X9323Y24953*
X9314Y24932*
X9307Y24910*
X9300Y24888*
X9295Y24865*
X9290Y24843*
X9287Y24820*
X9286Y24796*
X9285Y24773*
X9286Y24754*
X9287Y24737*
X9291Y24702*
X9295Y24686*
X9299Y24669*
X9304Y24654*
X9310Y24638*
X9317Y24623*
X9324Y24609*
X9332Y24594*
X9341Y24581*
X9351Y24567*
X9361Y24555*
X9373Y24543*
X9385Y24531*
X9397Y24520*
X9412Y24510*
X9426Y24502*
X9441Y24495*
X9456Y24490*
X9473Y24486*
X9490Y24484*
X9508Y24483*
X9534Y24484*
X9559Y24488*
X9582Y24496*
X9604Y24505*
X9625Y24517*
X9644Y24533*
X9662Y24551*
X9679Y24572*
X9692Y24590*
X9703Y24609*
X9712Y24629*
X9720Y24648*
X9726Y24669*
X9730Y24690*
X9732Y24712*
X9733Y24734D02*
X9732Y24712D01*
X9730Y24690*
X9726Y24669*
X9720Y24648*
X9712Y24629*
X9703Y24609*
X9692Y24590*
X9679Y24572*
X9662Y24551*
X9644Y24533*
X9625Y24517*
X9604Y24505*
X9582Y24496*
X9559Y24488*
X9534Y24484*
X9508Y24483*
X9490Y24484*
X9473Y24486*
X9456Y24490*
X9441Y24495*
X9426Y24502*
X9412Y24510*
X9397Y24520*
X9385Y24531*
X9373Y24543*
X9361Y24555*
X9351Y24567*
X9341Y24581*
X9332Y24594*
X9324Y24609*
X9317Y24623*
X9310Y24638*
X9304Y24654*
X9299Y24669*
X9295Y24686*
X9291Y24702*
X9287Y24737*
X9286Y24754*
X9285Y24773*
X9286Y24796*
X9287Y24820*
X9290Y24843*
X9295Y24865*
X9300Y24888*
X9307Y24910*
X9314Y24932*
X9323Y24953*
X9333Y24974*
X9344Y24995*
X9356Y25015*
X9370Y25034*
X9384Y25053*
X9399Y25071*
X9415Y25088*
X9432Y25105*
X9450Y25121*
X9468Y25136*
X9485Y25149*
X9501Y25161*
X9519Y25171*
X9535Y25180*
X9551Y25188*
X9568Y25194*
X9600Y25205*
X9631Y25212*
X9660Y25216*
X9688Y25218*
X9719*
Y25198*
X9703Y25196*
X9686Y25194*
X9671Y25191*
X9656Y25188*
X9643Y25184*
X9630Y25180*
X9618Y25176*
X9607Y25170*
X9585Y25159*
X9563Y25144*
X9542Y25128*
X9521Y25108*
X9500Y25086*
X9482Y25063*
X9465Y25039*
X9450Y25013*
X9436Y24986*
X9424Y24957*
X9413Y24925*
X9403Y24891*
X9422Y24903*
X9441Y24913*
X9459Y24922*
X9479Y24930*
X9498Y24935*
X9516Y24939*
X9535Y24942*
X9554*
X9572*
X9589Y24939*
X9606Y24934*
X9622Y24927*
X9637Y24919*
X9652Y24909*
X9667Y24897*
X9680Y24884*
X9693Y24869*
X9703Y24852*
X9712Y24835*
X9720Y24817*
X9726Y24798*
X9730Y24777*
X9732Y24756*
X9733Y24734*
X10157Y25051D02*
X10158Y25071D01*
X10157Y25084*
X10156Y25096*
X10154Y25108*
X10151Y25120*
X10146Y25130*
X10141Y25140*
X10134Y25149*
X10127Y25156*
X10119Y25164*
X10110Y25170*
X10101Y25176*
X10091Y25180*
X10080Y25183*
X10068Y25185*
X10056Y25187*
X10043Y25188*
X10030Y25187*
X10017Y25185*
X10005Y25183*
X9994Y25180*
X9984Y25176*
X9974Y25170*
X9964Y25164*
X9956Y25157*
X9948Y25149*
X9941Y25140*
X9936Y25132*
X9931Y25123*
X9927Y25114*
X9925Y25105*
X9923Y25095*
X9922Y25084*
X9923Y25071*
X9926Y25057*
X9930Y25044*
X9937Y25031*
X9944Y25017*
X9953Y25004*
X9964Y24991*
X9976Y24979*
X10062Y24908*
X10077Y24921*
X10091Y24935*
X10103Y24947*
X10113Y24958*
X10122Y24969*
X10130Y24979*
X10136Y24988*
X10142Y24997*
X10148Y25013*
X10154Y25031*
X10157Y25051*
X10158Y25071D02*
X10157Y25051D01*
X10154Y25031*
X10148Y25013*
X10142Y24997*
X10136Y24988*
X10130Y24979*
X10122Y24969*
X10113Y24958*
X10103Y24947*
X10091Y24935*
X10077Y24921*
X10062Y24908*
X9976Y24979*
X9964Y24991*
X9953Y25004*
X9944Y25017*
X9937Y25031*
X9930Y25044*
X9926Y25057*
X9923Y25071*
X9922Y25084*
X9923Y25095*
X9925Y25105*
X9927Y25114*
X9931Y25123*
X9936Y25132*
X9941Y25140*
X9948Y25149*
X9956Y25157*
X9964Y25164*
X9974Y25170*
X9984Y25176*
X9994Y25180*
X10005Y25183*
X10017Y25185*
X10030Y25187*
X10043Y25188*
X10056Y25187*
X10068Y25185*
X10080Y25183*
X10091Y25180*
X10101Y25176*
X10110Y25170*
X10119Y25164*
X10127Y25156*
X10134Y25149*
X10141Y25140*
X10146Y25130*
X10151Y25120*
X10154Y25108*
X10156Y25096*
X10157Y25084*
X10158Y25071*
X10174Y24609D02*
X10175Y24621D01*
X10173Y24639*
X10169Y24656*
X10163Y24672*
X10154Y24688*
X10144Y24702*
X10131Y24717*
X10116Y24734*
X10098Y24751*
X10079Y24770*
X10056Y24790*
X10032Y24811*
X10005Y24832*
X9985Y24814*
X9967Y24794*
X9952Y24774*
X9940Y24752*
X9931Y24731*
X9925Y24708*
X9921Y24684*
X9919Y24659*
X9920Y24643*
X9922Y24627*
X9925Y24613*
X9928Y24599*
X9934Y24586*
X9940Y24573*
X9948Y24562*
X9956Y24552*
X9966Y24542*
X9976Y24534*
X9987Y24527*
X9998Y24521*
X10010Y24517*
X10023Y24514*
X10036Y24512*
X10050Y24511*
X10064Y24512*
X10077Y24514*
X10089Y24516*
X10101Y24520*
X10112Y24524*
X10122Y24529*
X10132Y24535*
X10141Y24543*
X10148Y24551*
X10155Y24560*
X10161Y24569*
X10166Y24578*
X10170Y24588*
X10172Y24598*
X10174Y24609*
X10175Y24621D02*
X10174Y24609D01*
X10172Y24598*
X10170Y24588*
X10166Y24578*
X10161Y24569*
X10155Y24560*
X10148Y24551*
X10141Y24543*
X10132Y24535*
X10122Y24529*
X10112Y24524*
X10101Y24520*
X10089Y24516*
X10077Y24514*
X10064Y24512*
X10050Y24511*
X10036Y24512*
X10023Y24514*
X10010Y24517*
X9998Y24521*
X9987Y24527*
X9976Y24534*
X9966Y24542*
X9956Y24552*
X9948Y24562*
X9940Y24573*
X9934Y24586*
X9928Y24599*
X9925Y24613*
X9922Y24627*
X9920Y24643*
X9919Y24659*
X9921Y24684*
X9925Y24708*
X9931Y24731*
X9940Y24752*
X9952Y24774*
X9967Y24794*
X9985Y24814*
X10005Y24832*
X10032Y24811*
X10056Y24790*
X10079Y24770*
X10098Y24751*
X10116Y24734*
X10131Y24717*
X10144Y24702*
X10154Y24688*
X10163Y24672*
X10169Y24656*
X10173Y24639*
X10175Y24621*
X10247Y24645D02*
X10248Y24663D01*
X10247Y24678*
X10246Y24692*
X10243Y24707*
X10238Y24721*
X10232Y24735*
X10225Y24749*
X10217Y24762*
X10208Y24775*
X10200Y24787*
X10189Y24798*
X10177Y24811*
X10163Y24824*
X10147Y24838*
X10129Y24854*
X10109Y24870*
X10086Y24888*
X10108Y24901*
X10127Y24915*
X10145Y24927*
X10160Y24939*
X10175Y24951*
X10186Y24963*
X10196Y24974*
X10204Y24984*
X10210Y24995*
X10216Y25005*
X10221Y25015*
X10225Y25025*
X10228Y25035*
X10231Y25045*
X10232Y25065*
X10231Y25080*
X10229Y25094*
X10225Y25108*
X10219Y25121*
X10212Y25134*
X10203Y25147*
X10192Y25159*
X10180Y25171*
X10166Y25182*
X10151Y25191*
X10136Y25200*
X10119Y25206*
X10101Y25211*
X10083Y25215*
X10063Y25217*
X10042Y25218*
X10020Y25217*
X10000Y25215*
X9981Y25211*
X9962Y25205*
X9945Y25198*
X9929Y25189*
X9914Y25179*
X9900Y25167*
X9888Y25155*
X9877Y25141*
X9868Y25128*
X9860Y25113*
X9854Y25098*
X9850Y25082*
X9848Y25066*
X9847Y25049*
X9848Y25027*
X9851Y25016*
X9853Y25005*
X9857Y24994*
X9860Y24983*
X9866Y24973*
X9872Y24962*
X9878Y24951*
X9887Y24940*
X9898Y24927*
X9910Y24914*
X9925Y24900*
X9942Y24885*
X9960Y24869*
X9980Y24852*
X9961Y24838*
X9944Y24825*
X9928Y24811*
X9914Y24799*
X9902Y24786*
X9901*
X9890Y24773*
X9880Y24761*
X9871Y24750*
X9863Y24738*
X9857Y24727*
X9852Y24715*
X9848Y24704*
X9844Y24692*
X9842Y24680*
X9840Y24668*
X9839Y24656*
X9840Y24642*
X9842Y24627*
X9845Y24613*
X9851Y24599*
X9857Y24585*
X9865Y24572*
X9874Y24559*
X9884Y24546*
X9899Y24532*
X9915Y24518*
X9933Y24508*
X9952Y24499*
X9973Y24492*
X9994Y24487*
X10017Y24484*
X10041Y24483*
X10064Y24484*
X10086Y24486*
X10106Y24490*
X10125Y24496*
X10143Y24504*
X10160Y24513*
X10176Y24523*
X10191Y24536*
X10204Y24550*
X10216Y24564*
X10225Y24579*
X10234Y24594*
X10240Y24611*
X10244Y24627*
X10247Y24645*
X10248Y24663D02*
X10247Y24645D01*
X10244Y24627*
X10240Y24611*
X10234Y24594*
X10225Y24579*
X10216Y24564*
X10204Y24550*
X10191Y24536*
X10176Y24523*
X10160Y24513*
X10143Y24504*
X10125Y24496*
X10106Y24490*
X10086Y24486*
X10064Y24484*
X10041Y24483*
X10017Y24484*
X9994Y24487*
X9973Y24492*
X9952Y24499*
X9933Y24508*
X9915Y24518*
X9899Y24532*
X9884Y24546*
X9874Y24559*
X9865Y24572*
X9857Y24585*
X9851Y24599*
X9845Y24613*
X9842Y24627*
X9840Y24642*
X9839Y24656*
X9840Y24668*
X9842Y24680*
X9844Y24692*
X9848Y24704*
X9852Y24715*
X9857Y24727*
X9863Y24738*
X9871Y24750*
X9880Y24761*
X9890Y24773*
X9901Y24786*
X9914Y24799*
X9928Y24811*
X9944Y24825*
X9961Y24838*
X9980Y24852*
X9960Y24869*
X9942Y24885*
X9925Y24900*
X9910Y24914*
X9898Y24927*
X9887Y24940*
X9878Y24951*
X9872Y24962*
X9866Y24973*
X9860Y24983*
X9857Y24994*
X9853Y25005*
X9851Y25016*
X9848Y25027*
X9847Y25049*
X9848Y25066*
X9850Y25082*
X9854Y25098*
X9860Y25113*
X9868Y25128*
X9877Y25141*
X9888Y25155*
X9900Y25167*
X9914Y25179*
X9929Y25189*
X9945Y25198*
X9962Y25205*
X9981Y25211*
X10000Y25215*
X10020Y25217*
X10042Y25218*
X10063Y25217*
X10083Y25215*
X10101Y25211*
X10119Y25206*
X10136Y25200*
X10151Y25191*
X10166Y25182*
X10180Y25171*
X10192Y25159*
X10203Y25147*
X10212Y25134*
X10219Y25121*
X10225Y25108*
X10229Y25094*
X10231Y25080*
X10232Y25065*
X10231Y25045*
X10228Y25035*
X10225Y25025*
X10221Y25015*
X10216Y25005*
X10210Y24995*
X10204Y24984*
X10196Y24974*
X10186Y24963*
X10175Y24951*
X10160Y24939*
X10145Y24927*
X10127Y24915*
X10108Y24901*
X10086Y24888*
X10109Y24870*
X10129Y24854*
X10147Y24838*
X10163Y24824*
X10177Y24811*
X10189Y24798*
X10200Y24787*
X10208Y24775*
X10217Y24762*
X10225Y24749*
X10232Y24735*
X10238Y24721*
X10243Y24707*
X10246Y24692*
X10247Y24678*
X10248Y24663*
X10755Y24707D02*
X10756Y24730D01*
X10755Y24746*
X10753Y24760*
X10751Y24775*
X10748Y24790*
X10743Y24803*
X10737Y24817*
X10730Y24829*
X10722Y24841*
X10713Y24852*
X10703Y24864*
X10693Y24873*
X10681Y24883*
X10668Y24892*
X10654Y24900*
X10639Y24908*
X10623Y24915*
X10635Y24924*
X10647Y24935*
X10656Y24945*
X10666Y24955*
X10675Y24965*
X10682Y24975*
X10690Y24986*
X10697Y24995*
X10702Y25005*
X10707Y25016*
X10711Y25025*
X10715Y25035*
X10719Y25054*
X10721Y25064*
Y25074*
X10720Y25086*
X10718Y25097*
X10716Y25108*
X10712Y25120*
X10707Y25131*
X10701Y25141*
X10694Y25152*
X10686Y25162*
X10674Y25175*
X10661Y25186*
X10647Y25196*
X10631Y25203*
X10614Y25210*
X10596Y25214*
X10576Y25217*
X10555Y25218*
X10539Y25217*
X10522Y25215*
X10507Y25212*
X10492Y25208*
X10478Y25203*
X10465Y25196*
X10452Y25188*
X10440Y25179*
X10429Y25168*
X10418Y25157*
X10408Y25145*
X10398Y25131*
X10388Y25117*
X10380Y25102*
X10371Y25085*
X10364Y25068*
X10381Y25060*
X10395Y25080*
X10410Y25098*
X10426Y25113*
X10442Y25125*
X10460Y25134*
X10477Y25141*
X10496Y25145*
X10516Y25146*
X10528*
X10540Y25144*
X10552Y25142*
X10562Y25138*
X10572Y25134*
X10582Y25128*
X10591Y25121*
X10600Y25114*
X10608Y25105*
X10615Y25096*
X10620Y25086*
X10626Y25075*
X10629Y25064*
X10632Y25052*
X10633Y25039*
X10634Y25027*
X10632Y25007*
X10629Y24987*
X10623Y24968*
X10615Y24950*
X10604Y24934*
X10590Y24919*
X10574Y24905*
X10555Y24892*
X10534Y24881*
X10513Y24872*
X10492Y24866*
X10472Y24862*
Y24847*
X10488*
X10509Y24846*
X10529Y24842*
X10549Y24837*
X10569Y24829*
X10587Y24821*
X10604Y24811*
X10618Y24802*
X10630Y24792*
X10638Y24783*
X10646Y24773*
X10653Y24761*
X10660Y24748*
X10668Y24728*
X10674Y24708*
X10677Y24688*
X10679Y24667*
X10678Y24654*
X10676Y24640*
X10673Y24627*
X10669Y24615*
X10663Y24603*
X10656Y24591*
X10649Y24580*
X10639Y24570*
X10629Y24560*
X10619Y24552*
X10608Y24544*
X10596Y24539*
X10584Y24535*
X10572Y24531*
X10560Y24529*
X10546*
X10525Y24530*
X10505Y24535*
X10498Y24537*
X10488Y24541*
X10476Y24547*
X10462Y24554*
X10447Y24561*
X10436Y24567*
X10427Y24570*
X10421Y24573*
X10408Y24576*
X10394Y24577*
X10386Y24576*
X10379Y24574*
X10371Y24570*
X10365Y24566*
X10359Y24560*
X10356Y24553*
X10353Y24547*
Y24539*
X10354Y24529*
X10356Y24524*
X10359Y24519*
X10363Y24514*
X10368Y24510*
X10373Y24505*
X10379Y24501*
X10385Y24496*
X10394Y24493*
X10404Y24490*
X10416Y24487*
X10429Y24485*
X10443Y24484*
X10459Y24483*
X10476*
X10511Y24484*
X10544Y24488*
X10575Y24495*
X10604Y24505*
X10630Y24517*
X10655Y24532*
X10677Y24550*
X10697Y24570*
X10711Y24588*
X10723Y24606*
X10733Y24624*
X10741Y24644*
X10748Y24664*
X10752Y24685*
X10755Y24707*
X10756Y24730D02*
X10755Y24707D01*
X10752Y24685*
X10748Y24664*
X10741Y24644*
X10733Y24624*
X10723Y24606*
X10711Y24588*
X10697Y24570*
X10677Y24550*
X10655Y24532*
X10630Y24517*
X10604Y24505*
X10575Y24495*
X10544Y24488*
X10511Y24484*
X10476Y24483*
X10459*
X10443Y24484*
X10429Y24485*
X10416Y24487*
X10404Y24490*
X10394Y24493*
X10385Y24496*
X10379Y24501*
X10373Y24505*
X10368Y24510*
X10363Y24514*
X10359Y24519*
X10356Y24524*
X10354Y24529*
X10353Y24539*
Y24547*
X10356Y24553*
X10359Y24560*
X10365Y24566*
X10371Y24570*
X10379Y24574*
X10386Y24576*
X10394Y24577*
X10408Y24576*
X10421Y24573*
X10427Y24570*
X10436Y24567*
X10447Y24562*
X10462Y24554*
X10476Y24547*
X10488Y24541*
X10498Y24537*
X10505Y24535*
X10525Y24530*
X10546Y24529*
X10560*
X10572Y24531*
X10584Y24535*
X10596Y24539*
X10608Y24544*
X10619Y24552*
X10629Y24560*
X10639Y24570*
X10649Y24580*
X10656Y24591*
X10663Y24603*
X10669Y24615*
X10673Y24627*
X10676Y24640*
X10678Y24654*
X10679Y24667*
X10677Y24688*
X10674Y24708*
X10668Y24728*
X10660Y24748*
X10653Y24761*
X10646Y24773*
X10638Y24783*
X10630Y24792*
X10618Y24802*
X10604Y24811*
X10587Y24821*
X10569Y24829*
X10549Y24837*
X10529Y24842*
X10509Y24846*
X10488*
X10471*
Y24862*
X10492Y24866*
X10513Y24872*
X10534Y24881*
X10555Y24892*
X10574Y24905*
X10590Y24919*
X10604Y24934*
X10615Y24950*
X10623Y24968*
X10629Y24987*
X10632Y25007*
X10634Y25027*
X10633Y25039*
X10632Y25052*
X10629Y25064*
X10626Y25075*
X10620Y25086*
X10615Y25096*
X10608Y25105*
X10600Y25114*
X10591Y25121*
X10582Y25128*
X10572Y25134*
X10562Y25138*
X10552Y25142*
X10540Y25144*
X10528Y25146*
X10516*
X10496Y25145*
X10477Y25141*
X10460Y25134*
X10442Y25125*
X10426Y25113*
X10410Y25098*
X10395Y25080*
X10381Y25060*
X10364Y25068*
X10371Y25085*
X10380Y25102*
X10388Y25117*
X10398Y25131*
X10408Y25145*
X10418Y25157*
X10429Y25168*
X10440Y25179*
X10452Y25188*
X10465Y25196*
X10478Y25203*
X10492Y25208*
X10507Y25212*
X10522Y25215*
X10539Y25217*
X10555Y25218*
X10576Y25217*
X10596Y25214*
X10614Y25210*
X10631Y25203*
X10647Y25196*
X10661Y25186*
X10674Y25175*
X10686Y25162*
X10694Y25152*
X10701Y25141*
X10707Y25131*
X10712Y25120*
X10716Y25108*
X10718Y25097*
X10720Y25086*
X10721Y25074*
Y25064*
X10719Y25054*
X10715Y25035*
X10711Y25025*
X10707Y25016*
X10702Y25005*
X10697Y24995*
X10690Y24986*
X10682Y24975*
X10675Y24965*
X10666Y24955*
X10656Y24945*
X10647Y24935*
X10635Y24924*
X10623Y24915*
X10639Y24908*
X10654Y24900*
X10668Y24892*
X10681Y24883*
X10693Y24873*
X10703Y24864*
X10713Y24852*
X10722Y24841*
X10730Y24829*
X10737Y24817*
X10743Y24803*
X10748Y24790*
X10751Y24775*
X10754Y24760*
X10755Y24746*
X10756Y24730*
X11290Y24707D02*
X11291Y24730D01*
X11290Y24746*
X11288Y24760*
X11286Y24775*
X11282Y24790*
X11278Y24803*
X11272Y24817*
X11265Y24829*
X11257Y24841*
X11248Y24852*
X11238Y24864*
X11228Y24873*
X11216Y24883*
X11203Y24892*
X11189Y24900*
X11174Y24908*
X11158Y24915*
X11170Y24924*
X11181Y24935*
X11191Y24945*
X11201Y24955*
X11210Y24965*
X11217Y24975*
X11225Y24986*
X11231Y24995*
X11237Y25005*
X11242Y25016*
X11246Y25025*
X11249Y25035*
X11254Y25054*
X11255Y25064*
Y25074*
Y25086*
X11253Y25097*
X11251Y25108*
X11247Y25120*
X11242Y25131*
X11236Y25141*
X11229Y25152*
X11221Y25162*
X11209Y25175*
X11196Y25186*
X11181Y25196*
X11166Y25203*
X11148Y25210*
X11131Y25214*
X11111Y25217*
X11090Y25218*
X11074Y25217*
X11057Y25215*
X11041Y25212*
X11027Y25208*
X11013Y25203*
X11000Y25196*
X10987Y25188*
X10975Y25179*
X10964Y25168*
X10953Y25157*
X10943Y25145*
X10933Y25131*
X10923Y25117*
X10915Y25102*
X10906Y25085*
X10899Y25068*
X10916Y25060*
X10930Y25080*
X10945Y25098*
X10961Y25113*
X10977Y25125*
X10994Y25134*
X11012Y25141*
X11031Y25145*
X11051Y25146*
X11063*
X11075Y25144*
X11086Y25142*
X11097Y25138*
X11107Y25134*
X11117Y25128*
X11126Y25121*
X11135Y25114*
X11143Y25105*
X11150Y25096*
X11155Y25086*
X11160Y25075*
X11164Y25064*
X11166Y25052*
X11168Y25039*
X11169Y25027*
X11167Y25007*
X11164Y24987*
X11158Y24968*
X11150Y24950*
X11139Y24934*
X11125Y24919*
X11109Y24905*
X11089Y24892*
X11068Y24881*
X11047Y24872*
X11027Y24866*
X11006Y24862*
Y24847*
X11023*
X11044Y24846*
X11064Y24842*
X11083Y24837*
X11104Y24829*
X11122Y24821*
X11139Y24811*
X11153Y24802*
X11165Y24792*
X11173Y24783*
X11181Y24773*
X11188Y24761*
X11195Y24748*
X11203Y24728*
X11209Y24708*
X11212Y24688*
X11214Y24667*
X11213Y24654*
X11211Y24640*
X11208Y24627*
X11204Y24615*
X11198Y24603*
X11191Y24591*
X11184Y24580*
X11174Y24570*
X11164Y24560*
X11154Y24552*
X11142Y24544*
X11131Y24539*
X11119Y24535*
X11107Y24531*
X11095Y24529*
X11081*
X11059Y24530*
X11040Y24535*
X11033Y24537*
X11023Y24541*
X11011Y24547*
X10997Y24554*
X10982Y24561*
X10970Y24567*
X10962Y24570*
X10956Y24573*
X10943Y24576*
X10929Y24577*
X10921Y24576*
X10914Y24574*
X10906Y24570*
X10899Y24566*
X10894Y24560*
X10890Y24553*
X10888Y24547*
X10887Y24539*
X10889Y24529*
X10891Y24524*
X10894Y24519*
X10898Y24514*
X10902Y24510*
X10908Y24505*
X10914Y24501*
X10920Y24496*
X10929Y24493*
X10939Y24490*
X10951Y24487*
X10964Y24485*
X10978Y24484*
X10994Y24483*
X11011*
X11046Y24484*
X11079Y24488*
X11110Y24495*
X11139Y24505*
X11165Y24517*
X11190Y24532*
X11212Y24550*
X11232Y24570*
X11246Y24588*
X11258Y24606*
X11267Y24624*
X11276Y24644*
X11282Y24664*
X11287Y24685*
X11290Y24707*
X11291Y24730D02*
X11290Y24707D01*
X11287Y24685*
X11282Y24664*
X11276Y24644*
X11267Y24624*
X11258Y24606*
X11246Y24588*
X11232Y24570*
X11212Y24550*
X11190Y24532*
X11165Y24517*
X11139Y24505*
X11110Y24495*
X11079Y24488*
X11046Y24484*
X11011Y24483*
X10994*
X10978Y24484*
X10964Y24485*
X10951Y24487*
X10939Y24490*
X10929Y24493*
X10920Y24496*
X10914Y24501*
X10908Y24505*
X10902Y24510*
X10898Y24514*
X10894Y24519*
X10891Y24524*
X10889Y24529*
X10887Y24539*
X10888Y24547*
X10890Y24553*
X10894Y24560*
X10899Y24566*
X10906Y24570*
X10914Y24574*
X10921Y24576*
X10929Y24577*
X10943Y24576*
X10956Y24573*
X10962Y24570*
X10970Y24567*
X10982Y24562*
X10997Y24554*
X11011Y24547*
X11023Y24541*
X11033Y24537*
X11040Y24535*
X11059Y24530*
X11081Y24529*
X11095*
X11107Y24531*
X11119Y24535*
X11131Y24539*
X11142Y24544*
X11154Y24552*
X11164Y24560*
X11174Y24570*
X11184Y24580*
X11191Y24591*
X11198Y24603*
X11204Y24615*
X11208Y24627*
X11211Y24640*
X11213Y24654*
X11214Y24667*
X11212Y24688*
X11209Y24708*
X11203Y24728*
X11195Y24748*
X11188Y24761*
X11181Y24773*
X11173Y24783*
X11165Y24792*
X11153Y24802*
X11139Y24811*
X11122Y24821*
X11104Y24829*
X11083Y24837*
X11064Y24842*
X11044Y24846*
X11023*
X11006*
Y24862*
X11027Y24866*
X11047Y24872*
X11068Y24881*
X11089Y24892*
X11109Y24905*
X11125Y24919*
X11139Y24934*
X11150Y24950*
X11158Y24968*
X11164Y24987*
X11167Y25007*
X11169Y25027*
X11168Y25039*
X11166Y25052*
X11164Y25064*
X11160Y25075*
X11155Y25086*
X11150Y25096*
X11143Y25105*
X11135Y25114*
X11126Y25121*
X11117Y25128*
X11107Y25134*
X11097Y25138*
X11086Y25142*
X11075Y25144*
X11063Y25146*
X11051*
X11031Y25145*
X11012Y25141*
X10994Y25134*
X10977Y25125*
X10961Y25113*
X10945Y25098*
X10930Y25080*
X10916Y25060*
X10899Y25068*
X10906Y25085*
X10915Y25102*
X10923Y25117*
X10933Y25131*
X10943Y25145*
X10953Y25157*
X10964Y25168*
X10975Y25179*
X10987Y25188*
X11000Y25196*
X11013Y25203*
X11027Y25208*
X11041Y25212*
X11057Y25215*
X11074Y25217*
X11090Y25218*
X11111Y25217*
X11131Y25214*
X11148Y25210*
X11166Y25203*
X11181Y25196*
X11196Y25186*
X11209Y25175*
X11221Y25162*
X11229Y25152*
X11236Y25141*
X11242Y25131*
X11247Y25120*
X11251Y25108*
X11253Y25097*
X11255Y25086*
Y25074*
Y25064*
X11254Y25054*
X11249Y25035*
X11246Y25025*
X11242Y25016*
X11237Y25005*
X11232Y24995*
X11231*
X11225Y24986*
X11217Y24975*
X11210Y24965*
X11201Y24955*
X11191Y24945*
X11181Y24935*
X11170Y24924*
X11158Y24915*
X11174Y24908*
X11189Y24900*
X11203Y24892*
X11216Y24883*
X11228Y24873*
X11238Y24864*
X11248Y24852*
X11257Y24841*
X11265Y24829*
X11272Y24817*
X11278Y24803*
X11282Y24790*
X11286Y24775*
X11288Y24760*
X11290Y24746*
X11291Y24730*
X11517Y24496D02*
X11782D01*
Y24515*
X11771*
X11760Y24516*
X11751Y24517*
X11742Y24518*
X11735Y24519*
X11728Y24520*
X11723Y24522*
X11718Y24524*
X11712Y24529*
X11706Y24533*
X11701Y24540*
X11698Y24547*
X11697Y24551*
X11696Y24556*
X11695Y24564*
Y24572*
X11694Y24582*
X11693Y24594*
Y25218*
X11676*
X11504Y25134*
X11511Y25117*
X11528Y25124*
X11542Y25129*
X11555Y25132*
X11565Y25134*
X11572Y25133*
X11578Y25132*
Y25131*
X11583Y25129*
X11588Y25126*
X11593Y25121*
X11597Y25116*
X11600Y25109*
X11602Y25101*
X11603Y25095*
X11604Y25087*
X11605Y25077*
X11606Y25066*
Y25052*
X11607Y25037*
Y24592*
X11606Y24580*
Y24570*
X11605Y24561*
X11604Y24553*
X11603Y24548*
X11601Y24544*
X11598Y24538*
X11594Y24532*
X11588Y24528*
X11581Y24523*
X11577Y24522*
X11572Y24520*
X11565Y24519*
X11558Y24517*
X11549*
X11539Y24516*
X11528Y24515*
X11517*
Y24496*
X11782D02*
X11516D01*
Y24515*
X11528*
X11539Y24516*
X11549Y24517*
X11558*
X11565Y24519*
X11572Y24520*
X11577Y24522*
X11581Y24523*
X11588Y24528*
X11594Y24532*
X11598Y24538*
X11601Y24544*
X11603Y24548*
X11604Y24553*
X11605Y24561*
X11606Y24570*
Y24580*
X11607Y24592*
Y25037*
X11606Y25052*
Y25066*
X11605Y25077*
X11604Y25087*
X11603Y25095*
X11602Y25101*
X11600Y25109*
X11597Y25116*
X11593Y25121*
X11588Y25126*
X11583Y25129*
X11578Y25131*
X11572Y25133*
X11565Y25134*
X11555Y25132*
X11542Y25129*
X11528Y25124*
X11511Y25117*
X11504Y25134*
X11676Y25218*
X11693*
Y24594*
X11694Y24582*
X11695Y24572*
Y24564*
X11696Y24556*
X11697Y24551*
X11698Y24547*
X11701Y24540*
X11706Y24533*
X11712Y24529*
X11718Y24524*
X11723Y24522*
X11728Y24520*
X11735Y24519*
X11742Y24518*
X11751Y24517*
X11760Y24516*
X11771Y24515*
X11782*
Y24496*
X12104Y24528D02*
X12105Y24539D01*
X12104Y24551*
X12101Y24561*
X12095Y24571*
X12089Y24580*
X12080Y24588*
X12070Y24593*
X12059Y24597*
X12048*
X12036*
X12025Y24593*
X12015Y24588*
X12006Y24581*
X11999Y24572*
X11994Y24562*
X11990Y24551*
X11989Y24539*
X11990Y24528*
X11994Y24517*
X11999Y24508*
X12006Y24499*
X12015Y24491*
X12025Y24486*
X12036Y24482*
X12048Y24481*
X12059Y24482*
X12069Y24486*
X12079Y24491*
X12088Y24499*
X12095Y24508*
X12101Y24517*
X12104Y24528*
X12105Y24539D02*
X12104Y24528D01*
X12101Y24517*
X12095Y24508*
X12088Y24499*
X12079Y24491*
X12069Y24486*
X12059Y24482*
X12048Y24481*
X12036Y24482*
X12025Y24486*
X12015Y24491*
X12006Y24499*
X11999Y24508*
X11994Y24517*
X11990Y24528*
X11989Y24539*
X11990Y24551*
X11994Y24562*
X11999Y24572*
X12006Y24581*
X12015Y24588*
X12025Y24593*
X12036Y24597*
X12048*
X12059*
X12070Y24593*
X12080Y24588*
X12089Y24580*
X12095Y24571*
X12101Y24561*
X12104Y24551*
X12105Y24539*
X12573Y24802D02*
X12575Y24839D01*
Y24909*
X12573Y24937*
X12571Y24964*
X12569Y24990*
X12565Y25015*
X12561Y25038*
X12556Y25060*
X12550Y25081*
X12545Y25096*
X12540Y25108*
X12535Y25121*
X12529Y25132*
X12522Y25142*
X12516Y25151*
X12508Y25159*
X12502Y25166*
X12490Y25173*
X12478Y25179*
X12464Y25182*
X12450Y25183*
X12441Y25182*
X12433Y25181*
X12425Y25179*
X12416Y25175*
X12409Y25170*
X12401Y25165*
X12394Y25158*
X12386Y25151*
X12377Y25140*
X12369Y25126*
X12362Y25112*
X12355Y25096*
X12349Y25078*
X12344Y25058*
X12339Y25037*
X12336Y25015*
X12330Y24968*
X12326Y24923*
X12323Y24877*
X12322Y24832*
X12323Y24796*
X12324Y24762*
X12327Y24730*
X12331Y24699*
X12336Y24670*
X12342Y24643*
X12350Y24618*
X12358Y24594*
X12366Y24575*
X12374Y24559*
X12384Y24547*
X12395Y24535*
X12407Y24527*
X12419Y24520*
X12433Y24517*
X12447Y24516*
X12454*
X12461Y24517*
X12468Y24520*
X12475Y24522*
X12483Y24526*
X12490Y24530*
X12498Y24535*
X12505Y24541*
X12512Y24548*
X12520Y24556*
X12526Y24564*
X12532Y24575*
X12538Y24586*
X12542Y24598*
X12547Y24612*
X12551Y24626*
X12556Y24650*
X12561Y24675*
X12566Y24704*
X12569Y24734*
X12572Y24766*
X12573Y24802*
X12575Y24839D02*
X12573Y24802D01*
X12572Y24766*
X12569Y24734*
X12566Y24704*
X12562Y24675*
X12556Y24650*
X12551Y24626*
X12547Y24612*
X12542Y24598*
X12538Y24586*
X12532Y24575*
X12526Y24564*
X12520Y24556*
X12512Y24548*
X12505Y24541*
X12498Y24535*
X12490Y24530*
X12483Y24526*
X12475Y24522*
X12468Y24520*
X12461Y24517*
X12454Y24516*
X12447*
X12433Y24517*
X12419Y24520*
X12407Y24527*
X12395Y24535*
X12384Y24547*
X12374Y24559*
X12366Y24575*
X12358Y24594*
X12350Y24618*
X12342Y24643*
X12336Y24670*
X12331Y24699*
X12327Y24730*
X12324Y24762*
X12323Y24796*
X12322Y24832*
X12323Y24877*
X12326Y24923*
X12330Y24968*
X12336Y25015*
X12339Y25037*
X12344Y25058*
X12349Y25078*
X12355Y25096*
X12362Y25112*
X12369Y25126*
X12377Y25140*
X12386Y25151*
X12394Y25158*
X12401Y25165*
X12409Y25170*
X12416Y25175*
X12425Y25179*
X12433Y25181*
X12441Y25182*
X12450Y25183*
X12464Y25182*
X12478Y25179*
X12490Y25173*
X12502Y25166*
X12508Y25159*
X12516Y25151*
X12522Y25142*
X12529Y25132*
X12535Y25121*
X12540Y25108*
X12545Y25096*
X12550Y25081*
X12556Y25060*
X12561Y25038*
X12565Y25015*
X12569Y24990*
X12571Y24964*
X12573Y24937*
X12575Y24909*
Y24839*
X12677Y24826D02*
Y24856D01*
X12676Y24899*
X12672Y24939*
X12666Y24977*
X12657Y25013*
X12646Y25047*
X12632Y25078*
X12615Y25108*
X12597Y25134*
X12580Y25154*
X12563Y25171*
X12546Y25185*
X12528Y25197*
X12509Y25206*
X12490Y25212*
X12470Y25216*
X12450Y25218*
X12438Y25217*
X12425Y25215*
X12413Y25213*
X12401Y25209*
X12389Y25204*
X12377Y25198*
X12365Y25191*
X12354Y25184*
X12339Y25172*
X12324Y25159*
X12311Y25145*
X12299Y25129*
X12287Y25113*
X12276Y25094*
X12266Y25075*
X12256Y25054*
X12247Y25031*
X12241Y25007*
X12234Y24983*
X12229Y24957*
X12225Y24931*
X12222Y24903*
X12220Y24875*
Y24845*
Y24810*
X12223Y24777*
X12228Y24744*
X12234Y24713*
X12242Y24683*
X12252Y24655*
X12263Y24628*
X12277Y24603*
X12285Y24588*
X12294Y24574*
X12303Y24561*
X12312Y24550*
X12322Y24539*
X12332Y24529*
X12342Y24520*
X12352Y24513*
X12363Y24506*
X12374Y24499*
X12385Y24495*
X12397Y24490*
X12408Y24487*
X12420Y24484*
X12433*
X12445Y24483*
X12458Y24484*
X12471Y24485*
X12484Y24488*
X12497Y24493*
X12511Y24498*
X12524Y24505*
X12538Y24513*
X12551Y24522*
X12564Y24532*
X12578Y24544*
X12590Y24558*
X12602Y24573*
X12612Y24588*
X12623Y24606*
X12633Y24626*
X12642Y24647*
X12651Y24668*
X12657Y24692*
X12664Y24716*
X12668Y24742*
X12672Y24769*
X12675Y24796*
X12677Y24826*
Y24856D02*
Y24826D01*
X12675Y24796*
X12672Y24769*
X12668Y24742*
X12664Y24716*
X12657Y24692*
X12651Y24668*
X12642Y24647*
X12633Y24626*
X12623Y24606*
X12612Y24588*
X12602Y24573*
X12590Y24558*
X12578Y24544*
X12564Y24532*
X12551Y24522*
X12538Y24513*
X12524Y24505*
X12511Y24498*
X12497Y24493*
X12484Y24488*
X12471Y24485*
X12458Y24484*
X12445Y24483*
X12433Y24484*
X12420*
X12408Y24487*
X12397Y24490*
X12385Y24495*
X12374Y24499*
X12363Y24506*
X12352Y24513*
X12342Y24520*
X12332Y24529*
X12322Y24539*
X12312Y24550*
X12303Y24561*
X12294Y24574*
X12285Y24588*
X12276Y24603*
X12263Y24628*
X12252Y24655*
X12242Y24683*
X12234Y24713*
X12228Y24744*
X12223Y24777*
X12220Y24810*
Y24845*
Y24875*
X12222Y24903*
X12225Y24931*
X12229Y24957*
X12234Y24983*
X12241Y25007*
X12247Y25031*
X12256Y25054*
X12266Y25075*
X12276Y25094*
X12287Y25113*
X12299Y25129*
X12311Y25145*
X12324Y25159*
X12339Y25172*
X12354Y25184*
X12365Y25191*
X12377Y25198*
X12389Y25204*
X12401Y25209*
X12413Y25213*
X12425Y25215*
X12438Y25217*
X12450Y25218*
X12470Y25216*
X12490Y25212*
X12509Y25206*
X12528Y25197*
X12546Y25185*
X12563Y25171*
X12580Y25154*
X12597Y25134*
X12615Y25108*
X12632Y25078*
X12646Y25047*
X12657Y25013*
X12666Y24977*
X12672Y24939*
X12676Y24899*
X12677Y24856*
X13108Y24802D02*
X13110Y24839D01*
Y24909*
X13108Y24937*
X13106Y24964*
X13104Y24990*
X13100Y25015*
X13096Y25038*
X13090Y25060*
X13085Y25081*
X13080Y25096*
X13075Y25108*
X13069Y25121*
X13063Y25132*
X13057Y25142*
X13051Y25151*
X13043Y25159*
X13036Y25166*
X13025Y25173*
X13013Y25179*
X12999Y25182*
X12985Y25183*
X12976Y25182*
X12968Y25181*
X12959Y25179*
X12951Y25175*
X12944Y25170*
X12936Y25165*
X12929Y25158*
X12921Y25151*
X12912Y25140*
X12904Y25126*
X12897Y25112*
X12890Y25096*
X12884Y25078*
X12879Y25058*
X12874Y25037*
X12870Y25015*
X12864Y24968*
X12861Y24923*
X12858Y24877*
X12857Y24832*
X12858Y24796*
X12859Y24762*
X12862Y24730*
X12866Y24699*
X12871Y24670*
X12877Y24643*
X12885Y24618*
X12893Y24594*
X12901Y24575*
X12909Y24559*
X12919Y24547*
X12930Y24535*
X12941Y24527*
X12954Y24520*
X12968Y24517*
X12982Y24516*
X12989*
X12996Y24517*
X13003Y24520*
X13010Y24522*
X13018Y24526*
X13025Y24530*
X13033Y24535*
X13040Y24541*
X13047Y24548*
X13054Y24556*
X13060Y24564*
X13066Y24575*
X13072Y24586*
X13077Y24598*
X13081Y24612*
X13086Y24626*
X13091Y24650*
X13096Y24675*
X13101Y24704*
X13104Y24734*
X13107Y24766*
X13108Y24802*
X13110Y24839D02*
X13108Y24802D01*
X13107Y24766*
X13104Y24734*
X13101Y24704*
X13096Y24675*
X13091Y24650*
X13086Y24626*
X13081Y24612*
X13077Y24598*
X13072Y24586*
X13066Y24575*
X13060Y24564*
X13054Y24556*
X13047Y24548*
X13040Y24541*
X13033Y24535*
X13025Y24530*
X13018Y24526*
X13010Y24522*
X13003Y24520*
X12996Y24517*
X12989Y24516*
X12982*
X12968Y24517*
X12954Y24520*
X12941Y24527*
X12930Y24535*
X12919Y24547*
X12909Y24559*
X12901Y24575*
X12893Y24594*
X12885Y24618*
X12877Y24643*
X12871Y24670*
X12866Y24699*
X12862Y24730*
X12859Y24762*
X12858Y24796*
X12857Y24832*
X12858Y24877*
X12861Y24923*
X12864Y24968*
X12870Y25015*
X12874Y25037*
X12879Y25058*
X12884Y25078*
X12890Y25096*
X12897Y25112*
X12904Y25126*
X12912Y25140*
X12921Y25151*
X12929Y25158*
X12936Y25165*
X12944Y25170*
X12951Y25175*
X12959Y25179*
X12968Y25181*
X12976Y25182*
X12985Y25183*
X12999Y25182*
X13013Y25179*
X13025Y25173*
X13036Y25166*
X13037*
X13043Y25159*
X13051Y25151*
X13057Y25142*
X13063Y25132*
X13069Y25121*
X13075Y25108*
X13080Y25096*
X13085Y25081*
X13090Y25060*
X13096Y25038*
X13100Y25015*
X13104Y24990*
X13106Y24964*
X13108Y24937*
X13110Y24909*
Y24839*
X13212Y24826D02*
Y24856D01*
X13211Y24899*
X13207Y24939*
X13201Y24977*
X13192Y25013*
X13181Y25047*
X13167Y25078*
X13150Y25108*
X13131Y25134*
X13115Y25154*
X13098Y25171*
X13081Y25185*
X13063Y25197*
X13044Y25206*
X13025Y25212*
X13005Y25216*
X12985Y25218*
X12973Y25217*
X12960Y25215*
X12948Y25213*
X12936Y25209*
X12924Y25204*
X12912Y25198*
X12900Y25191*
X12888Y25184*
X12873Y25172*
X12859Y25159*
X12846Y25145*
X12834Y25129*
X12822Y25113*
X12811Y25094*
X12801Y25075*
X12791Y25054*
X12782Y25031*
X12775Y25007*
X12769Y24983*
X12763Y24957*
X12760Y24931*
X12757Y24903*
X12755Y24875*
X12754Y24845*
X12755Y24810*
X12758Y24777*
X12763Y24744*
X12769Y24713*
X12777Y24683*
X12787Y24655*
X12798Y24628*
X12811Y24603*
X12820Y24588*
X12829Y24574*
X12838Y24561*
X12847Y24550*
X12857Y24539*
X12867Y24529*
X12877Y24520*
X12887Y24513*
X12898Y24506*
X12909Y24499*
X12920Y24495*
X12932Y24490*
X12943Y24487*
X12955Y24484*
X12968*
X12980Y24483*
X12993Y24484*
X13006Y24485*
X13019Y24488*
X13032Y24493*
X13045Y24498*
X13059Y24505*
X13072Y24513*
X13086Y24522*
X13099Y24532*
X13113Y24544*
X13125Y24558*
X13137Y24573*
X13147Y24588*
X13158Y24606*
X13167Y24626*
X13177Y24647*
X13185Y24668*
X13192Y24692*
X13199Y24716*
X13203Y24742*
X13207Y24769*
X13210Y24796*
X13212Y24826*
Y24856D02*
Y24826D01*
X13210Y24796*
X13207Y24769*
X13203Y24742*
X13199Y24716*
X13192Y24692*
X13185Y24668*
X13177Y24647*
X13167Y24626*
X13158Y24606*
X13147Y24588*
X13137Y24573*
X13125Y24558*
X13113Y24544*
X13099Y24532*
X13086Y24522*
X13072Y24513*
X13059Y24505*
X13045Y24498*
X13032Y24493*
X13019Y24488*
X13006Y24485*
X12993Y24484*
X12980Y24483*
X12968Y24484*
X12955*
X12943Y24487*
X12932Y24490*
X12920Y24495*
X12909Y24499*
X12898Y24506*
X12887Y24513*
X12877Y24520*
X12867Y24529*
X12857Y24539*
X12847Y24550*
X12838Y24561*
X12829Y24574*
X12820Y24588*
X12811Y24603*
X12798Y24628*
X12787Y24655*
X12777Y24683*
X12769Y24713*
X12763Y24744*
X12758Y24777*
X12755Y24810*
X12754Y24845*
X12755Y24875*
X12757Y24903*
X12760Y24931*
X12763Y24957*
X12769Y24983*
X12775Y25007*
X12782Y25031*
X12791Y25054*
X12801Y25075*
X12811Y25094*
X12822Y25113*
X12834Y25129*
X12846Y25145*
X12859Y25159*
X12873Y25172*
X12888Y25184*
X12900Y25191*
X12912Y25198*
X12924Y25204*
X12936Y25209*
X12948Y25213*
X12960Y25215*
X12973Y25217*
X12985Y25218*
X13005Y25216*
X13025Y25212*
X13044Y25206*
X13063Y25197*
X13081Y25185*
X13098Y25171*
X13115Y25154*
X13131Y25134*
X13132*
X13150Y25108*
X13167Y25078*
X13181Y25047*
X13192Y25013*
X13201Y24977*
X13207Y24939*
X13211Y24899*
X13212Y24856*
X13318Y24757D02*
X13567D01*
Y25108*
X13318Y24757*
X13567D02*
X13318D01*
X13567Y25108*
Y24757*
X13653Y24683D02*
X13748D01*
Y24757*
X13653*
Y25218*
X13595*
X13267Y24749*
Y24683*
X13567*
Y24496*
X13653*
Y24683*
X13748D02*
X13653D01*
Y24496*
X13567*
Y24683*
X13267*
Y24749*
X13595Y25218*
X13653*
Y24757*
X13748*
Y24683*
X16093Y32677D02*
G03X14961Y33809I1132D01*
X13829Y32677J1132*
X14961Y31545I1132*
X16093Y32677J1132*
X14961Y33809I1132*
X13829Y32677J1132*
X14961Y31545I1132*
X16093Y32677J1132*
G01X27362Y8071D02*
X27461D01*
G03X27362Y8169I99*
X27264Y8071J98*
X27362Y7972I98*
G01Y8071*
Y12894D02*
X27461D01*
G03X27362Y12992I99*
X27264Y12894J98*
X27362Y12795I98*
G01Y12894*
Y17717D02*
X27461D01*
G03X27362Y17815I99*
X27264Y17717J98*
X27362Y17618I98*
G01Y17717*
Y22539D02*
X27461D01*
G03X27362Y22638I99*
X27264Y22539J99*
X27362Y22441I98*
G01Y22539*
Y27362D02*
X27461D01*
G03X27362Y27461I99*
X27264Y27362J99*
X27362Y27264I98*
G01Y27362*
Y32185D02*
X27461D01*
G03X27362Y32283I99*
X27264Y32185J98*
X27362Y32087I98*
G01Y32185*
Y6693D02*
X28740D01*
Y8071*
X27461*
G02X27362Y7972I99*
G01Y6693*
Y7972D02*
G03X27461Y8071J99D01*
G01X27362*
Y7972*
Y11516D02*
X28740D01*
Y12894*
X27461*
G02X27362Y12795I99*
G01Y11516*
Y12795D02*
G03X27461Y12894J99D01*
G01X27362*
Y12795*
Y16339D02*
X28740D01*
Y17717*
X27461*
G02X27362Y17618I99*
G01Y16339*
Y17618D02*
G03X27461Y17717J99D01*
G01X27362*
Y17618*
Y21161D02*
X28740D01*
Y22539*
X27461*
G02X27362Y22441I99*
G01Y21161*
Y22441D02*
G03X27461Y22539J98D01*
G01X27362*
Y22441*
Y25984D02*
X28740D01*
Y27362*
X27461*
G02X27362Y27264I99*
G01Y25984*
Y27264D02*
G03X27461Y27362J98D01*
G01X27362*
Y27264*
Y30807D02*
X28740D01*
Y32185*
X27461*
G02X27362Y32087I99*
G01Y30807*
Y32087D02*
G03X27461Y32185J98D01*
G01X27362*
Y32087*
X28740Y6693D02*
X27362D01*
Y7972*
G02X27264Y8071J99*
X27362Y8169I98*
X27461Y8071J98*
G01X28740*
Y6693*
Y11516D02*
X27362D01*
Y12795*
G02X27264Y12894J99*
X27362Y12992I98*
X27461Y12894J98*
G01X28740*
Y11516*
Y16339D02*
X27362D01*
Y17618*
G02X27264Y17717J99*
X27362Y17815I98*
X27461Y17717J98*
G01X28740*
Y16339*
Y21161D02*
X27362D01*
Y22441*
G02X27264Y22539J98*
X27362Y22638I98*
X27461Y22539J99*
G01X28740*
Y21161*
Y25984D02*
X27362D01*
Y27264*
G02X27264Y27362J98*
X27362Y27461I98*
X27461Y27362J99*
G01X28740*
Y25984*
Y30807D02*
X27362D01*
Y32087*
G02X27264Y32185J98*
X27362Y32283I98*
X27461Y32185J98*
G01X28740*
Y30807*
X29193Y8051D02*
X29862D01*
Y8484*
X29193*
Y8051*
X29508Y32343D02*
X29941D01*
Y33012*
X29508*
Y32343*
X29606Y13150D02*
X30039D01*
Y13819*
X29606*
Y13150*
Y17972D02*
X30039D01*
Y18642*
X29606*
Y17972*
Y22795D02*
X30039D01*
Y23465*
X29606*
Y22795*
Y27717D02*
X30039D01*
Y28386*
X29606*
Y27717*
X29862Y8051D02*
X29193D01*
Y8484*
X29862*
Y8051*
X29941Y32343D02*
X29508D01*
Y33012*
X29941*
Y32343*
X30039Y13150D02*
X29606D01*
Y13819*
X30039*
Y13150*
Y17972D02*
X29606D01*
Y18642*
X30039*
Y17972*
Y22795D02*
X29606D01*
Y23465*
X30039*
Y22795*
Y27717D02*
X29606D01*
Y28386*
X30039*
Y27717*
X30472Y29291D02*
X31732D01*
Y30551*
X30472*
Y29291*
X31732D02*
X30472D01*
Y30551*
X31732*
Y29291*
X32244D02*
X33504D01*
Y30551*
X32244*
Y29291*
X33504D02*
X32244D01*
Y30551*
X33504*
Y29291*
G54D13*
X1476Y20177D02*
X1673D01*
Y21358*
X1476*
Y20177*
Y21752D02*
X1673D01*
Y22933*
X1476*
Y21752*
Y23327D02*
X1673D01*
Y24508*
X1476*
Y23327*
X1555Y29114D02*
X1339Y28898D01*
X1555Y29114*
X1673Y20177D02*
X1476D01*
Y21358*
X1673*
Y20177*
Y21752D02*
X1476D01*
Y22933*
X1673*
Y21752*
Y23327D02*
X1476D01*
Y24508*
X1673*
Y23327*
X1772Y28209D02*
Y28484D01*
Y28209*
X2116Y32972D02*
G03X1083Y34006I1033D01*
X49Y32972J1034*
X1083Y31939I1034*
X2116Y32972J1033*
X1083Y34006I1033*
X49Y32972J1034*
X1083Y31939I1034*
X2116Y32972J1033*
G01X2362Y24862D02*
Y25335D01*
Y24862*
X2490Y27244D02*
X2244D01*
Y26299*
X2490*
X2244*
Y27244*
X2490*
X3189Y20768D02*
X2717D01*
X3189*
Y22343D02*
X2717D01*
X3189*
Y23917D02*
X2717D01*
X3189*
X3543Y16890D02*
Y17165D01*
Y16890*
X3642Y492D02*
X3839D01*
Y1673*
X3642*
Y492*
Y2067D02*
X3839D01*
Y3248*
X3642*
Y2067*
Y3642D02*
X3839D01*
Y4823*
X3642*
Y3642*
Y8130D02*
Y8406D01*
Y8130*
Y8858D02*
X3839D01*
Y10039*
X3642*
Y8858*
Y10433D02*
X3839D01*
Y11614*
X3642*
Y10433*
Y12008D02*
X3839D01*
Y13189*
X3642*
Y12008*
X3839Y492D02*
X3642D01*
Y1673*
X3839*
Y492*
Y2067D02*
X3642D01*
Y3248*
X3839*
Y2067*
Y3642D02*
X3642D01*
Y4823*
X3839*
Y3642*
Y8858D02*
X3642D01*
Y10039*
X3839*
Y8858*
Y10433D02*
X3642D01*
Y11614*
X3839*
Y10433*
Y12008D02*
X3642D01*
Y13189*
X3839*
Y12008*
Y28110D02*
Y28583D01*
Y28110*
X3858Y26299D02*
X3612D01*
X3858*
Y27244*
X3612*
X3858*
Y26299*
X4252Y26772D02*
Y27165D01*
Y26772*
X4262Y15827D02*
X4016D01*
Y14882*
X4262*
X4016*
Y15827*
X4262*
X4331Y13445D02*
Y13917D01*
Y13445*
Y20177D02*
Y21358D01*
Y20177*
Y21752D02*
Y22933D01*
Y21752*
Y23327D02*
Y24508D01*
Y23327*
X4334Y31893D02*
X2162Y29721D01*
X4334Y31893*
X4459Y7067D02*
X4213D01*
Y6122*
X4459*
X4213*
Y7067*
X4459*
X4921Y32480D02*
X4668Y32227D01*
X4921Y32480*
X5315Y32185D02*
X6496D01*
Y32382*
X5315*
Y32185*
X5354Y1083D02*
X4882D01*
X5354*
Y2657D02*
X4882D01*
X5354*
Y4232D02*
X4882D01*
X5354*
Y9449D02*
X4882D01*
X5354*
Y11024D02*
X4882D01*
X5354*
Y12598D02*
X4882D01*
X5354*
X5591Y26772D02*
Y27165D01*
Y26772*
X5610Y16693D02*
Y17165D01*
Y16693*
X5630Y14882D02*
X5384D01*
X5630*
Y15827*
X5384*
X5630*
Y14882*
X5807Y7933D02*
Y8406D01*
Y7933*
X5827Y6122D02*
X5581D01*
X5827*
Y7067*
X5581*
X5827*
Y6122*
X5906Y30669D02*
Y31142D01*
Y30669*
X6024Y15157D02*
Y15551D01*
Y15157*
X6260Y18366D02*
Y18642D01*
Y18366*
X6319Y6398D02*
Y6791D01*
Y6398*
X6496Y492D02*
Y1673D01*
Y492*
Y2067D02*
Y3248D01*
Y2067*
Y3642D02*
Y4823D01*
Y3642*
Y8858D02*
Y10039D01*
Y8858*
Y10433D02*
Y11614D01*
Y10433*
Y12008D02*
Y13189D01*
Y12008*
Y29528D02*
X5315D01*
X6496*
Y32185D02*
X5315D01*
Y32382*
X6496*
Y32185*
X6890D02*
X8071D01*
Y32382*
X6890*
Y32185*
X7244Y19350D02*
X7126D01*
X7244*
Y20413D02*
X7126D01*
X7244*
X7362Y15157D02*
Y15551D01*
Y15157*
X7480Y30669D02*
Y31142D01*
Y30669*
X7579Y12500D02*
X8760D01*
Y12697*
X7579*
Y12500*
X7657Y6398D02*
Y6791D01*
Y6398*
X7874Y20669D02*
Y21850D01*
Y20669*
X8071Y29528D02*
X6890D01*
X8071*
Y32185D02*
X6890D01*
Y32382*
X8071*
Y32185*
X8366Y1831D02*
Y2106D01*
Y1831*
X8386Y4331D02*
X8583D01*
Y5512*
X8386*
Y4331*
X8465Y32185D02*
X9646D01*
Y32382*
X8465*
Y32185*
X8583Y4331D02*
X8386D01*
Y5512*
X8583*
Y4331*
X8720Y3189D02*
Y3307D01*
Y3189*
X8760Y12500D02*
X7579D01*
Y12697*
X8760*
Y12500*
X9035Y18228D02*
Y18780D01*
Y18228*
Y19606D02*
Y20157D01*
Y19606*
Y20906D02*
Y21457D01*
Y20906*
X9055Y30669D02*
Y31142D01*
Y30669*
X9075Y11024D02*
Y11417D01*
Y11024*
X9449Y22303D02*
Y22579D01*
Y22303*
X9646Y29528D02*
X8465D01*
X9646*
Y32185D02*
X8465D01*
Y32382*
X9646*
Y32185*
X9783Y3189D02*
Y3307D01*
Y3189*
X9862Y18228D02*
Y18780D01*
Y18228*
Y19606D02*
Y20157D01*
Y19606*
Y20906D02*
Y21457D01*
Y20906*
X10138Y13878D02*
X10335D01*
Y15059*
X10138*
Y13878*
X10226Y4341D02*
Y5522D01*
Y4341*
X10335Y13878D02*
X10138D01*
Y15059*
X10335*
Y13878*
X10413Y11024D02*
Y11417D01*
Y11024*
X10472Y31496D02*
X10000D01*
X10472*
X10925Y9409D02*
Y9882D01*
Y9409*
X11152Y11693D02*
X10906D01*
Y10748*
X11152*
X10906*
Y11693*
X11152*
X11201Y1693D02*
Y2244D01*
Y1693*
Y3071D02*
Y3622D01*
Y3071*
Y4449D02*
Y5000D01*
Y4449*
X11614Y5768D02*
Y6043D01*
Y5768*
X12008Y28661D02*
X11614D01*
X12008*
Y30000D02*
X11614D01*
X12008*
X12028Y1693D02*
Y2244D01*
Y1693*
Y3071D02*
Y3622D01*
Y3071*
Y4449D02*
Y5000D01*
Y4449*
X12205Y14075D02*
Y15256D01*
Y14075*
Y15650D02*
Y16831D01*
Y15650*
Y17224D02*
Y18406D01*
Y17224*
X12402Y12756D02*
Y13228D01*
Y12756*
X12480Y30394D02*
X11535D01*
Y30640*
Y30394*
X12480*
Y30640*
Y30394*
Y31762D02*
Y32008D01*
X11535*
Y31762*
Y32008*
X12480*
Y31762*
X12520Y10748D02*
X12274D01*
X12520*
Y11693*
X12274*
X12520*
Y10748*
X12992Y9508D02*
Y9783D01*
Y9508*
X13681Y32579D02*
X13406D01*
X13681*
X13819Y14665D02*
X13346D01*
X13819*
Y16240D02*
X13346D01*
X13819*
Y17815D02*
X13346D01*
X13819*
Y30413D02*
X13346D01*
X13819*
X14180Y32910D02*
X14497D01*
Y33226*
X14180Y32910*
X14388Y32349D02*
X14389Y32352D01*
Y32355*
X14387Y32357*
X14385Y32359*
X14382Y32360*
X14379*
X14377Y32359*
X14375Y32357*
X14249Y32105*
X14123Y32357*
X14121Y32359*
X14119Y32360*
X14116*
X14113Y32359*
X14111Y32357*
X14109Y32355*
Y32352*
Y32349*
X14242Y32084*
X14243Y32083*
X14245Y32081*
X14247*
X14249*
X14251*
X14253*
X14254Y32083*
X14256Y32084*
X14388Y32349*
X14389Y32352D02*
X14388Y32349D01*
X14256Y32084*
X14254Y32083*
X14253Y32081*
X14251*
X14249*
X14247*
X14245*
X14243Y32083*
X14242Y32084*
X14109Y32349*
Y32352*
Y32355*
X14111Y32357*
X14113Y32359*
X14116Y32360*
X14119*
X14121Y32359*
X14123Y32357*
X14249Y32105*
X14375Y32357*
X14377Y32359*
X14379Y32360*
X14382*
X14385Y32359*
X14387Y32357*
X14389Y32355*
Y32352*
X14496Y32255D02*
X14745D01*
Y32270*
X14670Y32345*
X14569*
X14496Y32296*
Y32255*
X14497Y32910D02*
X14180D01*
X14497Y33226*
Y32910*
X14558Y32893D02*
X14559Y32897D01*
X14558Y32902*
X14556Y32906*
X14553Y32909*
X14549Y32910*
X14521*
Y33257*
X14520Y33260*
X14519Y33262*
X14518*
X14516Y33265*
X14513Y33266*
X14510Y33268*
X14506*
X14503*
X14500Y33265*
X14142Y32907*
X14139Y32903*
X14138Y32900*
X14139Y32896*
X14141Y32892*
X14142Y32889*
X14145Y32887*
X14147Y32886*
X14150Y32885*
X14497*
Y32706*
X14498Y32702*
X14501Y32699*
X14505Y32697*
X14509Y32696*
X14513Y32697*
X14517Y32699*
X14520Y32702*
X14521Y32706*
Y32885*
X14549*
X14553Y32887*
X14556Y32889*
X14558Y32893*
X14559Y32897D02*
X14558Y32893D01*
X14556Y32889*
X14553Y32887*
X14549Y32885*
X14521*
Y32706*
X14520Y32702*
X14517Y32699*
X14513Y32697*
X14509Y32696*
X14505Y32697*
X14501Y32699*
X14498Y32702*
X14497Y32706*
Y32885*
X14150*
X14147Y32886*
X14145Y32887*
X14142Y32889*
X14141Y32892*
X14139Y32896*
X14138Y32900*
X14139Y32903*
X14142Y32907*
X14500Y33265*
X14503Y33268*
X14506*
X14510*
X14513Y33266*
X14516Y33265*
X14519Y33262*
X14520Y33260*
X14521Y33257*
Y32910*
X14549*
X14553Y32909*
X14556Y32906*
X14558Y32902*
X14559Y32897*
X14745Y32255D02*
X14496D01*
Y32296*
X14569Y32345*
X14670*
X14745Y32270*
Y32255*
X14760Y32244D02*
X14761Y32247D01*
Y32273*
X14760Y32275*
Y32276*
X14759Y32278*
Y32280*
X14679Y32359*
X14677Y32360*
X14674Y32361*
X14567*
X14565*
X14563Y32359*
X14483Y32307*
Y32306*
X14482*
X14481Y32304*
X14480Y32302*
Y32300*
Y32141*
Y32139*
X14481Y32137*
X14482Y32135*
X14483Y32134*
X14563Y32082*
Y32081*
X14565Y32080*
X14567*
X14674*
X14677Y32081*
X14679Y32082*
X14759Y32161*
X14761Y32164*
Y32167*
X14760Y32170*
X14758Y32172*
X14756Y32174*
X14752Y32175*
X14750*
X14747Y32173*
X14670Y32096*
X14569*
X14496Y32144*
Y32239*
X14753*
X14756Y32240*
X14758Y32242*
X14760Y32244*
X14761Y32247D02*
X14760Y32244D01*
X14758Y32242*
X14756Y32240*
X14753Y32239*
X14496*
Y32144*
X14569Y32096*
X14670*
X14747Y32173*
X14750Y32175*
X14752*
X14756Y32174*
X14758Y32172*
X14760Y32170*
X14761Y32167*
Y32164*
X14759Y32161*
X14679Y32082*
X14677Y32081*
X14674Y32080*
X14567*
X14565*
X14563Y32081*
X14483Y32134*
X14482Y32135*
X14481Y32137*
X14480Y32139*
Y32141*
Y32300*
Y32302*
X14481Y32304*
X14482Y32306*
X14483*
Y32307*
X14563Y32359*
X14565Y32361*
X14567*
X14674*
X14677Y32360*
X14679Y32359*
X14759Y32280*
Y32278*
X14760Y32276*
Y32275*
X14761Y32273*
Y32247*
X14764Y1831D02*
Y2106D01*
Y1831*
Y8917D02*
Y9193D01*
Y8917*
Y19941D02*
Y20217D01*
Y19941*
Y22244D02*
Y23425D01*
Y22244*
X14803Y26240D02*
Y26516D01*
Y26240*
X14862Y14075D02*
X15059D01*
Y15256*
X14862*
Y14075*
Y15650D02*
X15059D01*
Y16831*
X14862*
Y15650*
Y17224D02*
X15059D01*
Y18406*
X14862*
Y17224*
X15059Y14075D02*
X14862D01*
Y15256*
X15059*
Y14075*
Y15650D02*
X14862D01*
Y16831*
X15059*
Y15650*
Y17224D02*
X14862D01*
Y18406*
X15059*
Y17224*
X15118Y32785D02*
Y32787D01*
Y32989*
Y32992*
X15117Y32995*
Y32996*
X15116Y32997*
X15115Y32998*
X15114Y32999*
X15015Y33080*
X15012Y33081*
X15007Y33082*
X14808*
X14806Y33081*
X14804*
X14801Y33080*
X14721Y33015*
Y33261*
X15107*
X15111Y33262*
X15114Y33265*
X15116Y33269*
X15117Y33273*
X15116Y33278*
X15114Y33281*
X15111Y33284*
X15107Y33285*
X14708*
X14704Y33284*
X14700Y33281*
X14697Y33278*
X14696Y33273*
Y32989*
X14697Y32985*
X14699Y32982*
X14701Y32981*
X14705Y32979*
X14708Y32978*
X14710*
X14713*
X14716Y32980*
X14812Y33058*
X15003*
X15095Y32983*
Y32793*
X15003Y32719*
X14812*
X14716Y32797*
X14712Y32799*
X14708*
X14705Y32797*
X14701Y32794*
X14699Y32790*
X14698Y32786*
X14699Y32781*
X14702Y32779*
X14801Y32697*
X14803Y32696*
X14806*
X14808Y32695*
X15009*
X15010*
X15011Y32696*
X15012*
X15015Y32697*
X15114Y32779*
X15116Y32780*
X15117Y32781*
X15118Y32785*
X15119Y32787D02*
X15118Y32785D01*
X15117Y32781*
X15116Y32780*
X15114Y32779*
X15015Y32697*
X15012Y32696*
X15011*
X15010Y32695*
X15009*
X14808*
X14806Y32696*
X14803*
X14801Y32697*
X14702Y32779*
X14699Y32781*
X14698Y32786*
X14699Y32790*
X14701Y32794*
X14705Y32797*
X14708Y32799*
X14712*
X14716Y32797*
X14812Y32719*
X15003*
X15095Y32793*
Y32983*
X15003Y33058*
X14812*
X14716Y32980*
X14713Y32978*
X14710*
X14708*
X14705Y32979*
X14701Y32981*
X14699Y32982*
X14697Y32985*
X14696Y32989*
Y33273*
X14697Y33278*
X14700Y33281*
X14704Y33284*
X14708Y33285*
X15107*
X15111Y33284*
X15114Y33281*
X15116Y33278*
X15117Y33273*
X15116Y33269*
X15114Y33265*
X15111Y33262*
X15107Y33261*
X14721*
Y33015*
X14801Y33080*
X14804Y33081*
X14806Y33082*
X14808*
X15007*
X15012Y33081*
X15015Y33080*
X15114Y32999*
X15115Y32998*
X15116Y32997*
X15117Y32996*
Y32995*
X15118Y32992*
X15119Y32989*
Y32787*
X15131Y32299D02*
Y32302D01*
Y32304*
X15129Y32307*
X15063Y32359*
X15061Y32360*
X15057Y32361*
X14925*
X14923*
X14922Y32360*
X14920Y32359*
X14867Y32317*
Y32353*
X14866Y32356*
X14864Y32358*
X14861Y32359*
X14858Y32360*
X14856Y32359*
X14853Y32358*
X14851Y32356*
X14850Y32353*
Y32088*
X14851Y32085*
X14853Y32083*
X14856Y32082*
X14858Y32081*
X14861Y32082*
X14864Y32083*
X14866Y32085*
X14867Y32088*
Y32296*
X14928Y32345*
X15055*
X15119Y32294*
X15122Y32293*
X15124*
X15127Y32294*
X15129Y32296*
X15131Y32299*
Y32302D02*
Y32299D01*
X15129Y32296*
X15127Y32294*
X15124Y32293*
X15122*
X15119Y32294*
X15055Y32345*
X14928*
X14867Y32296*
Y32088*
X14866Y32085*
X14864Y32083*
X14861Y32081*
X14858*
X14856*
X14853Y32083*
X14851Y32085*
X14850Y32088*
Y32353*
X14851Y32356*
X14853Y32358*
X14856Y32359*
X14858Y32360*
X14861Y32359*
X14864Y32358*
X14866Y32356*
X14867Y32353*
Y32317*
X14920Y32359*
X14922Y32360*
X14923Y32361*
X14925*
X15057*
X15061Y32360*
X15063Y32359*
X15129Y32307*
X15131Y32304*
Y32302*
X15217Y3189D02*
Y3307D01*
Y3189*
Y10472D02*
Y10591D01*
Y10472*
X15313Y32093D02*
X15343D01*
Y32123*
X15313*
Y32093*
X15314Y32764D02*
X15600Y33230D01*
X15561Y33261*
X15370*
X15279Y33187*
Y32793*
X15314Y32764*
X15343Y32093D02*
X15313D01*
Y32123*
X15343*
Y32093*
X15356Y32084D02*
Y32087D01*
Y32130*
Y32132*
X15354Y32134*
X15352Y32136*
X15350*
X15306*
X15304*
X15302Y32134*
Y32133*
X15301*
X15300Y32130*
Y32087*
Y32085*
X15301Y32083*
X15302*
Y32082*
X15304Y32080*
X15306*
X15350*
X15352*
X15354Y32082*
X15356Y32084*
Y32087D02*
Y32084D01*
X15354Y32082*
X15352Y32080*
X15350*
X15306*
X15304*
X15302Y32082*
Y32083*
X15301*
X15300Y32085*
Y32087*
Y32130*
X15301Y32133*
X15302*
Y32134*
X15304Y32136*
X15306*
X15350*
X15352*
X15354Y32134*
X15356Y32132*
Y32130*
Y32087*
X15512Y20925D02*
X15394D01*
X15512*
Y21988D02*
X15394D01*
X15512*
X15561Y32719D02*
X15653Y32793D01*
Y33187*
X15618Y33214*
X15333Y32748*
X15370Y32719*
X15561*
X15600Y33230D02*
X15314Y32764D01*
X15279Y32793*
Y33187*
X15370Y33261*
X15561*
X15600Y33230*
X15650Y28543D02*
Y29724D01*
Y28543*
X15653Y32793D02*
X15561Y32719D01*
X15370*
X15333Y32748*
X15618Y33214*
X15653Y33187*
Y32793*
X15676Y32786D02*
X15677Y32787D01*
Y33193*
X15676Y33195*
X15675Y33197*
X15674Y33199*
X15672Y33202*
X15573Y33283*
X15571*
X15569Y33284*
Y33285*
X15568*
X15566*
X15367*
X15364*
Y33284*
X15362Y33283*
X15359*
X15260Y33202*
X15258Y33199*
X15257Y33197*
X15256Y33195*
X15255Y33193*
Y32787*
X15256Y32786*
X15257Y32781*
X15258Y32780*
X15259Y32779*
X15260Y32778*
X15359Y32697*
X15362Y32696*
X15367Y32695*
X15567*
X15569*
X15570Y32696*
X15571*
X15573Y32697*
X15672Y32778*
X15674Y32780*
X15675Y32781*
X15676Y32786*
X15677Y32787D02*
X15676Y32786D01*
X15675Y32781*
X15674Y32780*
X15672Y32778*
X15573Y32697*
X15571Y32696*
X15570*
X15569Y32695*
X15567*
X15367*
X15362Y32696*
X15359Y32697*
X15260Y32778*
X15259Y32779*
X15258Y32780*
X15257Y32781*
X15256Y32786*
X15255Y32787*
Y33193*
X15256Y33195*
X15257Y33197*
X15258Y33199*
X15260Y33202*
X15359Y33283*
X15362*
X15364Y33284*
Y33285*
X15367*
X15566*
X15568*
X15569*
Y33284*
X15571Y33283*
X15573*
X15672Y33202*
X15674Y33199*
X15675Y33197*
X15676Y33195*
X15677Y33193*
Y32787*
X15709Y27224D02*
X15591D01*
X15709*
Y28287D02*
X15591D01*
X15709*
X15734Y32096D02*
X15791Y32145D01*
Y32219*
X15733Y32284*
X15542*
Y32096*
X15734*
Y32300D02*
X15778Y32335D01*
Y32408*
X15734Y32457*
X15542*
Y32300*
X15734*
X15778Y32335D02*
X15734Y32300D01*
X15542*
Y32457*
X15734*
X15778Y32408*
Y32335*
X15791Y32145D02*
X15734Y32096D01*
X15542*
Y32284*
X15733*
X15791Y32219*
Y32145*
X15806Y32139D02*
X15807Y32142D01*
Y32226*
X15749Y32291*
X15791Y32324*
X15792Y32326*
X15793Y32328*
X15794Y32330*
Y32331*
Y32415*
X15743Y32471*
X15741Y32473*
X15738Y32474*
X15533*
X15531Y32473*
X15528Y32471*
X15526Y32469*
Y32466*
Y32088*
Y32085*
X15528Y32082*
X15531Y32080*
X15533*
X15740*
X15805Y32136*
X15806Y32139*
X15807Y32142D02*
X15806Y32139D01*
X15805Y32136*
X15740Y32080*
X15533*
X15531*
X15528Y32082*
X15526Y32085*
Y32088*
Y32466*
Y32469*
X15528Y32471*
X15531Y32473*
X15533Y32474*
X15738*
X15741Y32473*
X15743Y32471*
X15794Y32415*
Y32331*
Y32330*
X15793Y32328*
X15792Y32326*
X15791Y32324*
X15749Y32291*
X15807Y32226*
Y32142*
X15948Y32714D02*
X15993D01*
Y32760*
X15948*
Y32714*
X15993D02*
X15948D01*
Y32760*
X15993*
Y32714*
X16012Y32701D02*
X16013Y32705D01*
Y32769*
X16012Y32773*
X16009Y32776*
X16006Y32779*
X16003*
X15938*
X15934*
X15932Y32776*
X15931Y32775*
X15929Y32774*
X15928Y32769*
Y32705*
X15929Y32702*
Y32700*
X15931Y32699*
X15932Y32698*
X15934Y32695*
X15938*
X16003*
X16006*
X16009Y32698*
X16012Y32701*
X16013Y32705D02*
X16012Y32701D01*
X16009Y32698*
X16006Y32695*
X16003*
X15938*
X15934*
X15932Y32698*
X15931Y32699*
X15929Y32700*
Y32702*
X15928Y32705*
Y32769*
X15929Y32774*
X15931Y32775*
X15932Y32776*
X15934Y32779*
X15938*
X16003*
X16006*
X16009Y32776*
X16012Y32773*
X16013Y32769*
Y32705*
X16043Y12697D02*
X14862D01*
X16043*
X16280Y3189D02*
Y3307D01*
Y3189*
Y10472D02*
Y10591D01*
Y10472*
X16535Y4035D02*
Y5217D01*
Y4035*
X17500Y1693D02*
Y2244D01*
Y1693*
Y3071D02*
Y3622D01*
Y3071*
Y4449D02*
Y5000D01*
Y4449*
Y8780D02*
Y9331D01*
Y8780*
Y10157D02*
Y10709D01*
Y10157*
Y11535D02*
Y12087D01*
Y11535*
Y19803D02*
Y20354D01*
Y19803*
Y21181D02*
Y21732D01*
Y21181*
Y22559D02*
Y23110D01*
Y22559*
Y26102D02*
Y26654D01*
Y26102*
Y27480D02*
Y28031D01*
Y28032*
Y28031*
Y27480*
Y28858D02*
Y29409D01*
Y28858*
X17913Y5768D02*
Y6043D01*
Y5768*
Y12854D02*
Y13130D01*
Y12854*
Y23878D02*
Y24154D01*
Y23878*
Y30177D02*
Y30453D01*
Y30177*
X18061Y17028D02*
G03X17028Y18061I1033D01*
X15994Y17028J1033*
X17028Y15994I1034*
X18061Y17028J1034*
X17028Y18061I1033*
X15994Y17028J1033*
X17028Y15994I1034*
X18061Y17028J1034*
G01X18327Y1693D02*
Y2244D01*
Y1693*
Y3071D02*
Y3622D01*
Y3071*
Y4449D02*
Y5000D01*
Y4449*
Y8780D02*
Y9331D01*
Y8780*
Y10157D02*
Y10709D01*
Y10157*
Y11535D02*
Y12087D01*
Y11535*
Y19803D02*
Y20354D01*
Y19803*
Y21181D02*
Y21732D01*
Y21181*
Y22559D02*
Y23110D01*
Y22559*
Y26102D02*
Y26654D01*
Y26102*
Y27480D02*
Y28031D01*
Y28032*
Y28031*
Y27480*
Y28858D02*
Y29409D01*
Y28858*
X19587Y4823D02*
X30217D01*
Y9547*
X19587*
Y4823*
Y9646D02*
X30217D01*
Y14173*
X25689*
Y12992*
X25492*
Y14173*
X19587*
Y9646*
Y14173D02*
X30217D01*
Y14370*
X19587*
Y14173*
Y14370D02*
X30217D01*
Y18898*
X25689*
Y17815*
X25492*
Y18898*
X21496*
Y17047*
X20630*
Y18898*
X19587*
Y14370*
Y19094D02*
X30217D01*
Y23819*
X25689*
Y22638*
X25492*
Y23819*
X19587*
Y19094*
Y24016D02*
X30217D01*
Y28740*
X19587*
Y24016*
Y28937D02*
X30217D01*
Y33661*
X19587*
Y28937*
X20630Y18898D02*
X21496D01*
Y18976*
X20630*
Y18898*
X21339Y5039D02*
X21496Y5197D01*
Y6968*
X20630*
Y5039*
X21339*
Y7402D02*
X21496Y7559D01*
Y9331*
X20630*
Y7402*
X21339*
Y9862D02*
X21496Y10020D01*
Y11791*
X20630*
Y9862*
X21339*
Y12224D02*
X21496Y12382D01*
Y14154*
X20630*
Y12224*
X21339*
Y14685D02*
X21496Y14843D01*
Y16614*
X20630*
Y14685*
X21339*
Y17047D02*
X21496Y17205D01*
Y18898*
X20630*
Y17047*
X21339*
Y19508D02*
X21496Y19665D01*
Y21437*
X20630*
Y19508*
X21339*
Y21870D02*
X21496Y22028D01*
Y23799*
X20630*
Y21870*
X21339*
Y24331D02*
X21496Y24488D01*
Y26260*
X20630*
Y24331*
X21339*
Y26693D02*
X21496Y26850D01*
Y28622*
X20630*
Y26693*
X21339*
Y29154D02*
X21496Y29311D01*
Y31083*
X20630*
Y29154*
X21339*
Y31516D02*
X21496Y31673D01*
Y33445*
X20630*
Y31516*
X21339*
X21378Y5039D02*
X21496Y5157D01*
Y5197*
X21339Y5039*
X21378*
Y7402D02*
X21496Y7520D01*
Y7559*
X21339Y7402*
X21378*
Y9862D02*
X21496Y9980D01*
Y10020*
X21339Y9862*
X21378*
Y12224D02*
X21496Y12343D01*
Y12382*
X21339Y12224*
X21378*
Y14685D02*
X21496Y14803D01*
Y14843*
X21339Y14685*
X21378*
Y17047D02*
X21496Y17165D01*
Y17205*
X21339Y17047*
X21378*
Y19508D02*
X21496Y19626D01*
Y19665*
X21339Y19508*
X21378*
Y21870D02*
X21496Y21988D01*
Y22028*
X21339Y21870*
X21378*
Y24331D02*
X21496Y24449D01*
Y24488*
X21339Y24331*
X21378*
Y26693D02*
X21496Y26811D01*
Y26850*
X21339Y26693*
X21378*
Y29154D02*
X21496Y29272D01*
Y29311*
X21339Y29154*
X21378*
Y31516D02*
X21496Y31634D01*
Y31673*
X21339Y31516*
X21378*
X21417Y5039D02*
X21496Y5118D01*
Y5157*
X21378Y5039*
X21417*
Y7402D02*
X21496Y7480D01*
Y7520*
X21378Y7402*
X21417*
Y9862D02*
X21496Y9941D01*
Y9980*
X21378Y9862*
X21417*
Y12224D02*
X21496Y12303D01*
Y12343*
X21378Y12224*
X21417*
Y14685D02*
X21496Y14764D01*
Y14803*
X21378Y14685*
X21417*
Y17047D02*
X21496Y17126D01*
Y17165*
X21378Y17047*
X21417*
Y19508D02*
X21496Y19587D01*
Y19626*
X21378Y19508*
X21417*
Y21870D02*
X21496Y21949D01*
Y21988*
X21378Y21870*
X21417*
Y24331D02*
X21496Y24409D01*
Y24449*
X21378Y24331*
X21417*
Y26693D02*
X21496Y26772D01*
Y26811*
X21378Y26693*
X21417*
Y29154D02*
X21496Y29232D01*
Y29272*
X21378Y29154*
X21417*
Y31516D02*
X21496Y31594D01*
Y31634*
X21378Y31516*
X21417*
X21457Y5039D02*
X21496Y5079D01*
Y5118*
X21417Y5039*
X21457*
Y7402D02*
X21496Y7441D01*
Y7480*
X21417Y7402*
X21457*
Y9862D02*
X21496Y9902D01*
Y9941*
X21417Y9862*
X21457*
Y12224D02*
X21496Y12264D01*
Y12303*
X21417Y12224*
X21457*
Y14685D02*
X21496Y14724D01*
Y14764*
X21417Y14685*
X21457*
Y17047D02*
X21496Y17087D01*
Y17126*
X21417Y17047*
X21457*
Y19508D02*
X21496Y19547D01*
Y19587*
X21417Y19508*
X21457*
Y21870D02*
X21496Y21909D01*
Y21949*
X21417Y21870*
X21457*
Y24331D02*
X21496Y24370D01*
Y24409*
X21417Y24331*
X21457*
Y26693D02*
X21496Y26732D01*
Y26772*
X21417Y26693*
X21457*
Y29154D02*
X21496Y29193D01*
Y29232*
X21417Y29154*
X21457*
Y31516D02*
X21496Y31555D01*
Y31594*
X21417Y31516*
X21457*
Y5039D02*
X21496D01*
Y5079*
X21457Y5039*
Y7402D02*
X21496D01*
Y7441*
X21457Y7402*
Y9862D02*
X21496D01*
Y9902*
X21457Y9862*
Y12224D02*
X21496D01*
Y12264*
X21457Y12224*
Y14685D02*
X21496D01*
Y14724*
X21457Y14685*
Y17047D02*
X21496D01*
Y17087*
X21457Y17047*
Y19508D02*
X21496D01*
Y19547*
X21457Y19508*
Y21870D02*
X21496D01*
Y21909*
X21457Y21870*
Y24331D02*
X21496D01*
Y24370*
X21457Y24331*
Y26693D02*
X21496D01*
Y26732*
X21457Y26693*
Y29154D02*
X21496D01*
Y29193*
X21457Y29154*
Y31516D02*
X21496D01*
Y31555*
X21457Y31516*
X21496Y5039D02*
X20630D01*
Y6969*
X21496*
Y5039*
Y7402D02*
X20630D01*
Y9331*
X21496*
Y7402*
Y9862D02*
X20630D01*
Y11791*
X21496*
Y9862*
Y12224D02*
X20630D01*
Y14154*
X21496*
Y12224*
Y14685D02*
X20630D01*
Y16614*
X21496*
Y14685*
Y19508D02*
X20630D01*
Y21437*
X21496*
Y19508*
Y21870D02*
X20630D01*
Y23799*
X21496*
Y21870*
Y24331D02*
X20630D01*
Y26260*
X21496*
Y24331*
Y26693D02*
X20630D01*
Y28622*
X21496*
Y26693*
Y29154D02*
X20630D01*
Y31083*
X21496*
Y29154*
Y31516D02*
X20630D01*
Y33445*
X21496*
Y31516*
X22047Y1240D02*
Y1516D01*
Y1240*
X22480Y2953D02*
X22008D01*
X22480*
X23524Y6791D02*
X23720D01*
Y7972*
X23524*
Y6791*
Y11614D02*
X23720D01*
Y12795*
X23524*
Y11614*
Y16437D02*
X23720D01*
Y17618*
X23524*
Y16437*
Y21260D02*
X23720D01*
Y22441*
X23524*
Y21260*
Y26083D02*
X23720D01*
Y27264*
X23524*
Y26083*
X23622Y5217D02*
Y6398D01*
Y5217*
X23642Y30906D02*
X23839D01*
Y32087*
X23642*
Y30906*
X23720Y6791D02*
X23524D01*
Y7972*
X23720*
Y6791*
Y11614D02*
X23524D01*
Y12795*
X23720*
Y11614*
Y16437D02*
X23524D01*
Y17618*
X23720*
Y16437*
Y21260D02*
X23524D01*
Y22441*
X23720*
Y21260*
Y26083D02*
X23524D01*
Y27264*
X23720*
Y26083*
X23839Y30906D02*
X23642D01*
Y32087*
X23839*
Y30906*
X24213Y3563D02*
X23819D01*
X24213*
Y4902D02*
X23819D01*
X24213*
Y10433D02*
X23031D01*
X24213*
Y15256D02*
X23031D01*
X24213*
Y20079D02*
X23031D01*
X24213*
Y24902D02*
X23031D01*
X24213*
Y29724D02*
X23031D01*
X24213*
X24488Y1457D02*
X23543D01*
Y1703*
Y1457*
X24488*
Y1703*
Y1457*
Y2825D02*
Y3071D01*
X23543*
Y2825*
Y3071*
X24488*
Y2825*
X25492Y6693D02*
X25689D01*
Y7874*
X25492*
Y6693*
Y8169D02*
X25689D01*
Y9350*
X25492*
Y8169*
Y11417D02*
X25689D01*
Y12598*
X25492*
Y11417*
Y12992D02*
X25689D01*
Y14173*
X25492*
Y12992*
Y16240D02*
X25689D01*
Y17421*
X25492*
Y16240*
Y17815D02*
X25689D01*
Y18898*
X25492*
Y17815*
Y18898D02*
X25689D01*
Y18996*
X25492*
Y18898*
Y21063D02*
X25689D01*
Y22244*
X25492*
Y21063*
Y22638D02*
X25689D01*
Y23819*
X25492*
Y22638*
Y25886D02*
X25689D01*
Y27067*
X25492*
Y25886*
Y27461D02*
X25689D01*
Y28642*
X25492*
Y27461*
Y30709D02*
X25689D01*
Y31890*
X25492*
Y30709*
Y32283D02*
X25689D01*
Y33465*
X25492*
Y32283*
X25512Y5197D02*
X25669D01*
Y6417*
X25512*
Y5197*
Y9823D02*
X25669D01*
Y11043*
X25512*
Y9823*
Y14646D02*
X25669D01*
Y15866*
X25512*
Y14646*
Y19469D02*
X25669D01*
Y20689*
X25512*
Y19469*
Y24291D02*
X25669D01*
Y25512*
X25512*
Y24291*
Y29114D02*
X25669D01*
Y30335*
X25512*
Y29114*
X25669Y5197D02*
X25512D01*
Y6417*
X25669*
Y5197*
Y9823D02*
X25512D01*
Y11043*
X25669*
Y9823*
Y14646D02*
X25512D01*
Y15866*
X25669*
Y14646*
Y19469D02*
Y19468D01*
X25512*
Y19469*
Y20689*
X25669*
Y19469*
Y24291D02*
X25512D01*
Y25512*
X25669*
Y24291*
Y29114D02*
X25512D01*
Y30335*
X25669*
Y29114*
X25689Y6693D02*
X25492D01*
Y7874*
X25689*
Y6693*
Y8169D02*
X25492D01*
Y9350*
X25689*
Y8169*
Y11417D02*
X25492D01*
Y12598*
X25689*
Y11417*
Y16240D02*
X25492D01*
Y17421*
X25689*
Y16240*
Y21063D02*
X25492D01*
Y22244*
X25689*
Y21063*
Y25886D02*
X25492D01*
Y27067*
X25689*
Y25886*
Y27461D02*
X25492D01*
Y28642*
X25689*
Y27461*
Y30709D02*
X25492D01*
Y31890*
X25689*
Y30709*
Y32283D02*
X25492D01*
Y33465*
X25689*
Y32283*
X25925Y1575D02*
X25453D01*
X25925*
X26398Y1535D02*
Y1614D01*
Y1535*
X26476Y2461D02*
X26673D01*
Y3642*
X26476*
Y2461*
X26673D02*
X26476D01*
Y3642*
X26673*
Y2461*
X26949Y1535D02*
Y1614D01*
Y1535*
X27795Y5610D02*
X27520D01*
X27795*
Y10433D02*
X27520D01*
X27795*
Y15256D02*
X27520D01*
X27795*
Y20079D02*
X27520D01*
X27795*
Y24902D02*
X27520D01*
X27795*
Y29724D02*
X27520D01*
X27795*
X28150Y492D02*
Y1673D01*
Y492*
Y2067D02*
Y3248D01*
Y2067*
X28681Y5610D02*
X28406D01*
X28681*
Y10433D02*
X28406D01*
X28681*
Y15256D02*
X28406D01*
X28681*
Y20079D02*
X28406D01*
X28681*
Y24902D02*
X28406D01*
X28681*
Y29724D02*
X28406D01*
X28681*
X28740Y13602D02*
Y14075D01*
Y13602*
Y18366D02*
Y18839D01*
Y18366*
Y23189D02*
Y23661D01*
Y23189*
Y28012D02*
Y28484D01*
Y28012*
Y32835D02*
Y33307D01*
Y32835*
X29035Y8720D02*
Y9193D01*
Y8720*
X29567Y7283D02*
X29488D01*
X29567*
Y7677D02*
X29488D01*
X29567*
Y12205D02*
X29488D01*
X29567*
Y12598D02*
X29488D01*
X29567*
Y17028D02*
X29488D01*
X29567*
Y17421D02*
X29488D01*
X29567*
Y21850D02*
X29488D01*
X29567*
Y22244D02*
X29488D01*
X29567*
Y26772D02*
X29488D01*
X29567*
Y27165D02*
X29488D01*
X29567*
Y31496D02*
X29488D01*
X29567*
Y31890D02*
X29488D01*
X29567*
X29764Y1083D02*
X29291D01*
X29764*
Y2657D02*
X29291D01*
X29764*
Y4232D02*
X29291D01*
X29764*
Y5610D02*
X29291D01*
X29764*
Y10433D02*
X29291D01*
X29764*
Y15256D02*
X29291D01*
X29764*
Y20079D02*
X29291D01*
X29764*
Y25000D02*
X29291D01*
X29764*
Y29724D02*
X29291D01*
X29764*
X29882Y32283D02*
X29567D01*
X29882*
X29921Y8110D02*
Y8425D01*
Y8110*
X29980Y13091D02*
X29665D01*
X29980*
Y17913D02*
X29665D01*
X29980*
Y22736D02*
X29665D01*
X29980*
Y27657D02*
X29665D01*
X29980*
X30217Y4823D02*
X28150D01*
Y3642*
Y4823*
X19587*
Y9547*
X30217*
Y4823*
Y9646D02*
X19587D01*
Y18898*
X20630*
Y18976*
X21496*
Y18898*
X25492*
Y18996*
X25689*
Y18898*
X30217*
Y9646*
Y19094D02*
X19587D01*
Y23819*
X30217*
Y19094*
Y24016D02*
X19587D01*
Y28740*
X30217*
Y24016*
Y28937D02*
X19587D01*
Y33661*
X30217*
Y28937*
X30807Y492D02*
X31004D01*
Y1673*
X30807*
Y492*
Y2067D02*
X31004D01*
Y3248*
X30807*
Y2067*
Y3642D02*
X31004D01*
Y4823*
X30807*
Y3642*
X30906Y5217D02*
X32480D01*
Y28839*
X30906*
Y5217*
X31004Y492D02*
X30807D01*
Y1673*
X31004*
Y492*
Y2067D02*
X30807D01*
Y3248*
X31004*
Y2067*
Y3642D02*
X30807D01*
Y4823*
X31004*
Y3642*
X31260Y31043D02*
X30945D01*
X31260*
Y31555D02*
X30945D01*
X31260*
X31931Y30512D02*
G03X31791Y30652I140D01*
X31652Y30512J140*
X31791Y30372I139*
X31931Y30512J140*
X31791Y30652I140*
X31652Y30512J140*
X31791Y30372I139*
X31931Y30512J140*
G01X32480Y5217D02*
X30906D01*
Y28839*
X32480*
Y5217*
X33032Y31043D02*
X33031D01*
X32717*
X33031*
X33032*
Y31555D02*
X33031D01*
X32717*
X33031*
X33032*
X33703Y30512D02*
G03X33563Y30652I140D01*
X33423Y30512J140*
X33563Y30372I140*
X33703Y30512J140*
X33563Y30652I140*
X33423Y30512J140*
X33563Y30372I140*
X33703Y30512J140*
G01X34006Y1083D02*
G03X32972Y2116I1034D01*
X31939Y1083J1033*
X32972Y49I1033*
X34006Y1083J1034*
G01Y32972D02*
G03X32972Y34006I1034D01*
X31939Y32972J1034*
X32972Y31939I1033*
X34006Y32972J1033*
G01Y1083D02*
G03X32972Y2116I1034D01*
X31939Y1083J1033*
X32972Y49I1033*
X34006Y1083J1034*
G01Y32972D02*
G03X32972Y34006I1034D01*
X31939Y32972J1034*
X32972Y31939I1033*
X34006Y32972J1033*
G54D14*
G01X2254Y20059D02*
G03X2205Y20108I49D01*
X2156Y20059J49*
X2205Y20010I49*
X2254Y20059J49*
G01Y21634D02*
G03X2205Y21683I49D01*
X2156Y21634J49*
X2205Y21585I49*
X2254Y21634J49*
G01Y23209D02*
G03X2205Y23258I49D01*
X2156Y23209J49*
X2205Y23159I49*
X2254Y23209J50*
G01Y20059D02*
G03X2205Y20108I49D01*
X2156Y20059J49*
X2205Y20010I49*
X2254Y20059J49*
G01Y21634D02*
G03X2205Y21683I49D01*
X2156Y21634J49*
X2205Y21585I49*
X2254Y21634J49*
G01Y23209D02*
G03X2205Y23258I49D01*
X2156Y23209J49*
X2205Y23159I49*
X2254Y23209J50*
G01X3809Y21476D02*
G03X3760Y21526I49D01*
X3711Y21476J50*
X3760Y21427I49*
X3809Y21476J49*
G01Y23051D02*
G03X3760Y23100I49D01*
X3711Y23051J49*
X3760Y23002I49*
X3809Y23051J49*
G01Y24626D02*
G03X3760Y24675I49D01*
X3711Y24626J49*
X3760Y24577I49*
X3809Y24626J49*
G01Y21476D02*
G03X3760Y21526I49D01*
X3711Y21476J50*
X3760Y21427I49*
X3809Y21476J49*
G01Y23051D02*
G03X3760Y23100I49D01*
X3711Y23051J49*
X3760Y23002I49*
X3809Y23051J49*
G01Y24626D02*
G03X3760Y24675I49D01*
X3711Y24626J49*
X3760Y24577I49*
X3809Y24626J49*
G01X4104Y27598D02*
G03X4055Y27648I49D01*
X4006Y27598J50*
X4055Y27549I49*
X4104Y27598J49*
X4055Y27648I49*
X4006Y27598J50*
X4055Y27549I49*
X4104Y27598J49*
G01X4419Y374D02*
G03X4370Y423I49D01*
X4321Y374J49*
X4370Y325I49*
X4419Y374J49*
G01Y1949D02*
G03X4370Y1998I49D01*
X4321Y1949J49*
X4370Y1900I49*
X4419Y1949J49*
G01Y3524D02*
G03X4370Y3573I49D01*
X4321Y3524J49*
X4370Y3474I49*
X4419Y3524J50*
G01Y8740D02*
G03X4370Y8789I49D01*
X4321Y8740J49*
X4370Y8691I49*
X4419Y8740J49*
G01Y10315D02*
G03X4370Y10364I49D01*
X4321Y10315J49*
X4370Y10266I49*
X4419Y10315J49*
G01Y11890D02*
G03X4370Y11939I49D01*
X4321Y11890J49*
X4370Y11841I49*
X4419Y11890J49*
G01Y374D02*
G03X4370Y423I49D01*
X4321Y374J49*
X4370Y325I49*
X4419Y374J49*
G01Y1949D02*
G03X4370Y1998I49D01*
X4321Y1949J49*
X4370Y1900I49*
X4419Y1949J49*
G01Y3524D02*
G03X4370Y3573I49D01*
X4321Y3524J49*
X4370Y3474I49*
X4419Y3524J50*
G01Y8740D02*
G03X4370Y8789I49D01*
X4321Y8740J49*
X4370Y8691I49*
X4419Y8740J49*
G01Y10315D02*
G03X4370Y10364I49D01*
X4321Y10315J49*
X4370Y10266I49*
X4419Y10315J49*
G01Y11890D02*
G03X4370Y11939I49D01*
X4321Y11890J49*
X4370Y11841I49*
X4419Y11890J49*
G01X5246Y31654D02*
G03X5197Y31703I49D01*
X5148Y31654J49*
X5197Y31604I49*
X5246Y31654J50*
X5197Y31703I49*
X5148Y31654J49*
X5197Y31604I49*
X5246Y31654J50*
G01X5876Y16181D02*
G03X5827Y16230I49D01*
X5778Y16181J49*
X5827Y16132I49*
X5876Y16181J49*
X5827Y16230I49*
X5778Y16181J49*
X5827Y16132I49*
X5876Y16181J49*
G01X5974Y1791D02*
G03X5925Y1841I49D01*
X5876Y1791J50*
X5925Y1742I49*
X5974Y1791J49*
G01Y3366D02*
G03X5925Y3415I49D01*
X5876Y3366J49*
X5925Y3317I49*
X5974Y3366J49*
G01Y4941D02*
G03X5925Y4990I49D01*
X5876Y4941J49*
X5925Y4892I49*
X5974Y4941J49*
G01Y10157D02*
G03X5925Y10207I49D01*
X5876Y10157J50*
X5925Y10108I49*
X5974Y10157J49*
G01Y11732D02*
G03X5925Y11781I49D01*
X5876Y11732J49*
X5925Y11683I49*
X5974Y11732J49*
G01Y13307D02*
G03X5925Y13356I49D01*
X5876Y13307J49*
X5925Y13258I49*
X5974Y13307J49*
G01Y1791D02*
G03X5925Y1841I49D01*
X5876Y1791J50*
X5925Y1742I49*
X5974Y1791J49*
G01Y3366D02*
G03X5925Y3415I49D01*
X5876Y3366J49*
X5925Y3317I49*
X5974Y3366J49*
G01Y4941D02*
G03X5925Y4990I49D01*
X5876Y4941J49*
X5925Y4892I49*
X5974Y4941J49*
G01Y10157D02*
G03X5925Y10207I49D01*
X5876Y10157J50*
X5925Y10108I49*
X5974Y10157J49*
G01Y11732D02*
G03X5925Y11782I49D01*
X5876Y11732J50*
X5925Y11683I49*
X5974Y11732J49*
G01Y13307D02*
G03X5925Y13356I49D01*
X5876Y13307J49*
X5925Y13258I49*
X5974Y13307J49*
G01X6073Y7421D02*
G03X6024Y7470I49D01*
X5974Y7421J49*
X6024Y7372I50*
X6073Y7421J49*
X6024Y7470I49*
X5974Y7421J49*
X6024Y7372I50*
X6073Y7421J49*
G01X6663Y30098D02*
G03X6614Y30148I49D01*
X6565Y30098J50*
X6614Y30049I49*
X6663Y30098J49*
X6614Y30148I49*
X6565Y30098J50*
X6614Y30049I49*
X6663Y30098J49*
G01X6821Y31654D02*
G03X6772Y31703I49D01*
X6722Y31654J49*
X6772Y31604I50*
X6821Y31654J50*
X6772Y31703I49*
X6722Y31654J49*
X6772Y31604I50*
X6821Y31654J50*
G01X7451Y21772D02*
G03X7402Y21821I49D01*
X7352Y21772J49*
X7402Y21722I50*
X7451Y21772J50*
X7402Y21821I49*
X7352Y21772J49*
X7402Y21722I50*
X7451Y21772J50*
G01X7726Y20748D02*
G03X7677Y20797I49D01*
X7628Y20748J49*
X7677Y20699I49*
X7726Y20748J49*
X7677Y20797I49*
X7628Y20748J49*
X7677Y20699I49*
X7726Y20748J49*
G01X8238Y30098D02*
G03X8189Y30148I49D01*
X8140Y30098J50*
X8189Y30049I49*
X8238Y30098J49*
X8189Y30148I49*
X8140Y30098J50*
X8189Y30049I49*
X8238Y30098J49*
G01X8396Y31654D02*
G03X8346Y31703I50D01*
X8297Y31654J49*
X8346Y31604I49*
X8396Y31654J50*
X8346Y31703I50*
X8297Y31654J49*
X8346Y31604I49*
X8396Y31654J50*
G01X8435Y3740D02*
G03X8386Y3789I49D01*
X8337Y3740J49*
X8386Y3691I49*
X8435Y3740J49*
X8386Y3789I49*
X8337Y3740J49*
X8386Y3691I49*
X8435Y3740J49*
G01X8927Y13228D02*
G03X8878Y13278I49D01*
X8829Y13228J50*
X8878Y13179I49*
X8927Y13228J49*
X8878Y13278I49*
X8829Y13228J50*
X8878Y13179I49*
X8927Y13228J49*
G01X9026Y18228D02*
G03X8976Y18278I50D01*
X8927Y18228J50*
X8976Y18179I49*
X9026Y18228J49*
G01Y19606D02*
G03X8976Y19656I50D01*
X8927Y19606J50*
X8976Y19557I49*
X9026Y19606J49*
G01Y20906D02*
G03X8976Y20955I50D01*
X8927Y20906J49*
X8976Y20856I49*
X9026Y20906J50*
G01Y18228D02*
G03X8976Y18278I50D01*
X8927Y18228J50*
X8976Y18179I49*
X9026Y18228J49*
G01Y19606D02*
G03X8976Y19656I50D01*
X8927Y19606J50*
X8976Y19557I49*
X9026Y19606J49*
G01Y20906D02*
G03X8976Y20955I50D01*
X8927Y20906J49*
X8976Y20856I49*
X9026Y20906J50*
G01X9163Y4213D02*
G03X9114Y4262I49D01*
X9065Y4213J49*
X9114Y4163I49*
X9163Y4213J50*
X9114Y4262I49*
X9065Y4213J49*
X9114Y4163I49*
X9163Y4213J50*
G01X9803Y5443D02*
G03X9754Y5492I49D01*
X9705Y5443J49*
X9754Y5394I49*
X9803Y5443J49*
X9754Y5492I49*
X9705Y5443J49*
X9754Y5394I49*
X9803Y5443J49*
G01X9813Y30098D02*
G03X9764Y30148I49D01*
X9715Y30098J50*
X9764Y30049I49*
X9813Y30098J49*
X9764Y30148I49*
X9715Y30098J50*
X9764Y30049I49*
X9813Y30098J49*
G01X10758Y10394D02*
G03X10709Y10443I49D01*
X10659Y10394J49*
X10709Y10344I50*
X10758Y10394J50*
X10709Y10443I49*
X10659Y10394J49*
X10709Y10344I50*
X10758Y10394J50*
G01X10915Y13760D02*
G03X10866Y13809I49D01*
X10817Y13760J49*
X10866Y13711I49*
X10915Y13760J49*
X10866Y13809I49*
X10817Y13760J49*
X10866Y13711I49*
X10915Y13760J49*
G01X11191Y1693D02*
G03X11142Y1742I49D01*
X11093Y1693J49*
X11142Y1644I49*
X11191Y1693J49*
G01Y3071D02*
G03X11142Y3120I49D01*
X11093Y3071J49*
X11142Y3022I49*
X11191Y3071J49*
G01Y1693D02*
G03X11142Y1742I49D01*
X11093Y1693J49*
X11142Y1644I49*
X11191Y1693J49*
G01Y3071D02*
G03X11142Y3120I49D01*
X11093Y3071J49*
X11142Y3022I49*
X11191Y3071J49*
G01X12136Y5000D02*
G03X12087Y5049I49D01*
X12037Y5000J49*
X12087Y4951I50*
X12136Y5000J49*
X12087Y5049I49*
X12037Y5000J49*
X12087Y4951I50*
X12136Y5000J49*
G01X12825Y13957D02*
G03X12776Y14006I49D01*
X12726Y13957J49*
X12776Y13907I50*
X12825Y13957J50*
G01Y15531D02*
G03X12776Y15581I49D01*
X12726Y15531J50*
X12776Y15482I50*
X12825Y15531J49*
G01Y17106D02*
G03X12776Y17156I49D01*
X12726Y17106J50*
X12776Y17057I50*
X12825Y17106J49*
G01Y13957D02*
G03X12776Y14006I49D01*
X12726Y13957J49*
X12776Y13907I50*
X12825Y13957J50*
G01Y15531D02*
G03X12776Y15581I49D01*
X12726Y15531J50*
X12776Y15482I50*
X12825Y15531J49*
G01Y17106D02*
G03X12776Y17156I49D01*
X12726Y17106J50*
X12776Y17057I50*
X12825Y17106J49*
G01X12884Y30197D02*
G03X12835Y30246I49D01*
X12785Y30197J49*
X12835Y30148I50*
X12884Y30197J49*
X12835Y30246I49*
X12785Y30197J49*
X12835Y30148I50*
X12884Y30197J49*
G01X14380Y15374D02*
G03X14331Y15423I49D01*
X14282Y15374J49*
X14331Y15325I49*
X14380Y15374J49*
G01Y16949D02*
G03X14331Y16998I49D01*
X14282Y16949J49*
X14331Y16900I49*
X14380Y16949J49*
G01Y18524D02*
G03X14331Y18573I49D01*
X14282Y18524J49*
X14331Y18474I49*
X14380Y18524J50*
G01Y15374D02*
G03X14331Y15423I49D01*
X14281Y15374J49*
X14331Y15325I50*
X14380Y15374J49*
G01Y16949D02*
G03X14331Y16998I49D01*
X14281Y16949J49*
X14331Y16900I50*
X14380Y16949J49*
G01Y18524D02*
G03X14331Y18573I49D01*
X14281Y18524J49*
X14331Y18474I50*
X14380Y18524J50*
G01X14931Y3740D02*
G03X14882Y3789I49D01*
X14833Y3740J49*
X14882Y3691I49*
X14931Y3740J49*
G01Y11024D02*
G03X14882Y11073I49D01*
X14833Y11024J49*
X14882Y10974I49*
X14931Y11024J50*
G01Y3740D02*
G03X14882Y3789I49D01*
X14833Y3740J49*
X14882Y3691I49*
X14931Y3740J49*
G01Y11024D02*
G03X14882Y11073I49D01*
X14833Y11024J49*
X14882Y10974I49*
X14931Y11024J50*
G01X14990Y12224D02*
G03X14941Y12274I49D01*
X14892Y12224J50*
X14941Y12175I49*
X14990Y12224J49*
X14941Y12274I49*
X14892Y12224J50*
X14941Y12175I49*
X14990Y12224J49*
G01X15285Y22323D02*
G03X15236Y22372I49D01*
X15187Y22323J49*
X15236Y22274I49*
X15285Y22323J49*
X15236Y22372I49*
X15187Y22323J49*
X15236Y22274I49*
X15285Y22323J49*
G01X15994D02*
G03X15945Y22372I49D01*
X15896Y22323J49*
X15945Y22274I49*
X15994Y22323J49*
X15945Y22372I49*
X15896Y22323J49*
X15945Y22274I49*
X15994Y22323J49*
G01X16093Y28622D02*
G02X16132Y28670I49D01*
G03X16122Y28671I10J48*
X16073Y28622J49*
X16122Y28573I49*
X16132Y28574J49*
G02X16093Y28622I10J48*
G01X16112Y5138D02*
G03X16063Y5187I49D01*
X16014Y5138J49*
X16063Y5089I49*
X16112Y5138J49*
X16063Y5187I49*
X16014Y5138J49*
X16063Y5089I49*
X16112Y5138J49*
G01X16132Y28574D02*
G03X16171Y28622I10J48D01*
X16132Y28670I49*
X16093Y28622I10J48*
X16132Y28574I49*
X16142Y28573I10J48*
X16191Y28622J49*
X16142Y28671I49*
X16132Y28670J49*
G02X16171Y28622I10J48*
X16132Y28574I49*
G01X16191Y28622D02*
G02X16142Y28573I49D01*
X16132Y28574J49*
X16122Y28573I10J48*
X16073Y28622J49*
X16122Y28671I49*
X16132Y28670J49*
X16142Y28671I10J48*
X16191Y28622J49*
G01X17490Y1693D02*
G03X17441Y1742I49D01*
X17392Y1693J49*
X17441Y1644I49*
X17490Y1693J49*
G01Y4449D02*
G03X17441Y4498I49D01*
X17392Y4449J49*
X17441Y4400I49*
X17490Y4449J49*
G01Y8780D02*
G03X17441Y8829I49D01*
X17392Y8780J49*
X17441Y8730I49*
X17490Y8780J50*
G01Y10157D02*
G03X17441Y10207I49D01*
X17392Y10157J50*
X17441Y10108I49*
X17490Y10157J49*
G01Y11535D02*
G03X17441Y11585I49D01*
X17392Y11535J50*
X17441Y11486I49*
X17490Y11535J49*
G01Y19803D02*
G03X17441Y19852I49D01*
X17392Y19803J49*
X17441Y19754I49*
X17490Y19803J49*
G01Y21181D02*
G03X17441Y21230I49D01*
X17392Y21181J49*
X17441Y21132I49*
X17490Y21181J49*
G01Y22559D02*
G03X17441Y22608I49D01*
X17392Y22559J49*
X17441Y22510I49*
X17490Y22559J49*
G01Y26102D02*
G03X17441Y26152I49D01*
X17392Y26102J50*
X17441Y26053I49*
X17490Y26102J49*
G01Y27480D02*
G03X17441Y27530I49D01*
X17392Y27480J50*
X17441Y27431I49*
X17490Y27480J49*
G01Y28858D02*
G03X17441Y28907I49D01*
X17392Y28858J49*
X17441Y28809I49*
X17490Y28858J49*
G01Y1693D02*
G03X17441Y1742I49D01*
X17392Y1693J49*
X17441Y1644I49*
X17490Y1693J49*
G01Y4449D02*
G03X17441Y4498I49D01*
X17392Y4449J49*
X17441Y4400I49*
X17490Y4449J49*
G01Y8780D02*
G03X17441Y8829I49D01*
X17392Y8780J49*
X17441Y8730I49*
X17490Y8780J50*
G01Y10157D02*
G03X17441Y10207I49D01*
X17392Y10157J50*
X17441Y10108I49*
X17490Y10157J49*
G01Y11535D02*
G03X17441Y11585I49D01*
X17392Y11535J50*
X17441Y11486I49*
X17490Y11535J49*
G01Y19803D02*
G03X17441Y19852I49D01*
X17392Y19803J49*
X17441Y19754I49*
X17490Y19803J49*
G01Y21181D02*
G03X17441Y21230I49D01*
X17392Y21181J49*
X17441Y21132I49*
X17490Y21181J49*
G01Y22559D02*
G03X17441Y22608I49D01*
X17392Y22559J49*
X17441Y22510I49*
X17490Y22559J49*
G01Y26102D02*
G03X17441Y26152I49D01*
X17392Y26102J50*
X17441Y26053I49*
X17490Y26102J49*
G01Y27480D02*
G03X17441Y27530I49D01*
X17392Y27480J50*
X17441Y27431I49*
X17490Y27480J49*
G01Y28858D02*
G03X17441Y28907I49D01*
X17392Y28858J49*
X17441Y28809I49*
X17490Y28858J49*
G01X18435Y3622D02*
G03X18386Y3671I49D01*
X18337Y3622J49*
X18386Y3573I49*
X18435Y3622J49*
X18386Y3671I49*
X18337Y3622J49*
X18386Y3573I49*
X18435Y3622J49*
G01X22372Y4921D02*
G03X22323Y4970I49D01*
X22274Y4921J49*
X22323Y4872I49*
X22372Y4921J49*
G01Y7283D02*
G03X22323Y7333I49D01*
X22274Y7283J50*
X22323Y7234I49*
X22372Y7283J49*
G01Y9744D02*
G03X22323Y9793I49D01*
X22274Y9744J49*
X22323Y9695I49*
X22372Y9744J49*
G01Y12106D02*
G03X22323Y12156I49D01*
X22274Y12106J50*
X22323Y12057I49*
X22372Y12106J49*
G01Y14567D02*
G03X22323Y14616I49D01*
X22274Y14567J49*
X22323Y14518I49*
X22372Y14567J49*
G01Y16929D02*
G03X22323Y16978I49D01*
X22274Y16929J49*
X22323Y16880I49*
X22372Y16929J49*
G01Y19390D02*
G03X22323Y19439I49D01*
X22274Y19390J49*
X22323Y19341I49*
X22372Y19390J49*
G01Y21752D02*
G03X22323Y21801I49D01*
X22274Y21752J49*
X22323Y21703I49*
X22372Y21752J49*
G01Y24213D02*
G03X22323Y24262I49D01*
X22274Y24213J49*
X22323Y24163I49*
X22372Y24213J50*
G01Y26575D02*
G03X22323Y26624I49D01*
X22274Y26575J49*
X22323Y26526I49*
X22372Y26575J49*
G01Y29035D02*
G03X22323Y29085I49D01*
X22274Y29035J50*
X22323Y28986I49*
X22372Y29035J49*
G01Y31398D02*
G03X22323Y31447I49D01*
X22274Y31398J49*
X22323Y31348I49*
X22372Y31398J50*
G01Y4921D02*
G03X22323Y4970I49D01*
X22274Y4921J49*
X22323Y4872I49*
X22372Y4921J49*
G01Y7283D02*
G03X22323Y7333I49D01*
X22274Y7283J50*
X22323Y7234I49*
X22372Y7283J49*
G01Y9744D02*
G03X22323Y9793I49D01*
X22274Y9744J49*
X22323Y9695I49*
X22372Y9744J49*
G01Y12106D02*
G03X22323Y12156I49D01*
X22274Y12106J50*
X22323Y12057I49*
X22372Y12106J49*
G01Y14567D02*
G03X22323Y14616I49D01*
X22274Y14567J49*
X22323Y14518I49*
X22372Y14567J49*
G01Y16929D02*
G03X22323Y16978I49D01*
X22274Y16929J49*
X22323Y16880I49*
X22372Y16929J49*
G01Y19390D02*
G03X22323Y19439I49D01*
X22274Y19390J49*
X22323Y19341I49*
X22372Y19390J49*
G01Y21752D02*
G03X22323Y21801I49D01*
X22274Y21752J49*
X22323Y21703I49*
X22372Y21752J49*
G01Y24213D02*
G03X22323Y24262I49D01*
X22274Y24213J49*
X22323Y24163I49*
X22372Y24213J50*
G01Y26575D02*
G03X22323Y26624I49D01*
X22274Y26575J49*
X22323Y26526I49*
X22372Y26575J49*
G01Y29035D02*
G03X22323Y29085I49D01*
X22274Y29035J50*
X22323Y28986I49*
X22372Y29035J49*
G01Y31398D02*
G03X22323Y31447I49D01*
X22274Y31398J49*
X22323Y31348I49*
X22372Y31398J50*
G01X22963Y9862D02*
G03X22913Y9911I50D01*
X22864Y9862J49*
X22913Y9813I49*
X22963Y9862J49*
G01Y14685D02*
G03X22913Y14734I50D01*
X22864Y14685J49*
X22913Y14636I49*
X22963Y14685J49*
G01Y19508D02*
G03X22913Y19557I50D01*
X22864Y19508J49*
X22913Y19459I49*
X22963Y19508J49*
G01Y24331D02*
G03X22913Y24380I50D01*
X22864Y24331J49*
X22913Y24282I49*
X22963Y24331J49*
G01Y29154D02*
G03X22913Y29203I50D01*
X22864Y29154J49*
X22913Y29104I49*
X22963Y29154J50*
G01Y9862D02*
G03X22913Y9911I50D01*
X22864Y9862J49*
X22913Y9813I49*
X22963Y9862J49*
G01Y14685D02*
G03X22913Y14734I50D01*
X22864Y14685J49*
X22913Y14636I49*
X22963Y14685J49*
G01Y19508D02*
G03X22913Y19557I50D01*
X22864Y19508J49*
X22913Y19459I49*
X22963Y19508J49*
G01Y24331D02*
G03X22913Y24380I50D01*
X22864Y24331J49*
X22913Y24281I49*
X22963Y24331J50*
G01Y29154D02*
G03X22913Y29203I50D01*
X22864Y29154J49*
X22913Y29104I49*
X22963Y29154J50*
G01X23238Y3268D02*
G03X23189Y3317I49D01*
X23140Y3268J49*
X23189Y3219I49*
X23238Y3268J49*
X23189Y3317I49*
X23140Y3268J49*
X23189Y3218I49*
X23238Y3268J50*
G01X24242Y5098D02*
G03X24193Y5148I49D01*
X24144Y5098J50*
X24193Y5049I49*
X24242Y5098J49*
X24193Y5148I49*
X24144Y5098J50*
X24193Y5049I49*
X24242Y5098J49*
G01X24301Y6673D02*
G03X24252Y6722I49D01*
X24203Y6673J49*
X24252Y6624I49*
X24301Y6673J49*
G01Y11496D02*
G03X24252Y11545I49D01*
X24203Y11496J49*
X24252Y11447I49*
X24301Y11496J49*
G01Y16319D02*
G03X24252Y16368I49D01*
X24203Y16319J49*
X24252Y16270I49*
X24301Y16319J49*
G01Y21142D02*
G03X24252Y21191I49D01*
X24203Y21142J49*
X24252Y21093I49*
X24301Y21142J49*
G01Y25965D02*
G03X24252Y26014I49D01*
X24203Y25965J49*
X24252Y25915I49*
X24301Y25965J50*
G01Y6673D02*
G03X24252Y6722I49D01*
X24203Y6673J49*
X24252Y6624I49*
X24301Y6673J49*
G01Y11496D02*
G03X24252Y11545I49D01*
X24203Y11496J49*
X24252Y11447I49*
X24301Y11496J49*
G01Y16319D02*
G03X24252Y16368I49D01*
X24203Y16319J49*
X24252Y16270I49*
X24301Y16319J49*
G01Y21142D02*
G03X24252Y21191I49D01*
X24203Y21142J49*
X24252Y21093I49*
X24301Y21142J49*
G01Y25965D02*
G03X24252Y26014I49D01*
X24203Y25965J49*
X24252Y25915I49*
X24301Y25965J50*
G01X24419Y30787D02*
G03X24370Y30837I49D01*
X24321Y30787J50*
X24370Y30738I49*
X24419Y30787J49*
X24370Y30837I49*
X24321Y30787J50*
X24370Y30738I49*
X24419Y30787J49*
G01X26270Y5098D02*
G03X26220Y5148I50D01*
X26171Y5098J50*
X26220Y5049I49*
X26270Y5098J49*
G01Y6575D02*
G03X26220Y6624I50D01*
X26171Y6575J49*
X26220Y6526I49*
X26270Y6575J49*
G01Y8051D02*
G03X26220Y8100I50D01*
X26171Y8051J49*
X26220Y8002I49*
X26270Y8051J49*
G01Y9724D02*
G03X26220Y9774I50D01*
X26171Y9724J50*
X26220Y9675I49*
X26270Y9724J49*
G01Y11299D02*
G03X26220Y11348I50D01*
X26171Y11299J49*
X26220Y11250I49*
X26270Y11299J49*
G01Y12874D02*
G03X26220Y12923I50D01*
X26171Y12874J49*
X26220Y12825I49*
X26270Y12874J49*
G01Y14547D02*
G03X26220Y14596I50D01*
X26171Y14547J49*
X26220Y14498I49*
X26270Y14547J49*
G01Y16122D02*
G03X26220Y16171I50D01*
X26171Y16122J49*
X26220Y16073I49*
X26270Y16122J49*
G01Y17697D02*
G03X26220Y17746I50D01*
X26171Y17697J49*
X26220Y17648I49*
X26270Y17697J49*
G01Y19370D02*
G03X26220Y19419I50D01*
X26171Y19370J49*
X26220Y19321I49*
X26270Y19370J49*
G01Y20945D02*
G03X26220Y20994I50D01*
X26171Y20945J49*
X26220Y20896I49*
X26270Y20945J49*
G01Y22520D02*
G03X26220Y22569I50D01*
X26171Y22520J49*
X26220Y22470I49*
X26270Y22520J50*
G01Y24193D02*
G03X26220Y24242I50D01*
X26171Y24193J49*
X26220Y24144I49*
X26270Y24193J49*
G01Y25768D02*
G03X26220Y25817I50D01*
X26171Y25768J49*
X26220Y25719I49*
X26270Y25768J49*
G01Y27343D02*
G03X26220Y27392I50D01*
X26171Y27343J49*
X26220Y27293I49*
X26270Y27343J50*
G01Y29016D02*
G03X26220Y29065I50D01*
X26171Y29016J49*
X26220Y28967I49*
X26270Y29016J49*
G01Y30591D02*
G03X26220Y30640I50D01*
X26171Y30591J49*
X26220Y30541I49*
X26270Y30591J50*
G01Y32165D02*
G03X26220Y32215I50D01*
X26171Y32165J50*
X26220Y32116I49*
X26270Y32165J49*
G01Y5098D02*
G03X26220Y5148I50D01*
X26171Y5098J50*
X26220Y5049I49*
X26270Y5098J49*
G01Y6575D02*
G03X26220Y6624I50D01*
X26171Y6575J49*
X26220Y6526I49*
X26270Y6575J49*
G01Y8051D02*
G03X26220Y8100I50D01*
X26171Y8051J49*
X26220Y8002I49*
X26270Y8051J49*
G01Y9724D02*
G03X26220Y9774I50D01*
X26171Y9724J50*
X26220Y9675I49*
X26270Y9724J49*
G01Y11299D02*
G03X26220Y11348I50D01*
X26171Y11299J49*
X26220Y11250I49*
X26270Y11299J49*
G01Y12874D02*
G03X26220Y12923I50D01*
X26171Y12874J49*
X26220Y12825I49*
X26270Y12874J49*
G01Y14547D02*
G03X26220Y14596I50D01*
X26171Y14547J49*
X26220Y14498I49*
X26270Y14547J49*
G01Y16122D02*
G03X26220Y16171I50D01*
X26171Y16122J49*
X26220Y16073I49*
X26270Y16122J49*
G01Y17697D02*
G03X26220Y17746I50D01*
X26171Y17697J49*
X26220Y17648I49*
X26270Y17697J49*
G01Y19370D02*
G03X26220Y19419I50D01*
X26171Y19370J49*
X26220Y19321I49*
X26270Y19370J49*
G01Y20945D02*
G03X26220Y20994I50D01*
X26171Y20945J49*
X26220Y20896I49*
X26270Y20945J49*
G01Y22520D02*
G03X26220Y22569I50D01*
X26171Y22520J49*
X26220Y22470I49*
X26270Y22520J50*
G01Y24193D02*
G03X26220Y24242I50D01*
X26171Y24193J49*
X26220Y24144I49*
X26270Y24193J49*
G01Y25768D02*
G03X26220Y25817I50D01*
X26171Y25768J49*
X26220Y25718I49*
X26270Y25768J50*
G01Y27343D02*
G03X26220Y27392I50D01*
X26171Y27343J49*
X26220Y27293I49*
X26270Y27343J50*
G01Y29016D02*
G03X26220Y29065I50D01*
X26171Y29016J49*
X26220Y28967I49*
X26270Y29016J49*
G01Y30591D02*
G03X26220Y30640I50D01*
X26171Y30591J49*
X26220Y30541I49*
X26270Y30591J50*
G01Y32165D02*
G03X26220Y32215I50D01*
X26171Y32165J50*
X26220Y32116I49*
X26270Y32165J49*
G01X27254Y2343D02*
G03X27205Y2392I49D01*
X27156Y2343J49*
X27205Y2293I49*
X27254Y2343J50*
X27205Y2392I49*
X27156Y2343J49*
X27205Y2293I49*
X27254Y2343J50*
G01X28770Y374D02*
G03X28720Y423I50D01*
X28671Y374J49*
X28720Y325I49*
X28770Y374J49*
G01Y1949D02*
G03X28720Y1998I50D01*
X28671Y1949J49*
X28720Y1900I49*
X28770Y1949J49*
G01Y3524D02*
G03X28720Y3573I50D01*
X28671Y3524J49*
X28720Y3474I49*
X28770Y3524J50*
G01Y374D02*
G03X28720Y423I50D01*
X28671Y374J49*
X28720Y325I49*
X28770Y374J49*
G01Y1949D02*
G03X28720Y1998I50D01*
X28671Y1949J49*
X28720Y1900I49*
X28770Y1949J49*
G01Y3524D02*
G03X28720Y3573I50D01*
X28671Y3524J49*
X28720Y3474I49*
X28770Y3524J50*
G01X30325Y1791D02*
G03X30276Y1841I49D01*
X30226Y1791J50*
X30276Y1742I50*
X30325Y1791J49*
G01Y3366D02*
G03X30276Y3415I49D01*
X30226Y3366J49*
X30276Y3317I50*
X30325Y3366J49*
G01Y4941D02*
G03X30276Y4990I49D01*
X30226Y4941J49*
X30276Y4892I50*
X30325Y4941J49*
G01Y1791D02*
G03X30276Y1841I49D01*
X30226Y1791J50*
X30276Y1742I50*
X30325Y1791J49*
G01Y3366D02*
G03X30276Y3415I49D01*
X30226Y3366J49*
X30276Y3317I50*
X30325Y3366J49*
G01Y4941D02*
G03X30276Y4990I49D01*
X30226Y4941J49*
X30276Y4892I50*
X30325Y4941J49*
G54D15*
G01X32364Y4733D02*
X32365Y4737D01*
Y4936*
X32364Y4940*
X32362Y4943*
X32358Y4944*
X32355Y4945*
X32351Y4944*
X32347Y4943*
X32345Y4940*
X32344Y4936*
Y4846*
X31863*
X31860*
X31857Y4844*
X31856Y4842*
X31855Y4838*
Y4835*
Y4833*
X31856Y4830*
X31858Y4829*
X31998Y4729*
X32000Y4728*
X32002Y4727*
X32003*
X32005*
X32008Y4729*
X32011Y4732*
X32013Y4735*
X32014Y4738*
Y4740*
X32012Y4743*
X32010Y4744*
X31896Y4826*
X32344*
Y4737*
X32345Y4733*
X32347Y4730*
X32351Y4729*
X32355*
X32358*
X32362Y4730*
X32364Y4733*
X32365Y4737D02*
X32364Y4733D01*
X32362Y4730*
X32358Y4729*
X32355*
X32351*
X32347Y4730*
X32345Y4733*
X32344Y4737*
Y4826*
X31896*
X32010Y4744*
X32012Y4743*
X32014Y4740*
Y4738*
X32013Y4735*
X32011Y4732*
X32008Y4729*
X32005Y4727*
X32003*
X32002*
X32000Y4728*
X31998Y4729*
X31858Y4829*
X31856Y4830*
X31855Y4833*
Y4835*
Y4838*
X31856Y4842*
X31857Y4844*
X31860Y4846*
X31863*
X32344*
Y4936*
X32345Y4940*
X32347Y4943*
X32351Y4945*
X32355*
X32358*
X32362Y4943*
X32364Y4940*
X32365Y4936*
Y4737*
M02*
