*
G04 Job   : C:\Mentor_proj\450\PCB\450.pcb*
G04 User  : WINDOWS-XP:user*
G04 Layer : SoldermaskBottom.gdo*
G04 Date  : Fri Dec 16 16:25:48 2022*
G04 Mentor Graphics Example Gerber Output Definition*
%ICAS*%
%MOIN*%
%FSLAX24Y24*%
%OFA0.0000B0.0000*%
G90*
G74*
%AMVB_RECTANGLE*
21,1,$1,$2,0,0,$3*
%
%AMVB_FINGER0*
$3=$1/2*
$4=$2/2*
$5=0-$4*
1,1,$2,$3-$4,0*
21,1,$1-$4,$2,$5/2,0,0*
%
%AMVB_FINGER90*
$3=$1/2*
$4=$2/2*
$5=0-$4*
1,1,$2,0,$3-$4*
21,1,$2,$1-$4,0,$5/2,0*
%
%AMVB_FINGER180*
$3=$1/2*
$4=$2/2*
1,1,$2,$4-$3,0*
21,1,$1-$4,$2,$4/2,0,0*
%
%AMVB_FINGER270*
$3=$1/2*
$4=$2/2*
1,1,$2,0,$4-$3*
21,1,$2,$1-$4,0,$4/2,0*
%
%ADD16C,0.02165*%
%ADD14C,0.03937*%
%ADD15C,0.04331*%
%ADD13C,0.05512*%
%ADD10C,0.11811*%
%ADD12C,0.19685*%
%ADD11C,0.19783*%
%ADD19O,0.05512X0.03150*%
%ADD18O,0.03150X0.05512*%
%ADD23O,0.05906X0.03150*%
%ADD30O,0.03150X0.05906*%
%ADD26O,0.06299X0.01969*%
%ADD25O,0.01969X0.06299*%
%ADD22O,0.02559X0.06693*%
%ADD20O,0.06693X0.03150*%
%ADD73O,0.03150X0.06693*%
%ADD17VB_RECTANGLE,0.03150X0.03150X0.00000*%
%ADD31VB_RECTANGLE,0.06299X0.04921X90.00000*%
%ADD70VB_RECTANGLE,0.06496X0.04528X180.00000*%
%ADD21VB_RECTANGLE,0.06496X0.04528X90.00000*%
%ADD71VB_RECTANGLE,0.08465X0.04331X0.00000*%
%ADD72VB_RECTANGLE,0.08465X0.04331X270.00000*%
%ADD27VB_FINGER0,0.07087X0.01969*%
%ADD24VB_FINGER90,0.07087X0.01969*%
%ADD29VB_FINGER180,0.07087X0.01969*%
%ADD28VB_FINGER270,0.07087X0.01969*%
G01*
G54D10*
X1083Y1083D03*
Y32972D03*
X17028Y17028D03*
X32972Y1083D03*
Y32972D03*
G54D11*
Y1083D03*
G54D12*
X1083D03*
Y32972D03*
X17028Y17028D03*
X32972Y32972D03*
G54D13*
X31299Y5610D03*
Y6398D03*
Y7185D03*
Y7972D03*
Y8760D03*
Y9547D03*
Y10335D03*
Y11122D03*
Y11909D03*
Y12697D03*
Y13484D03*
Y14272D03*
Y15059D03*
Y15846D03*
Y16634D03*
Y17421D03*
Y18209D03*
Y18996D03*
Y19783D03*
Y20571D03*
Y21358D03*
Y22146D03*
Y22933D03*
Y23720D03*
Y24508D03*
Y25295D03*
Y26083D03*
Y26870D03*
Y27657D03*
Y28445D03*
X32087Y5610D03*
Y6398D03*
Y7185D03*
Y7972D03*
Y8760D03*
Y9547D03*
Y10335D03*
Y11122D03*
Y11909D03*
Y12697D03*
Y13484D03*
Y14272D03*
Y15059D03*
Y15846D03*
Y16634D03*
Y17421D03*
Y18209D03*
Y18996D03*
Y19783D03*
Y20571D03*
Y21358D03*
Y22146D03*
Y22933D03*
Y23720D03*
Y24508D03*
Y25295D03*
Y26083D03*
Y26870D03*
Y27657D03*
Y28445D03*
G54D14*
X2953Y18031D03*
X5787Y16220D03*
X5965Y16929D03*
X7677Y1969D03*
X8957Y9665D03*
X10079Y22795D03*
X10748Y10354D03*
X12283Y6299D03*
X12598Y1457D03*
X12815Y30236D03*
X13150Y32874D03*
X13287Y10039D03*
X13898Y27146D03*
X14055Y1969D03*
X15059Y2362D03*
X16043Y1102D03*
X17618Y29882D03*
X19252Y2126D03*
X19547Y28720D03*
X19646Y4370D03*
Y4941D03*
X19783Y29035D03*
X20000Y28740D03*
X20079Y4606D03*
X22283Y5748D03*
X23027Y25307D03*
X24606Y26102D03*
X24646Y21280D03*
X24665Y31024D03*
X24685Y31496D03*
X25591Y13583D03*
X25630Y23228D03*
X26102Y32008D03*
X26535Y28051D03*
Y29331D03*
Y32874D03*
X27067Y8543D03*
X27244Y5315D03*
Y14961D03*
Y19783D03*
Y24606D03*
X28150Y10138D03*
Y19783D03*
Y24606D03*
X28976Y5315D03*
X29094Y32559D03*
X29390Y8957D03*
X29528Y14488D03*
X29823Y8957D03*
Y23780D03*
Y27402D03*
Y28701D03*
X30059Y32972D03*
X31102Y29055D03*
X32874D03*
G54D15*
X1220Y4882D03*
X2362Y4921D03*
Y5421D03*
Y5921D03*
Y6421D03*
Y6921D03*
Y7421D03*
Y7921D03*
Y8421D03*
Y8921D03*
Y9421D03*
Y9921D03*
Y10421D03*
Y10921D03*
Y11421D03*
Y11921D03*
Y12421D03*
Y12921D03*
Y13421D03*
Y13921D03*
Y14421D03*
Y14921D03*
Y15421D03*
Y15921D03*
Y16421D03*
Y16921D03*
Y17421D03*
Y17921D03*
Y18421D03*
Y18921D03*
Y19421D03*
X8150Y25669D03*
X11043Y8346D03*
X12283Y7067D03*
X14094Y26378D03*
X17618Y12579D03*
X24488Y10827D03*
X24606Y26673D03*
X25079Y6555D03*
X25591Y7283D03*
Y12008D03*
Y18406D03*
X26063Y22402D03*
Y27244D03*
X27244Y29429D03*
X28071Y14961D03*
X28110Y29429D03*
X29094Y13307D03*
Y18071D03*
Y22913D03*
Y27717D03*
X29134Y7894D03*
X29528Y9646D03*
Y24213D03*
Y28937D03*
X29587Y17657D03*
X29823Y12795D03*
X30138Y19724D03*
X30236Y7559D03*
G54D16*
X28248Y22146D03*
Y26378D03*
Y26969D03*
Y31496D03*
Y31791D03*
G54D17*
X1004Y20374D03*
Y21161D03*
Y21949D03*
Y22736D03*
Y23524D03*
Y24311D03*
X1358Y20374D03*
Y21161D03*
Y21949D03*
Y22736D03*
Y23524D03*
Y24311D03*
X3169Y689D03*
Y1476D03*
Y2264D03*
Y3051D03*
Y3839D03*
Y4626D03*
Y9055D03*
Y9843D03*
Y10630D03*
Y11417D03*
Y12205D03*
Y12992D03*
X3524Y689D03*
Y1476D03*
Y2264D03*
Y3051D03*
Y3839D03*
Y4626D03*
Y9055D03*
Y9843D03*
Y10630D03*
Y11417D03*
Y12205D03*
Y12992D03*
X5512Y32500D03*
Y32854D03*
X6299Y32500D03*
Y32854D03*
X7087Y32500D03*
Y32854D03*
X7874Y32500D03*
Y32854D03*
X8661Y32500D03*
Y32854D03*
X9449Y32500D03*
Y32854D03*
X15138Y14272D03*
Y15059D03*
Y15846D03*
Y16634D03*
Y17421D03*
Y18209D03*
X15492Y14272D03*
Y15059D03*
Y15846D03*
Y16634D03*
Y17421D03*
Y18209D03*
X31122Y689D03*
Y1476D03*
Y2264D03*
Y3051D03*
Y3839D03*
Y4626D03*
X31476Y689D03*
Y1476D03*
Y2264D03*
Y3051D03*
Y3839D03*
Y4626D03*
G54D18*
X4744Y24902D03*
Y25886D03*
X5118Y24902D03*
X5492D03*
Y25886D03*
X5531Y30807D03*
Y31791D03*
X5906D03*
X6280Y30807D03*
Y31791D03*
X7106Y30807D03*
Y31791D03*
X7480D03*
X7854Y30807D03*
Y31791D03*
X8681Y30807D03*
Y31791D03*
X9055D03*
X9429Y30807D03*
Y31791D03*
G54D19*
X2067Y20394D03*
Y20768D03*
Y21142D03*
Y21969D03*
Y22343D03*
Y22717D03*
Y23543D03*
Y23917D03*
Y24291D03*
X3051Y20394D03*
Y21142D03*
Y21969D03*
Y22717D03*
Y23543D03*
Y24291D03*
X4232Y709D03*
Y1083D03*
Y1457D03*
Y2283D03*
Y2657D03*
Y3031D03*
Y3858D03*
Y4232D03*
Y4606D03*
Y9075D03*
Y9449D03*
Y9823D03*
Y10650D03*
Y11024D03*
Y11398D03*
Y12224D03*
Y12598D03*
Y12972D03*
X5217Y709D03*
Y1457D03*
Y2283D03*
Y3031D03*
Y3858D03*
Y4606D03*
Y9075D03*
Y9823D03*
Y10650D03*
Y11398D03*
Y12224D03*
Y12972D03*
X10827Y32795D03*
Y33543D03*
X11811Y32795D03*
Y33169D03*
Y33543D03*
X13484Y14291D03*
Y15039D03*
Y15866D03*
Y16614D03*
Y17441D03*
Y18189D03*
X14469Y14291D03*
Y14665D03*
Y15039D03*
Y15866D03*
Y16240D03*
Y16614D03*
Y17441D03*
Y17815D03*
Y18189D03*
X29429Y709D03*
Y1457D03*
Y2283D03*
Y3031D03*
Y3858D03*
Y4606D03*
X30413Y709D03*
Y1083D03*
Y1457D03*
Y2283D03*
Y2657D03*
Y3031D03*
Y3858D03*
Y4232D03*
Y4606D03*
G54D20*
X7626Y11909D03*
Y12303D03*
Y12697D03*
Y13091D03*
Y13484D03*
Y13878D03*
Y14272D03*
Y14665D03*
Y24508D03*
Y24902D03*
Y25295D03*
Y25689D03*
Y26083D03*
Y26476D03*
Y26870D03*
Y27264D03*
X10484Y11909D03*
Y12303D03*
Y12697D03*
Y13091D03*
Y13484D03*
Y13878D03*
Y14272D03*
Y14665D03*
Y24508D03*
Y24902D03*
Y25295D03*
Y25689D03*
Y26083D03*
Y26476D03*
Y26870D03*
Y27264D03*
G54D21*
X2756Y25098D03*
X3543D03*
X4724Y13681D03*
X5118Y5413D03*
X5512Y13681D03*
X5906Y5413D03*
X12008Y13583D03*
X12795D03*
G54D22*
X20681Y5217D03*
Y6594D03*
Y7776D03*
Y9154D03*
Y10138D03*
Y11516D03*
Y12500D03*
Y13878D03*
Y14862D03*
Y16240D03*
Y17224D03*
Y18602D03*
Y19783D03*
Y21161D03*
Y22146D03*
Y23524D03*
Y24508D03*
Y25886D03*
Y26870D03*
Y28248D03*
Y29232D03*
Y30610D03*
Y31594D03*
Y32972D03*
X20933Y5217D03*
Y6594D03*
Y7776D03*
Y9154D03*
Y10138D03*
Y11516D03*
Y12500D03*
Y13878D03*
Y14862D03*
Y16240D03*
Y17224D03*
Y18602D03*
Y19783D03*
Y21161D03*
Y22146D03*
Y23524D03*
Y24508D03*
Y25886D03*
Y26870D03*
Y28248D03*
Y29232D03*
Y30610D03*
Y31594D03*
Y32972D03*
X21193Y5217D03*
Y6594D03*
Y7776D03*
Y9154D03*
Y10138D03*
Y11516D03*
Y12500D03*
Y13878D03*
Y14862D03*
Y16240D03*
Y17224D03*
Y18602D03*
Y19783D03*
Y21161D03*
Y22146D03*
Y23524D03*
Y24508D03*
Y25886D03*
Y26870D03*
Y28248D03*
Y29232D03*
Y30610D03*
Y31594D03*
Y32972D03*
X21445Y5217D03*
Y6594D03*
Y7776D03*
Y9154D03*
Y10138D03*
Y11516D03*
Y12500D03*
Y13878D03*
Y14862D03*
Y16240D03*
Y17224D03*
Y18602D03*
Y19783D03*
Y21161D03*
Y22146D03*
Y23524D03*
Y24508D03*
Y25886D03*
Y26870D03*
Y28248D03*
Y29232D03*
Y30610D03*
Y31594D03*
Y32972D03*
G54D23*
X3917Y20394D03*
Y21142D03*
Y21969D03*
Y22717D03*
Y23543D03*
Y24291D03*
X4744Y20768D03*
Y22343D03*
Y23917D03*
X6083Y709D03*
Y1457D03*
Y2283D03*
Y3031D03*
Y3858D03*
Y4606D03*
Y9075D03*
Y9823D03*
Y10650D03*
Y11398D03*
Y12224D03*
Y12972D03*
X6909Y1083D03*
Y2657D03*
Y4232D03*
Y9449D03*
Y11024D03*
Y12598D03*
X11791Y14665D03*
Y16240D03*
Y17815D03*
X12618Y14291D03*
Y15039D03*
Y15866D03*
Y16614D03*
Y17441D03*
Y18189D03*
X27736Y1083D03*
Y2657D03*
Y4232D03*
X28563Y709D03*
Y1457D03*
Y2283D03*
Y3031D03*
Y3858D03*
Y4606D03*
G54D24*
X7972Y18091D03*
X9744D03*
X10138Y1555D03*
X11909D03*
X16437D03*
Y8642D03*
Y19665D03*
Y25965D03*
X18209Y1555D03*
Y8642D03*
Y19665D03*
Y25965D03*
G54D25*
X6791Y18130D03*
Y22815D03*
X6988Y18130D03*
Y22815D03*
X7185Y18130D03*
Y22815D03*
X7382Y18130D03*
Y22815D03*
X7579Y18130D03*
Y22815D03*
X7776Y18130D03*
Y22815D03*
X7972D03*
X8169Y18130D03*
X8366D03*
Y22815D03*
X8563Y18130D03*
Y22815D03*
X8760Y18130D03*
Y22815D03*
X8957Y1594D03*
Y6280D03*
Y18130D03*
Y22815D03*
X9154Y1594D03*
Y6280D03*
Y18130D03*
Y22815D03*
X9350Y1594D03*
Y6280D03*
Y18130D03*
Y22815D03*
X9547Y1594D03*
Y6280D03*
Y18130D03*
Y22815D03*
X9744Y1594D03*
Y6280D03*
Y22815D03*
X9941Y1594D03*
Y6280D03*
X10138D03*
X10335Y1594D03*
X10531D03*
Y6280D03*
X10728Y1594D03*
Y6280D03*
X10925Y1594D03*
Y6280D03*
X11122Y1594D03*
Y6280D03*
X11319Y1594D03*
Y6280D03*
X11516Y1594D03*
Y6280D03*
X11713Y1594D03*
Y6280D03*
X11909D03*
X15256Y1594D03*
Y6280D03*
Y8681D03*
Y13366D03*
Y19705D03*
Y24390D03*
Y26004D03*
Y30689D03*
X15453Y1594D03*
Y6280D03*
Y8681D03*
Y13366D03*
Y19705D03*
Y24390D03*
Y26004D03*
Y30689D03*
X15650Y1594D03*
Y6280D03*
Y8681D03*
Y13366D03*
Y19705D03*
Y24390D03*
Y26004D03*
Y30689D03*
X15846Y1594D03*
Y6280D03*
Y8681D03*
Y13366D03*
Y19705D03*
Y24390D03*
Y26004D03*
Y30689D03*
X16043Y1594D03*
Y6280D03*
Y8681D03*
Y13366D03*
Y19705D03*
Y24390D03*
Y26004D03*
Y30689D03*
X16240Y1594D03*
Y6280D03*
Y8681D03*
Y13366D03*
Y19705D03*
Y24390D03*
Y26004D03*
Y30689D03*
X16437Y6280D03*
Y13366D03*
Y24390D03*
Y30689D03*
X16634Y1594D03*
Y8681D03*
Y19705D03*
Y26004D03*
X16831Y1594D03*
Y6280D03*
Y8681D03*
Y13366D03*
Y19705D03*
Y24390D03*
Y26004D03*
Y30689D03*
X17028Y1594D03*
Y6280D03*
Y8681D03*
Y13366D03*
Y19705D03*
Y24390D03*
Y26004D03*
Y30689D03*
X17224Y1594D03*
Y6280D03*
Y8681D03*
Y13366D03*
Y19705D03*
Y24390D03*
Y26004D03*
Y30689D03*
X17421Y1594D03*
Y6280D03*
Y8681D03*
Y13366D03*
Y19705D03*
Y24390D03*
Y26004D03*
Y30689D03*
X17618Y1594D03*
Y6280D03*
Y8681D03*
Y13366D03*
Y19705D03*
Y24390D03*
Y26004D03*
Y30689D03*
X17815Y1594D03*
Y6280D03*
Y8681D03*
Y13366D03*
Y19705D03*
Y24390D03*
Y26004D03*
Y30689D03*
X18012Y1594D03*
Y6280D03*
Y8681D03*
Y13366D03*
Y19705D03*
Y24390D03*
Y26004D03*
Y30689D03*
X18209Y6280D03*
Y13366D03*
Y24390D03*
Y30689D03*
G54D26*
X5925Y18996D03*
Y19193D03*
Y19390D03*
Y19783D03*
Y19980D03*
Y20177D03*
Y20374D03*
Y20571D03*
Y20768D03*
Y20965D03*
Y21161D03*
Y21358D03*
Y21752D03*
Y21949D03*
X8091Y2461D03*
Y2657D03*
Y2854D03*
Y3248D03*
Y3445D03*
Y3642D03*
Y3839D03*
Y4035D03*
Y4232D03*
Y4429D03*
Y4626D03*
Y4823D03*
Y5217D03*
Y5413D03*
X10610Y18996D03*
Y19193D03*
Y19390D03*
Y19587D03*
Y19980D03*
Y20177D03*
Y20374D03*
Y20571D03*
Y20768D03*
Y20965D03*
Y21161D03*
Y21358D03*
Y21555D03*
Y21949D03*
X12776Y2461D03*
Y2657D03*
Y2854D03*
Y3051D03*
Y3445D03*
Y3642D03*
Y3839D03*
Y4035D03*
Y4232D03*
Y4429D03*
Y4626D03*
Y4823D03*
Y5020D03*
Y5413D03*
X14390Y2461D03*
Y2657D03*
Y2854D03*
Y3248D03*
Y3445D03*
Y3642D03*
Y3839D03*
Y4035D03*
Y4232D03*
Y4429D03*
Y4626D03*
Y4823D03*
Y5217D03*
Y5413D03*
Y9547D03*
Y9744D03*
Y9941D03*
Y10335D03*
Y10531D03*
Y10728D03*
Y10925D03*
Y11122D03*
Y11319D03*
Y11516D03*
Y11713D03*
Y11909D03*
Y12303D03*
Y12500D03*
Y20571D03*
Y20768D03*
Y20965D03*
Y21358D03*
Y21555D03*
Y21752D03*
Y21949D03*
Y22146D03*
Y22343D03*
Y22539D03*
Y22736D03*
Y22933D03*
Y23327D03*
Y23524D03*
Y26870D03*
Y27067D03*
Y27264D03*
Y27657D03*
Y27854D03*
Y28051D03*
Y28248D03*
Y28445D03*
Y28642D03*
Y28839D03*
Y29035D03*
Y29232D03*
Y29626D03*
Y29823D03*
X19075Y2461D03*
Y2657D03*
Y2854D03*
Y3051D03*
Y3445D03*
Y3642D03*
Y3839D03*
Y4035D03*
Y4232D03*
Y4429D03*
Y4626D03*
Y4823D03*
Y5020D03*
Y5413D03*
Y9547D03*
Y9744D03*
Y9941D03*
Y10138D03*
Y10531D03*
Y10728D03*
Y10925D03*
Y11122D03*
Y11319D03*
Y11516D03*
Y11713D03*
Y11909D03*
Y12106D03*
Y12500D03*
Y20571D03*
Y20768D03*
Y20965D03*
Y21161D03*
Y21555D03*
Y21752D03*
Y21949D03*
Y22146D03*
Y22343D03*
Y22539D03*
Y22736D03*
Y22933D03*
Y23130D03*
Y23524D03*
Y26870D03*
Y27067D03*
Y27264D03*
Y27461D03*
Y27854D03*
Y28051D03*
Y28248D03*
Y28445D03*
Y28642D03*
Y28839D03*
Y29035D03*
Y29232D03*
Y29429D03*
Y29823D03*
G54D27*
X5886Y19587D03*
Y21555D03*
X8051Y3051D03*
Y5020D03*
X14350Y3051D03*
Y5020D03*
Y10138D03*
Y12106D03*
Y21161D03*
Y23130D03*
Y27461D03*
Y29429D03*
G54D28*
X8169Y22854D03*
X10335Y6319D03*
X16634D03*
Y13406D03*
Y24429D03*
Y30728D03*
G54D29*
X10650Y19783D03*
Y21752D03*
X12815Y3248D03*
Y5217D03*
X19114Y3248D03*
Y5217D03*
Y10335D03*
Y12303D03*
Y21358D03*
Y23327D03*
Y27657D03*
Y29626D03*
G54D30*
X5531Y29941D03*
X5906Y29114D03*
X6280Y29941D03*
X7106D03*
X7480Y29114D03*
X7854Y29941D03*
X8681D03*
X9055Y29114D03*
X9429Y29941D03*
G54D31*
X3583Y5413D03*
X4291D03*
G54D70*
X10236Y31102D03*
Y31890D03*
G54D71*
X8630Y11398D03*
Y15177D03*
Y23996D03*
Y27776D03*
X9480Y11398D03*
Y15177D03*
Y23996D03*
Y27776D03*
G54D72*
X7264Y8150D03*
X11043D03*
X25374Y8152D03*
X29154D03*
G54D73*
X7776Y9154D03*
X8169D03*
X8563D03*
X8957D03*
X9350D03*
X9744D03*
X10138D03*
X10531D03*
X25886Y9156D03*
X26280D03*
X26673D03*
X27067D03*
X27461D03*
X27854D03*
X28248D03*
X28642D03*
M02*
