*
G04 Job   : C:\Mentor_proj\450\PCB\450.pcb*
G04 User  : WINDOWS-XP:user*
G04 Layer : SoldermaskTop.gdo*
G04 Date  : Fri Dec 16 16:25:47 2022*
G04 Mentor Graphics Example Gerber Output Definition*
%ICAS*%
%MOIN*%
%FSLAX24Y24*%
%OFA0.0000B0.0000*%
G90*
G74*
%AMVB_RECTANGLE*
21,1,$1,$2,0,0,$3*
%
%AMVB_Custom_VIK_SM*
$4 = $2X0.0043*
$5 = $3X-0.0037*
$6 = $2X-0.0037*
$7 = $3X0.0043*
21,1,0.0095,0.0085,$4-$5,$6+$7,$1*
%
%AMVB_Custom_LQH43-SM*
4,1,8,0.0335,-0.0630,0.0335,0.0630,-0.0335,0.0630,-0.0335,0.0335,-0.0925,0.0335,-0.0925,-0.0335,-0.0335,-0.0335,-0.0335,-0.0630,0.0335,-0.0630,$1*
%
%ADD15C,0.02165*%
%ADD13C,0.03937*%
%ADD14C,0.04331*%
%ADD12C,0.05512*%
%ADD10C,0.11811*%
%ADD11C,0.19685*%
%ADD44O,0.04134X0.01969*%
%ADD34O,0.01969X0.04134*%
%ADD43O,0.04528X0.01969*%
%ADD33O,0.01969X0.04528*%
%ADD36O,0.05118X0.02756*%
%ADD35O,0.02756X0.05118*%
%ADD17O,0.05512X0.03150*%
%ADD28O,0.03150X0.05512*%
%ADD72O,0.05709X0.03150*%
%ADD19O,0.05906X0.03150*%
%ADD26O,0.03150X0.05906*%
%ADD20O,0.02559X0.06102*%
%ADD27O,0.08661X0.03150*%
%ADD23VB_RECTANGLE,0.03150X0.03150X90.00000*%
%ADD21VB_RECTANGLE,0.02756X0.02559X0.00000*%
%ADD29VB_RECTANGLE,0.02953X0.01772X90.00000*%
%ADD45VB_RECTANGLE,0.03346X0.02953X180.00000*%
%ADD25VB_RECTANGLE,0.03346X0.02953X90.00000*%
%ADD41VB_RECTANGLE,0.04134X0.03150X270.00000*%
%ADD18VB_RECTANGLE,0.04528X0.04331X180.00000*%
%ADD24VB_RECTANGLE,0.04528X0.04331X270.00000*%
%ADD70VB_RECTANGLE,0.06299X0.04921X0.00000*%
%ADD73VB_RECTANGLE,0.06299X0.04921X270.00000*%
%ADD31VB_RECTANGLE,0.06496X0.04528X0.00000*%
%ADD30VB_RECTANGLE,0.06496X0.04528X90.00000*%
%ADD71VB_RECTANGLE,0.06693X0.03937X90.00000*%
%ADD46VB_RECTANGLE,0.08465X0.04331X180.00000*%
%ADD22VB_RECTANGLE,0.08465X0.04331X90.00000*%
%ADD32VB_RECTANGLE,0.14567X0.07480X0.00000*%
%ADD42VB_RECTANGLE,0.14567X0.07480X90.00000*%
%ADD37VB_Custom_LQH43-SM,0.00000*%
%ADD40VB_Custom_LQH43-SM,90.00000*%
%ADD38VB_Custom_LQH43-SM,180.00000*%
%ADD39VB_Custom_LQH43-SM,270.00000*%
%ADD16VB_Custom_VIK_SM,0.00000X1.00000X0.00000*%
G01*
G36*
X16122Y31378D02*
X19508D01*
Y33976*
X16122*
Y31378*
G37*
G54D10*
X1083Y1083D03*
Y32972D03*
X17028Y17028D03*
X32972Y1083D03*
Y32972D03*
G54D11*
X1083Y1083D03*
Y32972D03*
X17028Y17028D03*
X32972Y1083D03*
Y32972D03*
G54D12*
X31299Y5610D03*
Y6398D03*
Y7185D03*
Y7972D03*
Y8760D03*
Y9547D03*
Y10335D03*
Y11122D03*
Y11909D03*
Y12697D03*
Y13484D03*
Y14272D03*
Y15059D03*
Y15846D03*
Y16634D03*
Y17421D03*
Y18209D03*
Y18996D03*
Y19783D03*
Y20571D03*
Y21358D03*
Y22146D03*
Y22933D03*
Y23720D03*
Y24508D03*
Y25295D03*
Y26083D03*
Y26870D03*
Y27657D03*
Y28445D03*
X32087Y5610D03*
Y6398D03*
Y7185D03*
Y7972D03*
Y8760D03*
Y9547D03*
Y10335D03*
Y11122D03*
Y11909D03*
Y12697D03*
Y13484D03*
Y14272D03*
Y15059D03*
Y15846D03*
Y16634D03*
Y17421D03*
Y18209D03*
Y18996D03*
Y19783D03*
Y20571D03*
Y21358D03*
Y22146D03*
Y22933D03*
Y23720D03*
Y24508D03*
Y25295D03*
Y26083D03*
Y26870D03*
Y27657D03*
Y28445D03*
G54D13*
X2953Y18031D03*
X5787Y16220D03*
X5965Y16929D03*
X7677Y1969D03*
X8957Y9665D03*
X10079Y22795D03*
X10748Y10354D03*
X12283Y6299D03*
X12598Y1457D03*
X12815Y30236D03*
X13150Y32874D03*
X13287Y10039D03*
X13898Y27146D03*
X14055Y1969D03*
X15059Y2362D03*
X16043Y1102D03*
X17618Y29882D03*
X19252Y2126D03*
X19547Y28720D03*
X19646Y4370D03*
Y4941D03*
X19783Y29035D03*
X20000Y28740D03*
X20079Y4606D03*
X22283Y5748D03*
X23027Y25307D03*
X24606Y26102D03*
X24646Y21280D03*
X24665Y31024D03*
X24685Y31496D03*
X25591Y13583D03*
X25630Y23228D03*
X26102Y32008D03*
X26535Y28051D03*
Y29331D03*
Y32874D03*
X27067Y8543D03*
X27244Y5315D03*
Y14961D03*
Y19783D03*
Y24606D03*
X28150Y10138D03*
Y19783D03*
Y24606D03*
X28976Y5315D03*
X29094Y32559D03*
X29390Y8957D03*
X29528Y14488D03*
X29823Y8957D03*
Y23780D03*
Y27402D03*
Y28701D03*
X30059Y32972D03*
X31102Y29055D03*
X32874D03*
G54D14*
X1220Y4882D03*
X2362Y4921D03*
Y5421D03*
Y5921D03*
Y6421D03*
Y6921D03*
Y7421D03*
Y7921D03*
Y8421D03*
Y8921D03*
Y9421D03*
Y9921D03*
Y10421D03*
Y10921D03*
Y11421D03*
Y11921D03*
Y12421D03*
Y12921D03*
Y13421D03*
Y13921D03*
Y14421D03*
Y14921D03*
Y15421D03*
Y15921D03*
Y16421D03*
Y16921D03*
Y17421D03*
Y17921D03*
Y18421D03*
Y18921D03*
Y19421D03*
X8150Y25669D03*
X11043Y8346D03*
X12283Y7067D03*
X14094Y26378D03*
X17618Y12579D03*
X24488Y10827D03*
X24606Y26673D03*
X25079Y6555D03*
X25591Y7283D03*
Y12008D03*
Y18406D03*
X26063Y22402D03*
Y27244D03*
X27244Y29429D03*
X28071Y14961D03*
X28110Y29429D03*
X29094Y13307D03*
Y18071D03*
Y22913D03*
Y27717D03*
X29134Y7894D03*
X29528Y9646D03*
Y24213D03*
Y28937D03*
X29587Y17657D03*
X29823Y12795D03*
X30138Y19724D03*
X30236Y7559D03*
G54D15*
X28248Y22146D03*
Y26378D03*
Y26969D03*
Y31496D03*
Y31791D03*
G54D16*
X16240Y33858D03*
G54D17*
X1083Y20394D03*
Y21142D03*
Y21969D03*
Y22717D03*
Y23543D03*
Y24291D03*
X2067Y20394D03*
Y20768D03*
Y21142D03*
Y21969D03*
Y22343D03*
Y22717D03*
Y23543D03*
Y23917D03*
Y24291D03*
X3248Y709D03*
Y1457D03*
Y2283D03*
Y3031D03*
Y3858D03*
Y4606D03*
Y9075D03*
Y9823D03*
Y10650D03*
Y11398D03*
Y12224D03*
Y12972D03*
X4232Y709D03*
Y1083D03*
Y1457D03*
Y2283D03*
Y2657D03*
Y3031D03*
Y3858D03*
Y4232D03*
Y4606D03*
Y9075D03*
Y9449D03*
Y9823D03*
Y10650D03*
Y11024D03*
Y11398D03*
Y12224D03*
Y12598D03*
Y12972D03*
X7992Y4547D03*
Y5295D03*
X8976Y4547D03*
Y4921D03*
Y5295D03*
X9744Y14094D03*
Y14843D03*
X10728Y14094D03*
Y14469D03*
Y14843D03*
X14469Y14291D03*
Y14665D03*
Y15039D03*
Y15866D03*
Y16240D03*
Y16614D03*
Y17441D03*
Y17815D03*
Y18189D03*
X15453Y14291D03*
Y15039D03*
Y15866D03*
Y16614D03*
Y17441D03*
Y18189D03*
X23130Y7008D03*
Y7756D03*
Y11831D03*
Y12579D03*
Y16654D03*
Y17402D03*
Y21476D03*
Y22224D03*
Y26299D03*
Y27047D03*
X23248Y31122D03*
Y31870D03*
X24114Y7008D03*
Y7382D03*
Y7756D03*
Y11831D03*
Y12205D03*
Y12579D03*
Y16654D03*
Y17028D03*
Y17402D03*
Y21476D03*
Y21850D03*
Y22224D03*
Y26299D03*
Y26673D03*
Y27047D03*
X24232Y31122D03*
Y31496D03*
Y31870D03*
X25098Y6909D03*
Y7657D03*
Y8386D03*
Y9134D03*
Y11634D03*
Y12382D03*
Y13209D03*
Y13957D03*
Y16457D03*
Y17205D03*
Y18031D03*
Y18780D03*
Y21280D03*
Y22028D03*
Y22854D03*
Y23602D03*
Y26102D03*
Y26850D03*
Y27677D03*
Y28425D03*
Y30925D03*
Y31673D03*
Y32500D03*
Y33248D03*
X26083Y2677D03*
Y3425D03*
Y6909D03*
Y7283D03*
Y7657D03*
Y8386D03*
Y8760D03*
Y9134D03*
Y11634D03*
Y12008D03*
Y12382D03*
Y13209D03*
Y13583D03*
Y13957D03*
Y16457D03*
Y16831D03*
Y17205D03*
Y18031D03*
Y18406D03*
Y18780D03*
Y21280D03*
Y21654D03*
Y22028D03*
Y22854D03*
Y23228D03*
Y23602D03*
Y26102D03*
Y26476D03*
Y26850D03*
Y27677D03*
Y28051D03*
Y28425D03*
Y30925D03*
Y31299D03*
Y31673D03*
Y32500D03*
Y32874D03*
Y33248D03*
X27067Y2677D03*
Y3051D03*
Y3425D03*
X30413Y709D03*
Y1083D03*
Y1457D03*
Y2283D03*
Y2657D03*
Y3031D03*
Y3858D03*
Y4232D03*
Y4606D03*
X31398Y709D03*
Y1457D03*
Y2283D03*
Y3031D03*
Y3858D03*
Y4606D03*
G54D18*
X13543Y32283D03*
Y32874D03*
X27657Y5315D03*
Y5906D03*
Y10138D03*
Y10728D03*
Y14961D03*
Y15551D03*
Y19783D03*
Y20374D03*
Y24606D03*
Y25197D03*
Y29429D03*
Y30020D03*
X28543Y5315D03*
Y5906D03*
Y10138D03*
Y10728D03*
Y14961D03*
Y15551D03*
Y19783D03*
Y20374D03*
Y24606D03*
Y25197D03*
Y29429D03*
Y30020D03*
G54D19*
X3917Y20394D03*
Y21142D03*
Y21969D03*
Y22717D03*
Y23543D03*
Y24291D03*
X4744Y20768D03*
Y22343D03*
Y23917D03*
X6083Y709D03*
Y1457D03*
Y2283D03*
Y3031D03*
Y3858D03*
Y4606D03*
Y9075D03*
Y9823D03*
Y10650D03*
Y11398D03*
Y12224D03*
Y12972D03*
X6909Y1083D03*
Y2657D03*
Y4232D03*
Y9449D03*
Y11024D03*
Y12598D03*
X11791Y14665D03*
Y16240D03*
Y17815D03*
X12618Y14291D03*
Y15039D03*
Y15866D03*
Y16614D03*
Y17441D03*
Y18189D03*
X23209Y5807D03*
X24035Y5433D03*
Y6181D03*
X27736Y1083D03*
Y2657D03*
Y4232D03*
X28563Y709D03*
Y1457D03*
Y2283D03*
Y3031D03*
Y3858D03*
Y4606D03*
G54D20*
X30669Y29488D03*
Y30354D03*
X31535Y29488D03*
Y30354D03*
X32441Y29488D03*
Y30354D03*
X33307Y29488D03*
Y30354D03*
G54D21*
X27461Y6909D03*
Y7224D03*
Y7539D03*
Y7854D03*
Y11732D03*
Y12047D03*
Y12362D03*
Y12677D03*
Y16555D03*
Y16870D03*
Y17185D03*
Y17500D03*
Y21378D03*
Y21693D03*
Y22008D03*
Y22323D03*
Y26201D03*
Y26516D03*
Y26831D03*
Y27146D03*
Y31024D03*
Y31339D03*
Y31654D03*
Y31969D03*
X28642Y6909D03*
Y7224D03*
Y7539D03*
Y7854D03*
Y11732D03*
Y12047D03*
Y12362D03*
Y12677D03*
Y16555D03*
Y16870D03*
Y17185D03*
Y17500D03*
Y21378D03*
Y21693D03*
Y22008D03*
Y22323D03*
Y26201D03*
Y26516D03*
Y26831D03*
Y27146D03*
Y31024D03*
Y31339D03*
Y31654D03*
Y31969D03*
X30787Y31142D03*
Y31457D03*
X31417Y31142D03*
Y31457D03*
X32559Y31142D03*
Y31457D03*
X33189Y31142D03*
Y31457D03*
G54D22*
X27854Y7382D03*
Y12205D03*
Y17028D03*
Y21850D03*
Y26673D03*
Y31496D03*
X28248Y7382D03*
Y12205D03*
Y17028D03*
Y21850D03*
Y26673D03*
Y31496D03*
G54D23*
X787Y25906D03*
Y26260D03*
Y27087D03*
Y27441D03*
X1378Y24921D03*
Y25276D03*
X1398Y25787D03*
Y26378D03*
Y26969D03*
Y27559D03*
X1752Y25787D03*
Y26378D03*
Y26969D03*
Y27559D03*
X2362Y3760D03*
Y4114D03*
X2756Y28189D03*
Y28543D03*
X3150Y13504D03*
Y13858D03*
X3169Y14370D03*
Y14862D03*
Y15354D03*
Y15846D03*
Y16339D03*
X3268Y5807D03*
Y6398D03*
Y6988D03*
Y7579D03*
X3524Y14370D03*
Y14862D03*
Y15354D03*
Y15846D03*
Y16339D03*
X3622Y5807D03*
Y6398D03*
Y6988D03*
Y7579D03*
X3661Y25000D03*
Y25492D03*
X4016Y25000D03*
Y25492D03*
X4252Y5217D03*
X4528Y16752D03*
Y17106D03*
X4606Y5217D03*
X4724Y7992D03*
Y8346D03*
X5531Y13878D03*
X5728Y19685D03*
Y20276D03*
X5886Y13878D03*
X5925Y5217D03*
X5945Y27657D03*
Y28012D03*
X6083Y19685D03*
Y20276D03*
X6102Y22264D03*
Y22618D03*
X6280Y5217D03*
X6693Y22264D03*
Y22618D03*
X6713Y17126D03*
X6890Y21083D03*
Y21437D03*
X6909Y8366D03*
X7067Y17126D03*
X7264Y8366D03*
X7283Y18327D03*
Y18681D03*
X7776Y13799D03*
Y14154D03*
X7795Y1181D03*
Y2657D03*
Y3248D03*
Y3839D03*
X7874Y18327D03*
Y18681D03*
X8150Y1181D03*
Y2657D03*
Y3248D03*
Y3839D03*
X8268Y6024D03*
Y6378D03*
X8287Y19587D03*
Y20177D03*
X8366Y13799D03*
Y14154D03*
X8465Y18327D03*
Y18681D03*
Y22264D03*
Y22618D03*
X8563Y9665D03*
Y10020D03*
Y25709D03*
Y26063D03*
X8642Y19587D03*
Y20177D03*
X8858Y6024D03*
Y6378D03*
X9449Y1791D03*
Y2146D03*
X9646Y13110D03*
Y13465D03*
X9744Y25709D03*
Y26063D03*
X10020Y9094D03*
X10039Y1791D03*
Y2146D03*
Y30236D03*
Y30591D03*
X10059Y32874D03*
X10354Y2657D03*
Y3248D03*
Y3839D03*
X10374Y9094D03*
X10413Y32874D03*
X10531Y18327D03*
Y18681D03*
Y19705D03*
Y20059D03*
Y22264D03*
Y22618D03*
X10551Y12598D03*
Y13189D03*
X10630Y1791D03*
Y2146D03*
Y5728D03*
Y6083D03*
Y30236D03*
Y30591D03*
X10709Y2657D03*
Y3248D03*
Y3839D03*
X10906Y12598D03*
Y13189D03*
X11024Y32500D03*
Y32854D03*
X11614Y32500D03*
Y32854D03*
X11634Y33366D03*
X11988D03*
X12008Y9469D03*
Y9823D03*
X12205Y32500D03*
Y32854D03*
X12598Y1791D03*
Y2146D03*
Y3169D03*
Y3524D03*
Y5728D03*
Y6083D03*
X12618Y33366D03*
X12795Y32500D03*
Y32854D03*
X12972Y33366D03*
X13012Y10433D03*
Y11024D03*
Y11614D03*
Y12205D03*
X13366Y10433D03*
Y11024D03*
Y11614D03*
Y12205D03*
X13386Y12815D03*
Y13169D03*
X13406Y31594D03*
X13583Y28957D03*
Y29311D03*
X13760Y31594D03*
X13976Y12815D03*
Y13169D03*
X13996Y20817D03*
Y21358D03*
Y21949D03*
X14193Y28445D03*
Y28937D03*
X14350Y20817D03*
Y21358D03*
Y21949D03*
X14370Y5728D03*
Y6083D03*
Y23839D03*
Y24193D03*
Y27579D03*
Y27933D03*
X14390Y2657D03*
Y3248D03*
Y3839D03*
X14488Y9843D03*
Y10433D03*
Y11024D03*
Y11614D03*
X14547Y28445D03*
Y28937D03*
X14567Y12815D03*
Y13169D03*
X14744Y2657D03*
Y3248D03*
Y3839D03*
X14843Y9843D03*
Y10433D03*
Y11024D03*
Y11614D03*
X14961Y5728D03*
Y6083D03*
Y23839D03*
Y24193D03*
Y30138D03*
Y30492D03*
X15551Y30138D03*
Y30492D03*
X15650Y1791D03*
Y2146D03*
X15748Y8878D03*
Y9232D03*
Y19902D03*
Y20256D03*
Y26201D03*
Y26555D03*
X15945Y22657D03*
Y23012D03*
X16240Y1791D03*
Y2146D03*
X16339Y8878D03*
Y9232D03*
Y12815D03*
Y13169D03*
Y19902D03*
Y20256D03*
Y26201D03*
Y26555D03*
X16654Y21161D03*
Y21752D03*
X16752Y2657D03*
Y3248D03*
Y3839D03*
Y9941D03*
Y10531D03*
Y11122D03*
X16811Y28760D03*
Y29114D03*
X16831Y1791D03*
Y2146D03*
X16929Y5728D03*
Y6083D03*
Y8878D03*
Y9232D03*
Y19902D03*
Y20256D03*
Y23839D03*
Y24193D03*
Y26201D03*
Y26555D03*
Y27579D03*
Y27933D03*
X17008Y21161D03*
Y21752D03*
X17028Y30138D03*
Y30492D03*
X17106Y2657D03*
Y3248D03*
Y3839D03*
Y9941D03*
Y10531D03*
Y11122D03*
X17126Y12815D03*
Y13169D03*
X18602Y8878D03*
Y9232D03*
X18898Y1791D03*
Y2146D03*
Y3169D03*
Y3524D03*
Y5728D03*
Y6083D03*
Y12815D03*
Y13169D03*
X18996Y19902D03*
Y20256D03*
Y21280D03*
Y21634D03*
Y23839D03*
Y24193D03*
Y26201D03*
Y26555D03*
Y27579D03*
Y27933D03*
Y30138D03*
Y30492D03*
X21280Y689D03*
X21634D03*
X22067Y1969D03*
X22146Y4055D03*
Y4409D03*
X22264Y689D03*
X22421Y1969D03*
X22618Y689D03*
X23031Y8583D03*
Y8937D03*
Y13406D03*
Y13760D03*
Y18228D03*
Y18583D03*
Y23051D03*
Y23406D03*
Y28071D03*
Y28425D03*
Y32697D03*
Y33051D03*
X23228Y709D03*
Y1063D03*
X23622Y8583D03*
Y8937D03*
Y13406D03*
Y13760D03*
Y18228D03*
Y18583D03*
Y23051D03*
Y23406D03*
Y28071D03*
Y28425D03*
Y32697D03*
Y33051D03*
X23819Y709D03*
Y1063D03*
X24213Y8583D03*
Y8937D03*
Y13406D03*
Y13760D03*
Y18228D03*
Y18583D03*
Y23051D03*
Y23406D03*
Y28071D03*
Y28425D03*
Y32697D03*
Y33051D03*
X24409Y709D03*
Y1063D03*
X25000Y709D03*
Y1063D03*
X25512Y2579D03*
Y2933D03*
X26102Y4114D03*
Y4469D03*
X26772Y8780D03*
Y9134D03*
X26870Y5236D03*
Y5591D03*
Y6417D03*
Y6772D03*
Y7598D03*
Y7953D03*
Y10059D03*
Y10413D03*
Y11240D03*
Y11594D03*
Y12421D03*
Y12776D03*
Y13602D03*
Y13957D03*
Y14882D03*
Y15236D03*
Y16063D03*
Y16417D03*
Y17244D03*
Y17598D03*
Y18425D03*
Y18780D03*
Y19705D03*
Y20059D03*
Y20886D03*
Y21240D03*
Y22067D03*
Y22421D03*
Y23248D03*
Y23602D03*
Y24528D03*
Y24882D03*
Y25709D03*
Y26063D03*
Y26811D03*
Y27165D03*
Y28071D03*
Y28425D03*
Y29350D03*
Y29705D03*
Y30531D03*
Y30886D03*
Y31713D03*
Y32067D03*
Y32894D03*
Y33248D03*
X27362Y8780D03*
Y9134D03*
X27559Y13602D03*
Y13957D03*
Y18425D03*
Y18780D03*
Y23248D03*
Y23602D03*
Y28071D03*
Y28425D03*
Y32894D03*
Y33248D03*
X27953Y8780D03*
Y9134D03*
X29350Y6693D03*
Y11614D03*
Y16437D03*
Y21260D03*
Y26181D03*
Y30906D03*
X29705Y6693D03*
Y11614D03*
Y16437D03*
Y21260D03*
Y26181D03*
Y30906D03*
G54D24*
X1476Y28346D03*
X2067D03*
X3248Y17028D03*
X3346Y8268D03*
X3839Y17028D03*
X3937Y8268D03*
X5965Y18504D03*
X6555D03*
X8071Y1969D03*
X8661D03*
X9154Y22441D03*
X9744D03*
X11319Y5906D03*
X11909D03*
X12697Y9646D03*
X13287D03*
X14469Y1969D03*
Y9055D03*
Y20079D03*
X14508Y26378D03*
X15059Y1969D03*
Y9055D03*
Y20079D03*
X15098Y26378D03*
X17618Y5906D03*
Y12992D03*
Y24016D03*
Y30315D03*
X18209Y5906D03*
Y12992D03*
Y24016D03*
Y30315D03*
X21752Y1378D03*
X22343D03*
G54D25*
X29724Y32382D03*
Y32972D03*
X29823Y13189D03*
Y13780D03*
Y18012D03*
Y18602D03*
Y22835D03*
Y23425D03*
Y27756D03*
Y28346D03*
G54D26*
X5531Y29941D03*
X5906Y29114D03*
X6280Y29941D03*
X7106D03*
X7480Y29114D03*
X7854Y29941D03*
X8681D03*
X9055Y29114D03*
X9429Y29941D03*
X23248Y10020D03*
Y14843D03*
Y19665D03*
Y24488D03*
Y29311D03*
X23622Y10846D03*
Y15669D03*
Y20492D03*
Y25315D03*
Y30138D03*
X23996Y10020D03*
Y14843D03*
Y19665D03*
Y24488D03*
Y29311D03*
G54D27*
X20098Y5254D03*
Y5754D03*
Y6254D03*
Y6754D03*
Y7616D03*
Y8116D03*
Y8616D03*
Y9116D03*
Y10077D03*
Y10577D03*
Y11077D03*
Y11577D03*
Y12439D03*
Y12939D03*
Y13439D03*
Y13939D03*
Y14900D03*
Y15400D03*
Y15900D03*
Y16400D03*
Y17262D03*
Y17762D03*
Y18262D03*
Y18762D03*
Y19722D03*
Y20222D03*
Y20722D03*
Y21222D03*
Y22085D03*
Y22585D03*
Y23085D03*
Y23585D03*
Y24545D03*
Y25045D03*
Y25545D03*
Y26045D03*
Y26907D03*
Y27407D03*
Y27907D03*
Y28407D03*
Y29368D03*
Y29868D03*
Y30368D03*
Y30868D03*
Y31730D03*
Y32230D03*
Y32730D03*
Y33230D03*
X22028Y5254D03*
Y5754D03*
Y6254D03*
Y6754D03*
Y7616D03*
Y8116D03*
Y8616D03*
Y9116D03*
Y10077D03*
Y10577D03*
Y11077D03*
Y11577D03*
Y12439D03*
Y12939D03*
Y13439D03*
Y13939D03*
Y14900D03*
Y15400D03*
Y15900D03*
Y16400D03*
Y17262D03*
Y17762D03*
Y18262D03*
Y18762D03*
Y19722D03*
Y20222D03*
Y20722D03*
Y21222D03*
Y22085D03*
Y22585D03*
Y23085D03*
Y23585D03*
Y24545D03*
Y25045D03*
Y25545D03*
Y26045D03*
Y26907D03*
Y27407D03*
Y27907D03*
Y28407D03*
Y29368D03*
Y29868D03*
Y30368D03*
Y30868D03*
Y31730D03*
Y32230D03*
Y32730D03*
Y33230D03*
G54D28*
X5531Y31791D03*
Y32776D03*
X5906Y31791D03*
X6280D03*
Y32776D03*
X7106Y31791D03*
Y32776D03*
X7480Y31791D03*
X7795Y12106D03*
Y13091D03*
X7854Y31791D03*
Y32776D03*
X8169Y13091D03*
X8543Y12106D03*
Y13091D03*
X8681Y31791D03*
Y32776D03*
X9055Y31791D03*
X9429D03*
Y32776D03*
G54D29*
X9154Y18248D03*
Y18760D03*
Y19626D03*
Y20138D03*
Y20925D03*
Y21437D03*
X9350Y18248D03*
Y18760D03*
Y19626D03*
Y20138D03*
Y20925D03*
Y21437D03*
X9547Y18248D03*
Y18760D03*
Y19626D03*
Y20138D03*
Y20925D03*
Y21437D03*
X9744Y18248D03*
Y18760D03*
Y19626D03*
Y20138D03*
Y20925D03*
Y21437D03*
X11319Y1713D03*
Y2224D03*
Y3091D03*
Y3602D03*
Y4469D03*
Y4980D03*
X11516Y1713D03*
Y2224D03*
Y3091D03*
Y3602D03*
Y4469D03*
Y4980D03*
X11713Y1713D03*
Y2224D03*
Y3091D03*
Y3602D03*
Y4469D03*
Y4980D03*
X11909Y1713D03*
Y2224D03*
Y3091D03*
Y3602D03*
Y4469D03*
Y4980D03*
X17618Y1713D03*
Y2224D03*
Y3091D03*
Y3602D03*
Y4469D03*
Y4980D03*
Y8799D03*
Y9311D03*
Y10177D03*
Y10689D03*
Y11555D03*
Y12067D03*
Y19823D03*
Y20335D03*
Y21201D03*
Y21713D03*
Y22579D03*
Y23091D03*
Y26122D03*
Y26634D03*
Y27500D03*
Y28012D03*
Y28878D03*
Y29390D03*
X17815Y1713D03*
Y2224D03*
Y3091D03*
Y3602D03*
Y4469D03*
Y4980D03*
Y8799D03*
Y9311D03*
Y10177D03*
Y10689D03*
Y11555D03*
Y12067D03*
Y19823D03*
Y20335D03*
Y21201D03*
Y21713D03*
Y22579D03*
Y23091D03*
Y26122D03*
Y26634D03*
Y27500D03*
Y28012D03*
Y28878D03*
Y29390D03*
X18012Y1713D03*
Y2224D03*
Y3091D03*
Y3602D03*
Y4469D03*
Y4980D03*
Y8799D03*
Y9311D03*
Y10177D03*
Y10689D03*
Y11555D03*
Y12067D03*
Y19823D03*
Y20335D03*
Y21201D03*
Y21713D03*
Y22579D03*
Y23091D03*
Y26122D03*
Y26634D03*
Y27500D03*
Y28012D03*
Y28878D03*
Y29390D03*
X18209Y1713D03*
Y2224D03*
Y3091D03*
Y3602D03*
Y4469D03*
Y4980D03*
Y8799D03*
Y9311D03*
Y10177D03*
Y10689D03*
Y11555D03*
Y12067D03*
Y19823D03*
Y20335D03*
Y21201D03*
Y21713D03*
Y22579D03*
Y23091D03*
Y26122D03*
Y26634D03*
Y27500D03*
Y28012D03*
Y28878D03*
Y29390D03*
G54D30*
X8937Y2815D03*
Y3681D03*
X9567Y2815D03*
Y3681D03*
X15433Y2815D03*
Y3681D03*
Y10098D03*
Y10965D03*
X16063Y2815D03*
Y3681D03*
Y10098D03*
Y10965D03*
G54D31*
X6752Y19567D03*
Y20197D03*
X7618Y19567D03*
Y20197D03*
X15020Y21142D03*
Y21772D03*
X15217Y27441D03*
Y28071D03*
X15886Y21142D03*
Y21772D03*
X16083Y27441D03*
Y28071D03*
X26673Y1181D03*
Y1969D03*
G54D32*
X3051Y26772D03*
X4823Y15354D03*
X5020Y6594D03*
X11713Y11220D03*
G54D33*
X2362Y25965D03*
Y27579D03*
X2559D03*
X2756Y25965D03*
Y27579D03*
X2953Y25965D03*
Y27579D03*
X3150Y25965D03*
Y27579D03*
X3346Y25965D03*
Y27579D03*
X3543Y25965D03*
Y27579D03*
X3740Y25965D03*
Y27579D03*
X4134Y14547D03*
Y16161D03*
X4331Y5787D03*
Y7402D03*
Y16161D03*
X4528Y7402D03*
Y14547D03*
Y16161D03*
X4724Y5787D03*
Y7402D03*
Y14547D03*
Y16161D03*
X4921Y5787D03*
Y7402D03*
Y14547D03*
Y16161D03*
X5118Y5787D03*
Y7402D03*
Y14547D03*
Y16161D03*
X5315Y5787D03*
Y7402D03*
Y14547D03*
Y16161D03*
X5512Y5787D03*
Y7402D03*
Y14547D03*
Y16161D03*
X5709Y5787D03*
Y7402D03*
X11024Y10413D03*
Y12028D03*
X11220Y10413D03*
Y12028D03*
X11417Y10413D03*
Y12028D03*
X11614Y10413D03*
Y12028D03*
X11811Y10413D03*
Y12028D03*
X12008Y10413D03*
Y12028D03*
X12205Y10413D03*
X12402D03*
Y12028D03*
G54D34*
X2559Y25965D03*
X4331Y14547D03*
X4528Y5787D03*
X12205Y12028D03*
G54D35*
X15197Y12343D03*
X15453Y13071D03*
X15709Y12343D03*
G54D36*
X7520Y21004D03*
Y21516D03*
X8248Y21260D03*
X9872Y4675D03*
Y5187D03*
X10600Y4931D03*
X14390Y22835D03*
X15118Y22579D03*
Y23091D03*
X15276Y29134D03*
X16004Y28878D03*
Y29390D03*
X16181Y4370D03*
Y4882D03*
X16909Y4626D03*
G54D37*
X11220Y29331D03*
X23425Y4232D03*
G54D38*
X12402Y29331D03*
X24606Y4232D03*
G54D39*
X4921Y27559D03*
X6693Y15945D03*
X6988Y7185D03*
X9744Y11811D03*
G54D40*
X4921Y26378D03*
X6693Y14764D03*
X6988Y6004D03*
X9744Y10630D03*
G54D41*
X29272Y7480D03*
Y12402D03*
Y17224D03*
Y22047D03*
Y26969D03*
Y31693D03*
X29783Y7480D03*
Y12402D03*
Y17224D03*
Y22047D03*
Y26969D03*
Y31693D03*
G54D42*
X12008Y31201D03*
X24016Y2264D03*
G54D43*
X11201Y30512D03*
Y30709D03*
Y30906D03*
Y31102D03*
Y31299D03*
Y31496D03*
Y31890D03*
X12815Y30512D03*
Y30709D03*
Y30906D03*
Y31102D03*
Y31299D03*
Y31496D03*
Y31693D03*
Y31890D03*
X23209Y1575D03*
Y1772D03*
Y1969D03*
Y2165D03*
Y2362D03*
Y2559D03*
Y2756D03*
Y2953D03*
X24823Y1575D03*
Y1969D03*
Y2165D03*
Y2362D03*
Y2559D03*
Y2756D03*
Y2953D03*
G54D44*
X11201Y31693D03*
X24823Y1772D03*
G54D45*
X29232Y8268D03*
X29823D03*
G54D46*
X30748Y5610D03*
Y6398D03*
Y7185D03*
Y7972D03*
Y8760D03*
Y9547D03*
Y10335D03*
Y11122D03*
Y11909D03*
Y12697D03*
Y13484D03*
Y14272D03*
Y15059D03*
Y15846D03*
Y16634D03*
Y17421D03*
Y18209D03*
Y18996D03*
Y19783D03*
Y20571D03*
Y21358D03*
Y22146D03*
Y22933D03*
Y23720D03*
Y24508D03*
Y25295D03*
Y26083D03*
Y26870D03*
Y27657D03*
Y28445D03*
X32638Y5610D03*
Y6398D03*
Y7185D03*
Y7972D03*
Y8760D03*
Y9547D03*
Y10335D03*
Y11122D03*
Y11909D03*
Y12697D03*
Y13484D03*
Y14272D03*
Y15059D03*
Y15846D03*
Y16634D03*
Y17421D03*
Y18209D03*
Y18996D03*
Y19783D03*
Y20571D03*
Y21358D03*
Y22146D03*
Y22933D03*
Y23720D03*
Y24508D03*
Y25295D03*
Y26083D03*
Y26870D03*
Y27657D03*
Y28445D03*
G54D70*
X2953Y20413D03*
Y21122D03*
Y21988D03*
Y22697D03*
Y23563D03*
Y24272D03*
X5118Y728D03*
Y1437D03*
Y2303D03*
Y3012D03*
Y3878D03*
Y4587D03*
Y9094D03*
Y9803D03*
Y10669D03*
Y11378D03*
Y12244D03*
Y12953D03*
X10236Y31142D03*
Y31850D03*
X13583Y14311D03*
Y15020D03*
Y15886D03*
Y16594D03*
Y17461D03*
Y18169D03*
Y30059D03*
Y30768D03*
X22244Y2598D03*
Y3307D03*
X25689Y1220D03*
Y1929D03*
X29528Y728D03*
Y1437D03*
Y2303D03*
Y3012D03*
Y3878D03*
Y4587D03*
Y5256D03*
Y5965D03*
Y10079D03*
Y10787D03*
Y14902D03*
Y15610D03*
Y19724D03*
Y20433D03*
Y24646D03*
Y25354D03*
Y29370D03*
Y30079D03*
G54D71*
X31102Y29567D03*
Y30276D03*
X32874Y29567D03*
Y30276D03*
G54D72*
X25098Y5433D03*
Y5807D03*
Y6181D03*
Y10059D03*
Y10433D03*
Y10807D03*
Y14882D03*
Y15256D03*
Y15630D03*
Y19705D03*
Y20079D03*
Y20453D03*
Y24528D03*
Y24902D03*
Y25276D03*
Y29350D03*
Y29724D03*
Y30098D03*
X26083Y5433D03*
Y5807D03*
Y6181D03*
Y10059D03*
Y10433D03*
Y10807D03*
Y14882D03*
Y15256D03*
Y15630D03*
Y19705D03*
Y20079D03*
Y20453D03*
Y24528D03*
Y24902D03*
Y25276D03*
Y29350D03*
Y29724D03*
Y30098D03*
G54D73*
X2008Y25098D03*
X2717D03*
X3484Y28346D03*
X3976Y13681D03*
X4193Y28346D03*
X4685Y13681D03*
X5256Y16929D03*
X5453Y8169D03*
X5551Y30906D03*
X5965Y16929D03*
X6161Y8169D03*
X6260Y30906D03*
X7126D03*
X7835D03*
X8701D03*
X9409D03*
X10571Y9646D03*
X11280D03*
X12047Y12992D03*
X12756D03*
X28386Y13839D03*
Y18602D03*
Y23425D03*
Y28248D03*
Y33071D03*
X28681Y8957D03*
X29094Y13839D03*
Y18602D03*
Y23425D03*
Y28248D03*
Y33071D03*
X29390Y8957D03*
M02*
